<svg xmlns="http://www.w3.org/2000/svg" xmlns:xlink="http://www.w3.org/1999/xlink" width="1537.01" height="900.16"><g transform="translate(0 0)"><path d="M0 0h1537v900.16H0z" fill="#fff"/><path d="M820 490c0 138.07-111.93 250-250 250S320 628.07 320 490s111.93-250 250-250 250 111.93 250 250z" stroke="#ff8f80" stroke-width="2" fill="#ff8f80" fill-opacity=".4"/><path d="M1180 490c0 138.07-111.93 250-250 250S680 628.07 680 490s111.93-250 250-250 250 111.93 250 250z" stroke="#83bbe5" stroke-width="2" fill="#83bbe5" fill-opacity=".4"/><path d="M535 825c0-2.76 2.24-5 5-5h420c2.76 0 5 2.24 5 5v50c0 2.76-2.24 5-5 5H540c-2.76 0-5-2.24-5-5z" fill="none"/><use xlink:href="#a" transform="matrix(1,0,0,1,535,820) translate(40.5 38)"/><use xlink:href="#b" transform="matrix(1,0,0,1,535,820) translate(147.72222222222223 38)"/><use xlink:href="#c" transform="matrix(1,0,0,1,535,820) translate(298.5 38)"/><path d="M900 465c0-2.76 2.24-5 5-5h230c2.76 0 5 2.24 5 5v50c0 2.76-2.24 5-5 5H905c-2.76 0-5-2.24-5-5z" fill="none"/><use xlink:href="#d" transform="matrix(1,0,0,1,900,460.00000000000006) translate(53.44444444444446 38)"/><use xlink:href="#e" transform="matrix(1,0,0,1,900,460.00000000000006) translate(159.88888888888889 38)"/><path d="M320 45c0-2.76 2.24-5 5-5h230c2.76 0 5 2.24 5 5v50c0 2.76-2.24 5-5 5H325c-2.76 0-5-2.24-5-5z" fill="none"/><use xlink:href="#f" transform="matrix(1,0,0,1,320,40) translate(20.555555555555557 38)"/><use xlink:href="#c" transform="matrix(1,0,0,1,320,40) translate(128.44444444444446 38)"/><path d="M360 465c0-2.76 2.24-5 5-5h230c2.76 0 5 2.24 5 5v50c0 2.76-2.24 5-5 5H365c-2.76 0-5-2.24-5-5z" fill="none"/><use xlink:href="#d" transform="matrix(1,0,0,1,360,460.00000000000006) translate(53.44444444444446 38)"/><use xlink:href="#g" transform="matrix(1,0,0,1,360,460.00000000000006) translate(159.88888888888889 38)"/><path d="M940 45c0-2.76 2.24-5 5-5h230c2.76 0 5 2.24 5 5v50c0 2.76-2.24 5-5 5H945c-2.76 0-5-2.24-5-5z" fill="none"/><use xlink:href="#h" transform="matrix(1,0,0,1,940,40) translate(7.277777777777786 38)"/><use xlink:href="#c" transform="matrix(1,0,0,1,940,40) translate(141.72222222222223 38)"/><path d="M620 125c0-2.76 2.24-5 5-5h230c2.76 0 5 2.24 5 5v50c0 2.76-2.24 5-5 5H625c-2.76 0-5-2.24-5-5z" fill="none"/><use xlink:href="#i" transform="matrix(1,0,0,1,620,120) translate(6.8888888888889 38)"/><use xlink:href="#c" transform="matrix(1,0,0,1,620,120) translate(142.1111111111111 38)"/><path d="M454.95 100l.05 2.6.16 2.5.25 2.4.35 2.32.43 2.24.5 2.18.6 2.14.7 2.1.77 2.1.86 2.05 1 2.06 1.07 2.06 1.2 2.1 1.35 2.1 1.5 2.17 1.7 2.23 1.9 2.3 2.18 2.43 2.52 2.55 2.95 2.77 3.53 3.04 4.4 3.48 5.83 4.23 9.3 6.16 34.2 21.5 5.83 4.23 4.4 3.48 3.52 3.04 2.95 2.77 2.5 2.56 2.2 2.43 1.9 2.3 1.7 2.24 1.5 2.16 1.34 2.12 1.2 2.1 1.1 2.06.96 2.07.87 2.06.77 2.08.7 2.12.6 2.14.5 2.18.43 2.24.34 2.32.25 2.4.15 2.5.05 2.6" stroke="#666" stroke-width="4" fill="none"/><path d="M452.96 100.26l-.03-.26h2.03zM570 240l-6.42-13.56 9.2-1.18z" fill="#666"/><path d="M572.03 240.04L570 240l-2.2.02-7.2-15.2 14.65-1.9zm-5.46-11.97l2.6 5.5 1.13-5.98z" fill="#666"/><path d="M770 482.5c0 9.66-8.95 17.5-20 17.5s-20-7.84-20-17.5 8.95-17.5 20-17.5 20 7.84 20 17.5z" fill="none"/><use xlink:href="#j" transform="matrix(1,0,0,1,735,470) translate(15 17.9)"/><path d="M745.6 180l4.4 285" stroke="#666" stroke-width="4" fill="none"/><path d="M743.6 180.04V180h2.28zM750 465l-4.86-14.2 9.27-.14z" fill="#666"/><path d="M752.02 465.25L750 465l-1.64.06-.43.08-5.57-16.3 14.78-.22zm-4.1-12.5l1.98 5.78 1.8-5.82z" fill="#666"/><path d="M454.95 100l.14 6.92.4 6.6.67 6.34.9 6.12 1.13 5.92 1.36 5.77 1.57 5.64 1.8 5.57 2.05 5.48 2.3 5.45 2.54 5.43 2.85 5.45 3.18 5.5 3.54 5.58 3.96 5.7 4.45 5.86 5.05 6.1 5.75 6.38 6.65 6.77 7.8 7.33 9.4 8.1 11.76 9.3 15.93 11.54 27.4 18.1 77.3 49.22 15.9 11.53 11.77 9.3 9.4 8.1 7.8 7.33 6.65 6.77 5.75 6.4 5.04 6.08 4.45 5.86 3.95 5.7 3.55 5.58 3.17 5.5 2.85 5.45 2.56 5.43 2.3 5.45 2.03 5.48 1.8 5.56 1.6 5.63 1.34 5.77 1.13 5.92.9 6.12.67 6.33.42 6.6.14 6.92" stroke="#666" stroke-width="4" fill="none"/><path d="M452.95 100.1v-.1h2.1zM750 465l-5.3-14.03 9.25-.44z" fill="#666"/><path d="M752 465.25l-2-.25-1.64.06-.44.1-6.07-16.06 14.76-.7zm-4.46-12.4l2.15 5.7 1.6-5.9z" fill="#666"/><path d="M1057.84 100l-.05 2.36-.15 2.26-.23 2.18-.3 2.1-.4 2.07-.48 2-.55 2-.64 1.94-.72 1.94-.8 1.93-.92 1.92-1 1.93-1.14 1.95-1.26 2-1.4 2.02-1.6 2.08-1.78 2.16-2.02 2.24-2.33 2.37-2.7 2.53-3.17 2.74-3.82 3.02-4.76 3.46-6.35 4.2-9.93 6-40.82 23.2-6.35 4.2-4.77 3.46-3.82 3.02-3.16 2.74-2.7 2.53-2.32 2.37-2.03 2.24-1.8 2.16-1.57 2.08-1.4 2.03-1.27 2-1.13 1.94-1 1.94-.92 1.93-.8 1.93-.72 1.93-.63 1.94-.55 1.98-.48 2-.4 2.07-.3 2.1-.23 2.18-.15 2.26L930 240" stroke="#666" stroke-width="4" fill="none"/><path d="M1059.82 100.28l-2-.28h2.04zM936.6 226.53L930 240l-2.58-14.78z" fill="#666"/><path d="M939.6 224.94l-7.4 15.1-2.2-.04-2.03.02-3-17.16zm-8.7 8.65l2.7-5.48-3.74-.53z" fill="#666"/><path d="M1057.84 100l-.14 6.64-.4 6.35-.64 6.1-.87 5.9-1.1 5.72-1.3 5.58-1.54 5.47-1.75 5.4-1.97 5.3-2.23 5.3-2.5 5.3-2.76 5.3-3.1 5.36-3.45 5.43-3.87 5.55-4.33 5.72-4.9 5.92-5.58 6.2-6.42 6.55-7.5 7.02-8.95 7.7-11 8.73-14.33 10.4-21.2 14.03-105.4 65.08-14.33 10.4-11.02 8.7-8.94 7.72-7.5 7.03-6.42 6.57-5.58 6.2-4.9 5.9-4.34 5.72-3.86 5.54-3.45 5.43-3.1 5.36-2.78 5.3-2.5 5.3-2.2 5.3-2 5.3-1.74 5.4-1.53 5.47-1.3 5.58-1.1 5.73-.87 5.9-.64 6.1-.4 6.36L750 465" stroke="#666" stroke-width="4" fill="none"/><path d="M1059.84 100.1l-2.1-.1h2.1zM755.34 450.98L750 465l-3.92-14.48z" fill="#666"/><path d="M758.2 449.12l-6.16 16.13L750 465l-1.64.06-.4.08-4.53-16.75zm-7.88 9.42l2.17-5.7-3.77-.18z" fill="#666"/><path d="M751.2 820v-.55l-.04-.54-.06-.53-.07-.53-.1-.53-.13-.52-.15-.53-.17-.54-.2-.53-.24-.55-.26-.56-.3-.57-.34-.6-.38-.6-.44-.63-.5-.65-.55-.68-.65-.7-.73-.76-.87-.8-1-.86-1.14-.9-1.38-1-1.63-1.1-2-1.18-2.4-1.33-3.05-1.5-3.9-1.73-5.16-2.04-7.2-2.5-10.97-3.28-21.28-5.4-67.98-15.9-10.95-3.3-7.2-2.48-5.17-2.04-3.9-1.73-3.03-1.5-2.43-1.34-1.98-1.2-1.63-1.07-1.38-1-1.16-.92-1-.86-.84-.8-.74-.75-.64-.7-.56-.7-.5-.64-.43-.63-.4-.6-.33-.6-.3-.56-.26-.56-.23-.55-.2-.54-.18-.55-.14-.53-.12-.53-.1-.54-.08-.53-.05-.54-.04-.55V740" stroke="#666" stroke-width="4" fill="none"/><path d="M753.5 820h-2.3l1.75-.97zM580.98 750.22l-8.1 4.5L570 740z" fill="#666"/><path d="M570 740l2.9-.03 11.46 10.66-12.92 7.18-3.5-17.84zm4.3 11.64l3.3-1.83-4.46-4.14z" fill="#666"/><path d="M751.2 820l.02-.56.03-.55.06-.55.1-.54.1-.53.12-.53.15-.54.17-.54.2-.55.24-.54.27-.57.3-.6.34-.58.38-.6.44-.64.5-.66.57-.7.64-.7.74-.77.86-.8 1-.87 1.17-.92 1.4-1 1.63-1.1 2-1.2 2.44-1.34 3.06-1.52 3.93-1.74 5.22-2.06 7.3-2.53 11.15-3.35 22.5-5.7 63.24-14.94 11.16-3.35 7.3-2.53 5.22-2.06 3.93-1.74 3.06-1.52 2.44-1.34 2-1.2 1.64-1.1 1.38-1 1.17-.92 1-.86.85-.8.75-.77.65-.73.57-.7.5-.65.43-.63.38-.62.36-.6.3-.57.26-.56.24-.55.2-.56.18-.54.15-.54.1-.53.12-.54.08-.55.05-.54.04-.54V740" stroke="#666" stroke-width="4" fill="none"/><path d="M751.2 820h-2.28l.53-.97zM927.18 754.73l-8.12-4.47L930 740z" fill="#666"/><path d="M930 740l2.04-.02-3.4 17.83-12.95-7.1 11.44-10.76zm-7.56 9.84l3.3 1.8 1.14-5.97z" fill="#666"/><path d="M750 820V500" stroke="#666" stroke-width="4" fill="none"/><path d="M752 820h-4 4zM754.64 514.27h-9.28L750 500z" fill="#666"/><path d="M750 500l1.64-.06.42-.08 5.33 16.4h-14.8l5.38-16.5zm-1.88 12.27h3.76l-1.88-5.8z" fill="#666"/><defs><path d="M63-220v92h138v28H63V0H30v-248h175v28H63" id="k"/><path d="M232-93c-1 65-40 97-104 97C67 4 28-28 28-90v-158h33c8 89-33 224 67 224 102 0 64-133 71-224h33v155" id="l"/><path d="M30 0v-248h33v221h125V0H30" id="m"/><g id="a"><use transform="matrix(0.1111111111111111,0,0,0.1111111111111111,0,0)" xlink:href="#k"/><use transform="matrix(0.1111111111111111,0,0,0.1111111111111111,24.333333333333332,0)" xlink:href="#l"/><use transform="matrix(0.1111111111111111,0,0,0.1111111111111111,53.11111111111111,0)" xlink:href="#m"/><use transform="matrix(0.1111111111111111,0,0,0.1111111111111111,75.33333333333333,0)" xlink:href="#m"/></g><path d="M140-251c81 0 123 46 123 126C263-46 219 4 140 4 59 4 17-45 17-125s42-126 123-126zm0 227c63 0 89-41 89-101s-29-99-89-99c-61 0-89 39-89 99S79-25 140-24" id="n"/><path d="M127-220V0H93v-220H8v-28h204v28h-85" id="o"/><path d="M30 0v-248h187v28H63v79h144v27H63v87h162V0H30" id="p"/><path d="M233-177c-1 41-23 64-60 70L243 0h-38l-65-103H63V0H30v-248c88 3 205-21 203 71zM63-129c60-2 137 13 137-47 0-61-80-42-137-45v92" id="q"/><g id="b"><use transform="matrix(0.1111111111111111,0,0,0.1111111111111111,0,0)" xlink:href="#n"/><use transform="matrix(0.1111111111111111,0,0,0.1111111111111111,31.11111111111111,0)" xlink:href="#l"/><use transform="matrix(0.1111111111111111,0,0,0.1111111111111111,59.888888888888886,0)" xlink:href="#o"/><use transform="matrix(0.1111111111111111,0,0,0.1111111111111111,84.22222222222221,0)" xlink:href="#p"/><use transform="matrix(0.1111111111111111,0,0,0.1111111111111111,110.88888888888889,0)" xlink:href="#q"/></g><path d="M153-248C145-148 188 4 80 4 36 3 13-21 6-62l32-5c4 25 16 42 43 43 27 0 39-20 39-49v-147H72v-28h81" id="r"/><path d="M33 0v-248h34V0H33" id="s"/><path d="M190 0L58-211 59 0H30v-248h39L202-35l-2-213h31V0h-41" id="t"/><g id="c"><use transform="matrix(0.1111111111111111,0,0,0.1111111111111111,0,0)" xlink:href="#r"/><use transform="matrix(0.1111111111111111,0,0,0.1111111111111111,20,0)" xlink:href="#n"/><use transform="matrix(0.1111111111111111,0,0,0.1111111111111111,51.111111111111114,0)" xlink:href="#s"/><use transform="matrix(0.1111111111111111,0,0,0.1111111111111111,62.22222222222223,0)" xlink:href="#t"/></g><path d="M141-36C126-15 110 5 73 4 37 3 15-17 15-53c-1-64 63-63 125-63 3-35-9-54-41-54-24 1-41 7-42 31l-33-3c5-37 33-52 76-52 45 0 72 20 72 64v82c-1 20 7 32 28 27v20c-31 9-61-2-59-35zM48-53c0 20 12 33 32 33 41-3 63-29 60-74-43 2-92-5-92 41" id="u"/><path d="M115-194c53 0 69 39 70 98 0 66-23 100-70 100C84 3 66-7 56-30L54 0H23l1-261h32v101c10-23 28-34 59-34zm-8 174c40 0 45-34 45-75 0-40-5-75-45-74-42 0-51 32-51 76 0 43 10 73 51 73" id="v"/><path d="M24 0v-261h32V0H24" id="w"/><path d="M100-194c63 0 86 42 84 106H49c0 40 14 67 53 68 26 1 43-12 49-29l28 8c-11 28-37 45-77 45C44 4 14-33 15-96c1-61 26-98 85-98zm52 81c6-60-76-77-97-28-3 7-6 17-6 28h103" id="x"/><g id="d"><use transform="matrix(0.1111111111111111,0,0,0.1111111111111111,0,0)" xlink:href="#o"/><use transform="matrix(0.1111111111111111,0,0,0.1111111111111111,19.888888888888886,0)" xlink:href="#u"/><use transform="matrix(0.1111111111111111,0,0,0.1111111111111111,42.11111111111111,0)" xlink:href="#v"/><use transform="matrix(0.1111111111111111,0,0,0.1111111111111111,64.33333333333333,0)" xlink:href="#w"/><use transform="matrix(0.1111111111111111,0,0,0.1111111111111111,73.1111111111111,0)" xlink:href="#x"/></g><path d="M160-131c35 5 61 23 61 61C221 17 115-2 30 0v-248c76 3 177-17 177 60 0 33-19 50-47 57zm-97-11c50-1 110 9 110-42 0-47-63-36-110-37v79zm0 115c55-2 124 14 124-45 0-56-70-42-124-44v89" id="y"/><use transform="matrix(0.1111111111111111,0,0,0.1111111111111111,0,0)" xlink:href="#y" id="e"/><g id="f"><use transform="matrix(0.1111111111111111,0,0,0.1111111111111111,0,0)" xlink:href="#m"/><use transform="matrix(0.1111111111111111,0,0,0.1111111111111111,22.22222222222222,0)" xlink:href="#p"/><use transform="matrix(0.1111111111111111,0,0,0.1111111111111111,48.888888888888886,0)" xlink:href="#k"/><use transform="matrix(0.1111111111111111,0,0,0.1111111111111111,73.22222222222221,0)" xlink:href="#o"/></g><path d="M205 0l-28-72H64L36 0H1l101-248h38L239 0h-34zm-38-99l-47-123c-12 45-31 82-46 123h93" id="z"/><use transform="matrix(0.1111111111111111,0,0,0.1111111111111111,0,0)" xlink:href="#z" id="g"/><path d="M143 4C61 4 22-44 18-125c-5-107 100-154 193-111 17 8 29 25 37 43l-32 9c-13-25-37-40-76-40-61 0-88 39-88 99 0 61 29 100 91 101 35 0 62-11 79-27v-45h-74v-28h105v86C228-13 192 4 143 4" id="A"/><path d="M197 0v-115H63V0H30v-248h33v105h134v-105h34V0h-34" id="B"/><g id="h"><use transform="matrix(0.1111111111111111,0,0,0.1111111111111111,0,0)" xlink:href="#q"/><use transform="matrix(0.1111111111111111,0,0,0.1111111111111111,28.777777777777775,0)" xlink:href="#s"/><use transform="matrix(0.1111111111111111,0,0,0.1111111111111111,39.888888888888886,0)" xlink:href="#A"/><use transform="matrix(0.1111111111111111,0,0,0.1111111111111111,71,0)" xlink:href="#B"/><use transform="matrix(0.1111111111111111,0,0,0.1111111111111111,99.77777777777777,0)" xlink:href="#o"/></g><g id="i"><use transform="matrix(0.1111111111111111,0,0,0.1111111111111111,0,0)" xlink:href="#s"/><use transform="matrix(0.1111111111111111,0,0,0.1111111111111111,11.11111111111111,0)" xlink:href="#t"/><use transform="matrix(0.1111111111111111,0,0,0.1111111111111111,39.888888888888886,0)" xlink:href="#t"/><use transform="matrix(0.1111111111111111,0,0,0.1111111111111111,68.66666666666666,0)" xlink:href="#p"/><use transform="matrix(0.1111111111111111,0,0,0.1111111111111111,95.33333333333331,0)" xlink:href="#q"/></g></defs></g></svg>