<svg xmlns="http://www.w3.org/2000/svg" xmlns:xlink="http://www.w3.org/1999/xlink" width="942" height="960"><g transform="translate(-38 -40)"><path d="M0 0h1323.2v1870.4H0z" fill="#fff"/><path d="M58 65c0-2.76 2.24-5 5-5h330c2.76 0 5 2.24 5 5v910c0 2.76-2.24 5-5 5H63c-2.76 0-5-2.24-5-5z" stroke="#999" stroke-width="2" fill="#fff"/><use xlink:href="#a" transform="matrix(1,0,0,1,58,60) translate(7.01 26.343333333333334)"/><path d="M498 65c0-2.76 2.24-5 5-5h452c2.76 0 5 2.24 5 5v910c0 2.76-2.24 5-5 5H503c-2.76 0-5-2.24-5-5z" stroke="#999" stroke-width="2" fill="#fff"/><use xlink:href="#b" transform="matrix(1,0,0,1,498,60) translate(7.01 26.343333333333334)"/><path d="M562 725c0-2.76 2.24-5 5-5h348.08c2.76 0 5 2.24 5 5v30c0 2.76-2.24 5-5 5H567c-2.76 0-5-2.24-5-5z" stroke="#000" stroke-width="2" fill="#fff"/><use xlink:href="#c" transform="matrix(1,0,0,1,562,720) translate(108.03 24.4)"/><use xlink:href="#d" transform="matrix(1,0,0,1,562,720) translate(166.03 24.4)"/><path d="M562 445c0-2.76 2.24-5 5-5h348.08c2.76 0 5 2.24 5 5v70c0 2.76-2.24 5-5 5H567c-2.76 0-5-2.24-5-5z" stroke="#000" stroke-width="2" fill="#fff"/><use xlink:href="#e" transform="matrix(1,0,0,1,562,440) translate(5.01 26.896484375)"/><use xlink:href="#f" transform="matrix(1,0,0,1,562,440) translate(80.6223046875 26.896484375)"/><use xlink:href="#g" transform="matrix(1,0,0,1,562,440) translate(5.01 44.896484375)"/><use xlink:href="#h" transform="matrix(1,0,0,1,562,440) translate(5.01 62.896484375)"/><path d="M562 565c0-2.76 2.24-5 5-5h348.08c2.76 0 5 2.24 5 5v30c0 2.76-2.24 5-5 5H567c-2.76 0-5-2.24-5-5z" stroke="#000" stroke-width="2" fill="#fff"/><use xlink:href="#i" transform="matrix(1,0,0,1,562,560) translate(5.01 24.396484375)"/><use xlink:href="#j" transform="matrix(1,0,0,1,562,560) translate(199.441640625 24.396484375)"/><path d="M560 285c0-2.76 2.24-5 5-5h350c2.76 0 5 2.24 5 5v30c0 2.76-2.24 5-5 5H565c-2.76 0-5-2.24-5-5z" stroke="#000" stroke-width="2" fill="#fff"/><use xlink:href="#k" transform="matrix(1,0,0,1,560,280) translate(96.13 24.4)"/><use xlink:href="#d" transform="matrix(1,0,0,1,560,280) translate(179.93 24.4)"/><path d="M562 645c0-2.76 2.24-5 5-5h348.08c2.76 0 5 2.24 5 5v30c0 2.76-2.24 5-5 5H567c-2.76 0-5-2.24-5-5z" stroke="#000" stroke-width="2" fill="#fff"/><use xlink:href="#k" transform="matrix(1,0,0,1,562,640) translate(95.13 24.4)"/><use xlink:href="#d" transform="matrix(1,0,0,1,562,640) translate(178.93 24.4)"/><path d="M560 205c0-2.76 2.24-5 5-5h350c2.76 0 5 2.24 5 5v30c0 2.76-2.24 5-5 5H565c-2.76 0-5-2.24-5-5z" stroke="#000" stroke-width="2" fill="#fff"/><use xlink:href="#l" transform="matrix(1,0,0,1,560,200) translate(5.01 24.396484375)"/><path d="M562 805c0-2.76 2.24-5 5-5h348.08c2.76 0 5 2.24 5 5v30c0 2.76-2.24 5-5 5H567c-2.76 0-5-2.24-5-5z" stroke="#000" stroke-width="2" fill="#fff"/><use xlink:href="#l" transform="matrix(1,0,0,1,562,800) translate(5.01 24.396484375)"/><path d="M562 885c0-2.76 2.24-5 5-5h348.08c2.76 0 5 2.24 5 5v30c0 2.76-2.24 5-5 5H567c-2.76 0-5-2.24-5-5z" stroke="#000" stroke-width="2" fill="#fff"/><use xlink:href="#k" transform="matrix(1,0,0,1,562,880) translate(95.13 24.4)"/><use xlink:href="#d" transform="matrix(1,0,0,1,562,880) translate(178.93 24.4)"/><path d="M561.92 365c0-2.76 2.24-5 5-5H915c2.76 0 5 2.24 5 5v30c0 2.76-2.24 5-5 5H566.92c-2.76 0-5-2.24-5-5z" stroke="#000" stroke-width="2" fill="#fff"/><use xlink:href="#c" transform="matrix(1,0,0,1,561.9199999999998,360) translate(108.03 24.4)"/><use xlink:href="#d" transform="matrix(1,0,0,1,561.9199999999998,360) translate(166.03 24.4)"/><path d="M560 125c0-2.76 2.24-5 5-5h350c2.76 0 5 2.24 5 5v30c0 2.76-2.24 5-5 5H565c-2.76 0-5-2.24-5-5z" stroke="#000" stroke-width="2" fill="#fff"/><use xlink:href="#c" transform="matrix(1,0,0,1,560,120) translate(109.03 24.4)"/><use xlink:href="#d" transform="matrix(1,0,0,1,560,120) translate(167.03 24.4)"/><path d="M100 365c0-2.76 2.24-5 5-5h130c2.76 0 5 2.24 5 5v30c0 2.76-2.24 5-5 5H105c-2.76 0-5-2.24-5-5z" stroke="#000" stroke-width="2" fill="#fff"/><use xlink:href="#m" transform="matrix(1,0,0,1,100,360) translate(18.62999999999999 24.4)"/><use xlink:href="#n" transform="matrix(1,0,0,1,100,360) translate(79.53 24.4)"/><path d="M100 285c0-2.76 2.24-5 5-5h130c2.76 0 5 2.24 5 5v30c0 2.76-2.24 5-5 5H105c-2.76 0-5-2.24-5-5z" stroke="#000" stroke-width="2" fill="#fff"/><use xlink:href="#o" transform="matrix(1,0,0,1,100,280) translate(17.07999999999999 24.4)"/><use xlink:href="#p" transform="matrix(1,0,0,1,100,280) translate(80.93 24.4)"/><path d="M100 645c0-2.76 2.24-5 5-5h130c2.76 0 5 2.24 5 5v30c0 2.76-2.24 5-5 5H105c-2.76 0-5-2.24-5-5z" stroke="#000" stroke-width="2" fill="#fff"/><use xlink:href="#q" transform="matrix(1,0,0,1,100,640) translate(36.57999999999999 24.4)"/><path d="M100 125c0-2.76 2.24-5 5-5h130c2.76 0 5 2.24 5 5v30c0 2.76-2.24 5-5 5H105c-2.76 0-5-2.24-5-5z" stroke="#000" stroke-width="2" fill="#fff"/><use xlink:href="#r" transform="matrix(1,0,0,1,100,120) translate(29.555 24.4)"/><use xlink:href="#s" transform="matrix(1,0,0,1,100,120) translate(74.555 24.4)"/><path d="M100 885c0-2.76 2.24-5 5-5h130c2.76 0 5 2.24 5 5v30c0 2.76-2.24 5-5 5H105c-2.76 0-5-2.24-5-5z" stroke="#000" stroke-width="2" fill="#fff"/><use xlink:href="#o" transform="matrix(1,0,0,1,100,880) translate(17.07999999999999 24.4)"/><use xlink:href="#p" transform="matrix(1,0,0,1,100,880) translate(80.93 24.4)"/><path d="M240 140h318.2" stroke="#000" stroke-width="2" fill="none"/><path d="M558.2 140l-14.27 4.64v-9.28z"/><path d="M560 139.53v.94L542.93 146v-12zm-15.07 3.73l10.03-3.26-10.03-3.26z"/><path fill="#fff" d="M351.77 129.2h135.56v21.6H351.77z"/><use xlink:href="#t" transform="matrix(1,0,0,1,351.77358934169285,129.2) translate(0 14.4)"/><use xlink:href="#u" transform="matrix(1,0,0,1,351.77358934169285,129.2) translate(5 14.4)"/><use xlink:href="#v" transform="matrix(1,0,0,1,351.77358934169285,129.2) translate(46.6 14.4)"/><path d="M740 160v39" stroke="#000" stroke-width="2" fill="none"/><path d="M740 199l-4.64-14.27h9.28z"/><path d="M740.73 200h-1.46L734 183.73h12zm-4-14.27l3.27 10.03 3.26-10.03z"/><path d="M740 240v40" stroke="#000" stroke-width="2" fill="none"/><path d="M740 280l-4.64-14.27h9.28z"/><path d="M741.05 280h-2.1L734 264.73h12zm-4.3-13.27l3.25 10.03 3.26-10.03z"/><path d="M560 300H240" stroke="#000" stroke-width="2" fill="none"/><path d="M254.27 304.64L240 300l14.27-4.64z"/><path d="M255.27 306L240 301.06v-2.1l15.27-4.96zm-12.03-6l10.03 3.26v-6.52z"/><path fill="#fff" d="M309.13 289.2H490.9v21.6H309.12z"/><use xlink:href="#t" transform="matrix(1,0,0,1,309.125,289.2) translate(0 14.4)"/><use xlink:href="#w" transform="matrix(1,0,0,1,309.125,289.2) translate(5 14.4)"/><use xlink:href="#x" transform="matrix(1,0,0,1,309.125,289.2) translate(112.35000000000001 14.4)"/><use xlink:href="#y" transform="matrix(1,0,0,1,309.125,289.2) translate(176.75 14.4)"/><path d="M170 320v39" stroke="#000" stroke-width="2" fill="none"/><path d="M170 359l-4.64-14.27h9.28z"/><path d="M170.73 360h-1.46L164 343.73h12zm-4-14.27l3.27 10.03 3.26-10.03z"/><path d="M240 380h320.13" stroke="#000" stroke-width="2" fill="none"/><path d="M560.13 380l-14.27 4.64v-9.28z"/><path d="M561.92 379.53v.94L544.86 386v-12zm-15.06 3.73L556.9 380l-10.04-3.26z"/><path fill="#fff" d="M355.24 358.4H492.8v43.2H355.24z"/><use xlink:href="#z" transform="matrix(1,0,0,1,355.2374158096642,358.4) translate(0 14.4)"/><use xlink:href="#A" transform="matrix(1,0,0,1,355.2374158096642,358.4) translate(53.6 14.4)"/><use xlink:href="#B" transform="matrix(1,0,0,1,355.2374158096642,358.4) translate(0 36)"/><path d="M740.96 400v19.96c0 .02.02.04.04.04s.04.02.04.04V440" stroke="#000" stroke-width="2" fill="none"/><path d="M741.04 440l-4.64-14.27h9.28z"/><path d="M742.1 440H740l-4.97-15.27h12.02zm-4.32-13.27l3.26 10.03 3.26-10.03z"/><path d="M741.04 520v18.9c0 .33-.27.6-.6.6-.33 0-.6.27-.6.6V559" stroke="#000" stroke-width="2" fill="none"/><path d="M739.84 559l-4.64-14.27h9.27z"/><path d="M740.56 560h-1.45l-5.27-16.27h12.02zm-3.98-14.27l3.26 10.03 3.26-10.03z"/><path d="M741.04 600v39" stroke="#000" stroke-width="2" fill="none"/><path d="M741.04 639l-4.64-14.27h9.28z"/><path d="M741.77 640h-1.46l-5.27-16.27h12.02zm-4-14.27l3.27 10.03 3.26-10.03z"/><path d="M562 660H240" stroke="#000" stroke-width="2" fill="none"/><path d="M254.27 664.64L240 660l14.27-4.64z"/><path d="M255.27 666L240 661.06v-2.1l15.27-4.96zm-12.03-6l10.03 3.26v-6.52z"/><path fill="#fff" d="M348.72 649.2h171.9v21.6h-171.9z"/><g><use xlink:href="#t" transform="matrix(1,0,0,1,348.7166666666667,649.2) translate(0 14.4)"/><use xlink:href="#C" transform="matrix(1,0,0,1,348.7166666666667,649.2) translate(5 14.4)"/><use xlink:href="#D" transform="matrix(1,0,0,1,348.7166666666667,649.2) translate(82.95 14.4)"/></g><path d="M741.04 760v40" stroke="#000" stroke-width="2" fill="none"/><path d="M741.04 800l-4.64-14.27h9.28z"/><path d="M742.1 800H740l-4.97-15.27h12.02zm-4.32-13.27l3.26 10.03 3.26-10.03z"/><path d="M741.04 840v39" stroke="#000" stroke-width="2" fill="none"/><path d="M741.04 879l-4.64-14.27h9.28z"/><path d="M741.77 880h-1.46l-5.27-16.27h12.02zm-4-14.27l3.27 10.03 3.26-10.03z"/><path d="M562 900H240" stroke="#000" stroke-width="2" fill="none"/><path d="M254.27 904.64L240 900l14.27-4.64z"/><path d="M255.27 906L240 901.06v-2.1l15.27-4.96zm-12.03-6l10.03 3.26v-6.52z"/><path fill="#fff" d="M342.93 889.2H504.7v21.6H342.92z"/><g><use xlink:href="#t" transform="matrix(1,0,0,1,342.9333333333334,889.2) translate(0 14.4)"/><use xlink:href="#w" transform="matrix(1,0,0,1,342.9333333333334,889.2) translate(5 14.4)"/><use xlink:href="#E" transform="matrix(1,0,0,1,342.9333333333334,889.2) translate(112.35000000000001 14.4)"/></g><path d="M170 680v55c0 2.76 2.24 5 5 5h387" stroke="#000" stroke-width="2" fill="none"/><path d="M562 740l-14.27 4.64v-9.28z"/><path d="M562 738.95v2.1L546.73 746v-12zm-13.27 4.3l10.03-3.25-10.03-3.26z"/><path fill="#fff" d="M362.98 729.2h135.56v21.6H362.98z"/><g><use xlink:href="#t" transform="matrix(1,0,0,1,362.9775925925925,729.2) translate(0 14.4)"/><use xlink:href="#u" transform="matrix(1,0,0,1,362.9775925925925,729.2) translate(5 14.4)"/><use xlink:href="#D" transform="matrix(1,0,0,1,362.9775925925925,729.2) translate(46.6 14.4)"/></g><defs><path d="M212-179c-10-28-35-45-73-45-59 0-87 40-87 99 0 60 29 101 89 101 43 0 62-24 78-52l27 14C228-24 195 4 139 4 59 4 22-46 18-125c-6-104 99-153 187-111 19 9 31 26 39 46" id="F"/><path d="M24 0v-261h32V0H24" id="G"/><path d="M24-231v-30h32v30H24zM24 0v-190h32V0H24" id="H"/><path d="M100-194c63 0 86 42 84 106H49c0 40 14 67 53 68 26 1 43-12 49-29l28 8c-11 28-37 45-77 45C44 4 14-33 15-96c1-61 26-98 85-98zm52 81c6-60-76-77-97-28-3 7-6 17-6 28h103" id="I"/><path d="M117-194c89-4 53 116 60 194h-32v-121c0-31-8-49-39-48C34-167 62-67 57 0H25l-1-190h30c1 10-1 24 2 32 11-22 29-35 61-36" id="J"/><path d="M59-47c-2 24 18 29 38 22v24C64 9 27 4 27-40v-127H5v-23h24l9-43h21v43h35v23H59v120" id="K"/><g id="a"><use transform="matrix(0.07407407407407408,0,0,0.07407407407407408,0,0)" xlink:href="#F"/><use transform="matrix(0.07407407407407408,0,0,0.07407407407407408,19.185185185185187,0)" xlink:href="#G"/><use transform="matrix(0.07407407407407408,0,0,0.07407407407407408,25.037037037037035,0)" xlink:href="#H"/><use transform="matrix(0.07407407407407408,0,0,0.07407407407407408,30.888888888888893,0)" xlink:href="#I"/><use transform="matrix(0.07407407407407408,0,0,0.07407407407407408,45.70370370370371,0)" xlink:href="#J"/><use transform="matrix(0.07407407407407408,0,0,0.07407407407407408,60.518518518518526,0)" xlink:href="#K"/></g><path d="M185-189c-5-48-123-54-124 2 14 75 158 14 163 119 3 78-121 87-175 55-17-10-28-26-33-46l33-7c5 56 141 63 141-1 0-78-155-14-162-118-5-82 145-84 179-34 5 7 8 16 11 25" id="L"/><path d="M114-163C36-179 61-72 57 0H25l-1-190h30c1 12-1 29 2 39 6-27 23-49 58-41v29" id="M"/><path d="M108 0H70L1-190h34L89-25l56-165h34" id="N"/><g id="b"><use transform="matrix(0.07407407407407408,0,0,0.07407407407407408,0,0)" xlink:href="#L"/><use transform="matrix(0.07407407407407408,0,0,0.07407407407407408,17.77777777777778,0)" xlink:href="#I"/><use transform="matrix(0.07407407407407408,0,0,0.07407407407407408,32.592592592592595,0)" xlink:href="#M"/><use transform="matrix(0.07407407407407408,0,0,0.07407407407407408,41.40740740740741,0)" xlink:href="#N"/><use transform="matrix(0.07407407407407408,0,0,0.07407407407407408,54.74074074074075,0)" xlink:href="#I"/><use transform="matrix(0.07407407407407408,0,0,0.07407407407407408,69.55555555555557,0)" xlink:href="#M"/></g><path d="M33 0v-248h34V0H33" id="O"/><path d="M100-194c62-1 85 37 85 99 1 63-27 99-86 99S16-35 15-95c0-66 28-99 85-99zM99-20c44 1 53-31 53-75 0-43-8-75-51-75s-53 32-53 75 10 74 51 75" id="P"/><path d="M143 0L79-87 56-68V0H24v-261h32v163l83-92h37l-77 82L181 0h-38" id="Q"/><g id="c"><use transform="matrix(0.05,0,0,0.05,0,0)" xlink:href="#O"/><use transform="matrix(0.05,0,0,0.05,5,0)" xlink:href="#J"/><use transform="matrix(0.05,0,0,0.05,15,0)" xlink:href="#N"/><use transform="matrix(0.05,0,0,0.05,24,0)" xlink:href="#P"/><use transform="matrix(0.05,0,0,0.05,34,0)" xlink:href="#Q"/><use transform="matrix(0.05,0,0,0.05,43,0)" xlink:href="#I"/></g><path d="M85-194c31 0 48 13 60 33l-1-100h32l1 261h-30c-2-10 0-23-3-31C134-8 116 4 85 4 32 4 16-35 15-94c0-66 23-100 70-100zm9 24c-40 0-46 34-46 75 0 40 6 74 45 74 42 0 51-32 51-76 0-42-9-74-50-73" id="R"/><path d="M33 0v-38h34V0H33" id="S"/><path d="M115-194c55 1 70 41 70 98S169 2 115 4C84 4 66-9 55-30l1 105H24l-1-265h31l2 30c10-21 28-34 59-34zm-8 174c40 0 45-34 45-75s-6-73-45-74c-42 0-51 32-51 76 0 43 10 73 51 73" id="T"/><path d="M106-169C34-169 62-67 57 0H25v-261h32l-1 103c12-21 28-36 61-36 89 0 53 116 60 194h-32v-121c2-32-8-49-39-48" id="U"/><g id="d"><use transform="matrix(0.05,0,0,0.05,0,0)" xlink:href="#R"/><use transform="matrix(0.05,0,0,0.05,10,0)" xlink:href="#I"/><use transform="matrix(0.05,0,0,0.05,20,0)" xlink:href="#G"/><use transform="matrix(0.05,0,0,0.05,23.95,0)" xlink:href="#I"/><use transform="matrix(0.05,0,0,0.05,33.95,0)" xlink:href="#K"/><use transform="matrix(0.05,0,0,0.05,38.95,0)" xlink:href="#I"/><use transform="matrix(0.05,0,0,0.05,48.95,0)" xlink:href="#S"/><use transform="matrix(0.05,0,0,0.05,53.95,0)" xlink:href="#T"/><use transform="matrix(0.05,0,0,0.05,63.95,0)" xlink:href="#U"/><use transform="matrix(0.05,0,0,0.05,73.95,0)" xlink:href="#T"/></g><path d="M558-647c-214-53-428-110-428-376 0-239 192-311 428-323v-130h128v130c251 5 384 114 433 321l-174 33c-27-133-107-212-259-221v426c233 57 464 118 464 407 0 258-203 345-464 360v161H558V-20C281-27 115-149 66-379l170-37c31 161 136 250 322 258v-489zm0-568c-146 8-256 54-256 197 0 156 132 181 256 216v-413zM686-156c160-12 292-63 292-227 0-177-151-205-292-244v471" id="V"/><path d="M873-819c-18-114-119-146-250-146-163 0-245 50-245 151 0 151 170 148 294 185 182 54 388 94 388 320 0 240-189 325-439 329-245 4-410-69-454-268l159-31c24 133 136 168 295 165 144-2 270-31 270-171 0-164-195-160-331-202-167-52-350-87-350-299 0-218 173-315 413-313 220 2 373 77 412 260" id="W"/><path d="M682 16c-209 0-323-80-324-285v-671H190v-142h170l58-282h120v282h432v142H538v652c2 114 60 155 182 155 106 0 209-16 297-34v137C921-4 806 16 682 16" id="X"/><path d="M904-1102c199 0 220 177 220 381V0H956v-686c-3-114 0-215-60-264-70-33-125-4-158 71-26 56-39 140-39 252V0H531v-686c-3-114-1-215-61-264-78-41-136 24-157 84-24 69-39 159-39 259V0H105c-3-360 6-732-6-1082h149c6 50 3 123 8 175 36-100 83-195 216-195 135 0 166 79 196 196 42-105 93-196 236-196" id="Y"/><g id="e"><use transform="matrix(0.0087890625,0,0,0.0087890625,0,0)" xlink:href="#V"/><use transform="matrix(0.0087890625,0,0,0.0087890625,10.8017578125,0)" xlink:href="#W"/><use transform="matrix(0.0087890625,0,0,0.0087890625,21.603515625,0)" xlink:href="#X"/><use transform="matrix(0.0087890625,0,0,0.0087890625,32.4052734375,0)" xlink:href="#Y"/><use transform="matrix(0.0087890625,0,0,0.0087890625,43.20703125,0)" xlink:href="#X"/></g><path d="M116-856v-148h995v148H116zm0 512v-148h995v148H116" id="Z"/><use transform="matrix(0.0087890625,0,0,0.0087890625,0,0)" xlink:href="#Z" id="f"/><path d="M865-914c-3-187-2-380-2-570h180v1261c0 76 1 155 6 223H877c-8-49-9-116-10-174h-5C801-44 708 26 530 26c-135 0-234-46-297-139s-95-232-95-419c0-377 131-566 392-566 176 0 271 63 335 184zm-286-51c-222 0-255 197-255 427 0 229 31 425 253 425 237 0 286-195 286-441 0-238-52-411-284-411" id="aa"/><path d="M365-904c58-129 161-200 334-200 130 0 228 46 293 138s98 233 98 420c0 189-34 331-102 425S824 20 698 20c-170 0-275-64-336-184 0 55-3 116-9 164H179c5-68 6-147 6-223v-1261h180c-2 193 4 394-4 580h4zm283 791c221 0 256-197 256-427 0-229-34-425-254-425-236 0-285 195-285 441 0 237 53 411 283 411" id="ab"/><path d="M334-464v-160h560v160H334" id="ac"/><path d="M116-154v-153l858-367-858-366v-154l995 418v205" id="ad"/><path d="M698-1104c312 3 392 244 392 558 0 315-82 566-392 566-169 0-277-65-331-184h-5c8 188 2 394 4 589H185V-858c0-76-1-156-6-224h175c6 52 9 120 10 178h4c58-122 150-202 330-200zm-49 991c225 0 255-203 255-433 0-225-32-419-253-419-236 0-285 192-285 441 0 237 53 411 283 411" id="ae"/><path d="M839-1102c70 0 148 7 206 17v167c-112-18-268-36-363 15-129 69-208 203-208 395V0H294c-10-367 32-789-52-1082h171c21 75 41 161 48 250h5c67-152 152-270 373-270" id="af"/><path d="M617-1102c355 0 481 238 477 599H322c5 222 84 388 301 388 144 0 244-59 284-166l158 45C1002-72 854 20 623 20c-342 0-490-220-490-568 0-346 151-554 484-554zm291 461c-18-192-90-328-289-328-194 0-287 128-295 328h584" id="ag"/><path d="M1000-272c3 95 12 159 101 161 21 0 41-3 59-7V-6c-44 10-86 16-139 16-141 2-191-84-197-217h-6C748-76 648 20 446 20c-207 0-318-120-318-322 0-266 194-348 454-354l236-4c12-191-40-305-222-305-140 0-220 47-232 172l-188-17c33-204 181-292 423-292 255 0 401 118 401 364v466zm-683-27c0 109 63 184 175 182 166-3 259-96 306-217 24-65 20-120 20-200-232 7-501-28-501 235" id="ah"/><path d="M891-1484c-201 251-362 514-362 954 0 441 161 704 362 955H701C500 176 342-90 342-532c0-440 159-704 359-952h190" id="ai"/><path d="M684-845H543l-41-639h224" id="aj"/><path d="M473-1349c438-1 655 221 652 661C1122-268 945-8 532 0H162v-1349h311zm42 1193c308-4 416-205 418-532 2-330-131-509-459-505H353v1037h162" id="ak"/><path d="M162 0v-1349h919v156H353v422h668v154H353v461h769V0H162" id="al"/><path d="M237 0v-1349h191v1193h672V0H237" id="am"/><path d="M709-1193V0H519v-1193H76v-156h1076v156H709" id="an"/><path d="M496 0v-299h235V0H496" id="ao"/><path d="M528-1484c201 248 357 511 357 952 0 442-156 709-357 957H336C537 174 700-89 700-530c0-440-163-703-364-954h192" id="ap"/><path d="M496-783v-299h235v299H496zM352 363l169-662h265L475 363H352" id="aq"/><g id="g"><use transform="matrix(0.0087890625,0,0,0.0087890625,0,0)" xlink:href="#V"/><use transform="matrix(0.0087890625,0,0,0.0087890625,10.8017578125,0)" xlink:href="#aa"/><use transform="matrix(0.0087890625,0,0,0.0087890625,21.603515625,0)" xlink:href="#ab"/><use transform="matrix(0.0087890625,0,0,0.0087890625,32.4052734375,0)" xlink:href="#ac"/><use transform="matrix(0.0087890625,0,0,0.0087890625,43.20703125,0)" xlink:href="#ad"/><use transform="matrix(0.0087890625,0,0,0.0087890625,54.0087890625,0)" xlink:href="#ae"/><use transform="matrix(0.0087890625,0,0,0.0087890625,64.810546875,0)" xlink:href="#af"/><use transform="matrix(0.0087890625,0,0,0.0087890625,75.6123046875,0)" xlink:href="#ag"/><use transform="matrix(0.0087890625,0,0,0.0087890625,86.4140625,0)" xlink:href="#ae"/><use transform="matrix(0.0087890625,0,0,0.0087890625,97.2158203125,0)" xlink:href="#ah"/><use transform="matrix(0.0087890625,0,0,0.0087890625,108.017578125,0)" xlink:href="#af"/><use transform="matrix(0.0087890625,0,0,0.0087890625,118.8193359375,0)" xlink:href="#ag"/><use transform="matrix(0.0087890625,0,0,0.0087890625,129.62109375,0)" xlink:href="#ai"/><use transform="matrix(0.0087890625,0,0,0.0087890625,140.4228515625,0)" xlink:href="#aj"/><use transform="matrix(0.0087890625,0,0,0.0087890625,151.224609375,0)" xlink:href="#ak"/><use transform="matrix(0.0087890625,0,0,0.0087890625,162.0263671875,0)" xlink:href="#al"/><use transform="matrix(0.0087890625,0,0,0.0087890625,172.828125,0)" xlink:href="#am"/><use transform="matrix(0.0087890625,0,0,0.0087890625,183.6298828125,0)" xlink:href="#al"/><use transform="matrix(0.0087890625,0,0,0.0087890625,194.431640625,0)" xlink:href="#an"/><use transform="matrix(0.0087890625,0,0,0.0087890625,205.2333984375,0)" xlink:href="#al"/><use transform="matrix(0.0087890625,0,0,0.0087890625,216.03515625,0)" xlink:href="#ao"/><use transform="matrix(0.0087890625,0,0,0.0087890625,226.8369140625,0)" xlink:href="#ao"/><use transform="matrix(0.0087890625,0,0,0.0087890625,237.638671875,0)" xlink:href="#ao"/><use transform="matrix(0.0087890625,0,0,0.0087890625,248.4404296875,0)" xlink:href="#ap"/><use transform="matrix(0.0087890625,0,0,0.0087890625,259.2421875,0)" xlink:href="#aq"/></g><path d="M932 0L611-444 288 0H94l415-556-397-526h199l300 421 298-421h201L713-558 1133 0H932" id="ar"/><path d="M631 20c-350 0-501-215-501-562 0-355 162-560 502-560 250 0 399 118 446 323l-192 14c-23-124-109-196-262-196-242 0-305 171-305 415 1 245 61 427 304 427 151 0 248-77 267-215l190 12C1039-107 883 20 631 20" id="as"/><path d="M528 20c-247 0-343-132-343-381v-721h180v686c-4 177 45 284 224 277 194-8 279-136 279-336v-627h181c3 360-6 732 6 1082H885c-4-54-7-126-8-185h-3C809-64 714 20 528 20" id="at"/><g id="h"><use transform="matrix(0.0087890625,0,0,0.0087890625,0,0)" xlink:href="#V"/><use transform="matrix(0.0087890625,0,0,0.0087890625,10.8017578125,0)" xlink:href="#W"/><use transform="matrix(0.0087890625,0,0,0.0087890625,21.603515625,0)" xlink:href="#X"/><use transform="matrix(0.0087890625,0,0,0.0087890625,32.4052734375,0)" xlink:href="#Y"/><use transform="matrix(0.0087890625,0,0,0.0087890625,43.20703125,0)" xlink:href="#X"/><use transform="matrix(0.0087890625,0,0,0.0087890625,54.0087890625,0)" xlink:href="#ac"/><use transform="matrix(0.0087890625,0,0,0.0087890625,64.810546875,0)" xlink:href="#ad"/><use transform="matrix(0.0087890625,0,0,0.0087890625,75.6123046875,0)" xlink:href="#ag"/><use transform="matrix(0.0087890625,0,0,0.0087890625,86.4140625,0)" xlink:href="#ar"/><use transform="matrix(0.0087890625,0,0,0.0087890625,97.2158203125,0)" xlink:href="#ag"/><use transform="matrix(0.0087890625,0,0,0.0087890625,108.017578125,0)" xlink:href="#as"/><use transform="matrix(0.0087890625,0,0,0.0087890625,118.8193359375,0)" xlink:href="#at"/><use transform="matrix(0.0087890625,0,0,0.0087890625,129.62109375,0)" xlink:href="#X"/><use transform="matrix(0.0087890625,0,0,0.0087890625,140.4228515625,0)" xlink:href="#ag"/><use transform="matrix(0.0087890625,0,0,0.0087890625,151.224609375,0)" xlink:href="#ai"/><use transform="matrix(0.0087890625,0,0,0.0087890625,162.0263671875,0)" xlink:href="#ap"/><use transform="matrix(0.0087890625,0,0,0.0087890625,172.828125,0)" xlink:href="#aq"/></g><path d="M648-963c-190 6-283 138-283 336V0H185v-1484h181c-2 197 6 404-9 587h3c62-120 159-205 339-205 242 0 351 135 350 381V0H868v-695c1-168-57-273-220-268" id="au"/><path d="M615-1102c343 0 484 203 482 560-1 347-147 562-488 562-336 0-475-219-479-562-4-349 156-560 485-560zm-8 989c240 0 301-180 301-429 0-245-55-427-290-427-236 0-299 181-299 427 0 243 61 429 288 429" id="av"/><path d="M745-142h380V0H143v-142h422v-798H246v-142h499v940zM545-1292v-192h200v192H545" id="aw"/><path d="M706-1102c241 0 344 136 343 381V0H868v-695c1-168-57-273-220-268-190 6-283 138-283 336V0H185c-3-360 6-732-6-1082h170c4 54 7 126 8 185h3c63-121 164-204 346-205" id="ax"/><path d="M496 0v-299h235V0H496zm0-783v-299h235v299H496" id="ay"/><g id="i"><use transform="matrix(0.0087890625,0,0,0.0087890625,0,0)" xlink:href="#au"/><use transform="matrix(0.0087890625,0,0,0.0087890625,10.8017578125,0)" xlink:href="#ag"/><use transform="matrix(0.0087890625,0,0,0.0087890625,21.603515625,0)" xlink:href="#ah"/><use transform="matrix(0.0087890625,0,0,0.0087890625,32.4052734375,0)" xlink:href="#aa"/><use transform="matrix(0.0087890625,0,0,0.0087890625,43.20703125,0)" xlink:href="#ag"/><use transform="matrix(0.0087890625,0,0,0.0087890625,54.0087890625,0)" xlink:href="#af"/><use transform="matrix(0.0087890625,0,0,0.0087890625,64.810546875,0)" xlink:href="#ai"/><use transform="matrix(0.0087890625,0,0,0.0087890625,75.6123046875,0)" xlink:href="#aj"/><use transform="matrix(0.0087890625,0,0,0.0087890625,86.4140625,0)" xlink:href="#am"/><use transform="matrix(0.0087890625,0,0,0.0087890625,97.2158203125,0)" xlink:href="#av"/><use transform="matrix(0.0087890625,0,0,0.0087890625,108.017578125,0)" xlink:href="#as"/><use transform="matrix(0.0087890625,0,0,0.0087890625,118.8193359375,0)" xlink:href="#ah"/><use transform="matrix(0.0087890625,0,0,0.0087890625,129.62109375,0)" xlink:href="#X"/><use transform="matrix(0.0087890625,0,0,0.0087890625,140.4228515625,0)" xlink:href="#aw"/><use transform="matrix(0.0087890625,0,0,0.0087890625,151.224609375,0)" xlink:href="#av"/><use transform="matrix(0.0087890625,0,0,0.0087890625,162.0263671875,0)" xlink:href="#ax"/><use transform="matrix(0.0087890625,0,0,0.0087890625,172.828125,0)" xlink:href="#ay"/></g><path d="M736-142h380V0H134v-142h422v-1200H267v-142h469v1342" id="az"/><g id="j"><use transform="matrix(0.0087890625,0,0,0.0087890625,0,0)" xlink:href="#aa"/><use transform="matrix(0.0087890625,0,0,0.0087890625,10.8017578125,0)" xlink:href="#ag"/><use transform="matrix(0.0087890625,0,0,0.0087890625,21.603515625,0)" xlink:href="#az"/><use transform="matrix(0.0087890625,0,0,0.0087890625,32.4052734375,0)" xlink:href="#ag"/><use transform="matrix(0.0087890625,0,0,0.0087890625,43.20703125,0)" xlink:href="#X"/><use transform="matrix(0.0087890625,0,0,0.0087890625,54.0087890625,0)" xlink:href="#ag"/><use transform="matrix(0.0087890625,0,0,0.0087890625,64.810546875,0)" xlink:href="#ao"/><use transform="matrix(0.0087890625,0,0,0.0087890625,75.6123046875,0)" xlink:href="#ae"/><use transform="matrix(0.0087890625,0,0,0.0087890625,86.4140625,0)" xlink:href="#au"/><use transform="matrix(0.0087890625,0,0,0.0087890625,97.2158203125,0)" xlink:href="#ae"/><use transform="matrix(0.0087890625,0,0,0.0087890625,108.017578125,0)" xlink:href="#aj"/><use transform="matrix(0.0087890625,0,0,0.0087890625,118.8193359375,0)" xlink:href="#ap"/><use transform="matrix(0.0087890625,0,0,0.0087890625,129.62109375,0)" xlink:href="#aq"/></g><path d="M127-220V0H93v-220H8v-28h204v28h-85" id="aA"/><path d="M210-169c-67 3-38 105-44 169h-31v-121c0-29-5-50-35-48C34-165 62-65 56 0H25l-1-190h30c1 10-1 24 2 32 10-44 99-50 107 0 11-21 27-35 58-36 85-2 47 119 55 194h-31v-121c0-29-5-49-35-48" id="aB"/><path d="M141-36C126-15 110 5 73 4 37 3 15-17 15-53c-1-64 63-63 125-63 3-35-9-54-41-54-24 1-41 7-42 31l-33-3c5-37 33-52 76-52 45 0 72 20 72 64v82c-1 20 7 32 28 27v20c-31 9-61-2-59-35zM48-53c0 20 12 33 32 33 41-3 63-29 60-74-43 2-92-5-92 41" id="aC"/><g id="k"><use transform="matrix(0.05,0,0,0.05,0,0)" xlink:href="#aA"/><use transform="matrix(0.05,0,0,0.05,8.950000000000001,0)" xlink:href="#I"/><use transform="matrix(0.05,0,0,0.05,18.950000000000003,0)" xlink:href="#M"/><use transform="matrix(0.05,0,0,0.05,24.900000000000002,0)" xlink:href="#aB"/><use transform="matrix(0.05,0,0,0.05,39.85,0)" xlink:href="#H"/><use transform="matrix(0.05,0,0,0.05,43.800000000000004,0)" xlink:href="#J"/><use transform="matrix(0.05,0,0,0.05,53.800000000000004,0)" xlink:href="#aC"/><use transform="matrix(0.05,0,0,0.05,63.800000000000004,0)" xlink:href="#K"/><use transform="matrix(0.05,0,0,0.05,68.80000000000001,0)" xlink:href="#I"/></g><g id="l"><use transform="matrix(0.0087890625,0,0,0.0087890625,0,0)" xlink:href="#V"/><use transform="matrix(0.0087890625,0,0,0.0087890625,10.8017578125,0)" xlink:href="#az"/><use transform="matrix(0.0087890625,0,0,0.0087890625,21.603515625,0)" xlink:href="#ah"/><use transform="matrix(0.0087890625,0,0,0.0087890625,32.4052734375,0)" xlink:href="#X"/><use transform="matrix(0.0087890625,0,0,0.0087890625,43.20703125,0)" xlink:href="#X"/><use transform="matrix(0.0087890625,0,0,0.0087890625,54.0087890625,0)" xlink:href="#ag"/><use transform="matrix(0.0087890625,0,0,0.0087890625,64.810546875,0)" xlink:href="#ac"/><use transform="matrix(0.0087890625,0,0,0.0087890625,75.6123046875,0)" xlink:href="#ad"/><use transform="matrix(0.0087890625,0,0,0.0087890625,86.4140625,0)" xlink:href="#af"/><use transform="matrix(0.0087890625,0,0,0.0087890625,97.2158203125,0)" xlink:href="#ag"/><use transform="matrix(0.0087890625,0,0,0.0087890625,108.017578125,0)" xlink:href="#ax"/><use transform="matrix(0.0087890625,0,0,0.0087890625,118.8193359375,0)" xlink:href="#aa"/><use transform="matrix(0.0087890625,0,0,0.0087890625,129.62109375,0)" xlink:href="#ag"/><use transform="matrix(0.0087890625,0,0,0.0087890625,140.4228515625,0)" xlink:href="#af"/><use transform="matrix(0.0087890625,0,0,0.0087890625,151.224609375,0)" xlink:href="#ai"/><use transform="matrix(0.0087890625,0,0,0.0087890625,162.0263671875,0)" xlink:href="#ao"/><use transform="matrix(0.0087890625,0,0,0.0087890625,172.828125,0)" xlink:href="#ao"/><use transform="matrix(0.0087890625,0,0,0.0087890625,183.6298828125,0)" xlink:href="#ao"/><use transform="matrix(0.0087890625,0,0,0.0087890625,194.431640625,0)" xlink:href="#ap"/></g><path d="M84 4C-5 8 30-112 23-190h32v120c0 31 7 50 39 49 72-2 45-101 50-169h31l1 190h-30c-1-10 1-25-2-33-11 22-28 36-60 37" id="aD"/><path d="M115-194c53 0 69 39 70 98 0 66-23 100-70 100C84 3 66-7 56-30L54 0H23l1-261h32v101c10-23 28-34 59-34zm-8 174c40 0 45-34 45-75 0-40-5-75-45-74-42 0-51 32-51 76 0 43 10 73 51 73" id="aE"/><g id="m"><use transform="matrix(0.05,0,0,0.05,0,0)" xlink:href="#L"/><use transform="matrix(0.05,0,0,0.05,12,0)" xlink:href="#aD"/><use transform="matrix(0.05,0,0,0.05,22,0)" xlink:href="#aE"/><use transform="matrix(0.05,0,0,0.05,32,0)" xlink:href="#aB"/><use transform="matrix(0.05,0,0,0.05,46.95,0)" xlink:href="#H"/><use transform="matrix(0.05,0,0,0.05,50.900000000000006,0)" xlink:href="#K"/></g><path d="M63-220v92h138v28H63V0H30v-248h175v28H63" id="aF"/><g id="n"><use transform="matrix(0.05,0,0,0.05,0,0)" xlink:href="#aF"/><use transform="matrix(0.05,0,0,0.05,10.950000000000001,0)" xlink:href="#P"/><use transform="matrix(0.05,0,0,0.05,20.950000000000003,0)" xlink:href="#M"/><use transform="matrix(0.05,0,0,0.05,26.900000000000002,0)" xlink:href="#aB"/></g><path d="M30-248c118-7 216 8 213 122C240-48 200 0 122 0H30v-248zM63-27c89 8 146-16 146-99s-60-101-146-95v194" id="aG"/><path d="M135-143c-3-34-86-38-87 0 15 53 115 12 119 90S17 21 10-45l28-5c4 36 97 45 98 0-10-56-113-15-118-90-4-57 82-63 122-42 12 7 21 19 24 35" id="aH"/><path d="M179-190L93 31C79 59 56 82 12 73V49c39 6 53-20 64-50L1-190h34L92-34l54-156h33" id="aI"/><g id="o"><use transform="matrix(0.05,0,0,0.05,0,0)" xlink:href="#aG"/><use transform="matrix(0.05,0,0,0.05,12.950000000000001,0)" xlink:href="#H"/><use transform="matrix(0.05,0,0,0.05,16.900000000000002,0)" xlink:href="#aH"/><use transform="matrix(0.05,0,0,0.05,25.900000000000002,0)" xlink:href="#T"/><use transform="matrix(0.05,0,0,0.05,35.900000000000006,0)" xlink:href="#G"/><use transform="matrix(0.05,0,0,0.05,39.85000000000001,0)" xlink:href="#aC"/><use transform="matrix(0.05,0,0,0.05,49.85000000000001,0)" xlink:href="#aI"/></g><path d="M30-248c87 1 191-15 191 75 0 78-77 80-158 76V0H30v-248zm33 125c57 0 124 11 124-50 0-59-68-47-124-48v98" id="aJ"/><path d="M177-190C167-65 218 103 67 71c-23-6-38-20-44-43l32-5c15 47 100 32 89-28v-30C133-14 115 1 83 1 29 1 15-40 15-95c0-56 16-97 71-98 29-1 48 16 59 35 1-10 0-23 2-32h30zM94-22c36 0 50-32 50-73 0-42-14-75-50-75-39 0-46 34-46 75s6 73 46 73" id="aK"/><g id="p"><use transform="matrix(0.05,0,0,0.05,0,0)" xlink:href="#aJ"/><use transform="matrix(0.05,0,0,0.05,12,0)" xlink:href="#aC"/><use transform="matrix(0.05,0,0,0.05,22,0)" xlink:href="#aK"/><use transform="matrix(0.05,0,0,0.05,32,0)" xlink:href="#I"/></g><path d="M233-177c-1 41-23 64-60 70L243 0h-38l-65-103H63V0H30v-248c88 3 205-21 203 71zM63-129c60-2 137 13 137-47 0-61-80-42-137-45v92" id="aL"/><path d="M96-169c-40 0-48 33-48 73s9 75 48 75c24 0 41-14 43-38l32 2c-6 37-31 61-74 61-59 0-76-41-82-99-10-93 101-131 147-64 4 7 5 14 7 22l-32 3c-4-21-16-35-41-35" id="aM"/><g id="q"><use transform="matrix(0.05,0,0,0.05,0,0)" xlink:href="#aL"/><use transform="matrix(0.05,0,0,0.05,12.950000000000001,0)" xlink:href="#I"/><use transform="matrix(0.05,0,0,0.05,22.950000000000003,0)" xlink:href="#R"/><use transform="matrix(0.05,0,0,0.05,32.95,0)" xlink:href="#H"/><use transform="matrix(0.05,0,0,0.05,36.900000000000006,0)" xlink:href="#M"/><use transform="matrix(0.05,0,0,0.05,42.85000000000001,0)" xlink:href="#I"/><use transform="matrix(0.05,0,0,0.05,52.85,0)" xlink:href="#aM"/><use transform="matrix(0.05,0,0,0.05,61.85,0)" xlink:href="#K"/></g><path d="M30 0v-248h33v221h125V0H30" id="aN"/><g id="r"><use transform="matrix(0.05,0,0,0.05,0,0)" xlink:href="#aN"/><use transform="matrix(0.05,0,0,0.05,10,0)" xlink:href="#P"/><use transform="matrix(0.05,0,0,0.05,20,0)" xlink:href="#aC"/><use transform="matrix(0.05,0,0,0.05,30,0)" xlink:href="#R"/></g><path d="M232-93c-1 65-40 97-104 97C67 4 28-28 28-90v-158h33c8 89-33 224 67 224 102 0 64-133 71-224h33v155" id="aO"/><g id="s"><use transform="matrix(0.05,0,0,0.05,0,0)" xlink:href="#aO"/><use transform="matrix(0.05,0,0,0.05,12.950000000000001,0)" xlink:href="#aL"/><use transform="matrix(0.05,0,0,0.05,25.900000000000002,0)" xlink:href="#aN"/></g><path d="M143 4C61 4 22-44 18-125c-5-107 100-154 193-111 17 8 29 25 37 43l-32 9c-13-25-37-40-76-40-61 0-88 39-88 99 0 61 29 100 91 101 35 0 62-11 79-27v-45h-74v-28h105v86C228-13 192 4 143 4" id="aP"/><path d="M30 0v-248h187v28H63v79h144v27H63v87h162V0H30" id="aQ"/><g id="u"><use transform="matrix(0.05,0,0,0.05,0,0)" xlink:href="#aP"/><use transform="matrix(0.05,0,0,0.05,14,0)" xlink:href="#aQ"/><use transform="matrix(0.05,0,0,0.05,26,0)" xlink:href="#aA"/></g><g id="v"><use transform="matrix(0.05,0,0,0.05,0,0)" xlink:href="#R"/><use transform="matrix(0.05,0,0,0.05,10,0)" xlink:href="#I"/><use transform="matrix(0.05,0,0,0.05,20,0)" xlink:href="#G"/><use transform="matrix(0.05,0,0,0.05,23.95,0)" xlink:href="#I"/><use transform="matrix(0.05,0,0,0.05,33.95,0)" xlink:href="#K"/><use transform="matrix(0.05,0,0,0.05,38.95,0)" xlink:href="#I"/><use transform="matrix(0.05,0,0,0.05,48.95,0)" xlink:href="#S"/><use transform="matrix(0.05,0,0,0.05,53.95,0)" xlink:href="#T"/><use transform="matrix(0.05,0,0,0.05,63.95,0)" xlink:href="#U"/><use transform="matrix(0.05,0,0,0.05,73.95,0)" xlink:href="#T"/></g><path d="M18-100v-36l175-74v27L42-118l151 64v27" id="aR"/><path d="M63-70H37l-4-178h34zM33 0v-35h34V0H33" id="aS"/><path d="M140-251c81 0 123 46 123 126C263-46 219 4 140 4 59 4 17-45 17-125s42-126 123-126zm0 227c63 0 89-41 89-101s-29-99-89-99c-61 0-89 39-89 99S79-25 140-24" id="aT"/><path d="M137-103V0h-34v-103L8-248h37l75 118 75-118h37" id="aU"/><g id="w"><use transform="matrix(0.05,0,0,0.05,0,0)" xlink:href="#aR"/><use transform="matrix(0.05,0,0,0.05,10.5,0)" xlink:href="#aS"/><use transform="matrix(0.05,0,0,0.05,15.5,0)" xlink:href="#aG"/><use transform="matrix(0.05,0,0,0.05,28.450000000000003,0)" xlink:href="#aT"/><use transform="matrix(0.05,0,0,0.05,42.45,0)" xlink:href="#F"/><use transform="matrix(0.05,0,0,0.05,55.400000000000006,0)" xlink:href="#aA"/><use transform="matrix(0.05,0,0,0.05,66.35000000000001,0)" xlink:href="#aU"/><use transform="matrix(0.05,0,0,0.05,78.35000000000001,0)" xlink:href="#aJ"/><use transform="matrix(0.05,0,0,0.05,90.35000000000001,0)" xlink:href="#aQ"/></g><path d="M18-27v-27l151-64-151-65v-27l175 74v36" id="aV"/><g id="x"><use transform="matrix(0.05,0,0,0.05,0,0)" xlink:href="#U"/><use transform="matrix(0.05,0,0,0.05,10,0)" xlink:href="#K"/><use transform="matrix(0.05,0,0,0.05,15,0)" xlink:href="#aB"/><use transform="matrix(0.05,0,0,0.05,29.950000000000003,0)" xlink:href="#G"/><use transform="matrix(0.05,0,0,0.05,33.900000000000006,0)" xlink:href="#aV"/><use transform="matrix(0.05,0,0,0.05,44.400000000000006,0)" xlink:href="#S"/><use transform="matrix(0.05,0,0,0.05,49.400000000000006,0)" xlink:href="#S"/><use transform="matrix(0.05,0,0,0.05,54.400000000000006,0)" xlink:href="#S"/></g><g id="z"><use transform="matrix(0.05,0,0,0.05,0,0)" xlink:href="#aJ"/><use transform="matrix(0.05,0,0,0.05,12,0)" xlink:href="#aT"/><use transform="matrix(0.05,0,0,0.05,26,0)" xlink:href="#L"/><use transform="matrix(0.05,0,0,0.05,38,0)" xlink:href="#aA"/></g><g id="A"><use transform="matrix(0.05,0,0,0.05,0,0)" xlink:href="#R"/><use transform="matrix(0.05,0,0,0.05,10,0)" xlink:href="#I"/><use transform="matrix(0.05,0,0,0.05,20,0)" xlink:href="#G"/><use transform="matrix(0.05,0,0,0.05,23.95,0)" xlink:href="#I"/><use transform="matrix(0.05,0,0,0.05,33.95,0)" xlink:href="#K"/><use transform="matrix(0.05,0,0,0.05,38.95,0)" xlink:href="#I"/><use transform="matrix(0.05,0,0,0.05,48.95,0)" xlink:href="#S"/><use transform="matrix(0.05,0,0,0.05,53.95,0)" xlink:href="#T"/><use transform="matrix(0.05,0,0,0.05,63.95,0)" xlink:href="#U"/><use transform="matrix(0.05,0,0,0.05,73.95,0)" xlink:href="#T"/></g><path d="M-5 72V49h209v23H-5" id="aW"/><path d="M18-150v-26h174v26H18zm0 90v-26h174v26H18" id="aX"/><path d="M155-56V0h-30v-56H8v-25l114-167h33v167h35v25h-35zm-30-156c-27 46-58 90-88 131h88v-131" id="aY"/><path d="M101-251c82-7 93 87 43 132L82-64C71-53 59-42 53-27h129V0H18c2-99 128-94 128-182 0-28-16-43-45-43s-46 15-49 41l-32-3c6-41 34-60 81-64" id="aZ"/><g id="B"><use transform="matrix(0.05,0,0,0.05,0,0)" xlink:href="#H"/><use transform="matrix(0.05,0,0,0.05,3.95,0)" xlink:href="#R"/><use transform="matrix(0.05,0,0,0.05,13.949999999999998,0)" xlink:href="#aW"/><use transform="matrix(0.05,0,0,0.05,23.95,0)" xlink:href="#T"/><use transform="matrix(0.05,0,0,0.05,33.95,0)" xlink:href="#I"/><use transform="matrix(0.05,0,0,0.05,43.95,0)" xlink:href="#M"/><use transform="matrix(0.05,0,0,0.05,49.900000000000006,0)" xlink:href="#aH"/><use transform="matrix(0.05,0,0,0.05,58.900000000000006,0)" xlink:href="#P"/><use transform="matrix(0.05,0,0,0.05,68.9,0)" xlink:href="#J"/><use transform="matrix(0.05,0,0,0.05,78.9,0)" xlink:href="#aX"/><use transform="matrix(0.05,0,0,0.05,89.4,0)" xlink:href="#aY"/><use transform="matrix(0.05,0,0,0.05,99.4,0)" xlink:href="#aZ"/></g><path d="M33-154v-36h34v36H33zM33 0v-36h34V0H33" id="ba"/><g id="C"><use transform="matrix(0.05,0,0,0.05,0,0)" xlink:href="#aN"/><use transform="matrix(0.05,0,0,0.05,10,0)" xlink:href="#P"/><use transform="matrix(0.05,0,0,0.05,20,0)" xlink:href="#aM"/><use transform="matrix(0.05,0,0,0.05,29,0)" xlink:href="#aC"/><use transform="matrix(0.05,0,0,0.05,39,0)" xlink:href="#K"/><use transform="matrix(0.05,0,0,0.05,44,0)" xlink:href="#H"/><use transform="matrix(0.05,0,0,0.05,47.95,0)" xlink:href="#P"/><use transform="matrix(0.05,0,0,0.05,57.95,0)" xlink:href="#J"/><use transform="matrix(0.05,0,0,0.05,67.95,0)" xlink:href="#ba"/></g><g id="D"><use transform="matrix(0.05,0,0,0.05,0,0)" xlink:href="#R"/><use transform="matrix(0.05,0,0,0.05,10,0)" xlink:href="#I"/><use transform="matrix(0.05,0,0,0.05,20,0)" xlink:href="#G"/><use transform="matrix(0.05,0,0,0.05,23.95,0)" xlink:href="#I"/><use transform="matrix(0.05,0,0,0.05,33.95,0)" xlink:href="#K"/><use transform="matrix(0.05,0,0,0.05,38.95,0)" xlink:href="#I"/><use transform="matrix(0.05,0,0,0.05,48.95,0)" xlink:href="#S"/><use transform="matrix(0.05,0,0,0.05,53.95,0)" xlink:href="#T"/><use transform="matrix(0.05,0,0,0.05,63.95,0)" xlink:href="#U"/><use transform="matrix(0.05,0,0,0.05,73.95,0)" xlink:href="#T"/></g><g id="E"><use transform="matrix(0.05,0,0,0.05,0,0)" xlink:href="#U"/><use transform="matrix(0.05,0,0,0.05,10,0)" xlink:href="#K"/><use transform="matrix(0.05,0,0,0.05,15,0)" xlink:href="#aB"/><use transform="matrix(0.05,0,0,0.05,29.950000000000003,0)" xlink:href="#G"/><use transform="matrix(0.05,0,0,0.05,33.900000000000006,0)" xlink:href="#aV"/></g></defs></g></svg>