<?xml version="1.0" standalone="no"?>
<!DOCTYPE svg PUBLIC "-//W3C//DTD SVG 20010904//EN"
 "http://www.w3.org/TR/2001/REC-SVG-20010904/DTD/svg10.dtd">
<svg version="1.0" xmlns="http://www.w3.org/2000/svg"
 width="512.000000pt" height="512.000000pt" viewBox="0 0 512.000000 512.000000"
 preserveAspectRatio="xMidYMid meet">
<metadata>
Created by potrace 1.14, written by Peter Selinger 2001-2017
</metadata>
<g transform="translate(0.000000,512.000000) scale(0.100000,-0.100000)"
fill="#000000" stroke="none">
<path d="M2380 4634 c-14 -2 -65 -9 -115 -15 -351 -44 -712 -200 -1014 -438
-106 -83 -301 -286 -375 -390 -404 -565 -512 -1253 -300 -1902 224 -683 779
-1198 1480 -1373 323 -81 690 -80 1017 3 283 72 571 216 797 398 98 80 281
268 353 365 360 483 499 1092 381 1676 -171 854 -834 1500 -1694 1653 -109 20
-461 35 -530 23z m255 -146 c2 -7 9 -170 15 -363 6 -192 18 -440 26 -550 9
-110 17 -213 18 -230 l1 -30 -120 0 -120 0 3 580 c2 389 7 584 14 592 14 18
157 18 163 1z m-315 -403 c0 -80 -1 -85 -22 -89 -111 -21 -154 -32 -224 -57
-160 -58 -306 -165 -411 -301 l-44 -58 -69 0 c-38 0 -72 5 -75 10 -9 14 62
131 117 195 93 109 224 212 343 273 89 44 296 108 363 111 21 1 22 -2 22 -84z
m655 34 c140 -47 275 -115 387 -196 83 -60 292 -268 317 -316 17 -31 10 -48
-43 -111 l-33 -40 -33 40 c-18 21 -86 91 -150 154 -171 169 -323 256 -547 313
l-88 23 -3 87 -3 87 38 0 c21 0 92 -18 158 -41z m-657 -391 l-3 -143 -254 -3
c-164 -1 -258 1 -265 8 -25 25 144 159 270 215 68 30 186 63 227 64 l28 1 -3
-142z m618 87 c119 -45 204 -99 107 -70 -71 22 -153 42 -200 50 -40 6 -60 26
-47 46 7 13 64 2 140 -26z m1233 -128 c22 -35 41 -70 41 -78 0 -8 -30 -37 -67
-64 -226 -164 -342 -335 -391 -573 -10 -50 -21 -95 -25 -99 -4 -4 -37 22 -72
57 -74 73 -74 76 -46 195 42 172 109 295 226 410 81 81 252 214 276 215 10 0
34 -27 58 -63z m-1195 -58 c175 -58 352 -161 483 -284 l66 -61 -22 -84 c-13
-47 -25 -87 -26 -89 -2 -2 -43 27 -92 63 -148 112 -351 203 -492 222 -28 3
-55 12 -60 18 -12 14 -35 232 -26 246 9 14 59 5 169 -31z m-656 -246 l-3 -78
-415 0 -415 0 -3 78 -3 77 421 0 421 0 -3 -77z m642 -133 c154 -43 352 -160
456 -271 l41 -44 -9 -100 c-5 -55 -11 -106 -13 -113 -3 -8 -44 27 -102 86
-118 118 -226 188 -354 229 l-90 28 -15 50 c-8 28 -17 74 -21 103 -7 62 -6 62
107 32z m-626 -87 c2 -10 7 -49 11 -88 4 -38 13 -103 21 -144 13 -73 13 -75
-11 -120 -68 -125 -249 -287 -373 -333 -30 -12 -33 -10 -69 29 -21 22 -52 48
-70 57 -25 12 -33 24 -38 54 -10 62 -55 142 -97 169 -21 14 -38 31 -38 37 0
18 52 170 63 184 6 8 41 12 109 12 l99 0 -43 50 -43 50 -106 0 -105 0 -62
-193 c-34 -107 -62 -196 -62 -199 0 -3 18 -8 41 -12 23 -4 54 -13 70 -21 29
-16 63 -67 52 -79 -9 -9 -321 -7 -327 2 -3 5 23 93 57 198 52 160 62 202 65
277 l3 87 424 0 c395 0 424 -1 429 -17z m403 -48 c59 -274 172 -550 310 -760
206 -313 514 -568 971 -803 l162 -84 -16 -26 c-8 -15 -26 -40 -39 -56 l-23
-29 -84 17 c-126 27 -368 109 -484 165 -286 137 -561 373 -732 626 -128 191
-227 421 -281 655 -24 99 -51 275 -51 325 l0 36 127 -3 128 -3 12 -60z m299
-241 c79 -39 202 -143 171 -144 -10 0 -46 7 -80 14 -34 8 -79 18 -100 21 -35
6 -41 12 -63 58 -26 57 -30 87 -12 87 6 0 44 -16 84 -36z m618 -123 l73 -60 7
-87 c21 -272 102 -454 285 -634 97 -95 150 -134 311 -228 12 -7 8 -19 -20 -67
-19 -32 -42 -62 -51 -68 -31 -19 -277 107 -398 205 -119 96 -223 259 -272 428
-19 65 -22 107 -26 308 -5 217 -3 262 12 262 4 0 39 -27 79 -59z m-1228 -137
c10 -38 -12 -210 -37 -290 -43 -141 -123 -268 -270 -433 -51 -58 -95 -99 -97
-93 -2 6 4 53 12 104 20 113 20 238 1 343 -8 44 -15 87 -15 95 0 8 28 29 63
47 86 46 187 124 250 194 57 64 83 73 93 33z m718 -10 c73 -19 181 -65 248
-106 48 -30 48 -30 48 -83 0 -30 -4 -56 -9 -59 -5 -3 -25 1 -44 9 -32 13 -141
44 -209 59 -20 5 -37 25 -72 85 -46 80 -56 111 -35 111 6 0 39 -7 73 -16z
m-1399 -123 c128 -59 182 -200 173 -449 -6 -158 -22 -210 -124 -387 -91 -161
-114 -223 -114 -313 0 -91 23 -156 75 -207 57 -58 117 -79 202 -73 121 9 179
51 336 248 116 144 264 299 355 372 75 60 219 148 241 148 9 0 53 -32 99 -71
65 -57 80 -75 71 -85 -6 -8 -17 -14 -25 -14 -25 0 -180 -86 -243 -134 -92 -71
-187 -171 -315 -330 -134 -166 -180 -212 -261 -261 -89 -53 -170 -75 -280 -75
-220 0 -374 106 -455 315 -20 50 -24 79 -24 175 -1 142 21 217 100 347 125
202 160 310 151 465 -3 68 -10 100 -32 143 -36 73 -78 104 -182 131 -8 2 -13
19 -13 39 l0 35 113 0 c88 0 121 -4 152 -19z m-204 -209 c30 -27 32 -34 37
-109 7 -126 -12 -170 -112 -263 -154 -142 -224 -219 -265 -287 -55 -92 -72
-144 -80 -237 -4 -49 -11 -81 -18 -83 -7 -3 -37 19 -66 49 -156 156 -146 354
27 531 34 35 110 100 168 146 140 107 188 165 221 264 9 26 52 21 88 -11z
m1817 -13 c47 -20 51 -24 62 -70 19 -79 8 -80 -69 -2 -95 96 -94 114 7 72z
m-723 -86 c32 -54 80 -128 107 -166 28 -38 48 -74 45 -82 -4 -8 -23 -23 -44
-34 -21 -11 -67 -40 -103 -65 -45 -32 -67 -42 -72 -33 -15 24 -9 477 7 477 1
0 28 -44 60 -97z m1602 -69 c109 -41 202 -79 207 -84 12 -12 -22 -126 -42
-142 -17 -15 -76 16 -196 101 -73 52 -196 173 -196 192 0 17 31 8 227 -67z
m-1805 -260 l-4 -189 -67 -70 c-37 -38 -100 -110 -141 -160 -112 -137 -150
-178 -193 -207 -69 -48 -152 -32 -192 35 -20 34 -23 103 -6 135 6 12 106 121
222 244 116 123 246 265 288 315 42 51 81 91 86 89 6 -2 9 -72 7 -192z m-1087
-326 c-23 -99 -23 -284 -1 -363 10 -33 31 -84 47 -114 17 -29 28 -55 26 -57
-7 -8 -83 59 -109 96 -46 65 -63 127 -62 230 0 73 5 108 22 151 23 59 80 145
89 136 3 -3 -3 -39 -12 -79z m2157 -114 c94 -43 343 -129 446 -154 23 -6 42
-16 42 -23 0 -7 -22 -35 -50 -62 l-49 -48 -68 31 c-124 56 -175 66 -328 67
-164 0 -224 -14 -360 -80 -109 -53 -229 -143 -367 -273 -57 -54 -150 -140
-208 -191 l-104 -94 -76 6 c-114 9 -330 58 -330 75 0 4 35 24 78 44 123 59
219 129 382 281 186 173 271 241 375 303 137 82 367 161 477 163 25 1 73 -15
140 -45z"/>
</g>
</svg>
