<svg xmlns="http://www.w3.org/2000/svg" xmlns:xlink="http://www.w3.org/1999/xlink" width="1600" height="900.16"><g transform="translate(0 0)"><path d="M0 0h1600v900.16H0z" fill="#fff"/><path d="M420 420h253v80H420zM673.33 420h253v80h-253zM926.67 420h253v80h-253z" fill="#9cf"/><path d="M420 500.27h253v80H420zM673.33 500.27h253v80h-253zM926.67 500.27h253v80h-253zM420 580.54h253v79H420zM673.33 580.54h253v79h-253zM926.67 580.54h253v79h-253z" fill="#fff"/><path d="M420 420h760v240H420z" stroke="#000" fill="none"/><path d="M420 420h253v80H420zM673.33 420h253v80h-253zM926.67 420h253v80h-253zM420 500.27h253v80H420zM673.33 500.27h253v80h-253zM926.67 500.27h253v80h-253zM420 580.54h253v79H420zM673.33 580.54h253v79h-253zM926.67 580.54h253v79h-253z" stroke="#000" fill="none"/><use xlink:href="#a" transform="matrix(1,0,0,1,425,425) translate(101.55555555555556 43)"/><use xlink:href="#b" transform="matrix(1,0,0,1,678.3333333333334,425) translate(79.27777777777779 43)"/><use xlink:href="#c" transform="matrix(1,0,0,1,931.6666666666667,425) translate(63.83333333333334 43)"/><use xlink:href="#d" transform="matrix(1,0,0,1,425,505.26755852842814) translate(110.38888888888889 43)"/><use xlink:href="#e" transform="matrix(1,0,0,1,678.3333333333334,505.26755852842814) translate(99.27777777777777 43)"/><use xlink:href="#f" transform="matrix(1,0,0,1,931.6666666666667,505.26755852842814) translate(78.16666666666667 43)"/><use xlink:href="#g" transform="matrix(1,0,0,1,425,585.5351170568563) translate(110.38888888888889 42.5)"/><use xlink:href="#h" transform="matrix(1,0,0,1,678.3333333333334,585.5351170568563) translate(99.27777777777777 42.5)"/><use xlink:href="#i" transform="matrix(1,0,0,1,931.6666666666667,585.5351170568563) translate(63.888888888888886 42.5)"/><path d="M680 165c0-2.76 2.24-5 5-5h230c2.76 0 5 2.24 5 5v50c0 2.76-2.24 5-5 5H685c-2.76 0-5-2.24-5-5z" fill="none"/><use xlink:href="#j" transform="matrix(1,0,0,1,685,165) translate(30.666666666666657 33)"/><path d="M800 220l-.05 2.42-.15 2.35-.24 2.3-.33 2.24-.42 2.22-.5 2.18-.6 2.16-.7 2.15-.8 2.17-.92 2.16-1.02 2.17-1.15 2.2-1.28 2.24-1.45 2.28-1.63 2.34-1.83 2.4-2.05 2.5-2.34 2.6-2.66 2.72-3.06 2.87-3.54 3.06-4.15 3.3-4.92 3.55-5.93 3.94-7.33 4.42-9.4 5.16-12.87 6.36-20.55 9.1-91.42 37.52-12.86 6.36-9.4 5.16-7.34 4.43-5.93 3.95-4.9 3.56-4.15 3.3-3.55 3.05-3.06 2.87-2.67 2.72-2.35 2.6-2.06 2.5-1.83 2.4-1.63 2.34-1.45 2.28-1.3 2.24-1.15 2.2-1.02 2.17-.9 2.16-.8 2.16-.7 2.14-.6 2.16-.52 2.18-.43 2.2-.33 2.26-.24 2.3-.15 2.34-.05 2.42" stroke="#000" stroke-width="2" fill="none"/><path d="M801 220.14l-1.02-.14H801zM551.85 406l-6.52 13.5-2.67-14.76z"/><path d="M553.35 405.18L546.2 420h-1.8l-2.96-16.44zm-7.58 11.1l4.58-9.5-6.46-.86z"/><path d="M800 220v199.5" stroke="#000" stroke-width="2" fill="none"/><path d="M801 220h-2 2zM800 419.5l-4.64-14.27h9.28z"/><path d="M800.9 420h-1.8l-5.1-15.77h12zm-4.16-13.77l3.26 10.03 3.26-10.03z"/><path d="M800 220l.05 2.4.15 2.34.24 2.3.33 2.22.42 2.2.5 2.17.6 2.16.7 2.13.8 2.15.9 2.15 1.02 2.16 1.14 2.2 1.3 2.2 1.43 2.3 1.6 2.32 1.84 2.4 2.06 2.48 2.33 2.6 2.66 2.7 3.04 2.87 3.53 3.04 4.13 3.28 4.9 3.55 5.9 3.92 7.3 4.4 9.34 5.14 12.74 6.3 20.14 8.9 93.9 38.4 12.74 6.3 9.35 5.14 7.3 4.4 5.9 3.93 4.9 3.55 4.13 3.27 3.53 3.03 3.05 2.86 2.67 2.7 2.33 2.6 2.06 2.48 1.83 2.4 1.6 2.33 1.45 2.3 1.3 2.2 1.13 2.2 1.02 2.17.9 2.15.8 2.15.7 2.14.6 2.17.5 2.17.43 2.2.33 2.23.24 2.3.15 2.32.05 2.4" stroke="#000" stroke-width="2" fill="none"/><path d="M799 220.14V220H800zM1056 419.5l-6.53-13.5 9.2-1.26z"/><path d="M1056.93 420h-1.8l-7.16-14.8 11.92-1.64zm-5.96-13.2l4.6 9.5 1.86-10.4z"/><path d="M0 492c0-2.76 2.24-5 5-5h230c2.76 0 5 2.24 5 5v96c0 2.76-2.24 5-5 5H5c-2.76 0-5-2.24-5-5z" fill="none"/><use xlink:href="#k" transform="matrix(1,0,0,1,5,492) translate(55.83333333333333 32)"/><use xlink:href="#l" transform="matrix(1,0,0,1,5,492) translate(36.33333333333334 80)"/><path d="M240 550.6l26.13.5 18.88 1.17 16.02 1.68 19.08 2.86 38.88 6.3 16 1.7 18.9 1.16 26.12.5" stroke="#000" stroke-width="2" fill="none"/><path d="M240.02 549.6l-.02 1.13v-1.14zM420 566.47l-14.35 4.36.18-9.27z"/><path d="M420 565.4v2.12l-15.38 4.66.23-12.02zm-13.33 4.07l10.1-3.06-9.97-3.45z"/><path d="M240 540l5.9.12 5.45.34 5.05.53 4.74.7 4.48.85 4.27 1 4.1 1.14 3.96 1.28 3.9 1.45 3.83 1.6 3.82 1.82 3.88 2.03-3.74-2.17m0 0c1.38-2.38 4.44-3.2 6.83-1.82 2.38 1.38 3.2 4.44 1.82 6.83l3.27 2.15 4.55 3.17 5.25 4 6.9 5.72L348.1 597l5.25 3.98 4.56 3.17 4.2 2.67 4 2.3 3.88 2.03 3.83 1.8 3.85 1.62 3.9 1.45 3.96 1.3 4.1 1.13 4.28 1 4.48.86 4.74.7 5.05.54 5.44.34 5.9.12" stroke="#000" stroke-width="2" fill="none"/><path d="M240.06 539l-.06 1.05V539zM419.5 622l-14.5 3.83.52-9.26z"/><path d="M420 621.12v1.78l-16.08 4.24.68-12zm-13.93 3.4l10.2-2.7-9.83-3.82z"/><path d="M1360 425c0-2.76 2.24-5 5-5h230c2.76 0 5 2.24 5 5v96c0 2.76-2.24 5-5 5h-230c-2.76 0-5-2.24-5-5z" fill="none"/><use xlink:href="#m" transform="matrix(1,0,0,1,1365,425) translate(40.66666666666666 32)"/><use xlink:href="#n" transform="matrix(1,0,0,1,1365,425) translate(61.77777777777777 80)"/><path d="M1360 605c0-2.76 2.24-5 5-5h230c2.76 0 5 2.24 5 5v96c0 2.76-2.24 5-5 5h-230c-2.76 0-5-2.24-5-5z" fill="none"/><use xlink:href="#m" transform="matrix(1,0,0,1,1365,605) translate(40.66666666666666 32)"/><use xlink:href="#o" transform="matrix(1,0,0,1,1365,605) translate(65.44444444444444 80)"/><path d="M1360 473l-63.86-1.3-170.8-11.03" stroke="#000" stroke-width="2" fill="none"/><path d="M1360 474h-.02l.02-1.14z"/><path d="M1125.33 460.67l14.54-3.7-.6 9.24z" stroke="#000" stroke-width="2"/><path d="M1360 653l-10.25-.2-9.54-.6-8.97-.95-8.55-1.26-8.22-1.58-8-1.88-7.9-2.2-7.9-2.57-8.03-3-8.33-3.5-8.87-4.17-9.86-5.16-11.77-6.8-17-10.85-67.98-45.46-16.54-9.56-15.06-7.88-9.9-4.73" stroke="#000" stroke-width="2" fill="none"/><path d="M1360 654h-.04l.04-1.1z"/><path d="M1117.33 540.67l14.85 2.12-4.08 8.3z" stroke="#000" stroke-width="2"/><defs><path d="M33 0v-248h34V0H33" id="p"/><path d="M30-248c118-7 216 8 213 122C240-48 200 0 122 0H30v-248zM63-27c89 8 146-16 146-99s-60-101-146-95v194" id="q"/><g id="a"><use transform="matrix(0.1111111111111111,0,0,0.1111111111111111,0,0)" xlink:href="#p"/><use transform="matrix(0.1111111111111111,0,0,0.1111111111111111,11.11111111111111,0)" xlink:href="#q"/></g><path d="M205 0l-28-72H64L36 0H1l101-248h38L239 0h-34zm-38-99l-47-123c-12 45-31 82-46 123h93" id="r"/><path d="M143 4C61 4 22-44 18-125c-5-107 100-154 193-111 17 8 29 25 37 43l-32 9c-13-25-37-40-76-40-61 0-88 39-88 99 0 61 29 100 91 101 35 0 62-11 79-27v-45h-74v-28h105v86C228-13 192 4 143 4" id="s"/><path d="M30 0v-248h187v28H63v79h144v27H63v87h162V0H30" id="t"/><g id="b"><use transform="matrix(0.1111111111111111,0,0,0.1111111111111111,0,0)" xlink:href="#r"/><use transform="matrix(0.1111111111111111,0,0,0.1111111111111111,26.666666666666664,0)" xlink:href="#s"/><use transform="matrix(0.1111111111111111,0,0,0.1111111111111111,57.77777777777777,0)" xlink:href="#t"/></g><path d="M190 0L58-211 59 0H30v-248h39L202-35l-2-213h31V0h-41" id="u"/><path d="M240 0l2-218c-23 76-54 145-80 218h-23L58-218 59 0H30v-248h44l77 211c21-75 51-140 76-211h43V0h-30" id="v"/><g id="c"><use transform="matrix(0.1111111111111111,0,0,0.1111111111111111,0,0)" xlink:href="#u"/><use transform="matrix(0.1111111111111111,0,0,0.1111111111111111,28.777777777777775,0)" xlink:href="#r"/><use transform="matrix(0.1111111111111111,0,0,0.1111111111111111,55.44444444444444,0)" xlink:href="#v"/><use transform="matrix(0.1111111111111111,0,0,0.1111111111111111,88.66666666666666,0)" xlink:href="#t"/></g><path d="M27 0v-27h64v-190l-56 39v-29l58-41h29v221h61V0H27" id="w"/><use transform="matrix(0.1111111111111111,0,0,0.1111111111111111,0,0)" xlink:href="#w" id="d"/><path d="M155-56V0h-30v-56H8v-25l114-167h33v167h35v25h-35zm-30-156c-27 46-58 90-88 131h88v-131" id="x"/><path d="M101-251c82-7 93 87 43 132L82-64C71-53 59-42 53-27h129V0H18c2-99 128-94 128-182 0-28-16-43-45-43s-46 15-49 41l-32-3c6-41 34-60 81-64" id="y"/><g id="e"><use transform="matrix(0.1111111111111111,0,0,0.1111111111111111,0,0)" xlink:href="#x"/><use transform="matrix(0.1111111111111111,0,0,0.1111111111111111,22.22222222222222,0)" xlink:href="#y"/></g><path d="M153-248C145-148 188 4 80 4 36 3 13-21 6-62l32-5c4 25 16 42 43 43 27 0 39-20 39-49v-147H72v-28h81" id="z"/><path d="M100-194c62-1 85 37 85 99 1 63-27 99-86 99S16-35 15-95c0-66 28-99 85-99zM99-20c44 1 53-31 53-75 0-43-8-75-51-75s-53 32-53 75 10 74 51 75" id="A"/><path d="M106-169C34-169 62-67 57 0H25v-261h32l-1 103c12-21 28-36 61-36 89 0 53 116 60 194h-32v-121c2-32-8-49-39-48" id="B"/><path d="M117-194c89-4 53 116 60 194h-32v-121c0-31-8-49-39-48C34-167 62-67 57 0H25l-1-190h30c1 10-1 24 2 32 11-22 29-35 61-36" id="C"/><g id="f"><use transform="matrix(0.1111111111111111,0,0,0.1111111111111111,0,0)" xlink:href="#z"/><use transform="matrix(0.1111111111111111,0,0,0.1111111111111111,20,0)" xlink:href="#A"/><use transform="matrix(0.1111111111111111,0,0,0.1111111111111111,42.22222222222222,0)" xlink:href="#B"/><use transform="matrix(0.1111111111111111,0,0,0.1111111111111111,64.44444444444444,0)" xlink:href="#C"/></g><use transform="matrix(0.1111111111111111,0,0,0.1111111111111111,0,0)" xlink:href="#y" id="g"/><g id="h"><use transform="matrix(0.1111111111111111,0,0,0.1111111111111111,0,0)" xlink:href="#y"/><use transform="matrix(0.1111111111111111,0,0,0.1111111111111111,22.22222222222222,0)" xlink:href="#x"/></g><path d="M24-231v-30h32v30H24zM24 0v-190h32V0H24" id="D"/><path d="M210-169c-67 3-38 105-44 169h-31v-121c0-29-5-50-35-48C34-165 62-65 56 0H25l-1-190h30c1 10-1 24 2 32 10-44 99-50 107 0 11-21 27-35 58-36 85-2 47 119 55 194h-31v-121c0-29-5-49-35-48" id="E"/><path d="M179-190L93 31C79 59 56 82 12 73V49c39 6 53-20 64-50L1-190h34L92-34l54-156h33" id="F"/><g id="i"><use transform="matrix(0.1111111111111111,0,0,0.1111111111111111,0,0)" xlink:href="#z"/><use transform="matrix(0.1111111111111111,0,0,0.1111111111111111,20,0)" xlink:href="#D"/><use transform="matrix(0.1111111111111111,0,0,0.1111111111111111,28.777777777777775,0)" xlink:href="#E"/><use transform="matrix(0.1111111111111111,0,0,0.1111111111111111,62,0)" xlink:href="#E"/><use transform="matrix(0.1111111111111111,0,0,0.1111111111111111,95.22222222222223,0)" xlink:href="#F"/></g><path d="M59-47c-2 24 18 29 38 22v24C64 9 27 4 27-40v-127H5v-23h24l9-43h21v43h35v23H59v120" id="G"/><path d="M114-163C36-179 61-72 57 0H25l-1-190h30c1 12-1 29 2 39 6-27 23-49 58-41v29" id="H"/><path d="M115-194c53 0 69 39 70 98 0 66-23 100-70 100C84 3 66-7 56-30L54 0H23l1-261h32v101c10-23 28-34 59-34zm-8 174c40 0 45-34 45-75 0-40-5-75-45-74-42 0-51 32-51 76 0 43 10 73 51 73" id="I"/><path d="M84 4C-5 8 30-112 23-190h32v120c0 31 7 50 39 49 72-2 45-101 50-169h31l1 190h-30c-1-10 1-25-2-33-11 22-28 36-60 37" id="J"/><path d="M100-194c63 0 86 42 84 106H49c0 40 14 67 53 68 26 1 43-12 49-29l28 8c-11 28-37 45-77 45C44 4 14-33 15-96c1-61 26-98 85-98zm52 81c6-60-76-77-97-28-3 7-6 17-6 28h103" id="K"/><path d="M135-143c-3-34-86-38-87 0 15 53 115 12 119 90S17 21 10-45l28-5c4 36 97 45 98 0-10-56-113-15-118-90-4-57 82-63 122-42 12 7 21 19 24 35" id="L"/><g id="j"><use transform="matrix(0.1111111111111111,0,0,0.1111111111111111,0,0)" xlink:href="#r"/><use transform="matrix(0.1111111111111111,0,0,0.1111111111111111,26.666666666666664,0)" xlink:href="#G"/><use transform="matrix(0.1111111111111111,0,0,0.1111111111111111,37.77777777777777,0)" xlink:href="#G"/><use transform="matrix(0.1111111111111111,0,0,0.1111111111111111,48.888888888888886,0)" xlink:href="#H"/><use transform="matrix(0.1111111111111111,0,0,0.1111111111111111,62.11111111111111,0)" xlink:href="#D"/><use transform="matrix(0.1111111111111111,0,0,0.1111111111111111,70.88888888888889,0)" xlink:href="#I"/><use transform="matrix(0.1111111111111111,0,0,0.1111111111111111,93.11111111111111,0)" xlink:href="#J"/><use transform="matrix(0.1111111111111111,0,0,0.1111111111111111,115.33333333333336,0)" xlink:href="#G"/><use transform="matrix(0.1111111111111111,0,0,0.1111111111111111,126.44444444444446,0)" xlink:href="#K"/><use transform="matrix(0.1111111111111111,0,0,0.1111111111111111,148.66666666666669,0)" xlink:href="#L"/></g><path d="M127-220V0H93v-220H8v-28h204v28h-85" id="M"/><path d="M115-194c55 1 70 41 70 98S169 2 115 4C84 4 66-9 55-30l1 105H24l-1-265h31l2 30c10-21 28-34 59-34zm-8 174c40 0 45-34 45-75s-6-73-45-74c-42 0-51 32-51 76 0 43 10 73 51 73" id="N"/><path d="M24 0v-261h32V0H24" id="O"/><g id="k"><use transform="matrix(0.1111111111111111,0,0,0.1111111111111111,0,0)" xlink:href="#M"/><use transform="matrix(0.1111111111111111,0,0,0.1111111111111111,22.88888888888889,0)" xlink:href="#J"/><use transform="matrix(0.1111111111111111,0,0,0.1111111111111111,45.111111111111114,0)" xlink:href="#N"/><use transform="matrix(0.1111111111111111,0,0,0.1111111111111111,67.33333333333334,0)" xlink:href="#O"/><use transform="matrix(0.1111111111111111,0,0,0.1111111111111111,76.11111111111111,0)" xlink:href="#K"/><use transform="matrix(0.1111111111111111,0,0,0.1111111111111111,98.33333333333334,0)" xlink:href="#L"/></g><path d="M87 75C49 33 22-17 22-94c0-76 28-126 65-167h31c-38 41-64 92-64 168S80 34 118 75H87" id="P"/><path d="M33-261c38 41 65 92 65 168S71 34 33 75H2C39 34 66-17 66-93S39-220 2-261h31" id="Q"/><g id="l"><use transform="matrix(0.1111111111111111,0,0,0.1111111111111111,0,0)" xlink:href="#P"/><use transform="matrix(0.1111111111111111,0,0,0.1111111111111111,13.222222222222221,0)" xlink:href="#t"/><use transform="matrix(0.1111111111111111,0,0,0.1111111111111111,39.888888888888886,0)" xlink:href="#C"/><use transform="matrix(0.1111111111111111,0,0,0.1111111111111111,62.11111111111111,0)" xlink:href="#G"/><use transform="matrix(0.1111111111111111,0,0,0.1111111111111111,73.22222222222221,0)" xlink:href="#D"/><use transform="matrix(0.1111111111111111,0,0,0.1111111111111111,81.99999999999999,0)" xlink:href="#G"/><use transform="matrix(0.1111111111111111,0,0,0.1111111111111111,93.1111111111111,0)" xlink:href="#D"/><use transform="matrix(0.1111111111111111,0,0,0.1111111111111111,101.88888888888887,0)" xlink:href="#K"/><use transform="matrix(0.1111111111111111,0,0,0.1111111111111111,124.11111111111109,0)" xlink:href="#L"/><use transform="matrix(0.1111111111111111,0,0,0.1111111111111111,144.1111111111111,0)" xlink:href="#Q"/></g><g id="m"><use transform="matrix(0.1111111111111111,0,0,0.1111111111111111,0,0)" xlink:href="#r"/><use transform="matrix(0.1111111111111111,0,0,0.1111111111111111,26.666666666666664,0)" xlink:href="#G"/><use transform="matrix(0.1111111111111111,0,0,0.1111111111111111,37.77777777777777,0)" xlink:href="#G"/><use transform="matrix(0.1111111111111111,0,0,0.1111111111111111,48.888888888888886,0)" xlink:href="#H"/><use transform="matrix(0.1111111111111111,0,0,0.1111111111111111,62.11111111111111,0)" xlink:href="#D"/><use transform="matrix(0.1111111111111111,0,0,0.1111111111111111,70.88888888888889,0)" xlink:href="#I"/><use transform="matrix(0.1111111111111111,0,0,0.1111111111111111,93.11111111111111,0)" xlink:href="#J"/><use transform="matrix(0.1111111111111111,0,0,0.1111111111111111,115.33333333333336,0)" xlink:href="#G"/><use transform="matrix(0.1111111111111111,0,0,0.1111111111111111,126.44444444444446,0)" xlink:href="#K"/></g><path d="M141-36C126-15 110 5 73 4 37 3 15-17 15-53c-1-64 63-63 125-63 3-35-9-54-41-54-24 1-41 7-42 31l-33-3c5-37 33-52 76-52 45 0 72 20 72 64v82c-1 20 7 32 28 27v20c-31 9-61-2-59-35zM48-53c0 20 12 33 32 33 41-3 63-29 60-74-43 2-92-5-92 41" id="R"/><g id="n"><use transform="matrix(0.1111111111111111,0,0,0.1111111111111111,0,0)" xlink:href="#u"/><use transform="matrix(0.1111111111111111,0,0,0.1111111111111111,28.777777777777775,0)" xlink:href="#R"/><use transform="matrix(0.1111111111111111,0,0,0.1111111111111111,51,0)" xlink:href="#E"/><use transform="matrix(0.1111111111111111,0,0,0.1111111111111111,84.22222222222223,0)" xlink:href="#K"/></g><path d="M137 0h-34L2-248h35l83 218 83-218h36" id="S"/><g id="o"><use transform="matrix(0.1111111111111111,0,0,0.1111111111111111,0,0)" xlink:href="#S"/><use transform="matrix(0.1111111111111111,0,0,0.1111111111111111,23.666666666666664,0)" xlink:href="#R"/><use transform="matrix(0.1111111111111111,0,0,0.1111111111111111,45.888888888888886,0)" xlink:href="#O"/><use transform="matrix(0.1111111111111111,0,0,0.1111111111111111,54.666666666666664,0)" xlink:href="#J"/><use transform="matrix(0.1111111111111111,0,0,0.1111111111111111,76.88888888888889,0)" xlink:href="#K"/></g></defs></g></svg>