<svg width="130" height="34" viewBox="0 0 130 34" fill="none" xmlns="http://www.w3.org/2000/svg">
<path fill-rule="evenodd" clip-rule="evenodd" d="M9.55077 21.2336C13.6842 21.2336 17.3217 15.6685 17.3217 8.62012C17.3217 1.57284 14.6764 0.566406 9.55077 0.566406C4.42517 0.566406 1.52906 1.57284 1.52906 8.62012C1.52906 15.6685 5.00484 21.2336 9.55077 21.2336ZM69.32 12.0615C66.9177 12.0615 65.3816 13.3108 64.2914 14.8714V8.20254C64.2914 7.23753 63.5378 6.50089 62.587 6.50089C61.6372 6.50089 60.9115 7.23753 60.9115 8.20254V25.7956C60.9115 26.7315 61.6651 27.4983 62.587 27.4983C63.5378 27.4983 64.2914 26.7315 64.2914 25.7956V25.0298C65.3259 26.4191 66.862 27.6685 69.32 27.6685C72.8125 27.6685 76.1656 24.8585 76.1656 19.8935V19.8364C76.1656 14.8423 72.7846 12.0615 69.32 12.0615ZM113.21 6.50089C112.26 6.50089 111.533 7.26663 111.533 8.20254V25.7956C111.533 26.7606 112.288 27.4983 113.21 27.4983C114.159 27.4983 114.914 26.7606 114.914 25.7956V8.20254C114.914 7.26663 114.159 6.50089 113.21 6.50089ZM123.519 12.1757C125.726 12.1757 127.374 12.7712 128.408 13.8493C129.497 14.9274 130 16.5171 130 18.474V25.8527C130 26.7886 129.274 27.4983 128.352 27.4983C127.374 27.4983 126.704 26.8166 126.704 26.0508V25.4832C125.698 26.7035 124.161 27.6685 121.898 27.6685C119.132 27.6685 116.673 26.0508 116.673 23.0427V22.9867C116.673 19.7514 119.16 18.1628 122.764 18.1628C124.413 18.1628 125.586 18.418 126.732 18.7863V18.418C126.732 16.2898 125.446 15.1547 123.072 15.1547C121.787 15.1547 120.725 15.3819 119.802 15.7502C119.607 15.8073 119.44 15.8353 119.272 15.8353C118.49 15.8353 117.847 15.2118 117.847 14.4169C117.847 13.7922 118.266 13.2537 118.769 13.0556C120.166 12.516 121.59 12.1757 123.519 12.1757ZM122.848 25.1709C125.083 25.1709 126.787 23.8655 126.787 21.9646V20.9436C125.921 20.6033 124.775 20.3469 123.435 20.3469C121.256 20.3469 119.971 21.284 119.971 22.8445V22.9005C119.971 24.348 121.228 25.1709 122.848 25.1709ZM101.728 24.6895C104.466 24.6895 106.198 22.5322 106.198 19.9506V19.8935C106.198 17.2537 104.326 15.0696 101.672 15.0696C98.9622 15.0696 97.2299 17.2269 97.2299 19.8364V19.8935C97.2299 22.5042 99.1015 24.6895 101.728 24.6895ZM101.728 12.0615C97.202 12.0615 93.8488 15.6092 93.8488 19.8935V19.9506C93.8488 24.2059 97.1741 27.6965 101.672 27.6965C106.226 27.6965 109.578 24.1499 109.578 19.8935V19.8364C109.578 15.5521 106.254 12.0615 101.728 12.0615ZM85.049 24.6895C87.7869 24.6895 89.5192 22.5322 89.5192 19.9506V19.8935C89.5192 17.2537 87.6475 15.0696 84.9933 15.0696C82.2834 15.0696 80.5511 17.2269 80.5511 19.8364V19.8935C80.5511 22.5042 82.4227 24.6895 85.049 24.6895ZM85.049 12.0615C80.5232 12.0615 77.17 15.6092 77.17 19.8935V19.9506C77.17 24.2059 80.4953 27.6965 84.9933 27.6965C89.547 27.6965 92.8991 24.1499 92.8991 19.8935V19.8364C92.8991 15.5521 89.5749 12.0615 85.049 12.0615ZM68.5107 24.6895C70.8294 24.6895 72.7289 22.8445 72.7289 19.8935V19.8364C72.7289 16.9425 70.8015 15.0405 68.5107 15.0405C66.2199 15.0405 64.2078 16.9705 64.2078 19.8364V19.8935C64.2078 22.7595 66.2199 24.6895 68.5107 24.6895ZM52.0838 14.8714C50.016 14.8714 48.5635 16.488 48.2558 18.8154H55.8271C55.6031 16.6011 54.3189 14.8714 52.0838 14.8714ZM52.1117 12.0615C47.8924 12.0615 44.9037 15.5801 44.9037 19.8655V19.9215C44.9037 24.5473 48.2001 27.6965 52.474 27.6965C54.7659 27.6965 56.4414 26.9307 57.7824 25.7105C58.0343 25.4552 58.2294 25.0858 58.2294 24.6604C58.2294 23.8655 57.6431 23.27 56.8884 23.27C56.4971 23.27 56.2742 23.3841 56.0222 23.5823C55.0725 24.3771 53.9555 24.8876 52.5308 24.8876C50.3515 24.8876 48.6471 23.5252 48.2837 21.0847H57.5316C58.3977 21.0847 59.1234 20.404 59.1234 19.439C59.1234 15.9775 56.8048 12.0615 52.1117 12.0615ZM43.8147 10.2748L37.7237 16.2328L44.3174 24.5473C44.5961 24.9156 44.7923 25.2559 44.7923 25.7955C44.7923 26.7606 44.0376 27.4983 43.06 27.4983C42.3889 27.4983 41.9698 27.158 41.6075 26.6755L35.3214 18.5311L32.1366 21.6523V25.7664C32.1366 26.7315 31.3819 27.4983 30.4321 27.4983C29.4545 27.4983 28.6998 26.7315 28.6998 25.7664V9.08249C28.6998 8.11748 29.4545 7.35174 30.4321 7.35174C31.3819 7.35174 32.1366 8.11748 32.1366 9.08249V17.4821L41.4113 8.00441C41.8026 7.57788 42.2217 7.35174 42.8359 7.35174C43.7857 7.35174 44.4289 8.11748 44.4289 8.96942C44.4289 9.5079 44.2048 9.90532 43.8147 10.2748ZM7.67242 16.6626C8.40815 16.6626 9.00453 17.2504 9.00453 17.9736C9.00453 18.699 8.40815 19.2856 7.67242 19.2856C6.93669 19.2856 6.3403 18.699 6.3403 17.9736C6.3403 17.2504 6.93669 16.6626 7.67242 16.6626ZM12.5093 17.9736C12.5093 17.2504 11.9129 16.6626 11.1772 16.6626C10.4414 16.6626 9.84506 17.2504 9.84506 17.9736C9.84506 18.699 10.4414 19.2856 11.1772 19.2856C11.9129 19.2856 12.5093 18.699 12.5093 17.9736ZM16.8401 25.4082C17.4822 26.006 18.1075 26.7337 18.666 27.6663C19.0395 28.2898 18.8277 29.0947 18.1945 29.4619C17.9816 29.5851 17.7486 29.6433 17.519 29.6433C17.063 29.6433 16.6182 29.4127 16.3697 28.9973C15.9405 28.2831 15.5013 27.7748 15.0063 27.3102C14.5456 26.8799 14.027 26.4913 13.4387 26.0504C13.395 26.0176 13.3509 25.9846 13.3063 25.9512C12.992 25.7172 12.6787 25.5146 12.3666 25.3422C12.4034 25.4093 12.4402 25.4776 12.4781 25.5482C13.381 27.2543 14.313 29.622 14.3174 32.3189C14.3174 33.0421 13.721 33.6287 12.9853 33.6287C12.2484 33.6287 11.6521 33.0421 11.6521 32.3189C11.6565 30.268 10.9252 28.2954 10.1538 26.8333C9.90414 26.3564 9.65221 25.9355 9.4248 25.584C9.20965 25.9187 8.9711 26.3161 8.73254 26.7639C7.94888 28.2327 7.19308 30.2366 7.19754 32.3189C7.19754 33.0421 6.60115 33.6287 5.86542 33.6287C5.12969 33.6287 4.5333 33.0421 4.5333 32.3189C4.53776 29.622 5.46857 27.2543 6.37263 25.5482C6.40942 25.4776 6.4462 25.4093 6.4841 25.3422C6.17086 25.5146 5.85873 25.7172 5.54437 25.9512C5.5043 25.9812 5.46454 26.0109 5.4251 26.0404C4.83042 26.4854 4.3075 26.8767 3.84439 27.3102C3.34944 27.7748 2.90912 28.2831 2.47994 28.9985C2.1065 29.622 1.28939 29.8291 0.656218 29.4619C0.0219282 29.0947 -0.188759 28.2898 0.184681 27.6663C0.742053 26.7337 1.36854 26.006 2.01063 25.4082C2.59044 24.8683 3.17387 24.4312 3.74378 24.0042C3.8061 23.9575 3.86825 23.911 3.93022 23.8644C4.22786 23.6405 4.5333 23.4345 4.84543 23.2476C4.5333 23.0606 4.22786 22.8535 3.93022 22.6296C2.4922 21.5515 1.24257 20.0973 0.184681 18.3318C-0.188759 17.7071 0.0219282 16.9033 0.656218 16.5361C1.28939 16.1689 2.1065 16.3761 2.47994 16.9996C3.39626 18.53 4.43632 19.7144 5.54326 20.5428C6.73046 21.4261 7.89649 21.8639 9.09595 21.9333C9.2052 21.9299 9.31555 21.9266 9.4248 21.9266C9.53516 21.9266 9.6444 21.9299 9.75365 21.9333C10.9531 21.8639 12.1203 21.4261 13.3063 20.5428C14.4133 19.7144 15.4545 18.53 16.3697 16.9996C16.7442 16.3761 17.5602 16.1689 18.1945 16.5361C18.8277 16.9033 19.0395 17.7071 18.666 18.3307C17.6081 20.0973 16.3574 21.5515 14.9194 22.6296C14.6217 22.8535 14.3163 23.0606 14.0053 23.2476C14.3163 23.4345 14.6217 23.6405 14.9194 23.8644C14.9754 23.9064 15.0316 23.9485 15.0878 23.9906C15.6642 24.4219 16.2531 24.8626 16.8401 25.4082Z" fill="#228DFF"/>
<mask id="mask0_1_84" style="mask-type:alpha" maskUnits="userSpaceOnUse" x="0" y="0" width="130" height="34">
</mask>
</svg>
