<?xml version="1.0" encoding="UTF-8" standalone="no"?>
<!-- Created with Inkscape (http://www.inkscape.org/) -->

<svg
   xmlns:pencil="http://www.evolus.vn/Namespace/Pencil"
   xmlns:dc="http://purl.org/dc/elements/1.1/"
   xmlns:cc="http://creativecommons.org/ns#"
   xmlns:rdf="http://www.w3.org/1999/02/22-rdf-syntax-ns#"
   xmlns:svg="http://www.w3.org/2000/svg"
   xmlns="http://www.w3.org/2000/svg"
   xmlns:xlink="http://www.w3.org/1999/xlink"
   xmlns:sodipodi="http://sodipodi.sourceforge.net/DTD/sodipodi-0.dtd"
   xmlns:inkscape="http://www.inkscape.org/namespaces/inkscape"
   width="200mm"
   height="190mm"
   viewBox="0 0 708.66142 673.22834"
   id="svg2"
   version="1.1"
   inkscape:version="0.91 r13725"
   sodipodi:docname="session-init.svg">
  <defs
     id="defs4">
    <marker
       inkscape:isstock="true"
       style="overflow:visible"
       id="marker6510"
       refX="0"
       refY="0"
       orient="auto"
       inkscape:stockid="DotL">
      <path
         transform="matrix(0.8,0,0,0.8,5.92,0.8)"
         style="fill:#000000;fill-opacity:1;fill-rule:evenodd;stroke:#000000;stroke-width:1pt;stroke-opacity:1"
         d="m -2.5,-1 c 0,2.76 -2.24,5 -5,5 -2.76,0 -5,-2.24 -5,-5 0,-2.76 2.24,-5 5,-5 2.76,0 5,2.24 5,5 z"
         id="path6512"
         inkscape:connector-curvature="0" />
    </marker>
    <marker
       inkscape:stockid="DotL"
       orient="auto"
       refY="0"
       refX="0"
       id="DotL"
       style="overflow:visible"
       inkscape:isstock="true"
       inkscape:collect="always">
      <path
         id="path4665"
         d="m -2.5,-1 c 0,2.76 -2.24,5 -5,5 -2.76,0 -5,-2.24 -5,-5 0,-2.76 2.24,-5 5,-5 2.76,0 5,2.24 5,5 z"
         style="fill:#000000;fill-opacity:1;fill-rule:evenodd;stroke:#000000;stroke-width:1pt;stroke-opacity:1"
         transform="matrix(0.8,0,0,0.8,5.92,0.8)"
         inkscape:connector-curvature="0" />
    </marker>
    <path
       style="fill:none;stroke-linejoin:round"
       pencil:name="path"
       id="f6e0af47aaa842fd8f38dfb720b380bf-6"
       d="m -28,-1 -4,-7 7,-4 m -7,4 C 27,4 63,9 122,20"
       inkscape:connector-curvature="0" />
    <path
       style="fill:none;stroke-linejoin:round"
       pencil:name="path"
       id="bccba69cdd324785aba9af5f8abb4646-7"
       d="m -50,-67 c 59,12 97,17 156,28 m -5,-7 5,7 -7,5"
       inkscape:connector-curvature="0" />
  </defs>
  <sodipodi:namedview
     id="base"
     pagecolor="#ffffff"
     bordercolor="#666666"
     borderopacity="1.0"
     inkscape:pageopacity="0.0"
     inkscape:pageshadow="2"
     inkscape:zoom="0.98994949"
     inkscape:cx="774.47431"
     inkscape:cy="274.20802"
     inkscape:document-units="px"
     inkscape:current-layer="layer1"
     showgrid="false"
     showguides="false"
     inkscape:window-width="1920"
     inkscape:window-height="1145"
     inkscape:window-x="0"
     inkscape:window-y="0"
     inkscape:window-maximized="1">
    <inkscape:grid
       type="xygrid"
       id="grid4336" />
  </sodipodi:namedview>
  <metadata
     id="metadata7">
    <rdf:RDF>
      <cc:Work
         rdf:about="">
        <dc:format>image/svg+xml</dc:format>
        <dc:type
           rdf:resource="http://purl.org/dc/dcmitype/StillImage" />
        <dc:title></dc:title>
      </cc:Work>
    </rdf:RDF>
  </metadata>
  <g
     inkscape:label="Layer 1"
     inkscape:groupmode="layer"
     id="layer1"
     transform="translate(0,-379.13386)">
    <rect
       y="651.36218"
       x="270.57144"
       height="155.71428"
       width="432.14285"
       id="rect6840"
       style="fill:none;fill-opacity:1;stroke:#dcdcdc;stroke-width:1;stroke-linecap:butt;stroke-miterlimit:4;stroke-dasharray:none;stroke-dashoffset:0;stroke-opacity:1" />
    <rect
       style="fill:none;fill-opacity:1;stroke:#dcdcdc;stroke-width:1;stroke-linecap:butt;stroke-miterlimit:4;stroke-dasharray:none;stroke-dashoffset:0;stroke-opacity:1"
       id="rect6846"
       width="172.79202"
       height="156.36345"
       x="8.2468567"
       y="651.0376" />
    <rect
       style="fill:none;fill-opacity:1;stroke:#dcdcdc;stroke-width:1;stroke-linecap:butt;stroke-miterlimit:4;stroke-dasharray:none;stroke-dashoffset:0;stroke-opacity:1"
       id="rect6832"
       width="432.14285"
       height="155.71428"
       x="270.57144"
       y="433.36218" />
    <rect
       y="433.0376"
       x="8.2468567"
       height="156.36345"
       width="172.79202"
       id="rect6838"
       style="fill:none;fill-opacity:1;stroke:#dcdcdc;stroke-width:1;stroke-linecap:butt;stroke-miterlimit:4;stroke-dasharray:none;stroke-dashoffset:0;stroke-opacity:1" />
    <rect
       y="865.36218"
       x="270.57144"
       height="155.71428"
       width="432.14285"
       id="rect6848"
       style="fill:none;fill-opacity:1;stroke:#dcdcdc;stroke-width:1;stroke-linecap:butt;stroke-miterlimit:4;stroke-dasharray:none;stroke-dashoffset:0;stroke-opacity:1" />
    <text
       sodipodi:linespacing="125%"
       id="text6850"
       y="997.73187"
       x="186.73624"
       style="font-style:normal;font-weight:normal;font-size:18.25185394px;line-height:125%;font-family:sans-serif;letter-spacing:0px;word-spacing:0px;fill:#dcdcdc;fill-opacity:1;stroke:none;stroke-width:1px;stroke-linecap:butt;stroke-linejoin:miter;stroke-opacity:1"
       xml:space="preserve"><tspan
         style="fill:#dcdcdc;fill-opacity:1"
         y="997.73187"
         x="186.73624"
         id="tspan6852"
         sodipodi:role="line">Internet</tspan></text>
    <rect
       style="fill:none;fill-opacity:1;stroke:#dcdcdc;stroke-width:1;stroke-linecap:butt;stroke-miterlimit:4;stroke-dasharray:none;stroke-dashoffset:0;stroke-opacity:1"
       id="rect6854"
       width="172.79202"
       height="156.36345"
       x="8.2468567"
       y="865.0376" />
    <g
       id="614689d0aeab477687c0ba0ca2d50316"
       transform="matrix(0.06877547,0,0,0.06862509,72.46467,683.57623)">
      <path
         inkscape:connector-curvature="0"
         id="17c2de0655404145993077f990364625"
         d="m 153.42969,77.952736 767.14847,442.913374 0,531.49609 -767.14847,-442.91342 z"
         style="fill:#000000;fill-opacity:1;fill-rule:evenodd;stroke:none" />
      <path
         inkscape:connector-curvature="0"
         id="78a8cd5a4886445e8da39dc44ab03265"
         d="M 920.57816,1052.3622 460.28908,1318.1102 -306.85939,875.19681 153.42969,609.44879 Z"
         style="fill:#f2f2f2;fill-rule:evenodd;stroke:none" />
      <path
         inkscape:connector-curvature="0"
         id="ed58ca5869924fc4991f1fa43780b8ed"
         d="m -306.85939,875.19681 0,35.43307 767.14847,442.91342 0,-35.4331 z"
         style="fill:#e6e6e6;fill-opacity:1;fill-rule:evenodd;stroke:none" />
      <path
         inkscape:connector-curvature="0"
         id="703eaa466ba245e7a56998d8f870dbc4"
         d="m 460.28908,1353.5433 460.28908,-265.748 0,-35.4331 -460.28908,265.748 z"
         style="fill:#cccccc;fill-opacity:1;fill-rule:evenodd;stroke:none" />
      <path
         inkscape:connector-curvature="0"
         id="853d6ad0261346f49015d799771e67b7"
         d="M 920.57816,520.86611 951.2641,503.14957 184.11563,60.236201 153.42969,77.952736 Z"
         style="fill:#e6e6e6;fill-opacity:1;fill-rule:evenodd;stroke:none" />
      <path
         inkscape:connector-curvature="0"
         id="48653bb1e95d4379a1e3e967c740914c"
         d="M 153.42969,644.88186 859.20629,1052.3622 613.71878,1194.0945 -92.057816,786.61414 153.42969,644.88185 Z"
         style="fill:#b3b3b3;fill-rule:evenodd;stroke:none" />
      <path
         inkscape:connector-curvature="0"
         id="b2911359491d44158d4906f82e3d1d64"
         d="m 153.42969,963.77948 153.4297,88.58272 -122.74376,70.8661 -153.429691,-88.5827 z"
         style="fill:#b3b3b3;fill-opacity:1;fill-rule:evenodd;stroke:none" />
      <path
         inkscape:connector-curvature="0"
         id="60fb32cc9f6b4964b9e2e76050afa088"
         d="m 184.11563,131.10234 705.77659,407.48031 0,460.6299 -705.77659,-407.4803 z"
         style="fill:#00a1e5;fill-opacity:1;fill-rule:evenodd;stroke:none" />
      <path
         inkscape:connector-curvature="0"
         id="ae076736ec7045268e78d9f333b18653"
         d="m 920.57816,520.86611 30.68594,-17.71654 0,566.92913 -30.68594,17.7166 z"
         style="fill:#cccccc;fill-opacity:1;fill-rule:evenodd;stroke:none" />
    </g>
    <g
       transform="matrix(0.9707067,0,0,0.97007616,-28.325874,-29.24988)"
       id="g4337">
      <g
         transform="matrix(0.02247623,0,0,0.01913428,282.15889,680.7002)"
         id="f2aa498193fa4ff2944f445e8b2fa468"
         style="fill:#c7c7c7">
        <path
           id="04c42f0cfe214789b635e88c3bcfa985"
           inkscape:connector-curvature="0"
           d="m 5903,2361 c 50,82 34,3995 -31,4149 -51,122 -1703,1495 -1789,1531 -1117,-7 -1870,-414 -1995,-629 -48,-270 -7,-4433 38,-4520 40,-76 2153,-833 2227,-851 67,-15 1493,229 1550,320 z" />
      </g>
      <g
         transform="matrix(0.02247623,0,0,0.01913428,282.15889,680.7002)"
         id="6371f95715864093a445e154c8e5763a"
         style="fill:#000000">
        <path
           id="1f16e765471c4ef9af67bc3e3c7dfeaf"
           inkscape:connector-curvature="0"
           d="m 5881,2374 2,-1 -2,2 c 0,-1 -1,-1 -1,-1 l 0,-2 7,-3 -2,2 -5,1 5,-1 -2,2 -2,1 z m 2,-1 2,-2 2,-2 5,-2 -5,4 5,-4 1,0 -6,3 0,1 0,-1 -4,3 z m 10,-6 -1,0 1,0 -1,0 11,-6 -10,5 0,1 z m 11,-4 -11,4 0,-1 11,-3 z m 20,-15 c -2,-3 -4,-6 -7,-9 -2,-3 -5,-5 -8,-7 -5,-4 -12,-8 -20,-12 -7,-4 -15,-7 -24,-11 -9,-4 -19,-7 -30,-11 -21,-8 -47,-16 -75,-24 -29,-8 -61,-16 -95,-25 -136,-34 -313,-72 -494,-106 -181,-35 -364,-66 -511,-90 -73,-11 -138,-21 -189,-27 -25,-3 -47,-6 -65,-8 -9,-1 -17,-1 -24,-2 -4,0 -7,0 -10,-1 l -9,0 c -3,0 -5,0 -7,1 l -4,0 c -2,0 -3,0 -4,1 -2,0 -4,1 -7,2 -2,0 -5,1 -8,2 -3,1 -7,2 -11,3 -4,2 -8,3 -13,5 -10,3 -22,7 -35,12 -13,4 -28,9 -44,15 -33,11 -71,25 -115,40 -43,15 -91,32 -144,51 -209,75 -481,173 -753,274 -271,101 -542,203 -747,285 -51,21 -98,40 -140,57 -43,18 -80,34 -111,48 -16,7 -30,14 -42,20 -13,6 -24,12 -33,17 -5,2 -9,5 -13,7 -4,3 -8,5 -10,7 -4,3 -7,5 -9,7 -5,4 -7,8 -9,11 -1,2 -2,5 -4,9 0,3 -1,6 -1,9 -1,3 -1,7 -2,11 -1,4 -1,8 -2,13 0,9 -1,20 -3,32 0,13 -1,27 -2,42 -2,31 -4,69 -6,111 -2,43 -4,91 -5,144 -7,213 -14,504 -19,835 -11,662 -19,1482 -19,2144 0,308 2,583 5,791 1,52 2,100 3,143 1,43 3,82 4,115 1,34 3,62 4,85 1,12 2,22 3,30 1,5 1,9 1,13 1,3 2,7 2,10 l 1,4 2,4 c 9,15 20,30 33,46 14,16 30,32 48,49 35,32 80,66 135,101 107,70 249,142 423,207 173,65 377,124 608,167 231,43 489,70 769,72 l 6,0 5,-2 8,-4 c 2,-2 5,-3 8,-6 3,-2 6,-4 10,-6 l 12,-9 c 9,-6 19,-13 30,-22 11,-8 23,-17 37,-28 27,-20 58,-45 93,-73 35,-28 74,-59 116,-93 169,-136 385,-315 600,-497 215,-181 430,-366 593,-512 41,-37 79,-71 113,-103 34,-31 64,-59 89,-84 13,-13 24,-24 34,-35 11,-11 20,-20 28,-29 8,-9 14,-17 19,-23 3,-4 5,-8 7,-10 2,-4 4,-8 6,-11 0,-2 1,-5 2,-8 1,-3 2,-5 3,-9 1,-6 2,-13 3,-22 2,-8 3,-17 4,-28 1,-11 2,-22 3,-35 2,-25 4,-55 7,-89 1,-34 3,-72 5,-113 8,-166 14,-391 19,-648 10,-516 16,-1164 16,-1743 0,-389 -3,-747 -8,-1012 -1,-66 -2,-127 -4,-181 -1,-53 -3,-100 -5,-139 -1,-20 -2,-38 -3,-53 -1,-16 -2,-30 -3,-41 -1,-6 -1,-11 -2,-16 -1,-5 -1,-10 -2,-13 -1,-4 -1,-8 -2,-11 -1,-2 -1,-4 -2,-5 -1,-3 -2,-5 -3,-6 z m -37,21 12,-12 -12,12 z m -6,9 c 1,3 1,7 2,11 0,4 1,9 1,15 1,11 3,24 4,39 0,15 1,33 2,52 2,39 4,86 6,139 1,53 2,114 4,180 5,264 7,622 7,1011 0,578 -5,1227 -15,1742 -6,257 -12,481 -19,646 -2,42 -4,79 -6,113 -2,33 -4,63 -6,88 -1,12 -2,24 -4,34 0,10 -2,18 -3,26 -1,7 -2,14 -3,18 0,3 -1,4 -1,6 0,1 -1,2 -1,2 0,1 -1,2 -2,4 -1,1 -3,4 -4,6 -5,6 -10,13 -17,21 -7,7 -16,17 -26,27 l -34,34 c -25,24 -54,52 -88,83 -33,31 -71,66 -112,102 -163,146 -377,330 -592,512 -215,181 -431,360 -598,495 -42,34 -81,65 -116,93 -35,28 -66,52 -93,73 -13,10 -26,20 -37,28 -10,8 -20,15 -28,21 -4,3 -8,6 -12,8 -3,2 -6,4 -8,6 -2,1 -4,2 -5,3 -276,-2 -528,-29 -755,-71 -228,-42 -429,-100 -600,-164 -169,-64 -308,-134 -413,-202 -51,-33 -94,-66 -128,-97 -17,-15 -31,-30 -43,-44 -10,-12 -19,-23 -26,-34 l 0,-4 c -1,-3 -1,-7 -1,-11 -1,-8 -2,-18 -3,-28 -2,-23 -3,-51 -5,-84 -1,-33 -2,-71 -3,-115 -1,-42 -2,-90 -3,-142 -3,-208 -5,-482 -5,-790 0,-662 7,-1481 18,-2143 6,-330 12,-622 19,-834 2,-53 4,-101 6,-144 2,-42 3,-79 5,-109 1,-16 2,-30 3,-42 1,-12 2,-22 3,-31 0,-4 1,-8 1,-11 1,-4 1,-6 2,-9 l 0,-2 c 0,-1 1,-1 2,-2 2,-1 4,-3 7,-5 4,-1 7,-4 11,-6 9,-5 19,-10 31,-16 12,-6 26,-12 41,-19 31,-14 67,-29 109,-47 42,-17 89,-37 140,-57 205,-82 475,-184 746,-284 271,-101 543,-200 752,-274 52,-19 101,-36 144,-51 43,-16 82,-29 114,-40 17,-6 31,-11 44,-16 13,-4 25,-8 35,-11 4,-2 9,-3 13,-4 4,-2 7,-3 10,-4 3,-1 5,-1 8,-2 l 3,-1 -2,-8 1,8 1,0 4,0 7,0 c 2,0 5,0 8,1 7,0 14,1 23,2 17,1 39,4 64,7 50,6 114,16 187,27 147,23 329,55 509,89 180,35 357,72 492,106 34,9 65,17 92,25 28,8 53,15 73,23 10,3 20,7 28,10 7,3 15,6 20,9 5,3 10,5 13,8 0,0 1,0 1,1 0,1 1,3 1,4 z M 4075,8017 c 1,0 1,-1 2,-1 l 6,0 0,14 -8,-13 8,13 0,11 -10,-23 c 0,0 1,-1 2,-1 z M 2110,7400 c 1,1 1,3 2,4 1,1 1,3 1,4 l -25,4 21,-11 1,-1 -1,1 1,-1 2,0 -2,0 z m 39,-4498 0,3 c -1,0 -1,1 -2,1 l -5,-6 -17,-4 17,4 -2,-1 4,2 5,1 z m -7,-2 2,1 -2,-1 z m -16,-8 14,7 -14,-7 z m 14,7 -10,-11 10,11 z m 2217,-841 -2,-17 2,17 z m -4,-17 4,17 0,1 -4,-18 z" />
      </g>
      <g
         transform="matrix(0.02247623,0,0,0.01913428,282.15889,680.7002)"
         id="4575d39f23af4f10a7fac03fdd4e6f0b"
         style="fill:#ffffff;fill-opacity:0.54118;stroke:#ffffff;stroke-width:1.26118731;stroke-opacity:0.54118">
        <path
           id="d4c16b1e93ae476488696f7096a846b0"
           inkscape:connector-curvature="0"
           d="m 5822,2442 -52,22 -52,23 -52,23 -53,25 -53,25 -53,26 -53,26 -54,27 -54,27 -54,28 -55,28 -54,29 -55,29 -55,29 -111,60 -112,60 -112,60 -113,61 -114,60 -114,60 -114,59 -57,29 -57,29 -58,28 -57,28 -27,-6 -28,-7 -56,-13 -58,-14 -59,-13 -60,-14 -61,-14 -61,-14 -63,-14 -62,-14 -63,-15 -127,-28 -127,-28 -64,-14 -63,-14 -62,-13 -62,-13 -61,-13 -60,-13 -60,-13 -58,-12 -57,-12 -28,-5 -28,-6 -27,-5 -27,-6 -27,-5 -26,-5 -26,-5 -25,-6 -25,-4 -24,-5 -24,-5 -24,-4 -23,-4 -22,-5 -22,-4 -21,-3 -21,-4 -20,-4 52,16 52,16 53,16 54,15 55,16 55,15 57,16 56,15 57,16 58,15 116,31 117,30 118,31 118,31 117,30 116,31 58,15 57,16 57,15 56,16 55,15 55,16 54,15 53,16 52,16 52,16 1,60 2,61 1,61 1,63 1,64 2,64 1,65 1,66 1,67 1,67 1,68 0,69 1,69 1,70 1,70 0,71 1,71 0,72 1,72 1,73 1,146 1,147 0,149 1,149 2,299 1,300 1,149 1,148 1,147 1,146 1,73 0,72 1,72 1,71 0,71 1,71 1,69 1,70 0,68 1,68 1,67 1,67 1,66 1,65 1,65 2,63 1,63 1,62 2,61 1,60 1,-61 1,-61 0,-63 1,-63 1,-64 1,-65 1,-66 1,-67 1,-67 1,-68 1,-69 2,-69 1,-70 1,-71 1,-71 1,-72 1,-72 2,-73 1,-73 1,-73 3,-148 3,-149 2,-151 3,-151 6,-303 5,-303 3,-151 3,-150 2,-149 3,-149 1,-73 2,-73 1,-73 1,-72 1,-71 1,-72 1,-70 2,-70 1,-70 1,-68 1,-68 1,-68 1,-66 1,-66 1,-65 1,-64 1,-64 0,-62 1,-62 1,-60 110,-59 109,-59 109,-57 109,-58 108,-57 107,-58 107,-57 107,-58 105,-58 105,-58 104,-60 103,-60 51,-30 50,-31 51,-31 50,-31 50,-31 50,-32 49,-32 50,-32 z"
           style="stroke-width:1.26118731" />
      </g>
      <g
         transform="matrix(0.02247623,0,0,0.01913428,282.15889,680.7002)"
         id="adb22ce78df14dada78b2dccb708d062"
         style="fill:none">
        <path
           id="d1472c39e0814c4c9e37eae5ed7677ae"
           inkscape:connector-curvature="0"
           d="m 5822,2442 c -549,232 -1156,606 -1768,901 -580,-138 -1417,-322 -1839,-396 543,169 1257,327 1800,496 32,1271 16,3196 48,4467 16,-1282 59,-3238 75,-4519 586,-317 1161,-601 1684,-949 z" />
      </g>
      <g
         transform="matrix(0.02247623,0,0,0.01913428,282.15889,680.7002)"
         id="366089fbf674493c83af54f8aaa7f656"
         style="fill:#000000;fill-opacity:0.16078001;stroke:#ffffff;stroke-width:1.26118731;stroke-opacity:0.16078001">
        <path
           id="099fcaca60364c5084e9930e0a81f244"
           inkscape:connector-curvature="0"
           d="m 2420,6628 10,14 10,13 11,13 12,13 12,12 12,12 14,12 13,12 14,12 15,11 15,11 16,11 15,11 17,10 16,10 17,11 18,9 18,10 18,9 18,8 19,9 19,8 19,8 19,8 40,15 40,14 41,12 41,11 42,10 41,9 42,8 41,6 41,6 41,3 21,2 20,1 19,1 20,0 20,0 19,0 19,-1 19,-1 18,-1 19,-1 17,-2 18,-3 17,-2 17,-3 17,-4 16,-4 15,-4 15,-4 15,-5 15,-5 -2,-1 -1,0 -5,-2 -6,-1 -7,-2 -8,-2 -10,-3 -10,-3 -12,-3 -13,-4 -14,-3 -15,-4 -16,-5 -16,-4 -18,-5 -18,-5 -19,-5 -20,-6 -20,-5 -21,-6 -22,-6 -22,-6 -22,-6 -23,-7 -24,-6 -48,-13 -49,-14 -50,-14 -50,-13 -50,-15 -50,-13 -49,-14 -49,-13 -23,-7 -24,-6 -23,-7 -22,-6 -22,-6 -21,-6 -21,-6 -20,-5 -19,-6 -19,-5 -18,-5 -17,-5 -16,-4 -15,-5 -15,-4 -13,-4 -12,-3 -12,-3 -10,-3 -9,-3 -7,-2 -7,-2 -5,-2 -2,0 -2,-1 z"
           style="stroke-width:1.26118731" />
      </g>
      <g
         transform="matrix(0.02247623,0,0,0.01913428,282.15889,680.7002)"
         id="e703c51d95ed46e7bd6e10429d075bbe"
         style="fill:none">
        <path
           id="64b76a07907c4df393713a1a78cd7f0c"
           inkscape:connector-curvature="0"
           d="m 2420,6628 c 201,289 833,431 1133,315 -53,-14 -1066,-293 -1133,-315 z" />
      </g>
      <g
         transform="matrix(0.02247623,0,0,0.01913428,282.15889,680.7002)"
         id="1cd7cf50664042cea6e87eb715594a7c"
         style="fill:none">
        <path
           id="b838e26173204b329215d4e979e9766e"
           inkscape:connector-curvature="0"
           d="m 3454,6093 -936,-361 c -97,34 -78,177 -78,177 l 146,51 c 0,0 204,319 566,194 0,0 269,48 302,-61 z" />
      </g>
      <g
         transform="matrix(0.02247623,0,0,0.01913428,282.15889,680.7002)"
         id="60e5b24f1a904abcaba54554f13c5a5f"
         style="fill:none">
        <path
           id="a36533b514dd486db44f62e433af256d"
           inkscape:connector-curvature="0"
           d="m 3446,5971 c -311,-81 -622,-161 -933,-242 -12,44 -13,107 6,140 47,23 142,41 189,64 136,131 255,142 472,124 84,17 168,31 251,48 26,-51 33,-72 15,-134 z" />
      </g>
      <g
         transform="matrix(0.02247623,0,0,0.01913428,282.15889,680.7002)"
         id="5752897ffb86484e8576f911f7718194"
         style="fill:#ffffff;fill-opacity:0.4;stroke:#ffffff;stroke-width:1.26118731;stroke-opacity:0.4">
        <path
           id="711d15ca88ea4a49a0b37087988b21c5"
           inkscape:connector-curvature="0"
           d="m 5856,2414 -1813,1017 7,4549 1775,-1494 31,-4072 z"
           style="stroke-width:1.26118731" />
      </g>
      <g
         transform="matrix(0.02247623,0,0,0.01913428,282.15889,680.7002)"
         id="710634315f954e8198ceada5d8e5b985"
         style="fill:none">
        <path
           id="1015bbfb7dbc4c73bdb26ee0a9021667"
           inkscape:connector-curvature="0"
           d="m 5856,2414 -1813,1017 7,4549 1775,-1494 31,-4072 z" />
      </g>
      <g
         transform="matrix(0.02247623,0,0,0.01913428,282.15889,680.7002)"
         id="5a954355fba74cd7969a66e2f78c4dbd"
         style="fill:#000000;fill-opacity:0.16078001;stroke:#ffffff;stroke-width:1.26118731;stroke-opacity:0.16078001">
        <path
           id="ee9dc99dede84d94908a82598d3edc82"
           inkscape:connector-curvature="0"
           d="m 2525,6916 10,13 11,12 10,13 11,11 11,12 11,11 12,11 12,10 12,10 12,10 13,10 12,9 13,9 13,8 27,17 28,15 28,14 28,13 29,11 29,11 30,9 30,8 29,8 30,6 30,5 30,4 30,3 30,2 29,2 29,0 29,-1 27,-2 28,-2 27,-3 26,-5 25,-5 24,-6 24,-6 22,-8 -2,-1 -4,0 -4,-2 -5,-1 -6,-2 -8,-2 -8,-2 -9,-2 -10,-3 -10,-3 -11,-3 -12,-3 -13,-4 -13,-3 -14,-4 -15,-4 -15,-4 -15,-5 -16,-4 -16,-5 -17,-4 -18,-5 -35,-10 -36,-10 -38,-10 -38,-10 -38,-11 -76,-21 -37,-10 -37,-11 -36,-10 -17,-4 -17,-5 -17,-5 -16,-4 -16,-5 -15,-4 -15,-4 -14,-4 -14,-4 -13,-4 -12,-3 -11,-3 -12,-3 -10,-3 -9,-3 -8,-2 -8,-3 -7,-1 -6,-2 -5,-2 -4,-1 -3,-1 z"
           style="stroke-width:1.26118731" />
      </g>
      <g
         transform="matrix(0.02247623,0,0,0.01913428,282.15889,680.7002)"
         id="1fa4c6793bc9460ab1322f2aa4e56951"
         style="fill:none">
        <path
           id="6b9618578d3b4bf598e4f64b7c8960b2"
           inkscape:connector-curvature="0"
           d="m 2525,6916 c 209,276 627,323 861,239 -39,-10 -810,-222 -861,-239 z" />
      </g>
      <g
         transform="matrix(0.02247623,0,0,0.01913428,282.15889,680.7002)"
         id="afb3ee3c7d434f7795cbf61968ec425f"
         style="fill:#000000;fill-opacity:0.16078001;stroke:#ffffff;stroke-width:1.26118731;stroke-opacity:0.16078001">
        <path
           id="7b421085737a43e0a79b84af022fffd0"
           inkscape:connector-curvature="0"
           d="m 2680,7199 12,15 12,14 13,14 14,12 14,13 14,11 15,11 16,11 15,9 17,9 16,9 17,7 18,7 17,7 18,5 18,5 18,5 19,3 18,4 19,2 18,2 19,1 19,0 19,0 18,-1 19,-2 18,-2 19,-3 18,-4 18,-4 18,-5 17,-6 -1,0 -2,-1 -3,0 -4,-1 -3,-1 -5,-2 -5,-1 -6,-2 -6,-1 -6,-2 -7,-2 -8,-2 -8,-2 -8,-3 -9,-2 -9,-2 -19,-6 -20,-5 -22,-6 -22,-6 -23,-6 -23,-7 -48,-13 -48,-13 -23,-7 -23,-6 -23,-6 -21,-6 -21,-6 -19,-6 -9,-2 -9,-3 -9,-2 -8,-2 -8,-2 -7,-2 -7,-2 -6,-2 -6,-2 -5,-2 -5,-1 -5,-1 -3,-1 -3,-1 -3,-1 -2,0 z"
           style="stroke-width:1.26118731" />
      </g>
      <g
         transform="matrix(0.02247623,0,0,0.01913428,282.15889,680.7002)"
         id="610ee22439384fe1a3a00761f987ff77"
         style="fill:none">
        <path
           id="8d41c8e849ce4d38aeec1c165b749839"
           inkscape:connector-curvature="0"
           d="m 2680,7199 c 121,163 355,213 540,149 -25,-6 -507,-139 -540,-149 z" />
      </g>
      <g
         transform="matrix(0.02247623,0,0,0.01913428,282.15889,680.7002)"
         id="5c9f54fbec73499d9b201acc443f34d5"
         style="fill:#fcfcfc;fill-opacity:0.43922005;stroke:#ffffff;stroke-width:1.26118731;stroke-opacity:0.43922005">
        <path
           id="d6a397fb0f6648afb7b6a92fd79152f4"
           inkscape:connector-curvature="0"
           d="m 2356,3259 -92,13 -17,2173 1425,399 35,-116 -1369,-365 18,-2104 z"
           style="stroke-width:1.26118731" />
      </g>
      <g
         transform="matrix(0.02247623,0,0,0.01913428,282.15889,680.7002)"
         id="961ad8e410084c9bb84335e95b26746a"
         style="fill:none">
        <path
           id="c4e53338d95f42778d1d057ee69883b9"
           inkscape:connector-curvature="0"
           d="m 2356,3259 -92,13 -17,2173 1425,399 35,-116 -1369,-365 18,-2104 z" />
      </g>
      <g
         transform="matrix(0.02247623,0,0,0.01913428,282.15889,680.7002)"
         id="0a4241a25dfa49b09528ff3a128cbf75"
         style="fill:#000000;fill-opacity:0.23137004;stroke:#ffffff;stroke-width:1.26118731;stroke-opacity:0.23137004">
        <path
           id="8e574a9c8b9c4244a2f0f882874655d9"
           inkscape:connector-curvature="0"
           d="m 3700,4065 -2,61 -1340,-386 1342,325 z"
           style="stroke-width:1.26118731" />
      </g>
      <g
         transform="matrix(0.02247623,0,0,0.01913428,282.15889,680.7002)"
         id="86ee28d801c64637a04ab134d9a9d600"
         style="fill:#000000;fill-opacity:0.23137004;stroke:#ffffff;stroke-width:1.26118731;stroke-opacity:0.23137004">
        <path
           id="39100fe52a774858ad55b8b8202c9e66"
           inkscape:connector-curvature="0"
           d="m 3720,4507 -3,61 -1339,-386 1342,325 z"
           style="stroke-width:1.26118731" />
      </g>
      <g
         transform="matrix(0.02247623,0,0,0.01913428,282.15889,680.7002)"
         id="7a4ddc358402479782353e4abdbf7a6c"
         style="fill:#000000;fill-opacity:0.23137004;stroke:#ffffff;stroke-width:1.26118731;stroke-opacity:0.23137004">
        <path
           id="d039739ad62a45699695b806446573b1"
           inkscape:connector-curvature="0"
           d="m 3700,4916 -2,61 -1340,-386 1342,325 z"
           style="stroke-width:1.26118731" />
      </g>
      <g
         transform="matrix(0.02247623,0,0,0.01913428,282.15889,680.7002)"
         id="35fd0045234647bfaaafc77996e1bbaf"
         style="fill:#000000;fill-opacity:0.23137004;stroke:#ffffff;stroke-width:1.26118731;stroke-opacity:0.23137004">
        <path
           id="bdaabf1332c64e538eafee9a961cb739"
           inkscape:connector-curvature="0"
           d="m 3700,5318 -2,61 -1340,-387 1342,326 z"
           style="stroke-width:1.26118731" />
      </g>
      <g
         transform="matrix(0.02247623,0,0,0.01913428,282.15889,680.7002)"
         id="7b3667e4e19a46248a5a6d702aa27fca"
         style="fill:#9e9e9e">
        <path
           id="127ab7022c7d47aeb324d7c20206b0dc"
           inkscape:connector-curvature="0"
           d="m 2361,3309 1332,333 -11,2197 11,0 11,0 11,-2205 0,-9 -8,-2 -1341,-335 -2,11 -3,10 z m 1340,335 -8,-2 0,-8 11,0 -3,10 z" />
      </g>
    </g>
    <text
       xml:space="preserve"
       style="font-style:normal;font-weight:normal;font-size:20.07350922px;line-height:125%;font-family:sans-serif;letter-spacing:0px;word-spacing:0px;fill:#000000;fill-opacity:1;stroke:none;stroke-width:1px;stroke-linecap:butt;stroke-linejoin:miter;stroke-opacity:1"
       x="8.6553574"
       y="633.28174"
       id="text4248"
       sodipodi:linespacing="125%"
       transform="scale(1.0003249,0.9996752)"><tspan
         sodipodi:role="line"
         id="tspan4250"
         x="8.6553574"
         y="633.28174">First HTTP request:</tspan></text>
    <use
       xlink:href="#f6e0af47aaa842fd8f38dfb720b380bf-6"
       pencil:name="outArrow1"
       id="a263d284e206498ba1ffea435e183324"
       style="stroke:#00ff00;stroke-width:2.52237463;stroke-opacity:1"
       x="0"
       y="0"
       width="744.09448"
       height="1052.3622"
       transform="matrix(0.83054352,-0.04851759,0.04847446,0.82872754,179.31367,748.87536)" />
    <text
       sodipodi:linespacing="125%"
       pencil:name="text"
       id="7357f466a10945d5b746a2c7863c6d4a"
       style="font-style:normal;font-weight:normal;font-size:11.13330841px;line-height:125%;text-align:center;text-decoration:none;text-decoration-line:none;writing-mode:lr-tb;text-anchor:middle;fill:#000000;fill-opacity:1"
       transform="matrix(0.96979854,-0.05665241,0.05660204,0.96767807,181.9683,744.19115)"
       x="152.88232"
       y="518.61047">
      <textPath
         xlink:href="#f6e0af47aaa842fd8f38dfb720b380bf-6"
         startOffset="50%"
         alignment-baseline="middle"
         id="textPath208"
         style="line-height:125%;text-align:center;writing-mode:lr-tb;text-anchor:middle">response</textPath>
    </text>
    <g
       transform="matrix(0.92254873,-0.30175639,0.30195253,0.92194948,-233.8891,107.32326)"
       id="g4462">
      <use
         transform="matrix(0.85706762,0,0,0.8557495,223.92593,783.20592)"
         height="1052.3622"
         width="744.09448"
         y="0"
         x="0"
         style="stroke:#ff0000;stroke-width:2.52237463;stroke-opacity:1"
         id="c0d97af857894605b77de4fe92c7a09d"
         pencil:name="outArrow1"
         xlink:href="#bccba69cdd324785aba9af5f8abb4646-7" />
      <text
         transform="matrix(0.85706762,0,0,0.8557495,223.92593,783.20592)"
         style="font-style:normal;font-weight:normal;font-size:13px;text-decoration:none;text-decoration-line:none;fill:#000000;fill-opacity:1"
         id="4c2e28165ade4bb0bd2f5fbd2e3db704"
         pencil:name="text">
        <textPath
           style="text-anchor:middle"
           id="textPath155"
           alignment-baseline="middle"
           startOffset="50%"
           xlink:href="#bccba69cdd324785aba9af5f8abb4646-7"><tspan
   dx="-16"
   id="53c032c481ec4a16bd342e77f52c2901"
   pencil:name="textSpan"
   dy="-4.3333335">request</tspan>
</textPath>
      </text>
    </g>
    <text
       xml:space="preserve"
       style="font-style:normal;font-weight:normal;font-size:40px;line-height:125%;font-family:sans-serif;letter-spacing:0px;word-spacing:0px;fill:#000000;fill-opacity:1;stroke:none;stroke-width:1px;stroke-linecap:butt;stroke-linejoin:miter;stroke-opacity:1"
       x="29.999996"
       y="591.64795"
       id="text4338"
       sodipodi:linespacing="125%"><tspan
         sodipodi:role="line"
         id="tspan4340"
         x="29.999996"
         y="591.64795" /></text>
    <text
       sodipodi:linespacing="125%"
       id="text4342"
       y="800.93341"
       x="95.151672"
       style="font-style:normal;font-weight:normal;font-size:9.52648449px;line-height:125%;font-family:sans-serif;letter-spacing:0px;word-spacing:0px;fill:#00ff00;fill-opacity:1;stroke:none;stroke-width:1px;stroke-linecap:butt;stroke-linejoin:miter;stroke-opacity:1"
       xml:space="preserve"
       transform="scale(1.0003249,0.9996752)"><tspan
         y="800.93341"
         x="95.151672"
         id="tspan4344"
         sodipodi:role="line">Set-Cookie: &quot;PHPSESSID=jslir608sma50jnmj7pu8j4rd0&quot;</tspan></text>
    <text
       xml:space="preserve"
       style="font-style:normal;font-weight:normal;font-size:9.52648449px;line-height:125%;font-family:sans-serif;letter-spacing:0px;word-spacing:0px;fill:#ff0000;fill-opacity:1;stroke:none;stroke-width:1px;stroke-linecap:butt;stroke-linejoin:miter;stroke-opacity:1"
       x="190.09099"
       y="679.43756"
       id="text4359"
       sodipodi:linespacing="125%"
       transform="scale(1.0003249,0.9996752)"><tspan
         sodipodi:role="line"
         id="tspan4361"
         x="190.09099"
         y="679.43756">No cookies</tspan></text>
    <g
       transform="matrix(0.06877547,0,0,0.06862509,71.48411,901.65783)"
       id="g4363">
      <path
         style="fill:#000000;fill-opacity:1;fill-rule:evenodd;stroke:none"
         d="m 153.42969,77.952736 767.14847,442.913374 0,531.49609 -767.14847,-442.91342 z"
         id="path4365"
         inkscape:connector-curvature="0" />
      <path
         style="fill:#f2f2f2;fill-rule:evenodd;stroke:none"
         d="M 920.57816,1052.3622 460.28908,1318.1102 -306.85939,875.19681 153.42969,609.44879 Z"
         id="path4367"
         inkscape:connector-curvature="0" />
      <path
         style="fill:#e6e6e6;fill-opacity:1;fill-rule:evenodd;stroke:none"
         d="m -306.85939,875.19681 0,35.43307 767.14847,442.91342 0,-35.4331 z"
         id="path4369"
         inkscape:connector-curvature="0" />
      <path
         style="fill:#cccccc;fill-opacity:1;fill-rule:evenodd;stroke:none"
         d="m 460.28908,1353.5433 460.28908,-265.748 0,-35.4331 -460.28908,265.748 z"
         id="path4371"
         inkscape:connector-curvature="0" />
      <path
         style="fill:#e6e6e6;fill-opacity:1;fill-rule:evenodd;stroke:none"
         d="M 920.57816,520.86611 951.2641,503.14957 184.11563,60.236201 153.42969,77.952736 Z"
         id="path4373"
         inkscape:connector-curvature="0" />
      <path
         style="fill:#b3b3b3;fill-rule:evenodd;stroke:none"
         d="M 153.42969,644.88186 859.20629,1052.3622 613.71878,1194.0945 -92.057816,786.61414 153.42969,644.88185 Z"
         id="path4375"
         inkscape:connector-curvature="0" />
      <path
         style="fill:#b3b3b3;fill-opacity:1;fill-rule:evenodd;stroke:none"
         d="m 153.42969,963.77948 153.4297,88.58272 -122.74376,70.8661 -153.429691,-88.5827 z"
         id="path4377"
         inkscape:connector-curvature="0" />
      <path
         style="fill:#00a1e5;fill-opacity:1;fill-rule:evenodd;stroke:none"
         d="m 184.11563,131.10234 705.77659,407.48031 0,460.6299 -705.77659,-407.4803 z"
         id="path4379"
         inkscape:connector-curvature="0" />
      <path
         style="fill:#cccccc;fill-opacity:1;fill-rule:evenodd;stroke:none"
         d="m 920.57816,520.86611 30.68594,-17.71654 0,566.92913 -30.68594,17.7166 z"
         id="path4381"
         inkscape:connector-curvature="0" />
    </g>
    <g
       id="g4383"
       transform="matrix(0.9707067,0,0,0.97007616,-29.306436,188.83172)">
      <g
         style="fill:#c7c7c7"
         id="g4385"
         transform="matrix(0.02247623,0,0,0.01913428,282.15889,680.7002)">
        <path
           d="m 5903,2361 c 50,82 34,3995 -31,4149 -51,122 -1703,1495 -1789,1531 -1117,-7 -1870,-414 -1995,-629 -48,-270 -7,-4433 38,-4520 40,-76 2153,-833 2227,-851 67,-15 1493,229 1550,320 z"
           inkscape:connector-curvature="0"
           id="path4387" />
      </g>
      <g
         style="fill:#000000"
         id="g4389"
         transform="matrix(0.02247623,0,0,0.01913428,282.15889,680.7002)">
        <path
           d="m 5881,2374 2,-1 -2,2 c 0,-1 -1,-1 -1,-1 l 0,-2 7,-3 -2,2 -5,1 5,-1 -2,2 -2,1 z m 2,-1 2,-2 2,-2 5,-2 -5,4 5,-4 1,0 -6,3 0,1 0,-1 -4,3 z m 10,-6 -1,0 1,0 -1,0 11,-6 -10,5 0,1 z m 11,-4 -11,4 0,-1 11,-3 z m 20,-15 c -2,-3 -4,-6 -7,-9 -2,-3 -5,-5 -8,-7 -5,-4 -12,-8 -20,-12 -7,-4 -15,-7 -24,-11 -9,-4 -19,-7 -30,-11 -21,-8 -47,-16 -75,-24 -29,-8 -61,-16 -95,-25 -136,-34 -313,-72 -494,-106 -181,-35 -364,-66 -511,-90 -73,-11 -138,-21 -189,-27 -25,-3 -47,-6 -65,-8 -9,-1 -17,-1 -24,-2 -4,0 -7,0 -10,-1 l -9,0 c -3,0 -5,0 -7,1 l -4,0 c -2,0 -3,0 -4,1 -2,0 -4,1 -7,2 -2,0 -5,1 -8,2 -3,1 -7,2 -11,3 -4,2 -8,3 -13,5 -10,3 -22,7 -35,12 -13,4 -28,9 -44,15 -33,11 -71,25 -115,40 -43,15 -91,32 -144,51 -209,75 -481,173 -753,274 -271,101 -542,203 -747,285 -51,21 -98,40 -140,57 -43,18 -80,34 -111,48 -16,7 -30,14 -42,20 -13,6 -24,12 -33,17 -5,2 -9,5 -13,7 -4,3 -8,5 -10,7 -4,3 -7,5 -9,7 -5,4 -7,8 -9,11 -1,2 -2,5 -4,9 0,3 -1,6 -1,9 -1,3 -1,7 -2,11 -1,4 -1,8 -2,13 0,9 -1,20 -3,32 0,13 -1,27 -2,42 -2,31 -4,69 -6,111 -2,43 -4,91 -5,144 -7,213 -14,504 -19,835 -11,662 -19,1482 -19,2144 0,308 2,583 5,791 1,52 2,100 3,143 1,43 3,82 4,115 1,34 3,62 4,85 1,12 2,22 3,30 1,5 1,9 1,13 1,3 2,7 2,10 l 1,4 2,4 c 9,15 20,30 33,46 14,16 30,32 48,49 35,32 80,66 135,101 107,70 249,142 423,207 173,65 377,124 608,167 231,43 489,70 769,72 l 6,0 5,-2 8,-4 c 2,-2 5,-3 8,-6 3,-2 6,-4 10,-6 l 12,-9 c 9,-6 19,-13 30,-22 11,-8 23,-17 37,-28 27,-20 58,-45 93,-73 35,-28 74,-59 116,-93 169,-136 385,-315 600,-497 215,-181 430,-366 593,-512 41,-37 79,-71 113,-103 34,-31 64,-59 89,-84 13,-13 24,-24 34,-35 11,-11 20,-20 28,-29 8,-9 14,-17 19,-23 3,-4 5,-8 7,-10 2,-4 4,-8 6,-11 0,-2 1,-5 2,-8 1,-3 2,-5 3,-9 1,-6 2,-13 3,-22 2,-8 3,-17 4,-28 1,-11 2,-22 3,-35 2,-25 4,-55 7,-89 1,-34 3,-72 5,-113 8,-166 14,-391 19,-648 10,-516 16,-1164 16,-1743 0,-389 -3,-747 -8,-1012 -1,-66 -2,-127 -4,-181 -1,-53 -3,-100 -5,-139 -1,-20 -2,-38 -3,-53 -1,-16 -2,-30 -3,-41 -1,-6 -1,-11 -2,-16 -1,-5 -1,-10 -2,-13 -1,-4 -1,-8 -2,-11 -1,-2 -1,-4 -2,-5 -1,-3 -2,-5 -3,-6 z m -37,21 12,-12 -12,12 z m -6,9 c 1,3 1,7 2,11 0,4 1,9 1,15 1,11 3,24 4,39 0,15 1,33 2,52 2,39 4,86 6,139 1,53 2,114 4,180 5,264 7,622 7,1011 0,578 -5,1227 -15,1742 -6,257 -12,481 -19,646 -2,42 -4,79 -6,113 -2,33 -4,63 -6,88 -1,12 -2,24 -4,34 0,10 -2,18 -3,26 -1,7 -2,14 -3,18 0,3 -1,4 -1,6 0,1 -1,2 -1,2 0,1 -1,2 -2,4 -1,1 -3,4 -4,6 -5,6 -10,13 -17,21 -7,7 -16,17 -26,27 l -34,34 c -25,24 -54,52 -88,83 -33,31 -71,66 -112,102 -163,146 -377,330 -592,512 -215,181 -431,360 -598,495 -42,34 -81,65 -116,93 -35,28 -66,52 -93,73 -13,10 -26,20 -37,28 -10,8 -20,15 -28,21 -4,3 -8,6 -12,8 -3,2 -6,4 -8,6 -2,1 -4,2 -5,3 -276,-2 -528,-29 -755,-71 -228,-42 -429,-100 -600,-164 -169,-64 -308,-134 -413,-202 -51,-33 -94,-66 -128,-97 -17,-15 -31,-30 -43,-44 -10,-12 -19,-23 -26,-34 l 0,-4 c -1,-3 -1,-7 -1,-11 -1,-8 -2,-18 -3,-28 -2,-23 -3,-51 -5,-84 -1,-33 -2,-71 -3,-115 -1,-42 -2,-90 -3,-142 -3,-208 -5,-482 -5,-790 0,-662 7,-1481 18,-2143 6,-330 12,-622 19,-834 2,-53 4,-101 6,-144 2,-42 3,-79 5,-109 1,-16 2,-30 3,-42 1,-12 2,-22 3,-31 0,-4 1,-8 1,-11 1,-4 1,-6 2,-9 l 0,-2 c 0,-1 1,-1 2,-2 2,-1 4,-3 7,-5 4,-1 7,-4 11,-6 9,-5 19,-10 31,-16 12,-6 26,-12 41,-19 31,-14 67,-29 109,-47 42,-17 89,-37 140,-57 205,-82 475,-184 746,-284 271,-101 543,-200 752,-274 52,-19 101,-36 144,-51 43,-16 82,-29 114,-40 17,-6 31,-11 44,-16 13,-4 25,-8 35,-11 4,-2 9,-3 13,-4 4,-2 7,-3 10,-4 3,-1 5,-1 8,-2 l 3,-1 -2,-8 1,8 1,0 4,0 7,0 c 2,0 5,0 8,1 7,0 14,1 23,2 17,1 39,4 64,7 50,6 114,16 187,27 147,23 329,55 509,89 180,35 357,72 492,106 34,9 65,17 92,25 28,8 53,15 73,23 10,3 20,7 28,10 7,3 15,6 20,9 5,3 10,5 13,8 0,0 1,0 1,1 0,1 1,3 1,4 z M 4075,8017 c 1,0 1,-1 2,-1 l 6,0 0,14 -8,-13 8,13 0,11 -10,-23 c 0,0 1,-1 2,-1 z M 2110,7400 c 1,1 1,3 2,4 1,1 1,3 1,4 l -25,4 21,-11 1,-1 -1,1 1,-1 2,0 -2,0 z m 39,-4498 0,3 c -1,0 -1,1 -2,1 l -5,-6 -17,-4 17,4 -2,-1 4,2 5,1 z m -7,-2 2,1 -2,-1 z m -16,-8 14,7 -14,-7 z m 14,7 -10,-11 10,11 z m 2217,-841 -2,-17 2,17 z m -4,-17 4,17 0,1 -4,-18 z"
           inkscape:connector-curvature="0"
           id="path4391" />
      </g>
      <g
         style="fill:#ffffff;fill-opacity:0.54118;stroke:#ffffff;stroke-width:1.26118731;stroke-opacity:0.54118"
         id="g4393"
         transform="matrix(0.02247623,0,0,0.01913428,282.15889,680.7002)">
        <path
           style="stroke-width:1.26118731"
           d="m 5822,2442 -52,22 -52,23 -52,23 -53,25 -53,25 -53,26 -53,26 -54,27 -54,27 -54,28 -55,28 -54,29 -55,29 -55,29 -111,60 -112,60 -112,60 -113,61 -114,60 -114,60 -114,59 -57,29 -57,29 -58,28 -57,28 -27,-6 -28,-7 -56,-13 -58,-14 -59,-13 -60,-14 -61,-14 -61,-14 -63,-14 -62,-14 -63,-15 -127,-28 -127,-28 -64,-14 -63,-14 -62,-13 -62,-13 -61,-13 -60,-13 -60,-13 -58,-12 -57,-12 -28,-5 -28,-6 -27,-5 -27,-6 -27,-5 -26,-5 -26,-5 -25,-6 -25,-4 -24,-5 -24,-5 -24,-4 -23,-4 -22,-5 -22,-4 -21,-3 -21,-4 -20,-4 52,16 52,16 53,16 54,15 55,16 55,15 57,16 56,15 57,16 58,15 116,31 117,30 118,31 118,31 117,30 116,31 58,15 57,16 57,15 56,16 55,15 55,16 54,15 53,16 52,16 52,16 1,60 2,61 1,61 1,63 1,64 2,64 1,65 1,66 1,67 1,67 1,68 0,69 1,69 1,70 1,70 0,71 1,71 0,72 1,72 1,73 1,146 1,147 0,149 1,149 2,299 1,300 1,149 1,148 1,147 1,146 1,73 0,72 1,72 1,71 0,71 1,71 1,69 1,70 0,68 1,68 1,67 1,67 1,66 1,65 1,65 2,63 1,63 1,62 2,61 1,60 1,-61 1,-61 0,-63 1,-63 1,-64 1,-65 1,-66 1,-67 1,-67 1,-68 1,-69 2,-69 1,-70 1,-71 1,-71 1,-72 1,-72 2,-73 1,-73 1,-73 3,-148 3,-149 2,-151 3,-151 6,-303 5,-303 3,-151 3,-150 2,-149 3,-149 1,-73 2,-73 1,-73 1,-72 1,-71 1,-72 1,-70 2,-70 1,-70 1,-68 1,-68 1,-68 1,-66 1,-66 1,-65 1,-64 1,-64 0,-62 1,-62 1,-60 110,-59 109,-59 109,-57 109,-58 108,-57 107,-58 107,-57 107,-58 105,-58 105,-58 104,-60 103,-60 51,-30 50,-31 51,-31 50,-31 50,-31 50,-32 49,-32 50,-32 z"
           inkscape:connector-curvature="0"
           id="path4395" />
      </g>
      <g
         style="fill:none"
         id="g4397"
         transform="matrix(0.02247623,0,0,0.01913428,282.15889,680.7002)">
        <path
           d="m 5822,2442 c -549,232 -1156,606 -1768,901 -580,-138 -1417,-322 -1839,-396 543,169 1257,327 1800,496 32,1271 16,3196 48,4467 16,-1282 59,-3238 75,-4519 586,-317 1161,-601 1684,-949 z"
           inkscape:connector-curvature="0"
           id="path4399" />
      </g>
      <g
         style="fill:#000000;fill-opacity:0.16078001;stroke:#ffffff;stroke-width:1.26118731;stroke-opacity:0.16078001"
         id="g4401"
         transform="matrix(0.02247623,0,0,0.01913428,282.15889,680.7002)">
        <path
           style="stroke-width:1.26118731"
           d="m 2420,6628 10,14 10,13 11,13 12,13 12,12 12,12 14,12 13,12 14,12 15,11 15,11 16,11 15,11 17,10 16,10 17,11 18,9 18,10 18,9 18,8 19,9 19,8 19,8 19,8 40,15 40,14 41,12 41,11 42,10 41,9 42,8 41,6 41,6 41,3 21,2 20,1 19,1 20,0 20,0 19,0 19,-1 19,-1 18,-1 19,-1 17,-2 18,-3 17,-2 17,-3 17,-4 16,-4 15,-4 15,-4 15,-5 15,-5 -2,-1 -1,0 -5,-2 -6,-1 -7,-2 -8,-2 -10,-3 -10,-3 -12,-3 -13,-4 -14,-3 -15,-4 -16,-5 -16,-4 -18,-5 -18,-5 -19,-5 -20,-6 -20,-5 -21,-6 -22,-6 -22,-6 -22,-6 -23,-7 -24,-6 -48,-13 -49,-14 -50,-14 -50,-13 -50,-15 -50,-13 -49,-14 -49,-13 -23,-7 -24,-6 -23,-7 -22,-6 -22,-6 -21,-6 -21,-6 -20,-5 -19,-6 -19,-5 -18,-5 -17,-5 -16,-4 -15,-5 -15,-4 -13,-4 -12,-3 -12,-3 -10,-3 -9,-3 -7,-2 -7,-2 -5,-2 -2,0 -2,-1 z"
           inkscape:connector-curvature="0"
           id="path4403" />
      </g>
      <g
         style="fill:none"
         id="g4405"
         transform="matrix(0.02247623,0,0,0.01913428,282.15889,680.7002)">
        <path
           d="m 2420,6628 c 201,289 833,431 1133,315 -53,-14 -1066,-293 -1133,-315 z"
           inkscape:connector-curvature="0"
           id="path4407" />
      </g>
      <g
         style="fill:none"
         id="g4409"
         transform="matrix(0.02247623,0,0,0.01913428,282.15889,680.7002)">
        <path
           d="m 3454,6093 -936,-361 c -97,34 -78,177 -78,177 l 146,51 c 0,0 204,319 566,194 0,0 269,48 302,-61 z"
           inkscape:connector-curvature="0"
           id="path4411" />
      </g>
      <g
         style="fill:none"
         id="g4413"
         transform="matrix(0.02247623,0,0,0.01913428,282.15889,680.7002)">
        <path
           d="m 3446,5971 c -311,-81 -622,-161 -933,-242 -12,44 -13,107 6,140 47,23 142,41 189,64 136,131 255,142 472,124 84,17 168,31 251,48 26,-51 33,-72 15,-134 z"
           inkscape:connector-curvature="0"
           id="path4415" />
      </g>
      <g
         style="fill:#ffffff;fill-opacity:0.4;stroke:#ffffff;stroke-width:1.26118731;stroke-opacity:0.4"
         id="g4417"
         transform="matrix(0.02247623,0,0,0.01913428,282.15889,680.7002)">
        <path
           style="stroke-width:1.26118731"
           d="m 5856,2414 -1813,1017 7,4549 1775,-1494 31,-4072 z"
           inkscape:connector-curvature="0"
           id="path4419" />
      </g>
      <g
         style="fill:none"
         id="g4421"
         transform="matrix(0.02247623,0,0,0.01913428,282.15889,680.7002)">
        <path
           d="m 5856,2414 -1813,1017 7,4549 1775,-1494 31,-4072 z"
           inkscape:connector-curvature="0"
           id="path4423" />
      </g>
      <g
         style="fill:#000000;fill-opacity:0.16078001;stroke:#ffffff;stroke-width:1.26118731;stroke-opacity:0.16078001"
         id="g4425"
         transform="matrix(0.02247623,0,0,0.01913428,282.15889,680.7002)">
        <path
           style="stroke-width:1.26118731"
           d="m 2525,6916 10,13 11,12 10,13 11,11 11,12 11,11 12,11 12,10 12,10 12,10 13,10 12,9 13,9 13,8 27,17 28,15 28,14 28,13 29,11 29,11 30,9 30,8 29,8 30,6 30,5 30,4 30,3 30,2 29,2 29,0 29,-1 27,-2 28,-2 27,-3 26,-5 25,-5 24,-6 24,-6 22,-8 -2,-1 -4,0 -4,-2 -5,-1 -6,-2 -8,-2 -8,-2 -9,-2 -10,-3 -10,-3 -11,-3 -12,-3 -13,-4 -13,-3 -14,-4 -15,-4 -15,-4 -15,-5 -16,-4 -16,-5 -17,-4 -18,-5 -35,-10 -36,-10 -38,-10 -38,-10 -38,-11 -76,-21 -37,-10 -37,-11 -36,-10 -17,-4 -17,-5 -17,-5 -16,-4 -16,-5 -15,-4 -15,-4 -14,-4 -14,-4 -13,-4 -12,-3 -11,-3 -12,-3 -10,-3 -9,-3 -8,-2 -8,-3 -7,-1 -6,-2 -5,-2 -4,-1 -3,-1 z"
           inkscape:connector-curvature="0"
           id="path4427" />
      </g>
      <g
         style="fill:none"
         id="g4429"
         transform="matrix(0.02247623,0,0,0.01913428,282.15889,680.7002)">
        <path
           d="m 2525,6916 c 209,276 627,323 861,239 -39,-10 -810,-222 -861,-239 z"
           inkscape:connector-curvature="0"
           id="path4431" />
      </g>
      <g
         style="fill:#000000;fill-opacity:0.16078001;stroke:#ffffff;stroke-width:1.26118731;stroke-opacity:0.16078001"
         id="g4433"
         transform="matrix(0.02247623,0,0,0.01913428,282.15889,680.7002)">
        <path
           style="stroke-width:1.26118731"
           d="m 2680,7199 12,15 12,14 13,14 14,12 14,13 14,11 15,11 16,11 15,9 17,9 16,9 17,7 18,7 17,7 18,5 18,5 18,5 19,3 18,4 19,2 18,2 19,1 19,0 19,0 18,-1 19,-2 18,-2 19,-3 18,-4 18,-4 18,-5 17,-6 -1,0 -2,-1 -3,0 -4,-1 -3,-1 -5,-2 -5,-1 -6,-2 -6,-1 -6,-2 -7,-2 -8,-2 -8,-2 -8,-3 -9,-2 -9,-2 -19,-6 -20,-5 -22,-6 -22,-6 -23,-6 -23,-7 -48,-13 -48,-13 -23,-7 -23,-6 -23,-6 -21,-6 -21,-6 -19,-6 -9,-2 -9,-3 -9,-2 -8,-2 -8,-2 -7,-2 -7,-2 -6,-2 -6,-2 -5,-2 -5,-1 -5,-1 -3,-1 -3,-1 -3,-1 -2,0 z"
           inkscape:connector-curvature="0"
           id="path4435" />
      </g>
      <g
         style="fill:none"
         id="g4437"
         transform="matrix(0.02247623,0,0,0.01913428,282.15889,680.7002)">
        <path
           d="m 2680,7199 c 121,163 355,213 540,149 -25,-6 -507,-139 -540,-149 z"
           inkscape:connector-curvature="0"
           id="path4439" />
      </g>
      <g
         style="fill:#fcfcfc;fill-opacity:0.43922005;stroke:#ffffff;stroke-width:1.26118731;stroke-opacity:0.43922005"
         id="g4441"
         transform="matrix(0.02247623,0,0,0.01913428,282.15889,680.7002)">
        <path
           style="stroke-width:1.26118731"
           d="m 2356,3259 -92,13 -17,2173 1425,399 35,-116 -1369,-365 18,-2104 z"
           inkscape:connector-curvature="0"
           id="path4443" />
      </g>
      <g
         style="fill:none"
         id="g4445"
         transform="matrix(0.02247623,0,0,0.01913428,282.15889,680.7002)">
        <path
           d="m 2356,3259 -92,13 -17,2173 1425,399 35,-116 -1369,-365 18,-2104 z"
           inkscape:connector-curvature="0"
           id="path4447" />
      </g>
      <g
         style="fill:#000000;fill-opacity:0.23137004;stroke:#ffffff;stroke-width:1.26118731;stroke-opacity:0.23137004"
         id="g4449"
         transform="matrix(0.02247623,0,0,0.01913428,282.15889,680.7002)">
        <path
           style="stroke-width:1.26118731"
           d="m 3700,4065 -2,61 -1340,-386 1342,325 z"
           inkscape:connector-curvature="0"
           id="path4451" />
      </g>
      <g
         style="fill:#000000;fill-opacity:0.23137004;stroke:#ffffff;stroke-width:1.26118731;stroke-opacity:0.23137004"
         id="g4453"
         transform="matrix(0.02247623,0,0,0.01913428,282.15889,680.7002)">
        <path
           style="stroke-width:1.26118731"
           d="m 3720,4507 -3,61 -1339,-386 1342,325 z"
           inkscape:connector-curvature="0"
           id="path4455" />
      </g>
      <g
         style="fill:#000000;fill-opacity:0.23137004;stroke:#ffffff;stroke-width:1.26118731;stroke-opacity:0.23137004"
         id="g4457"
         transform="matrix(0.02247623,0,0,0.01913428,282.15889,680.7002)">
        <path
           style="stroke-width:1.26118731"
           d="m 3700,4916 -2,61 -1340,-386 1342,325 z"
           inkscape:connector-curvature="0"
           id="path4459" />
      </g>
      <g
         style="fill:#000000;fill-opacity:0.23137004;stroke:#ffffff;stroke-width:1.26118731;stroke-opacity:0.23137004"
         id="g4461"
         transform="matrix(0.02247623,0,0,0.01913428,282.15889,680.7002)">
        <path
           style="stroke-width:1.26118731"
           d="m 3700,5318 -2,61 -1340,-387 1342,326 z"
           inkscape:connector-curvature="0"
           id="path4463" />
      </g>
      <g
         style="fill:#9e9e9e"
         id="g4465"
         transform="matrix(0.02247623,0,0,0.01913428,282.15889,680.7002)">
        <path
           d="m 2361,3309 1332,333 -11,2197 11,0 11,0 11,-2205 0,-9 -8,-2 -1341,-335 -2,11 -3,10 z m 1340,335 -8,-2 0,-8 11,0 -3,10 z"
           inkscape:connector-curvature="0"
           id="path4467" />
      </g>
    </g>
    <text
       sodipodi:linespacing="125%"
       id="text4471"
       y="851.43372"
       x="7.6751165"
       style="font-style:normal;font-weight:normal;font-size:20.07350922px;line-height:125%;font-family:sans-serif;letter-spacing:0px;word-spacing:0px;fill:#000000;fill-opacity:1;stroke:none;stroke-width:1px;stroke-linecap:butt;stroke-linejoin:miter;stroke-opacity:1"
       xml:space="preserve"
       transform="scale(1.0003249,0.9996752)"><tspan
         y="851.43372"
         x="7.6751165"
         id="tspan4473"
         sodipodi:role="line">Subsequent HTTP request:</tspan></text>
    <use
       transform="matrix(0.83054352,-0.04851759,0.04847446,0.82872754,178.33311,966.95696)"
       height="1052.3622"
       width="744.09448"
       y="0"
       x="0"
       style="stroke:#00ff00;stroke-width:2.52237463;stroke-opacity:1"
       id="use4475"
       pencil:name="outArrow1"
       xlink:href="#f6e0af47aaa842fd8f38dfb720b380bf-6" />
    <text
       y="518.61047"
       x="152.88232"
       transform="matrix(0.96979854,-0.05665241,0.05660204,0.96767807,180.98774,962.27275)"
       style="font-style:normal;font-weight:normal;font-size:11.13330841px;line-height:125%;text-align:center;text-decoration:none;text-decoration-line:none;writing-mode:lr-tb;text-anchor:middle;fill:#000000;fill-opacity:1"
       id="text4477"
       pencil:name="text"
       sodipodi:linespacing="125%">
      <textPath
         style="line-height:125%;text-align:center;writing-mode:lr-tb;text-anchor:middle"
         id="textPath4479"
         alignment-baseline="middle"
         startOffset="50%"
         xlink:href="#f6e0af47aaa842fd8f38dfb720b380bf-6">response</textPath>
    </text>
    <g
       id="g4481"
       transform="matrix(0.92254873,-0.30175639,0.30195253,0.92194948,-234.86965,325.40486)">
      <use
         xlink:href="#bccba69cdd324785aba9af5f8abb4646-7"
         pencil:name="outArrow1"
         id="use4483"
         style="stroke:#ff0000;stroke-width:2.52237463;stroke-opacity:1"
         x="0"
         y="0"
         width="744.09448"
         height="1052.3622"
         transform="matrix(0.85706762,0,0,0.8557495,223.92593,783.20592)" />
      <text
         pencil:name="text"
         id="text4485"
         style="font-style:normal;font-weight:normal;font-size:13px;text-decoration:none;text-decoration-line:none;fill:#000000;fill-opacity:1"
         transform="matrix(0.85706762,0,0,0.8557495,223.92593,783.20592)">
        <textPath
           xlink:href="#bccba69cdd324785aba9af5f8abb4646-7"
           startOffset="50%"
           alignment-baseline="middle"
           id="textPath4487"
           style="text-anchor:middle"><tspan
   dy="-4.3333335"
   pencil:name="textSpan"
   id="tspan4489"
   dx="-16">request</tspan>
</textPath>
      </text>
    </g>
    <g
       id="g5742"
       transform="translate(0,30)">
      <rect
         y="632.32336"
         x="449.78436"
         height="16.61655"
         width="158.34773"
         id="rect4505"
         style="fill:none;fill-opacity:1;stroke:#000000;stroke-width:1.81828725;stroke-linecap:butt;stroke-miterlimit:4;stroke-dasharray:none;stroke-dashoffset:0;stroke-opacity:1" />
      <text
         transform="scale(1.0003249,0.9996752)"
         xml:space="preserve"
         style="font-style:normal;font-weight:normal;font-size:9.52648449px;line-height:125%;font-family:sans-serif;letter-spacing:0px;word-spacing:0px;fill:#000000;fill-opacity:1;stroke:none;stroke-width:1px;stroke-linecap:butt;stroke-linejoin:miter;stroke-opacity:1"
         x="453.94983"
         y="643.42462"
         id="text4499"
         sodipodi:linespacing="125%"><tspan
           sodipodi:role="line"
           id="tspan4501"
           x="453.94983"
           y="643.42462">lq3ulr6ith85ej3d3hlddofpv6</tspan></text>
      <rect
         y="626.17627"
         x="443.77188"
         height="42.960514"
         width="233.66296"
         id="rect4503"
         style="fill:none;fill-opacity:1;stroke:#000000;stroke-width:1.71919727;stroke-linecap:butt;stroke-miterlimit:4;stroke-dasharray:none;stroke-dashoffset:0;stroke-opacity:1" />
    </g>
    <g
       id="g5748"
       transform="translate(0,76)">
      <text
         transform="scale(1.0003249,0.9996752)"
         sodipodi:linespacing="125%"
         id="text4355"
         y="698.04388"
         x="452.3613"
         style="font-style:normal;font-weight:normal;font-size:9.52648449px;line-height:125%;font-family:sans-serif;letter-spacing:0px;word-spacing:0px;fill:#00ff00;fill-opacity:1;stroke:none;stroke-width:1px;stroke-linecap:butt;stroke-linejoin:miter;stroke-opacity:1"
         xml:space="preserve"><tspan
           y="698.04388"
           x="452.3613"
           id="tspan4357"
           sodipodi:role="line">jslir608sma50jnmj7pu8j4rd0</tspan></text>
      <rect
         style="fill:none;fill-opacity:1;stroke:#00ff33;stroke-width:1.81828725;stroke-linecap:butt;stroke-miterlimit:4;stroke-dasharray:none;stroke-dashoffset:0;stroke-opacity:1"
         id="rect4507"
         width="158.34773"
         height="16.61655"
         x="449.78436"
         y="686.8811" />
      <rect
         style="fill:none;fill-opacity:1;stroke:#00ff33;stroke-width:1.71919727;stroke-linecap:butt;stroke-miterlimit:4;stroke-dasharray:none;stroke-dashoffset:0;stroke-opacity:1"
         id="rect4513"
         width="233.66296"
         height="42.960514"
         x="443.77188"
         y="680.77771" />
    </g>
    <use
       xlink:href="#fb004d87a37145d781ff95062736f59e"
       pencil:name="outArrow1"
       id="6a1a76b257244b0bb9e44e413b1e3715"
       style="stroke:#ff0000;stroke-width:2.52237463;stroke-opacity:1"
       x="0"
       y="0"
       width="744.09448"
       height="1052.3622"
       transform="matrix(0.85706762,0,0,0.8557495,439.90697,762.39225)" />
    <use
       xlink:href="#fb004d87a37145d781ff95062736f59e"
       pencil:name="outArrow1"
       id="6a1a76b257244b0bb9e44e413b1e3715-5"
       style="stroke:#ff0000;stroke-width:2.52237463;stroke-opacity:1"
       x="0"
       y="0"
       width="744.09448"
       height="1052.3622"
       transform="matrix(0.85706762,0,0,0.8557495,439.90697,458.39225)" />
    <use
       xlink:href="#fb004d87a37145d781ff95062736f59e"
       pencil:name="outArrow1"
       id="6a1a76b257244b0bb9e44e413b1e3715-9"
       style="stroke:#ff0000;stroke-width:2.52237463;stroke-opacity:1"
       x="0"
       y="0"
       width="744.09448"
       height="1052.3622"
       transform="matrix(0.85706762,0,0,0.8557495,439.90697,458.39225)" />
    <use
       xlink:href="#fb004d87a37145d781ff95062736f59e"
       pencil:name="outArrow1"
       id="6a1a76b257244b0bb9e44e413b1e3715-4"
       style="stroke:#ff0000;stroke-width:2.52237463;stroke-opacity:1"
       x="0"
       y="0"
       width="744.09448"
       height="1052.3622"
       transform="matrix(0.85706762,0,0,0.8557495,439.90697,458.39225)" />
    <use
       xlink:href="#d7e46f89ca59435cb82d01c402c6a0ba"
       pencil:name="outArrow1"
       id="7f62769d9bd148978f35ed6e6ec3af4f"
       style="stroke:#33ff33;stroke-width:2.52237463;stroke-opacity:1"
       x="0"
       y="0"
       width="744.09448"
       height="1052.3622"
       transform="matrix(0.85706762,0,0,0.8557495,439.90697,481.49749)" />
    <use
       xlink:href="#d7e46f89ca59435cb82d01c402c6a0ba"
       pencil:name="outArrow1"
       id="7f62769d9bd148978f35ed6e6ec3af4f-6"
       style="fill:#000000;fill-opacity:1;stroke:#000033;stroke-width:2.52237463;stroke-opacity:1"
       x="0"
       y="0"
       width="744.09448"
       height="1052.3622"
       transform="matrix(0.85706762,0,0,0.8557495,439.90697,481.49749)" />
    <use
       xlink:href="#d7e46f89ca59435cb82d01c402c6a0ba"
       pencil:name="outArrow1"
       id="7f62769d9bd148978f35ed6e6ec3af4f-9"
       style="stroke:#33ff33;stroke-width:2.52237463;stroke-opacity:1"
       x="0"
       y="0"
       width="744.09448"
       height="1052.3622"
       transform="matrix(0.85706762,0,0,0.8557495,439.90697,481.49749)" />
    <g
       id="g5754"
       transform="translate(0,-26)">
      <text
         transform="scale(1.0003249,0.9996752)"
         xml:space="preserve"
         style="font-style:normal;font-weight:normal;font-size:9.52648449px;line-height:125%;font-family:sans-serif;letter-spacing:0px;word-spacing:0px;fill:#000000;fill-opacity:1;stroke:none;stroke-width:1px;stroke-linecap:butt;stroke-linejoin:miter;stroke-opacity:1"
         x="453.94983"
         y="750.44489"
         id="text4590"
         sodipodi:linespacing="125%"><tspan
           sodipodi:role="line"
           id="tspan4592"
           x="453.94983"
           y="750.44489">oo57p01ai8movrf1k02c6mkel7</tspan></text>
      <rect
         y="739.22327"
         x="449.78436"
         height="16.61655"
         width="158.34773"
         id="rect4594"
         style="fill:none;fill-opacity:1;stroke:#000000;stroke-width:1.81828725;stroke-linecap:butt;stroke-miterlimit:4;stroke-dasharray:none;stroke-dashoffset:0;stroke-opacity:1" />
      <rect
         y="733.1618"
         x="443.77188"
         height="42.960514"
         width="233.66296"
         id="rect4596"
         style="fill:none;fill-opacity:1;stroke:#000000;stroke-width:1.71919727;stroke-linecap:butt;stroke-miterlimit:4;stroke-dasharray:none;stroke-dashoffset:0;stroke-opacity:1" />
    </g>
    <path
       sodipodi:nodetypes="cccc"
       inkscape:connector-curvature="0"
       id="path4598"
       d="m 378.59588,699.34466 32.24134,0 0,92.19918 43.33512,0"
       style="fill:none;fill-rule:evenodd;stroke:#000000;stroke-width:0.97039139px;stroke-linecap:butt;stroke-linejoin:miter;stroke-opacity:1;marker-end:url(#DotL)" />
    <text
       xml:space="preserve"
       style="font-style:normal;font-weight:normal;font-size:9.52648449px;line-height:125%;font-family:sans-serif;letter-spacing:0px;word-spacing:0px;fill:#ff0000;fill-opacity:1;stroke:none;stroke-width:1px;stroke-linecap:butt;stroke-linejoin:miter;stroke-opacity:1"
       x="61.401527"
       y="889.17261"
       id="text4359-2"
       sodipodi:linespacing="125%"
       transform="scale(1.0003249,0.9996752)"><tspan
         sodipodi:role="line"
         id="tspan4361-4"
         x="61.401527"
         y="889.17261">Cookie: &quot;PHPSESSID=jslir608sma50jnmj7pu8j4rd0&quot;</tspan></text>
    <g
       transform="matrix(0.06877547,0,0,0.06862509,72.46467,467.57623)"
       id="g5450">
      <path
         style="fill:#000000;fill-opacity:1;fill-rule:evenodd;stroke:none"
         d="m 153.42969,77.952736 767.14847,442.913374 0,531.49609 -767.14847,-442.91342 z"
         id="path5452"
         inkscape:connector-curvature="0" />
      <path
         style="fill:#f2f2f2;fill-rule:evenodd;stroke:none"
         d="M 920.57816,1052.3622 460.28908,1318.1102 -306.85939,875.19681 153.42969,609.44879 Z"
         id="path5454"
         inkscape:connector-curvature="0" />
      <path
         style="fill:#e6e6e6;fill-opacity:1;fill-rule:evenodd;stroke:none"
         d="m -306.85939,875.19681 0,35.43307 767.14847,442.91342 0,-35.4331 z"
         id="path5456"
         inkscape:connector-curvature="0" />
      <path
         style="fill:#cccccc;fill-opacity:1;fill-rule:evenodd;stroke:none"
         d="m 460.28908,1353.5433 460.28908,-265.748 0,-35.4331 -460.28908,265.748 z"
         id="path5458"
         inkscape:connector-curvature="0" />
      <path
         style="fill:#e6e6e6;fill-opacity:1;fill-rule:evenodd;stroke:none"
         d="M 920.57816,520.86611 951.2641,503.14957 184.11563,60.236201 153.42969,77.952736 Z"
         id="path5460"
         inkscape:connector-curvature="0" />
      <path
         style="fill:#b3b3b3;fill-rule:evenodd;stroke:none"
         d="M 153.42969,644.88186 859.20629,1052.3622 613.71878,1194.0945 -92.057816,786.61414 153.42969,644.88185 Z"
         id="path5462"
         inkscape:connector-curvature="0" />
      <path
         style="fill:#b3b3b3;fill-opacity:1;fill-rule:evenodd;stroke:none"
         d="m 153.42969,963.77948 153.4297,88.58272 -122.74376,70.8661 -153.429691,-88.5827 z"
         id="path5464"
         inkscape:connector-curvature="0" />
      <path
         style="fill:#00a1e5;fill-opacity:1;fill-rule:evenodd;stroke:none"
         d="m 184.11563,131.10234 705.77659,407.48031 0,460.6299 -705.77659,-407.4803 z"
         id="path5466"
         inkscape:connector-curvature="0" />
      <path
         style="fill:#cccccc;fill-opacity:1;fill-rule:evenodd;stroke:none"
         d="m 920.57816,520.86611 30.68594,-17.71654 0,566.92913 -30.68594,17.7166 z"
         id="path5468"
         inkscape:connector-curvature="0" />
    </g>
    <g
       id="g5470"
       transform="matrix(0.9707067,0,0,0.97007616,-28.325874,-245.24988)">
      <g
         style="fill:#c7c7c7"
         id="g5472"
         transform="matrix(0.02247623,0,0,0.01913428,282.15889,680.7002)">
        <path
           d="m 5903,2361 c 50,82 34,3995 -31,4149 -51,122 -1703,1495 -1789,1531 -1117,-7 -1870,-414 -1995,-629 -48,-270 -7,-4433 38,-4520 40,-76 2153,-833 2227,-851 67,-15 1493,229 1550,320 z"
           inkscape:connector-curvature="0"
           id="path5474" />
      </g>
      <g
         style="fill:#000000"
         id="g5476"
         transform="matrix(0.02247623,0,0,0.01913428,282.15889,680.7002)">
        <path
           d="m 5881,2374 2,-1 -2,2 c 0,-1 -1,-1 -1,-1 l 0,-2 7,-3 -2,2 -5,1 5,-1 -2,2 -2,1 z m 2,-1 2,-2 2,-2 5,-2 -5,4 5,-4 1,0 -6,3 0,1 0,-1 -4,3 z m 10,-6 -1,0 1,0 -1,0 11,-6 -10,5 0,1 z m 11,-4 -11,4 0,-1 11,-3 z m 20,-15 c -2,-3 -4,-6 -7,-9 -2,-3 -5,-5 -8,-7 -5,-4 -12,-8 -20,-12 -7,-4 -15,-7 -24,-11 -9,-4 -19,-7 -30,-11 -21,-8 -47,-16 -75,-24 -29,-8 -61,-16 -95,-25 -136,-34 -313,-72 -494,-106 -181,-35 -364,-66 -511,-90 -73,-11 -138,-21 -189,-27 -25,-3 -47,-6 -65,-8 -9,-1 -17,-1 -24,-2 -4,0 -7,0 -10,-1 l -9,0 c -3,0 -5,0 -7,1 l -4,0 c -2,0 -3,0 -4,1 -2,0 -4,1 -7,2 -2,0 -5,1 -8,2 -3,1 -7,2 -11,3 -4,2 -8,3 -13,5 -10,3 -22,7 -35,12 -13,4 -28,9 -44,15 -33,11 -71,25 -115,40 -43,15 -91,32 -144,51 -209,75 -481,173 -753,274 -271,101 -542,203 -747,285 -51,21 -98,40 -140,57 -43,18 -80,34 -111,48 -16,7 -30,14 -42,20 -13,6 -24,12 -33,17 -5,2 -9,5 -13,7 -4,3 -8,5 -10,7 -4,3 -7,5 -9,7 -5,4 -7,8 -9,11 -1,2 -2,5 -4,9 0,3 -1,6 -1,9 -1,3 -1,7 -2,11 -1,4 -1,8 -2,13 0,9 -1,20 -3,32 0,13 -1,27 -2,42 -2,31 -4,69 -6,111 -2,43 -4,91 -5,144 -7,213 -14,504 -19,835 -11,662 -19,1482 -19,2144 0,308 2,583 5,791 1,52 2,100 3,143 1,43 3,82 4,115 1,34 3,62 4,85 1,12 2,22 3,30 1,5 1,9 1,13 1,3 2,7 2,10 l 1,4 2,4 c 9,15 20,30 33,46 14,16 30,32 48,49 35,32 80,66 135,101 107,70 249,142 423,207 173,65 377,124 608,167 231,43 489,70 769,72 l 6,0 5,-2 8,-4 c 2,-2 5,-3 8,-6 3,-2 6,-4 10,-6 l 12,-9 c 9,-6 19,-13 30,-22 11,-8 23,-17 37,-28 27,-20 58,-45 93,-73 35,-28 74,-59 116,-93 169,-136 385,-315 600,-497 215,-181 430,-366 593,-512 41,-37 79,-71 113,-103 34,-31 64,-59 89,-84 13,-13 24,-24 34,-35 11,-11 20,-20 28,-29 8,-9 14,-17 19,-23 3,-4 5,-8 7,-10 2,-4 4,-8 6,-11 0,-2 1,-5 2,-8 1,-3 2,-5 3,-9 1,-6 2,-13 3,-22 2,-8 3,-17 4,-28 1,-11 2,-22 3,-35 2,-25 4,-55 7,-89 1,-34 3,-72 5,-113 8,-166 14,-391 19,-648 10,-516 16,-1164 16,-1743 0,-389 -3,-747 -8,-1012 -1,-66 -2,-127 -4,-181 -1,-53 -3,-100 -5,-139 -1,-20 -2,-38 -3,-53 -1,-16 -2,-30 -3,-41 -1,-6 -1,-11 -2,-16 -1,-5 -1,-10 -2,-13 -1,-4 -1,-8 -2,-11 -1,-2 -1,-4 -2,-5 -1,-3 -2,-5 -3,-6 z m -37,21 12,-12 -12,12 z m -6,9 c 1,3 1,7 2,11 0,4 1,9 1,15 1,11 3,24 4,39 0,15 1,33 2,52 2,39 4,86 6,139 1,53 2,114 4,180 5,264 7,622 7,1011 0,578 -5,1227 -15,1742 -6,257 -12,481 -19,646 -2,42 -4,79 -6,113 -2,33 -4,63 -6,88 -1,12 -2,24 -4,34 0,10 -2,18 -3,26 -1,7 -2,14 -3,18 0,3 -1,4 -1,6 0,1 -1,2 -1,2 0,1 -1,2 -2,4 -1,1 -3,4 -4,6 -5,6 -10,13 -17,21 -7,7 -16,17 -26,27 l -34,34 c -25,24 -54,52 -88,83 -33,31 -71,66 -112,102 -163,146 -377,330 -592,512 -215,181 -431,360 -598,495 -42,34 -81,65 -116,93 -35,28 -66,52 -93,73 -13,10 -26,20 -37,28 -10,8 -20,15 -28,21 -4,3 -8,6 -12,8 -3,2 -6,4 -8,6 -2,1 -4,2 -5,3 -276,-2 -528,-29 -755,-71 -228,-42 -429,-100 -600,-164 -169,-64 -308,-134 -413,-202 -51,-33 -94,-66 -128,-97 -17,-15 -31,-30 -43,-44 -10,-12 -19,-23 -26,-34 l 0,-4 c -1,-3 -1,-7 -1,-11 -1,-8 -2,-18 -3,-28 -2,-23 -3,-51 -5,-84 -1,-33 -2,-71 -3,-115 -1,-42 -2,-90 -3,-142 -3,-208 -5,-482 -5,-790 0,-662 7,-1481 18,-2143 6,-330 12,-622 19,-834 2,-53 4,-101 6,-144 2,-42 3,-79 5,-109 1,-16 2,-30 3,-42 1,-12 2,-22 3,-31 0,-4 1,-8 1,-11 1,-4 1,-6 2,-9 l 0,-2 c 0,-1 1,-1 2,-2 2,-1 4,-3 7,-5 4,-1 7,-4 11,-6 9,-5 19,-10 31,-16 12,-6 26,-12 41,-19 31,-14 67,-29 109,-47 42,-17 89,-37 140,-57 205,-82 475,-184 746,-284 271,-101 543,-200 752,-274 52,-19 101,-36 144,-51 43,-16 82,-29 114,-40 17,-6 31,-11 44,-16 13,-4 25,-8 35,-11 4,-2 9,-3 13,-4 4,-2 7,-3 10,-4 3,-1 5,-1 8,-2 l 3,-1 -2,-8 1,8 1,0 4,0 7,0 c 2,0 5,0 8,1 7,0 14,1 23,2 17,1 39,4 64,7 50,6 114,16 187,27 147,23 329,55 509,89 180,35 357,72 492,106 34,9 65,17 92,25 28,8 53,15 73,23 10,3 20,7 28,10 7,3 15,6 20,9 5,3 10,5 13,8 0,0 1,0 1,1 0,1 1,3 1,4 z M 4075,8017 c 1,0 1,-1 2,-1 l 6,0 0,14 -8,-13 8,13 0,11 -10,-23 c 0,0 1,-1 2,-1 z M 2110,7400 c 1,1 1,3 2,4 1,1 1,3 1,4 l -25,4 21,-11 1,-1 -1,1 1,-1 2,0 -2,0 z m 39,-4498 0,3 c -1,0 -1,1 -2,1 l -5,-6 -17,-4 17,4 -2,-1 4,2 5,1 z m -7,-2 2,1 -2,-1 z m -16,-8 14,7 -14,-7 z m 14,7 -10,-11 10,11 z m 2217,-841 -2,-17 2,17 z m -4,-17 4,17 0,1 -4,-18 z"
           inkscape:connector-curvature="0"
           id="path5478" />
      </g>
      <g
         style="fill:#ffffff;fill-opacity:0.54118;stroke:#ffffff;stroke-width:1.26118731;stroke-opacity:0.54118"
         id="g5480"
         transform="matrix(0.02247623,0,0,0.01913428,282.15889,680.7002)">
        <path
           style="stroke-width:1.26118731"
           d="m 5822,2442 -52,22 -52,23 -52,23 -53,25 -53,25 -53,26 -53,26 -54,27 -54,27 -54,28 -55,28 -54,29 -55,29 -55,29 -111,60 -112,60 -112,60 -113,61 -114,60 -114,60 -114,59 -57,29 -57,29 -58,28 -57,28 -27,-6 -28,-7 -56,-13 -58,-14 -59,-13 -60,-14 -61,-14 -61,-14 -63,-14 -62,-14 -63,-15 -127,-28 -127,-28 -64,-14 -63,-14 -62,-13 -62,-13 -61,-13 -60,-13 -60,-13 -58,-12 -57,-12 -28,-5 -28,-6 -27,-5 -27,-6 -27,-5 -26,-5 -26,-5 -25,-6 -25,-4 -24,-5 -24,-5 -24,-4 -23,-4 -22,-5 -22,-4 -21,-3 -21,-4 -20,-4 52,16 52,16 53,16 54,15 55,16 55,15 57,16 56,15 57,16 58,15 116,31 117,30 118,31 118,31 117,30 116,31 58,15 57,16 57,15 56,16 55,15 55,16 54,15 53,16 52,16 52,16 1,60 2,61 1,61 1,63 1,64 2,64 1,65 1,66 1,67 1,67 1,68 0,69 1,69 1,70 1,70 0,71 1,71 0,72 1,72 1,73 1,146 1,147 0,149 1,149 2,299 1,300 1,149 1,148 1,147 1,146 1,73 0,72 1,72 1,71 0,71 1,71 1,69 1,70 0,68 1,68 1,67 1,67 1,66 1,65 1,65 2,63 1,63 1,62 2,61 1,60 1,-61 1,-61 0,-63 1,-63 1,-64 1,-65 1,-66 1,-67 1,-67 1,-68 1,-69 2,-69 1,-70 1,-71 1,-71 1,-72 1,-72 2,-73 1,-73 1,-73 3,-148 3,-149 2,-151 3,-151 6,-303 5,-303 3,-151 3,-150 2,-149 3,-149 1,-73 2,-73 1,-73 1,-72 1,-71 1,-72 1,-70 2,-70 1,-70 1,-68 1,-68 1,-68 1,-66 1,-66 1,-65 1,-64 1,-64 0,-62 1,-62 1,-60 110,-59 109,-59 109,-57 109,-58 108,-57 107,-58 107,-57 107,-58 105,-58 105,-58 104,-60 103,-60 51,-30 50,-31 51,-31 50,-31 50,-31 50,-32 49,-32 50,-32 z"
           inkscape:connector-curvature="0"
           id="path5482" />
      </g>
      <g
         style="fill:none"
         id="g5484"
         transform="matrix(0.02247623,0,0,0.01913428,282.15889,680.7002)">
        <path
           d="m 5822,2442 c -549,232 -1156,606 -1768,901 -580,-138 -1417,-322 -1839,-396 543,169 1257,327 1800,496 32,1271 16,3196 48,4467 16,-1282 59,-3238 75,-4519 586,-317 1161,-601 1684,-949 z"
           inkscape:connector-curvature="0"
           id="path5486" />
      </g>
      <g
         style="fill:#000000;fill-opacity:0.16078001;stroke:#ffffff;stroke-width:1.26118731;stroke-opacity:0.16078001"
         id="g5488"
         transform="matrix(0.02247623,0,0,0.01913428,282.15889,680.7002)">
        <path
           style="stroke-width:1.26118731"
           d="m 2420,6628 10,14 10,13 11,13 12,13 12,12 12,12 14,12 13,12 14,12 15,11 15,11 16,11 15,11 17,10 16,10 17,11 18,9 18,10 18,9 18,8 19,9 19,8 19,8 19,8 40,15 40,14 41,12 41,11 42,10 41,9 42,8 41,6 41,6 41,3 21,2 20,1 19,1 20,0 20,0 19,0 19,-1 19,-1 18,-1 19,-1 17,-2 18,-3 17,-2 17,-3 17,-4 16,-4 15,-4 15,-4 15,-5 15,-5 -2,-1 -1,0 -5,-2 -6,-1 -7,-2 -8,-2 -10,-3 -10,-3 -12,-3 -13,-4 -14,-3 -15,-4 -16,-5 -16,-4 -18,-5 -18,-5 -19,-5 -20,-6 -20,-5 -21,-6 -22,-6 -22,-6 -22,-6 -23,-7 -24,-6 -48,-13 -49,-14 -50,-14 -50,-13 -50,-15 -50,-13 -49,-14 -49,-13 -23,-7 -24,-6 -23,-7 -22,-6 -22,-6 -21,-6 -21,-6 -20,-5 -19,-6 -19,-5 -18,-5 -17,-5 -16,-4 -15,-5 -15,-4 -13,-4 -12,-3 -12,-3 -10,-3 -9,-3 -7,-2 -7,-2 -5,-2 -2,0 -2,-1 z"
           inkscape:connector-curvature="0"
           id="path5490" />
      </g>
      <g
         style="fill:none"
         id="g5492"
         transform="matrix(0.02247623,0,0,0.01913428,282.15889,680.7002)">
        <path
           d="m 2420,6628 c 201,289 833,431 1133,315 -53,-14 -1066,-293 -1133,-315 z"
           inkscape:connector-curvature="0"
           id="path5494" />
      </g>
      <g
         style="fill:none"
         id="g5496"
         transform="matrix(0.02247623,0,0,0.01913428,282.15889,680.7002)">
        <path
           d="m 3454,6093 -936,-361 c -97,34 -78,177 -78,177 l 146,51 c 0,0 204,319 566,194 0,0 269,48 302,-61 z"
           inkscape:connector-curvature="0"
           id="path5498" />
      </g>
      <g
         style="fill:none"
         id="g5500"
         transform="matrix(0.02247623,0,0,0.01913428,282.15889,680.7002)">
        <path
           d="m 3446,5971 c -311,-81 -622,-161 -933,-242 -12,44 -13,107 6,140 47,23 142,41 189,64 136,131 255,142 472,124 84,17 168,31 251,48 26,-51 33,-72 15,-134 z"
           inkscape:connector-curvature="0"
           id="path5502" />
      </g>
      <g
         style="fill:#ffffff;fill-opacity:0.4;stroke:#ffffff;stroke-width:1.26118731;stroke-opacity:0.4"
         id="g5504"
         transform="matrix(0.02247623,0,0,0.01913428,282.15889,680.7002)">
        <path
           style="stroke-width:1.26118731"
           d="m 5856,2414 -1813,1017 7,4549 1775,-1494 31,-4072 z"
           inkscape:connector-curvature="0"
           id="path5506" />
      </g>
      <g
         style="fill:none"
         id="g5508"
         transform="matrix(0.02247623,0,0,0.01913428,282.15889,680.7002)">
        <path
           d="m 5856,2414 -1813,1017 7,4549 1775,-1494 31,-4072 z"
           inkscape:connector-curvature="0"
           id="path5510" />
      </g>
      <g
         style="fill:#000000;fill-opacity:0.16078001;stroke:#ffffff;stroke-width:1.26118731;stroke-opacity:0.16078001"
         id="g5512"
         transform="matrix(0.02247623,0,0,0.01913428,282.15889,680.7002)">
        <path
           style="stroke-width:1.26118731"
           d="m 2525,6916 10,13 11,12 10,13 11,11 11,12 11,11 12,11 12,10 12,10 12,10 13,10 12,9 13,9 13,8 27,17 28,15 28,14 28,13 29,11 29,11 30,9 30,8 29,8 30,6 30,5 30,4 30,3 30,2 29,2 29,0 29,-1 27,-2 28,-2 27,-3 26,-5 25,-5 24,-6 24,-6 22,-8 -2,-1 -4,0 -4,-2 -5,-1 -6,-2 -8,-2 -8,-2 -9,-2 -10,-3 -10,-3 -11,-3 -12,-3 -13,-4 -13,-3 -14,-4 -15,-4 -15,-4 -15,-5 -16,-4 -16,-5 -17,-4 -18,-5 -35,-10 -36,-10 -38,-10 -38,-10 -38,-11 -76,-21 -37,-10 -37,-11 -36,-10 -17,-4 -17,-5 -17,-5 -16,-4 -16,-5 -15,-4 -15,-4 -14,-4 -14,-4 -13,-4 -12,-3 -11,-3 -12,-3 -10,-3 -9,-3 -8,-2 -8,-3 -7,-1 -6,-2 -5,-2 -4,-1 -3,-1 z"
           inkscape:connector-curvature="0"
           id="path5514" />
      </g>
      <g
         style="fill:none"
         id="g5516"
         transform="matrix(0.02247623,0,0,0.01913428,282.15889,680.7002)">
        <path
           d="m 2525,6916 c 209,276 627,323 861,239 -39,-10 -810,-222 -861,-239 z"
           inkscape:connector-curvature="0"
           id="path5518" />
      </g>
      <g
         style="fill:#000000;fill-opacity:0.16078001;stroke:#ffffff;stroke-width:1.26118731;stroke-opacity:0.16078001"
         id="g5520"
         transform="matrix(0.02247623,0,0,0.01913428,282.15889,680.7002)">
        <path
           style="stroke-width:1.26118731"
           d="m 2680,7199 12,15 12,14 13,14 14,12 14,13 14,11 15,11 16,11 15,9 17,9 16,9 17,7 18,7 17,7 18,5 18,5 18,5 19,3 18,4 19,2 18,2 19,1 19,0 19,0 18,-1 19,-2 18,-2 19,-3 18,-4 18,-4 18,-5 17,-6 -1,0 -2,-1 -3,0 -4,-1 -3,-1 -5,-2 -5,-1 -6,-2 -6,-1 -6,-2 -7,-2 -8,-2 -8,-2 -8,-3 -9,-2 -9,-2 -19,-6 -20,-5 -22,-6 -22,-6 -23,-6 -23,-7 -48,-13 -48,-13 -23,-7 -23,-6 -23,-6 -21,-6 -21,-6 -19,-6 -9,-2 -9,-3 -9,-2 -8,-2 -8,-2 -7,-2 -7,-2 -6,-2 -6,-2 -5,-2 -5,-1 -5,-1 -3,-1 -3,-1 -3,-1 -2,0 z"
           inkscape:connector-curvature="0"
           id="path5522" />
      </g>
      <g
         style="fill:none"
         id="g5524"
         transform="matrix(0.02247623,0,0,0.01913428,282.15889,680.7002)">
        <path
           d="m 2680,7199 c 121,163 355,213 540,149 -25,-6 -507,-139 -540,-149 z"
           inkscape:connector-curvature="0"
           id="path5526" />
      </g>
      <g
         style="fill:#fcfcfc;fill-opacity:0.43922005;stroke:#ffffff;stroke-width:1.26118731;stroke-opacity:0.43922005"
         id="g5528"
         transform="matrix(0.02247623,0,0,0.01913428,282.15889,680.7002)">
        <path
           style="stroke-width:1.26118731"
           d="m 2356,3259 -92,13 -17,2173 1425,399 35,-116 -1369,-365 18,-2104 z"
           inkscape:connector-curvature="0"
           id="path5530" />
      </g>
      <g
         style="fill:none"
         id="g5532"
         transform="matrix(0.02247623,0,0,0.01913428,282.15889,680.7002)">
        <path
           d="m 2356,3259 -92,13 -17,2173 1425,399 35,-116 -1369,-365 18,-2104 z"
           inkscape:connector-curvature="0"
           id="path5534" />
      </g>
      <g
         style="fill:#000000;fill-opacity:0.23137004;stroke:#ffffff;stroke-width:1.26118731;stroke-opacity:0.23137004"
         id="g5536"
         transform="matrix(0.02247623,0,0,0.01913428,282.15889,680.7002)">
        <path
           style="stroke-width:1.26118731"
           d="m 3700,4065 -2,61 -1340,-386 1342,325 z"
           inkscape:connector-curvature="0"
           id="path5538" />
      </g>
      <g
         style="fill:#000000;fill-opacity:0.23137004;stroke:#ffffff;stroke-width:1.26118731;stroke-opacity:0.23137004"
         id="g5540"
         transform="matrix(0.02247623,0,0,0.01913428,282.15889,680.7002)">
        <path
           style="stroke-width:1.26118731"
           d="m 3720,4507 -3,61 -1339,-386 1342,325 z"
           inkscape:connector-curvature="0"
           id="path5542" />
      </g>
      <g
         style="fill:#000000;fill-opacity:0.23137004;stroke:#ffffff;stroke-width:1.26118731;stroke-opacity:0.23137004"
         id="g5544"
         transform="matrix(0.02247623,0,0,0.01913428,282.15889,680.7002)">
        <path
           style="stroke-width:1.26118731"
           d="m 3700,4916 -2,61 -1340,-386 1342,325 z"
           inkscape:connector-curvature="0"
           id="path5546" />
      </g>
      <g
         style="fill:#000000;fill-opacity:0.23137004;stroke:#ffffff;stroke-width:1.26118731;stroke-opacity:0.23137004"
         id="g5548"
         transform="matrix(0.02247623,0,0,0.01913428,282.15889,680.7002)">
        <path
           style="stroke-width:1.26118731"
           d="m 3700,5318 -2,61 -1340,-387 1342,326 z"
           inkscape:connector-curvature="0"
           id="path5550" />
      </g>
      <g
         style="fill:#9e9e9e"
         id="g5552"
         transform="matrix(0.02247623,0,0,0.01913428,282.15889,680.7002)">
        <path
           d="m 2361,3309 1332,333 -11,2197 11,0 11,0 11,-2205 0,-9 -8,-2 -1341,-335 -2,11 -3,10 z m 1340,335 -8,-2 0,-8 11,0 -3,10 z"
           inkscape:connector-curvature="0"
           id="path5554" />
      </g>
    </g>
    <text
       transform="scale(1.0003249,0.9996752)"
       sodipodi:linespacing="125%"
       id="text5558"
       y="417.21167"
       x="8.6553574"
       style="font-style:normal;font-weight:normal;font-size:20.07350922px;line-height:125%;font-family:sans-serif;letter-spacing:0px;word-spacing:0px;fill:#000000;fill-opacity:1;stroke:none;stroke-width:1px;stroke-linecap:butt;stroke-linejoin:miter;stroke-opacity:1"
       xml:space="preserve"><tspan
         y="417.21167"
         x="8.6553574"
         id="tspan5560"
         sodipodi:role="line">No HTTP communication</tspan></text>
    <text
       y="1225.6346"
       x="288.27374"
       transform="matrix(0.99938908,-0.05838099,0.05832908,0.99720391,0,-232)"
       style="font-style:normal;font-weight:normal;font-size:10.80366611px;line-height:125%;text-align:center;text-decoration:none;text-decoration-line:none;writing-mode:lr-tb;text-anchor:middle;fill:#000000;fill-opacity:1"
       id="text5564"
       pencil:name="text"
       sodipodi:linespacing="125%">
      <textPath
         style="line-height:125%;text-align:center;writing-mode:lr-tb;text-anchor:middle"
         id="textPath5566"
         alignment-baseline="middle"
         startOffset="50%"
         xlink:href="#f6e0af47aaa842fd8f38dfb720b380bf-6">response</textPath>
    </text>
    <g
       id="g5730"
       transform="translate(0,48)">
      <rect
         style="fill:none;fill-opacity:1;stroke:#000000;stroke-width:1.81828725;stroke-linecap:butt;stroke-miterlimit:4;stroke-dasharray:none;stroke-dashoffset:0;stroke-opacity:1"
         id="rect5586"
         width="158.34773"
         height="16.61655"
         x="449.78436"
         y="398.32336" />
      <text
         sodipodi:linespacing="125%"
         id="text5588"
         y="409.34872"
         x="453.94983"
         style="font-style:normal;font-weight:normal;font-size:9.52648449px;line-height:125%;font-family:sans-serif;letter-spacing:0px;word-spacing:0px;fill:#000000;fill-opacity:1;stroke:none;stroke-width:1px;stroke-linecap:butt;stroke-linejoin:miter;stroke-opacity:1"
         xml:space="preserve"
         transform="scale(1.0003249,0.9996752)"><tspan
           y="409.34872"
           x="453.94983"
           id="tspan5590"
           sodipodi:role="line">lq3ulr6ith85ej3d3hlddofpv6</tspan></text>
      <rect
         style="fill:none;fill-opacity:1;stroke:#000000;stroke-width:1.71919727;stroke-linecap:butt;stroke-miterlimit:4;stroke-dasharray:none;stroke-dashoffset:0;stroke-opacity:1"
         id="rect5592"
         width="233.66296"
         height="42.960514"
         x="443.77188"
         y="392.17627" />
    </g>
    <g
       id="g5736"
       transform="translate(0,48)">
      <text
         sodipodi:linespacing="125%"
         id="text5602"
         y="458.34995"
         x="453.94983"
         style="font-style:normal;font-weight:normal;font-size:9.52648449px;line-height:125%;font-family:sans-serif;letter-spacing:0px;word-spacing:0px;fill:#000000;fill-opacity:1;stroke:none;stroke-width:1px;stroke-linecap:butt;stroke-linejoin:miter;stroke-opacity:1"
         xml:space="preserve"
         transform="scale(1.0003249,0.9996752)"><tspan
           y="458.34995"
           x="453.94983"
           id="tspan5604"
           sodipodi:role="line">oo57p01ai8movrf1k02c6mkel7</tspan></text>
      <rect
         style="fill:none;fill-opacity:1;stroke:#000000;stroke-width:1.81828725;stroke-linecap:butt;stroke-miterlimit:4;stroke-dasharray:none;stroke-dashoffset:0;stroke-opacity:1"
         id="rect5606"
         width="158.34773"
         height="16.61655"
         x="449.78436"
         y="447.22327" />
      <rect
         style="fill:none;fill-opacity:1;stroke:#000000;stroke-width:1.71919727;stroke-linecap:butt;stroke-miterlimit:4;stroke-dasharray:none;stroke-dashoffset:0;stroke-opacity:1"
         id="rect5608"
         width="233.66296"
         height="42.960514"
         x="443.77188"
         y="441.1618" />
    </g>
    <g
       id="g6474"
       transform="translate(0,246)">
      <rect
         style="fill:none;fill-opacity:1;stroke:#000000;stroke-width:1.81828725;stroke-linecap:butt;stroke-miterlimit:4;stroke-dasharray:none;stroke-dashoffset:0;stroke-opacity:1"
         id="rect6476"
         width="158.34773"
         height="16.61655"
         x="449.78436"
         y="632.32336" />
      <text
         sodipodi:linespacing="125%"
         id="text6478"
         y="643.42462"
         x="453.94983"
         style="font-style:normal;font-weight:normal;font-size:9.52648449px;line-height:125%;font-family:sans-serif;letter-spacing:0px;word-spacing:0px;fill:#000000;fill-opacity:1;stroke:none;stroke-width:1px;stroke-linecap:butt;stroke-linejoin:miter;stroke-opacity:1"
         xml:space="preserve"
         transform="scale(1.0003249,0.9996752)"><tspan
           y="643.42462"
           x="453.94983"
           id="tspan6480"
           sodipodi:role="line">lq3ulr6ith85ej3d3hlddofpv6</tspan></text>
      <rect
         style="fill:none;fill-opacity:1;stroke:#000000;stroke-width:1.71919727;stroke-linecap:butt;stroke-miterlimit:4;stroke-dasharray:none;stroke-dashoffset:0;stroke-opacity:1"
         id="rect6482"
         width="233.66296"
         height="42.960514"
         x="443.77188"
         y="626.17627" />
    </g>
    <text
       transform="scale(1.0003249,0.9996752)"
       sodipodi:linespacing="125%"
       id="text6486"
       y="990.13837"
       x="452.36127"
       style="font-style:normal;font-weight:normal;font-size:9.52648449px;line-height:125%;font-family:sans-serif;letter-spacing:0px;word-spacing:0px;fill:#000000;fill-opacity:1;stroke:none;stroke-width:1px;stroke-linecap:butt;stroke-linejoin:miter;stroke-opacity:1"
       xml:space="preserve"><tspan
         y="990.13837"
         x="452.36127"
         id="tspan6488"
         sodipodi:role="line">jslir608sma50jnmj7pu8j4rd0</tspan></text>
    <rect
       style="fill:none;fill-opacity:1;stroke:#000033;stroke-width:1.81828725;stroke-linecap:butt;stroke-miterlimit:4;stroke-dasharray:none;stroke-dashoffset:0;stroke-opacity:1"
       id="rect6490"
       width="158.34773"
       height="16.61655"
       x="449.78436"
       y="978.8811" />
    <rect
       style="fill:none;fill-opacity:1;stroke:#000033;stroke-width:1.71919727;stroke-linecap:butt;stroke-miterlimit:4;stroke-dasharray:none;stroke-dashoffset:0;stroke-opacity:1"
       id="rect6492"
       width="233.66296"
       height="42.960514"
       x="443.77188"
       y="972.77771" />
    <g
       id="g6494"
       transform="translate(0,190)">
      <text
         sodipodi:linespacing="125%"
         id="text6496"
         y="750.44489"
         x="453.94983"
         style="font-style:normal;font-weight:normal;font-size:9.52648449px;line-height:125%;font-family:sans-serif;letter-spacing:0px;word-spacing:0px;fill:#000000;fill-opacity:1;stroke:none;stroke-width:1px;stroke-linecap:butt;stroke-linejoin:miter;stroke-opacity:1"
         xml:space="preserve"
         transform="scale(1.0003249,0.9996752)"><tspan
           y="750.44489"
           x="453.94983"
           id="tspan6498"
           sodipodi:role="line">oo57p01ai8movrf1k02c6mkel7</tspan></text>
      <rect
         style="fill:none;fill-opacity:1;stroke:#000000;stroke-width:1.81828725;stroke-linecap:butt;stroke-miterlimit:4;stroke-dasharray:none;stroke-dashoffset:0;stroke-opacity:1"
         id="rect6500"
         width="158.34773"
         height="16.61655"
         x="449.78436"
         y="739.22327" />
      <rect
         style="fill:none;fill-opacity:1;stroke:#000000;stroke-width:1.71919727;stroke-linecap:butt;stroke-miterlimit:4;stroke-dasharray:none;stroke-dashoffset:0;stroke-opacity:1"
         id="rect6502"
         width="233.66296"
         height="42.960514"
         x="443.77188"
         y="733.1618" />
    </g>
    <path
       style="fill:none;fill-rule:evenodd;stroke:#000000;stroke-width:0.97039139px;stroke-linecap:butt;stroke-linejoin:miter;stroke-opacity:1;marker-end:url(#marker6510)"
       d="m 378.59588,915.34466 32.24134,0 0,92.19914 43.33512,0"
       id="path6504"
       inkscape:connector-curvature="0"
       sodipodi:nodetypes="cccc" />
    <text
       xml:space="preserve"
       style="font-style:normal;font-weight:normal;font-size:22.36341095px;line-height:125%;font-family:sans-serif;letter-spacing:0px;word-spacing:0px;fill:#000000;fill-opacity:1;stroke:none;stroke-width:1px;stroke-linecap:butt;stroke-linejoin:miter;stroke-opacity:1"
       x="613.51666"
       y="477.71933"
       id="text6856"
       sodipodi:linespacing="125%"><tspan
         sodipodi:role="line"
         id="tspan6858"
         x="613.51666"
         y="477.71933">DATA</tspan></text>
    <text
       sodipodi:linespacing="125%"
       id="text6860"
       y="525.71936"
       x="613.51666"
       style="font-style:normal;font-weight:normal;font-size:22.36341095px;line-height:125%;font-family:sans-serif;letter-spacing:0px;word-spacing:0px;fill:#000000;fill-opacity:1;stroke:none;stroke-width:1px;stroke-linecap:butt;stroke-linejoin:miter;stroke-opacity:1"
       xml:space="preserve"><tspan
         y="525.71936"
         x="613.51666"
         id="tspan6862"
         sodipodi:role="line">DATA</tspan></text>
    <text
       sodipodi:linespacing="125%"
       id="text6864"
       y="695.71936"
       x="613.51666"
       style="font-style:normal;font-weight:normal;font-size:22.36341095px;line-height:125%;font-family:sans-serif;letter-spacing:0px;word-spacing:0px;fill:#000000;fill-opacity:1;stroke:none;stroke-width:1px;stroke-linecap:butt;stroke-linejoin:miter;stroke-opacity:1"
       xml:space="preserve"><tspan
         y="695.71936"
         x="613.51666"
         id="tspan6866"
         sodipodi:role="line">DATA</tspan></text>
    <text
       xml:space="preserve"
       style="font-style:normal;font-weight:normal;font-size:22.36341095px;line-height:125%;font-family:sans-serif;letter-spacing:0px;word-spacing:0px;fill:#000000;fill-opacity:1;stroke:none;stroke-width:1px;stroke-linecap:butt;stroke-linejoin:miter;stroke-opacity:1"
       x="613.51666"
       y="745.71936"
       id="text6868"
       sodipodi:linespacing="125%"><tspan
         sodipodi:role="line"
         id="tspan6870"
         x="613.51666"
         y="745.71936">DATA</tspan></text>
    <text
       sodipodi:linespacing="125%"
       id="text6872"
       y="793.71936"
       x="613.51666"
       style="font-style:normal;font-weight:normal;font-size:22.36341095px;line-height:125%;font-family:sans-serif;letter-spacing:0px;word-spacing:0px;fill:#00ff00;fill-opacity:1;stroke:none;stroke-width:1px;stroke-linecap:butt;stroke-linejoin:miter;stroke-opacity:1;"
       xml:space="preserve"><tspan
         y="793.71936"
         x="613.51666"
         id="tspan6874"
         sodipodi:role="line">DATA</tspan></text>
    <text
       xml:space="preserve"
       style="font-style:normal;font-weight:normal;font-size:22.36341095px;line-height:125%;font-family:sans-serif;letter-spacing:0px;word-spacing:0px;fill:#000000;fill-opacity:1;stroke:none;stroke-width:1px;stroke-linecap:butt;stroke-linejoin:miter;stroke-opacity:1"
       x="613.51666"
       y="911.71936"
       id="text6876"
       sodipodi:linespacing="125%"><tspan
         sodipodi:role="line"
         id="tspan6878"
         x="613.51666"
         y="911.71936">DATA</tspan></text>
    <text
       sodipodi:linespacing="125%"
       id="text6880"
       y="961.71936"
       x="613.51666"
       style="font-style:normal;font-weight:normal;font-size:22.36341095px;line-height:125%;font-family:sans-serif;letter-spacing:0px;word-spacing:0px;fill:#000000;fill-opacity:1;stroke:none;stroke-width:1px;stroke-linecap:butt;stroke-linejoin:miter;stroke-opacity:1"
       xml:space="preserve"><tspan
         y="961.71936"
         x="613.51666"
         id="tspan6882"
         sodipodi:role="line">DATA</tspan></text>
    <text
       xml:space="preserve"
       style="font-style:normal;font-weight:normal;font-size:22.36341095px;line-height:125%;font-family:sans-serif;letter-spacing:0px;word-spacing:0px;fill:#000000;fill-opacity:1;stroke:none;stroke-width:1px;stroke-linecap:butt;stroke-linejoin:miter;stroke-opacity:1"
       x="613.51666"
       y="1009.7194"
       id="text6884"
       sodipodi:linespacing="125%"><tspan
         sodipodi:role="line"
         id="tspan6886"
         x="613.51666"
         y="1009.7194">DATA</tspan></text>
    <text
       xml:space="preserve"
       style="font-style:normal;font-weight:normal;font-size:18.25185394px;line-height:125%;font-family:sans-serif;letter-spacing:0px;word-spacing:0px;fill:#dcdcdc;fill-opacity:1;stroke:none;stroke-width:1px;stroke-linecap:butt;stroke-linejoin:miter;stroke-opacity:1"
       x="186.73624"
       y="781.73187"
       id="text6888"
       sodipodi:linespacing="125%"><tspan
         sodipodi:role="line"
         id="tspan6890"
         x="186.73624"
         y="781.73187"
         style="fill:#dcdcdc;fill-opacity:1">Internet</tspan></text>
    <text
       sodipodi:linespacing="125%"
       id="text6892"
       y="563.73187"
       x="186.73624"
       style="font-style:normal;font-weight:normal;font-size:18.25185394px;line-height:125%;font-family:sans-serif;letter-spacing:0px;word-spacing:0px;fill:#dcdcdc;fill-opacity:1;stroke:none;stroke-width:1px;stroke-linecap:butt;stroke-linejoin:miter;stroke-opacity:1"
       xml:space="preserve"><tspan
         style="fill:#dcdcdc;fill-opacity:1"
         y="563.73187"
         x="186.73624"
         id="tspan6894"
         sodipodi:role="line">Internet</tspan></text>
  </g>
</svg>
