<svg xmlns="http://www.w3.org/2000/svg" xmlns:xlink="http://www.w3.org/1999/xlink" width="1080" height="680"><g transform="translate(-360 -80)"><path d="M0 0h1537v900.16H0z" fill="#fff"/><path d="M780 235c0-2.76 2.24-5 5-5h10c2.76 0 5 2.24 5 5v10c0 2.76-2.24 5-5 5h-10c-2.76 0-5-2.24-5-5z" fill="none"/><use xlink:href="#a" transform="matrix(1,0,0,1,780,230) translate(3.5249999999999995 14.4)"/><path d="M996.67 227c0-2.76 2.24-5 5-5H1015c2.76 0 5 2.24 5 5v18c0 2.76-2.24 5-5 5h-13.33c-2.76 0-5-2.24-5-5z" fill="none"/><use xlink:href="#b" transform="matrix(1,0,0,1,996.6666666666665,222) translate(7 17.6)"/><path d="M820 485c0-2.76 2.24-5 5-5h150c2.76 0 5 2.24 5 5v110c0 2.76-2.24 5-5 5H825c-2.76 0-5-2.24-5-5z" stroke="#666" stroke-width="2" fill="#fff"/><use xlink:href="#c" transform="matrix(1,0,0,1,825,485) translate(46.525 58.6)"/><path d="M636 483c2.2-1.66 5.8-1.66 8 0l72 54c2.2 1.66 2.2 4.34 0 6l-72 54c-2.2 1.66-5.8 1.66-8 0l-72-54c-2.2-1.66-2.2-4.34 0-6z" stroke="#666" stroke-width="2" fill="#fff"/><use xlink:href="#d" transform="matrix(1,0,0,1,565,485) translate(7.125 58.6)"/><use xlink:href="#e" transform="matrix(1,0,0,1,565,485) translate(44.075 58.6)"/><path d="M1156 483c2.2-1.66 5.8-1.66 8 0l72 54c2.2 1.66 2.2 4.34 0 6l-72 54c-2.2 1.66-5.8 1.66-8 0l-72-54c-2.2-1.66-2.2-4.34 0-6z" stroke="#666" stroke-width="2" fill="#fff"/><use xlink:href="#d" transform="matrix(1,0,0,1,1085,485) translate(24.574999999999996 58.6)"/><use xlink:href="#f" transform="matrix(1,0,0,1,1085,485) translate(61.525 58.6)"/><path d="M1388 400c17.67 0 32 17.9 32 40s-14.33 40-32 40h-96c-17.67 0-32-17.9-32-40s14.33-40 32-40z" stroke="#666" stroke-width="2" fill="#fff"/><use xlink:href="#g" transform="matrix(1,0,0,1,1265,405) translate(56.025 38.6)"/><path d="M1388 600c17.67 0 32 17.9 32 40s-14.33 40-32 40h-96c-17.67 0-32-17.9-32-40s14.33-40 32-40z" stroke="#666" stroke-width="2" fill="#fff"/><use xlink:href="#h" transform="matrix(1,0,0,1,1265,605) translate(52.525 38.6)"/><path d="M508 400c17.67 0 32 17.9 32 40s-14.33 40-32 40h-96c-17.67 0-32-17.9-32-40s14.33-40 32-40z" stroke="#666" stroke-width="2" fill="#fff"/><use xlink:href="#i" transform="matrix(1,0,0,1,385,405) translate(55.525 38.6)"/><path d="M508 600c17.67 0 32 17.9 32 40s-14.33 40-32 40h-96c-17.67 0-32-17.9-32-40s14.33-40 32-40z" stroke="#666" stroke-width="2" fill="#fff"/><use xlink:href="#j" transform="matrix(1,0,0,1,385,605) translate(30.099999999999994 38.6)"/><path d="M748 660c17.67 0 32 17.9 32 40s-14.33 40-32 40h-96c-17.67 0-32-17.9-32-40s14.33-40 32-40z" stroke="#666" stroke-width="2" fill="#fff"/><use xlink:href="#k" transform="matrix(1,0,0,1,625,665) translate(51.05 38.6)"/><path d="M948 660c17.67 0 32 17.9 32 40s-14.33 40-32 40h-96c-17.67 0-32-17.9-32-40s14.33-40 32-40z" stroke="#666" stroke-width="2" fill="#fff"/><use xlink:href="#l" transform="matrix(1,0,0,1,825,665) translate(35.074999999999996 38.6)"/><path d="M1148 660c17.67 0 32 17.9 32 40s-14.33 40-32 40h-96c-17.67 0-32-17.9-32-40s14.33-40 32-40z" stroke="#666" stroke-width="2" fill="#fff"/><use xlink:href="#m" transform="matrix(1,0,0,1,1025,665) translate(49.05 38.6)"/><path d="M776 263c2.2-1.66 5.8-1.66 8 0l72 54c2.2 1.66 2.2 4.34 0 6l-72 54c-2.2 1.66-5.8 1.66-8 0l-72-54c-2.2-1.66-2.2-4.34 0-6z" stroke="#666" stroke-width="2" fill="#fff"/><use xlink:href="#n" transform="matrix(1,0,0,1,705,265) translate(59.025 58.6)"/><path d="M1016 263c2.2-1.66 5.8-1.66 8 0l72 54c2.2 1.66 2.2 4.34 0 6l-72 54c-2.2 1.66-5.8 1.66-8 0l-72-54c-2.2-1.66-2.2-4.34 0-6z" stroke="#666" stroke-width="2" fill="#fff"/><use xlink:href="#o" transform="matrix(1,0,0,1,945,265) translate(54.025 58.6)"/><path d="M700 105c0-2.76 2.24-5 5-5h150c2.76 0 5 2.24 5 5v110c0 2.76-2.24 5-5 5H705c-2.76 0-5-2.24-5-5z" stroke="#666" stroke-width="2" fill="#fff"/><use xlink:href="#p" transform="matrix(1,0,0,1,705,105) translate(44.025 58.6)"/><path d="M940 105c0-2.76 2.24-5 5-5h150c2.76 0 5 2.24 5 5v110c0 2.76-2.24 5-5 5H945c-2.76 0-5-2.24-5-5z" stroke="#666" stroke-width="2" fill="#fff"/><use xlink:href="#q" transform="matrix(1,0,0,1,945,105) translate(42.025 58.6)"/><path d="M568 120c17.67 0 32 17.9 32 40s-14.33 40-32 40h-96c-17.67 0-32-17.9-32-40s14.33-40 32-40z" stroke="#666" stroke-width="2" fill="#fff"/><use xlink:href="#i" transform="matrix(1,0,0,1,445,125) translate(55.525 38.6)"/><path d="M1308 120c17.67 0 32 17.9 32 40s-14.33 40-32 40h-96c-17.67 0-32-17.9-32-40s14.33-40 32-40z" stroke="#666" stroke-width="2" fill="#fff"/><use xlink:href="#r" transform="matrix(1,0,0,1,1185,125) translate(59.55 38.6)"/><path d="M634.6 482.8l6.06-1.18 5.82-.88 5.63-.6 5.48-.37 5.35-.14 5.26.1 5.2.3 5.17.53 5.2.75 5.23 1 5.34 1.23 5.48 1.5 5.72 1.85 6.03 2.22 6.5 2.7 7.3 3.4 8.63 4.5 12.27 7.06 34.97 21.16 6.16 3.2 4.8 2.24 4 1.67 3.52 1.3 3.16 1 2.9.8 2.7.64 2.53.47 2.42.35 2.32.23 2.25.13 2 .04" stroke="#999" stroke-width="2" fill="none"/><path d="M634.76 483.8l-2.96.46-.32-1.97 2.96-.5zM820 541h-.14l.14-1z" fill="#999"/><use xlink:href="#a" transform="matrix(1,0,0,1,766.9153216152641,495.1719513940996) translate(0 14.4)"/><path d="M640 598.24l2.55 1.16 2.53 1.03 2.52.9 2.53.8 2.55.66 2.57.56 2.62.46 2.66.36 2.72.25 2.8.14 2.9.02 3.03-.1 3.15-.25 3.32-.4 3.52-.56 3.76-.78 4.06-1 4.42-1.3 4.9-1.67 5.53-2.14 6.4-2.8 7.74-3.76 10.24-5.55 21.28-12.8 27.3-16.64 8.32-4.5 5.92-2.9 4.67-2.03 3.9-1.5 3.33-1.14 2.93-.87 2.6-.65 2.38-.5 2.17-.34 2-.23 1.87-.14 1.76-.06h.52" stroke="#999" stroke-width="2" fill="none"/><path d="M637.87 597.93l2.13.3-.32.96-2.84-1 .23-.67zM820 540l-.16-1h.16z" fill="#999"/><use xlink:href="#b" transform="matrix(1,0,0,1,770.7498587110862,561.9874071352878) translate(0 14.4)"/><path d="M700 660l200-60" stroke="#999" stroke-width="2" fill="none"/><path d="M700 660h-3.13l-.03-.1 2.87-.86zM903.16 600.1l-2.87.86-.3-.96h3.13z" fill="#999"/><path d="M900 660v-60M900 600l200 60" stroke="#999" stroke-width="2" fill="none"/><path d="M899.7 600.96l-2.86-.86.03-.1H900zM1103.16 659.9l-.03.1H1100l.3-.96z" fill="#999"/><path d="M540 440l20 100" stroke="#999" stroke-width="2" fill="none"/><path d="M540.98 439.8l-.98.2-.1-3.04.5-.1zM561.57 542.75l-1.96.4-.58-2.95 1.96-.4z" fill="#999"/><path d="M700 160H600" stroke="#999" stroke-width="2" fill="none"/><path d="M600 161h-.06l.06-1-.04-1h.04z" fill="#999"/><path d="M780 220v40" stroke="#999" stroke-width="2" fill="none"/><path d="M781 261.9l-1-.14-1 .14V260h2z" fill="#999"/><path d="M780 378.24L900 480" stroke="#999" stroke-width="2" fill="none"/><path d="M780 378.24l-.65.77-1.22-1.03zM901.55 480H900l.65-.76z" fill="#999"/><use xlink:href="#b" transform="matrix(1,0,0,1,869.8121788935948,429.3869527105573) translate(0 14.4)"/><path d="M1180 160h-80" stroke="#999" stroke-width="2" fill="none"/><path d="M1180 160l.04 1h-.04v-2h.06z" fill="#999"/><path d="M900 480l120-100" stroke="#999" stroke-width="2" fill="none"/><path d="M900 480h-1.56l.92-.77zM1022.94 378.85l-2.3 1.92-1.28-1.54 1.3-1.08 1.47-.22.04-.02z" fill="#999"/><use xlink:href="#s" transform="matrix(1,0,0,1,916.8562952831106,430.6642210063994) translate(0.004999999999999893 14.4)"/><path d="M1020 220v40" stroke="#999" stroke-width="2" fill="none"/><path d="M1021 261.9l-1-.14-1 .14V260h2z" fill="#999"/><path d="M980 540l2.68-.06 2.5-.15 2.37-.26 2.24-.33 2.14-.4 2.05-.48 1.97-.56 1.92-.62 1.87-.7 1.84-.77 1.82-.85 1.8-.94 1.8-1.04 1.8-1.15 1.82-1.27 1.86-1.42 1.92-1.58 2-1.8 2.13-2.08 2.3-2.45 2.58-3 3.08-3.9 4.35-6 15.88-23.1 3.1-3.92 2.6-3 2.3-2.48 2.15-2.1 2.02-1.82 1.94-1.6 1.88-1.43 1.85-1.3 1.82-1.14 1.8-1.04 1.83-.96 1.84-.86 1.87-.8 1.9-.7 1.95-.63 2-.55 2.1-.5 2.17-.4 2.28-.34 2.4-.24 2.57-.16 2.72-.06 2.93.06 3.18.2 3.46.37 3.82.56 4.22.8 4.74 1.12 5.36 1.5 6.16 2 7.17 2.67 8.48 3.58 10.22 4.82L1160 480" stroke="#999" stroke-width="2" fill="none"/><path d="M980.13 541H980V540zM1163.13 480.42l-.84 1.73-.17-.08-.26-.04-2.3-1.13.87-1.8z" fill="#999"/><use xlink:href="#s" transform="matrix(1,0,0,1,1003.9577378219066,499.98623700056817) translate(0.004999999999999893 14.4)"/><path d="M1237.47 540L1260 440" stroke="#999" stroke-width="2" fill="none"/><path d="M1238.45 540.22l-.66 2.93-1.63-.37 1.3-1.7V540zM1260.2 436.97l-.2 3.03-.98-.22.66-2.93z" fill="#999"/><path d="M1237.47 540L1260 640" stroke="#999" stroke-width="2" fill="none"/><path d="M1260.1 643.05l-.42.1-.66-2.93.98-.22z" fill="#999"/><path d="M540 640l22.53-100" stroke="#999" stroke-width="2" fill="none"/><path d="M540.98 640.22l-.66 2.93-.5-.12.18-3.03zM563.83 537.22l-1.3 1.7V540l-.98-.22.66-2.93z" fill="#999"/><path d="M980 540l.86.02.9.05.92.1.97.15 1.03.2 1.08.25 1.17.32 1.25.4 1.36.5 1.5.64 1.7.8 1.9 1 2.23 1.28 2.68 1.7 3.4 2.37 4.78 3.64 9.9 8.27 23.94 20.33 7.85 5.97 6.37 4.44 5.57 3.54 5.05 2.92 4.67 2.45 4.4 2.07 4.2 1.76 4 1.5 3.9 1.27 3.8 1.06 3.74.9 3.67.7 3.66.53 3.63.38 3.62.24 3.65.07 3.7-.06 3.73-.24 3.82-.4 3.9-.58 4-.76 4.16-.98 4.3-1.2 4.48-1.45 4.7-1.75 4.95-2.08 4.9-2.3" stroke="#999" stroke-width="2" fill="none"/><path d="M980.3 539.04l-.3.96v-1.04zM1163.15 599.75l-2.76 1.17-.8-1.84 2.77-1.17z" fill="#999"/><use xlink:href="#t" transform="matrix(1,0,0,1,1000.1993673432717,562.2381039405184) translate(0.004999999999999893 14.4)"/><path d="M1308 240c17.67 0 32 17.9 32 40s-14.33 40-32 40h-96c-17.67 0-32-17.9-32-40s14.33-40 32-40z" stroke="#666" stroke-width="2" fill="#fff"/><use xlink:href="#u" transform="matrix(1,0,0,1,1185,245) translate(51.025 38.6)"/><path d="M1180 280l-80-120" stroke="#999" stroke-width="2" fill="none"/><path d="M1180.07 281.9l-.9-1.35.83-.55zM1100.83 159.45l-.83.55v-1.8z" fill="#999"/><path d="M568 240c17.67 0 32 17.9 32 40s-14.33 40-32 40h-96c-17.67 0-32-17.9-32-40s14.33-40 32-40z" stroke="#666" stroke-width="2" fill="#fff"/><use xlink:href="#v" transform="matrix(1,0,0,1,445,245) translate(19.225 38.6)"/><use xlink:href="#w" transform="matrix(1,0,0,1,445,245) translate(86.17500000000001 38.6)"/><path d="M700 160L600 280" stroke="#999" stroke-width="2" fill="none"/><path d="M700 160l-.77-.64.77-.92zM600.77 280.64l-.88 1.05.1-1.7z" fill="#999"/><defs><path d="M190 0L58-211 59 0H30v-248h39L202-35l-2-213h31V0h-41" id="x"/><use transform="matrix(0.05,0,0,0.05,0,0)" xlink:href="#x" id="a"/><path d="M27 0v-27h64v-190l-56 39v-29l58-41h29v221h61V0H27" id="y"/><use transform="matrix(0.05,0,0,0.05,0,0)" xlink:href="#y" id="b"/><path fill="#333" d="M30-248c87 1 191-15 191 75 0 78-77 80-158 76V0H30v-248zm33 125c57 0 124 11 124-50 0-59-68-47-124-48v98" id="z"/><path fill="#333" d="M100-194c63 0 86 42 84 106H49c0 40 14 67 53 68 26 1 43-12 49-29l28 8c-11 28-37 45-77 45C44 4 14-33 15-96c1-61 26-98 85-98zm52 81c6-60-76-77-97-28-3 7-6 17-6 28h103" id="A"/><path fill="#333" d="M114-163C36-179 61-72 57 0H25l-1-190h30c1 12-1 29 2 39 6-27 23-49 58-41v29" id="B"/><path fill="#333" d="M135-143c-3-34-86-38-87 0 15 53 115 12 119 90S17 21 10-45l28-5c4 36 97 45 98 0-10-56-113-15-118-90-4-57 82-63 122-42 12 7 21 19 24 35" id="C"/><path fill="#333" d="M100-194c62-1 85 37 85 99 1 63-27 99-86 99S16-35 15-95c0-66 28-99 85-99zM99-20c44 1 53-31 53-75 0-43-8-75-51-75s-53 32-53 75 10 74 51 75" id="D"/><path fill="#333" d="M117-194c89-4 53 116 60 194h-32v-121c0-31-8-49-39-48C34-167 62-67 57 0H25l-1-190h30c1 10-1 24 2 32 11-22 29-35 61-36" id="E"/><g id="c"><use transform="matrix(0.05,0,0,0.05,0,0)" xlink:href="#z"/><use transform="matrix(0.05,0,0,0.05,12,0)" xlink:href="#A"/><use transform="matrix(0.05,0,0,0.05,22,0)" xlink:href="#B"/><use transform="matrix(0.05,0,0,0.05,27.950000000000003,0)" xlink:href="#C"/><use transform="matrix(0.05,0,0,0.05,36.95,0)" xlink:href="#D"/><use transform="matrix(0.05,0,0,0.05,46.95,0)" xlink:href="#E"/></g><path fill="#333" d="M197 0v-115H63V0H30v-248h33v105h134v-105h34V0h-34" id="F"/><path fill="#333" d="M141-36C126-15 110 5 73 4 37 3 15-17 15-53c-1-64 63-63 125-63 3-35-9-54-41-54-24 1-41 7-42 31l-33-3c5-37 33-52 76-52 45 0 72 20 72 64v82c-1 20 7 32 28 27v20c-31 9-61-2-59-35zM48-53c0 20 12 33 32 33 41-3 63-29 60-74-43 2-92-5-92 41" id="G"/><g id="d"><use transform="matrix(0.05,0,0,0.05,0,0)" xlink:href="#F"/><use transform="matrix(0.05,0,0,0.05,12.950000000000001,0)" xlink:href="#G"/><use transform="matrix(0.05,0,0,0.05,22.950000000000003,0)" xlink:href="#C"/></g><path fill="#333" d="M233-177c-1 41-23 64-60 70L243 0h-38l-65-103H63V0H30v-248c88 3 205-21 203 71zM63-129c60-2 137 13 137-47 0-61-80-42-137-45v92" id="H"/><path fill="#333" d="M24 0v-261h32V0H24" id="I"/><path fill="#333" d="M59-47c-2 24 18 29 38 22v24C64 9 27 4 27-40v-127H5v-23h24l9-43h21v43h35v23H59v120" id="J"/><path fill="#333" d="M24-231v-30h32v30H24zM24 0v-190h32V0H24" id="K"/><path fill="#333" d="M106-169C34-169 62-67 57 0H25v-261h32l-1 103c12-21 28-36 61-36 89 0 53 116 60 194h-32v-121c2-32-8-49-39-48" id="L"/><path fill="#333" d="M115-194c55 1 70 41 70 98S169 2 115 4C84 4 66-9 55-30l1 105H24l-1-265h31l2 30c10-21 28-34 59-34zm-8 174c40 0 45-34 45-75s-6-73-45-74c-42 0-51 32-51 76 0 43 10 73 51 73" id="M"/><g id="e"><use transform="matrix(0.05,0,0,0.05,0,0)" xlink:href="#H"/><use transform="matrix(0.05,0,0,0.05,12.950000000000001,0)" xlink:href="#A"/><use transform="matrix(0.05,0,0,0.05,22.950000000000003,0)" xlink:href="#I"/><use transform="matrix(0.05,0,0,0.05,26.900000000000002,0)" xlink:href="#G"/><use transform="matrix(0.05,0,0,0.05,36.900000000000006,0)" xlink:href="#J"/><use transform="matrix(0.05,0,0,0.05,41.900000000000006,0)" xlink:href="#K"/><use transform="matrix(0.05,0,0,0.05,45.85000000000001,0)" xlink:href="#D"/><use transform="matrix(0.05,0,0,0.05,55.85,0)" xlink:href="#E"/><use transform="matrix(0.05,0,0,0.05,65.85000000000001,0)" xlink:href="#C"/><use transform="matrix(0.05,0,0,0.05,74.85000000000001,0)" xlink:href="#L"/><use transform="matrix(0.05,0,0,0.05,84.85000000000001,0)" xlink:href="#K"/><use transform="matrix(0.05,0,0,0.05,88.80000000000001,0)" xlink:href="#M"/></g><path fill="#333" d="M240 0l2-218c-23 76-54 145-80 218h-23L58-218 59 0H30v-248h44l77 211c21-75 51-140 76-211h43V0h-30" id="N"/><path fill="#333" d="M177-190C167-65 218 103 67 71c-23-6-38-20-44-43l32-5c15 47 100 32 89-28v-30C133-14 115 1 83 1 29 1 15-40 15-95c0-56 16-97 71-98 29-1 48 16 59 35 1-10 0-23 2-32h30zM94-22c36 0 50-32 50-73 0-42-14-75-50-75-39 0-46 34-46 75s6 73 46 73" id="O"/><g id="f"><use transform="matrix(0.05,0,0,0.05,0,0)" xlink:href="#N"/><use transform="matrix(0.05,0,0,0.05,14.950000000000001,0)" xlink:href="#A"/><use transform="matrix(0.05,0,0,0.05,24.950000000000003,0)" xlink:href="#A"/><use transform="matrix(0.05,0,0,0.05,34.95,0)" xlink:href="#J"/><use transform="matrix(0.05,0,0,0.05,39.95,0)" xlink:href="#K"/><use transform="matrix(0.05,0,0,0.05,43.900000000000006,0)" xlink:href="#E"/><use transform="matrix(0.05,0,0,0.05,53.900000000000006,0)" xlink:href="#O"/></g><path fill="#333" d="M30-248c118-7 216 8 213 122C240-48 200 0 122 0H30v-248zM63-27c89 8 146-16 146-99s-60-101-146-95v194" id="P"/><g id="g"><use transform="matrix(0.05,0,0,0.05,0,0)" xlink:href="#P"/><use transform="matrix(0.05,0,0,0.05,12.950000000000001,0)" xlink:href="#G"/><use transform="matrix(0.05,0,0,0.05,22.950000000000003,0)" xlink:href="#J"/><use transform="matrix(0.05,0,0,0.05,27.950000000000003,0)" xlink:href="#A"/></g><path fill="#333" d="M96-169c-40 0-48 33-48 73s9 75 48 75c24 0 41-14 43-38l32 2c-6 37-31 61-74 61-59 0-76-41-82-99-10-93 101-131 147-64 4 7 5 14 7 22l-32 3c-4-21-16-35-41-35" id="Q"/><g id="h"><use transform="matrix(0.05,0,0,0.05,0,0)" xlink:href="#z"/><use transform="matrix(0.05,0,0,0.05,12,0)" xlink:href="#I"/><use transform="matrix(0.05,0,0,0.05,15.949999999999998,0)" xlink:href="#G"/><use transform="matrix(0.05,0,0,0.05,25.950000000000003,0)" xlink:href="#Q"/><use transform="matrix(0.05,0,0,0.05,34.95,0)" xlink:href="#A"/></g><path fill="#333" d="M127-220V0H93v-220H8v-28h204v28h-85" id="R"/><path fill="#333" d="M179-190L93 31C79 59 56 82 12 73V49c39 6 53-20 64-50L1-190h34L92-34l54-156h33" id="S"/><g id="i"><use transform="matrix(0.05,0,0,0.05,0,0)" xlink:href="#R"/><use transform="matrix(0.05,0,0,0.05,9.950000000000001,0)" xlink:href="#S"/><use transform="matrix(0.05,0,0,0.05,18.950000000000003,0)" xlink:href="#M"/><use transform="matrix(0.05,0,0,0.05,28.950000000000003,0)" xlink:href="#A"/></g><g id="j"><use transform="matrix(0.05,0,0,0.05,0,0)" xlink:href="#P"/><use transform="matrix(0.05,0,0,0.05,12.950000000000001,0)" xlink:href="#A"/><use transform="matrix(0.05,0,0,0.05,22.950000000000003,0)" xlink:href="#C"/><use transform="matrix(0.05,0,0,0.05,31.950000000000003,0)" xlink:href="#Q"/><use transform="matrix(0.05,0,0,0.05,40.95,0)" xlink:href="#B"/><use transform="matrix(0.05,0,0,0.05,46.900000000000006,0)" xlink:href="#K"/><use transform="matrix(0.05,0,0,0.05,50.85000000000001,0)" xlink:href="#M"/><use transform="matrix(0.05,0,0,0.05,60.85,0)" xlink:href="#J"/><use transform="matrix(0.05,0,0,0.05,65.85000000000001,0)" xlink:href="#K"/><use transform="matrix(0.05,0,0,0.05,69.80000000000001,0)" xlink:href="#D"/><use transform="matrix(0.05,0,0,0.05,79.80000000000001,0)" xlink:href="#E"/></g><path fill="#333" d="M190 0L58-211 59 0H30v-248h39L202-35l-2-213h31V0h-41" id="T"/><path fill="#333" d="M210-169c-67 3-38 105-44 169h-31v-121c0-29-5-50-35-48C34-165 62-65 56 0H25l-1-190h30c1 10-1 24 2 32 10-44 99-50 107 0 11-21 27-35 58-36 85-2 47 119 55 194h-31v-121c0-29-5-49-35-48" id="U"/><g id="k"><use transform="matrix(0.05,0,0,0.05,0,0)" xlink:href="#T"/><use transform="matrix(0.05,0,0,0.05,12.950000000000001,0)" xlink:href="#G"/><use transform="matrix(0.05,0,0,0.05,22.950000000000003,0)" xlink:href="#U"/><use transform="matrix(0.05,0,0,0.05,37.900000000000006,0)" xlink:href="#A"/></g><path fill="#333" d="M143 0L79-87 56-68V0H24v-261h32v163l83-92h37l-77 82L181 0h-38" id="V"/><g id="l"><use transform="matrix(0.05,0,0,0.05,0,0)" xlink:href="#T"/><use transform="matrix(0.05,0,0,0.05,12.950000000000001,0)" xlink:href="#K"/><use transform="matrix(0.05,0,0,0.05,16.900000000000002,0)" xlink:href="#Q"/><use transform="matrix(0.05,0,0,0.05,25.900000000000002,0)" xlink:href="#V"/><use transform="matrix(0.05,0,0,0.05,34.900000000000006,0)" xlink:href="#E"/><use transform="matrix(0.05,0,0,0.05,44.900000000000006,0)" xlink:href="#G"/><use transform="matrix(0.05,0,0,0.05,54.900000000000006,0)" xlink:href="#U"/><use transform="matrix(0.05,0,0,0.05,69.85000000000001,0)" xlink:href="#A"/></g><g id="m"><use transform="matrix(0.05,0,0,0.05,0,0)" xlink:href="#F"/><use transform="matrix(0.05,0,0,0.05,12.950000000000001,0)" xlink:href="#A"/><use transform="matrix(0.05,0,0,0.05,22.950000000000003,0)" xlink:href="#K"/><use transform="matrix(0.05,0,0,0.05,26.900000000000002,0)" xlink:href="#O"/><use transform="matrix(0.05,0,0,0.05,36.900000000000006,0)" xlink:href="#L"/><use transform="matrix(0.05,0,0,0.05,46.900000000000006,0)" xlink:href="#J"/></g><g id="n"><use transform="matrix(0.05,0,0,0.05,0,0)" xlink:href="#F"/><use transform="matrix(0.05,0,0,0.05,12.950000000000001,0)" xlink:href="#G"/><use transform="matrix(0.05,0,0,0.05,22.950000000000003,0)" xlink:href="#C"/></g><path fill="#333" d="M30 0v-248h33v221h125V0H30" id="W"/><path fill="#333" d="M108 0H70L1-190h34L89-25l56-165h34" id="X"/><g id="o"><use transform="matrix(0.05,0,0,0.05,0,0)" xlink:href="#W"/><use transform="matrix(0.05,0,0,0.05,10,0)" xlink:href="#K"/><use transform="matrix(0.05,0,0,0.05,13.949999999999998,0)" xlink:href="#X"/><use transform="matrix(0.05,0,0,0.05,22.95,0)" xlink:href="#A"/><use transform="matrix(0.05,0,0,0.05,32.95,0)" xlink:href="#C"/></g><path fill="#333" d="M212-179c-10-28-35-45-73-45-59 0-87 40-87 99 0 60 29 101 89 101 43 0 62-24 78-52l27 14C228-24 195 4 139 4 59 4 22-46 18-125c-6-104 99-153 187-111 19 9 31 26 39 46" id="Y"/><g id="p"><use transform="matrix(0.05,0,0,0.05,0,0)" xlink:href="#Y"/><use transform="matrix(0.05,0,0,0.05,12.950000000000001,0)" xlink:href="#D"/><use transform="matrix(0.05,0,0,0.05,22.950000000000003,0)" xlink:href="#E"/><use transform="matrix(0.05,0,0,0.05,32.95,0)" xlink:href="#J"/><use transform="matrix(0.05,0,0,0.05,37.95,0)" xlink:href="#G"/><use transform="matrix(0.05,0,0,0.05,47.95,0)" xlink:href="#Q"/><use transform="matrix(0.05,0,0,0.05,56.95,0)" xlink:href="#J"/></g><path fill="#333" d="M205 0l-28-72H64L36 0H1l101-248h38L239 0h-34zm-38-99l-47-123c-12 45-31 82-46 123h93" id="Z"/><path fill="#333" d="M85-194c31 0 48 13 60 33l-1-100h32l1 261h-30c-2-10 0-23-3-31C134-8 116 4 85 4 32 4 16-35 15-94c0-66 23-100 70-100zm9 24c-40 0-46 34-46 75 0 40 6 74 45 74 42 0 51-32 51-76 0-42-9-74-50-73" id="aa"/><g id="q"><use transform="matrix(0.05,0,0,0.05,0,0)" xlink:href="#Z"/><use transform="matrix(0.05,0,0,0.05,12,0)" xlink:href="#aa"/><use transform="matrix(0.05,0,0,0.05,22,0)" xlink:href="#aa"/><use transform="matrix(0.05,0,0,0.05,32,0)" xlink:href="#B"/><use transform="matrix(0.05,0,0,0.05,37.95,0)" xlink:href="#A"/><use transform="matrix(0.05,0,0,0.05,47.95,0)" xlink:href="#C"/><use transform="matrix(0.05,0,0,0.05,56.95,0)" xlink:href="#C"/></g><g id="r"><use transform="matrix(0.05,0,0,0.05,0,0)" xlink:href="#Y"/><use transform="matrix(0.05,0,0,0.05,12.950000000000001,0)" xlink:href="#K"/><use transform="matrix(0.05,0,0,0.05,16.900000000000002,0)" xlink:href="#J"/><use transform="matrix(0.05,0,0,0.05,21.900000000000002,0)" xlink:href="#S"/></g><use transform="matrix(0.05,0,0,0.05,0,0)" xlink:href="#T" id="s"/><use transform="matrix(0.05,0,0,0.05,0,0)" xlink:href="#N" id="t"/><path fill="#333" d="M185-189c-5-48-123-54-124 2 14 75 158 14 163 119 3 78-121 87-175 55-17-10-28-26-33-46l33-7c5 56 141 63 141-1 0-78-155-14-162-118-5-82 145-84 179-34 5 7 8 16 11 25" id="ab"/><g id="u"><use transform="matrix(0.05,0,0,0.05,0,0)" xlink:href="#ab"/><use transform="matrix(0.05,0,0,0.05,12,0)" xlink:href="#J"/><use transform="matrix(0.05,0,0,0.05,17,0)" xlink:href="#B"/><use transform="matrix(0.05,0,0,0.05,22.95,0)" xlink:href="#A"/><use transform="matrix(0.05,0,0,0.05,32.95,0)" xlink:href="#A"/><use transform="matrix(0.05,0,0,0.05,42.95,0)" xlink:href="#J"/></g><g id="v"><use transform="matrix(0.05,0,0,0.05,0,0)" xlink:href="#Y"/><use transform="matrix(0.05,0,0,0.05,12.950000000000001,0)" xlink:href="#D"/><use transform="matrix(0.05,0,0,0.05,22.950000000000003,0)" xlink:href="#E"/><use transform="matrix(0.05,0,0,0.05,32.95,0)" xlink:href="#J"/><use transform="matrix(0.05,0,0,0.05,37.95,0)" xlink:href="#G"/><use transform="matrix(0.05,0,0,0.05,47.95,0)" xlink:href="#Q"/><use transform="matrix(0.05,0,0,0.05,56.95,0)" xlink:href="#J"/></g><path fill="#333" d="M137 0h-34L2-248h35l83 218 83-218h36" id="ac"/><path fill="#333" d="M84 4C-5 8 30-112 23-190h32v120c0 31 7 50 39 49 72-2 45-101 50-169h31l1 190h-30c-1-10 1-25-2-33-11 22-28 36-60 37" id="ad"/><g id="w"><use transform="matrix(0.05,0,0,0.05,0,0)" xlink:href="#ac"/><use transform="matrix(0.05,0,0,0.05,10.65,0)" xlink:href="#G"/><use transform="matrix(0.05,0,0,0.05,20.65,0)" xlink:href="#I"/><use transform="matrix(0.05,0,0,0.05,24.599999999999998,0)" xlink:href="#ad"/><use transform="matrix(0.05,0,0,0.05,34.599999999999994,0)" xlink:href="#A"/></g></defs></g></svg>