<svg xmlns="http://www.w3.org/2000/svg" xmlns:xlink="http://www.w3.org/1999/xlink" width="1200" height="675.12"><g transform="translate(0 0)"><path d="M0 0h1200v675.12H0z" fill="#fff"/><path d="M620 300c0 143.6-120.88 260-270 260S80 443.6 80 300 200.88 40 350 40s270 116.4 270 260z" stroke="#e55050" stroke-width="2" fill="#e55050" fill-opacity=".4"/><path d="M1060 150c0 71.8-67.16 130-150 130s-150-58.2-150-130S827.16 20 910 20s150 58.2 150 130z" stroke="#7769e0" stroke-width="2" fill="#7769e0" fill-opacity=".4"/><path d="M770 65c0-2.76 2.24-5 5-5h270c2.76 0 5 2.24 5 5v170c0 2.76-2.24 5-5 5H775c-2.76 0-5-2.24-5-5z" fill="none"/><use xlink:href="#a" transform="matrix(1,0,0,1,790,60) translate(70.16666666666667 96)"/><path d="M380 145c0-2.76 2.24-5 5-5h270c2.76 0 5 2.24 5 5v170c0 2.76-2.24 5-5 5H385c-2.76 0-5-2.24-5-5z" fill="none"/><use xlink:href="#b" transform="matrix(1,0,0,1,400,140) translate(76.75 96)"/><path d="M440 140c0 44.18-49.25 80-110 80s-110-35.82-110-80 49.25-80 110-80 110 35.82 110 80z" stroke="#e55050" stroke-width="2" fill="#e55050" fill-opacity=".4"/><path d="M190 65c0-2.76 2.24-5 5-5h270c2.76 0 5 2.24 5 5v170c0 2.76-2.24 5-5 5H195c-2.76 0-5-2.24-5-5z" fill="none"/><use xlink:href="#c" transform="matrix(1,0,0,1,210,60) translate(78.5 96)"/><path d="M305 290c0-2.76 2.24-5 5-5h270c2.76 0 5 2.24 5 5v170c0 2.76-2.24 5-5 5H310c-2.76 0-5-2.24-5-5z" fill="none"/><use xlink:href="#d" transform="matrix(1,0,0,1,325,285) translate(68.5 96)"/><path d="M140 310c0-2.76 2.24-5 5-5h270c2.76 0 5 2.24 5 5v170c0 2.76-2.24 5-5 5H145c-2.76 0-5-2.24-5-5z" fill="none"/><use xlink:href="#e" transform="matrix(1,0,0,1,160,305) translate(88.41666666666667 96)"/><path d="M580 382.44c0 56.58-98.5 102.44-220 102.44s-220-45.86-220-102.44S238.5 280 360 280s220 45.86 220 102.44z" stroke="#e55050" stroke-width="2" fill="#e55050" fill-opacity=".4"/><path d="M550 375c0 38.66-47 70-105 70s-105-31.34-105-70 47-70 105-70 105 31.34 105 70z" stroke="#e55050" stroke-width="2" fill="#e55050" fill-opacity=".4"/><defs><path fill="#333" d="M186 0v-106H76V0H24v-248h52v99h110v-99h50V0h-50" id="f"/><path fill="#333" d="M136-208V0H84v-208H4v-40h212v40h-80" id="g"/><path fill="#333" d="M230 0l2-204L168 0h-37L68-204 70 0H24v-248h70l56 185 57-185h69V0h-46" id="h"/><path fill="#333" d="M24 0v-248h52v208h133V0H24" id="i"/><path fill="#333" d="M139-81c0-46-55-55-73-27H18l9-140h149v37H72l-4 63c44-38 133-4 122 66C201 21 21 35 11-62l49-4c5 18 15 30 39 30 26 0 40-18 40-45" id="j"/><g id="a"><use transform="matrix(0.08333333333333333,0,0,0.08333333333333333,0,0)" xlink:href="#f"/><use transform="matrix(0.08333333333333333,0,0,0.08333333333333333,21.583333333333332,0)" xlink:href="#g"/><use transform="matrix(0.08333333333333333,0,0,0.08333333333333333,39.83333333333333,0)" xlink:href="#h"/><use transform="matrix(0.08333333333333333,0,0,0.08333333333333333,64.75,0)" xlink:href="#i"/><use transform="matrix(0.08333333333333333,0,0,0.08333333333333333,83,0)" xlink:href="#j"/></g><path fill="#333" d="M169-182c-1-43-94-46-97-3 18 66 151 10 154 114 3 95-165 93-204 36-6-8-10-19-12-30l50-8c3 46 112 56 116 5-17-69-150-10-154-114-4-87 153-88 188-35 5 8 8 18 10 28" id="k"/><path fill="#333" d="M67-125c0 54 23 88 75 88 28 0 53-7 68-21v-34h-60v-39h108v91C232-14 192 4 140 4 58 4 20-42 15-125 8-236 126-280 215-234c19 10 29 26 37 47l-47 15c-11-23-29-39-63-39-53 1-75 33-75 86" id="l"/><g id="b"><use transform="matrix(0.08333333333333333,0,0,0.08333333333333333,0,0)" xlink:href="#k"/><use transform="matrix(0.08333333333333333,0,0,0.08333333333333333,20,0)" xlink:href="#l"/><use transform="matrix(0.08333333333333333,0,0,0.08333333333333333,43.33333333333333,0)" xlink:href="#h"/><use transform="matrix(0.08333333333333333,0,0,0.08333333333333333,68.25,0)" xlink:href="#i"/></g><g id="c"><use transform="matrix(0.08333333333333333,0,0,0.08333333333333333,0,0)" xlink:href="#f"/><use transform="matrix(0.08333333333333333,0,0,0.08333333333333333,21.583333333333332,0)" xlink:href="#g"/><use transform="matrix(0.08333333333333333,0,0,0.08333333333333333,39.83333333333333,0)" xlink:href="#h"/><use transform="matrix(0.08333333333333333,0,0,0.08333333333333333,64.75,0)" xlink:href="#i"/></g><path fill="#333" d="M182 0l-62-99L58 0H3l86-130-79-118h55l55 88 55-88h55l-75 118L237 0h-55" id="m"/><g id="d"><use transform="matrix(0.08333333333333333,0,0,0.08333333333333333,0,0)" xlink:href="#m"/><use transform="matrix(0.08333333333333333,0,0,0.08333333333333333,20,0)" xlink:href="#f"/><use transform="matrix(0.08333333333333333,0,0,0.08333333333333333,41.58333333333333,0)" xlink:href="#g"/><use transform="matrix(0.08333333333333333,0,0,0.08333333333333333,59.83333333333333,0)" xlink:href="#h"/><use transform="matrix(0.08333333333333333,0,0,0.08333333333333333,84.75,0)" xlink:href="#i"/></g><g id="e"><use transform="matrix(0.08333333333333333,0,0,0.08333333333333333,0,0)" xlink:href="#m"/><use transform="matrix(0.08333333333333333,0,0,0.08333333333333333,20,0)" xlink:href="#h"/><use transform="matrix(0.08333333333333333,0,0,0.08333333333333333,44.916666666666664,0)" xlink:href="#i"/></g></defs></g></svg>