<svg xmlns="http://www.w3.org/2000/svg" xmlns:xlink="http://www.w3.org/1999/xlink" width="1537.01" height="900.16"><g transform="translate(0 0)"><path d="M0 0h1537v900.16H0z" fill="#fff"/><path d="M626.6 125.22c0-2.76 2.24-5 5-5h230c2.76 0 5 2.24 5 5v50c0 2.76-2.24 5-5 5h-230c-2.76 0-5-2.24-5-5z" fill="none"/><use xlink:href="#a" transform="matrix(1,0,0,1,626.6031757127051,120.22015704099007) translate(103.525 33.6)"/><path d="M69.5 268.83c0-3.3 2.7-6 6-6H494c3.3 0 6 2.7 6 6v166.5c0 3.3-2.7 6-6 6H75.5c-3.3 0-6-2.7-6-6z" fill="#fff"/><path d="M69.5 262.83H500v40H69.5z" fill="#ccc"/><path d="M69.5 268.83c0-3.3 2.7-6 6-6H494c3.3 0 6 2.7 6 6v166.5c0 3.3-2.7 6-6 6H75.5c-3.3 0-6-2.7-6-6zM69.5 302.83H500M140.33 302.83v138.5M341.82 302.83v138.5" stroke="#666" stroke-width="2" fill="none"/><use xlink:href="#b" transform="matrix(1,0,0,1,79.5,262.8287401574803) translate(166.1172839506173 24.88888888888889)"/><use xlink:href="#c" transform="matrix(1,0,0,1,74.5,305.3287401574803) translate(14.203703703703706 19.555555555555557)"/><use xlink:href="#d" transform="matrix(1,0,0,1,145.3254161580506,305.3287401574803) translate(40.35493827160494 19.555555555555557)"/><use xlink:href="#e" transform="matrix(1,0,0,1,346.81832141063603,305.3287401574803) translate(37.22222222222223 19.555555555555557)"/><use xlink:href="#f" transform="matrix(1,0,0,1,74.5,339.3287401574803) translate(3.3734567901234627 19.555555555555557)"/><use xlink:href="#g" transform="matrix(1,0,0,1,145.3254161580506,339.3287401574803) translate(42.425925925925924 19.555555555555557)"/><use xlink:href="#e" transform="matrix(1,0,0,1,346.81832141063603,339.3287401574803) translate(37.22222222222223 19.555555555555557)"/><use xlink:href="#f" transform="matrix(1,0,0,1,74.5,373.3287401574803) translate(3.3734567901234627 19.555555555555557)"/><use xlink:href="#h" transform="matrix(1,0,0,1,145.3254161580506,373.3287401574803) translate(10.478395061728378 19.555555555555557)"/><use xlink:href="#e" transform="matrix(1,0,0,1,346.81832141063603,373.3287401574803) translate(37.22222222222223 19.555555555555557)"/><use xlink:href="#i" transform="matrix(1,0,0,1,74.5,407.3287401574803) translate(22.351851851851855 19.555555555555557)"/><use xlink:href="#b" transform="matrix(1,0,0,1,145.3254161580506,407.3287401574803) translate(56.617283950617285 19.555555555555557)"/><use xlink:href="#j" transform="matrix(1,0,0,1,346.81832141063603,407.3287401574803) translate(5.37654320987653 19.555555555555557)"/><path d="M79 38c0-3.3 2.7-6 6-6h409c3.3 0 6 2.7 6 6v132.5c0 3.3-2.7 6-6 6H85c-3.3 0-6-2.7-6-6z" fill="#fff"/><path d="M79 32h421v40H79z" fill="#ccc"/><path d="M79 38c0-3.3 2.7-6 6-6h409c3.3 0 6 2.7 6 6v132.5c0 3.3-2.7 6-6 6H85c-3.3 0-6-2.7-6-6zM79 72h421M122.33 72v104.5M328.5 72v104.5" stroke="#666" stroke-width="2" fill="none"/><use xlink:href="#k" transform="matrix(1,0,0,1,89,32) translate(131.24074074074073 24.88888888888889)"/><use xlink:href="#c" transform="matrix(1,0,0,1,84,74.5) translate(0.7037037037037059 19.555555555555557)"/><use xlink:href="#h" transform="matrix(1,0,0,1,127.33497818906974,74.5) translate(12.978395061728378 19.555555555555557)"/><use xlink:href="#e" transform="matrix(1,0,0,1,333.5144965982284,74.5) translate(43.72222222222223 19.555555555555557)"/><use xlink:href="#i" transform="matrix(1,0,0,1,84,108.5) translate(8.851851851851853 19.555555555555557)"/><use xlink:href="#l" transform="matrix(1,0,0,1,127.33497818906974,108.5) translate(67.97839506172839 19.555555555555557)"/><use xlink:href="#j" transform="matrix(1,0,0,1,333.5144965982284,108.5) translate(11.87654320987653 19.555555555555557)"/><use xlink:href="#m" transform="matrix(1,0,0,1,84,142.5) translate(17 21.833333333333336)"/><use xlink:href="#n" transform="matrix(1,0,0,1,127.33497818906974,142.5) translate(2.895061728395035 19.555555555555557)"/><use xlink:href="#j" transform="matrix(1,0,0,1,333.5144965982284,142.5) translate(11.87654320987653 19.555555555555557)"/><path d="M79 525.66c0-3.32 2.7-6 6-6h409c3.3 0 6 2.68 6 6v336.5c0 3.3-2.7 6-6 6H85c-3.3 0-6-2.7-6-6z" fill="#fff"/><path d="M79 519.66h421v40H79z" fill="#ccc"/><path d="M79 525.66c0-3.32 2.7-6 6-6h409c3.3 0 6 2.68 6 6v336.5c0 3.3-2.7 6-6 6H85c-3.3 0-6-2.7-6-6zM79 559.66h421M131.33 559.66v308.5M322.03 559.66v308.5" stroke="#666" stroke-width="2" fill="none"/><use xlink:href="#o" transform="matrix(1,0,0,1,89,519.6574803149606) translate(158.46913580246914 24.88888888888889)"/><use xlink:href="#c" transform="matrix(1,0,0,1,84,562.1574803149606) translate(5.203703703703706 19.555555555555557)"/><use xlink:href="#p" transform="matrix(1,0,0,1,136.33019717356018,562.1574803149606) translate(32.206790123456784 19.555555555555557)"/><use xlink:href="#e" transform="matrix(1,0,0,1,327.0288396447571,562.1574803149606) translate(46.72222222222223 19.555555555555557)"/><use xlink:href="#m" transform="matrix(1,0,0,1,84,596.1574803149606) translate(21.5 21.833333333333336)"/><use xlink:href="#q" transform="matrix(1,0,0,1,136.33019717356018,596.1574803149606) translate(72.20061728395062 19.555555555555557)"/><use xlink:href="#j" transform="matrix(1,0,0,1,327.0288396447571,596.1574803149606) translate(14.87654320987653 19.555555555555557)"/><use xlink:href="#m" transform="matrix(1,0,0,1,84,630.1574803149606) translate(21.5 21.833333333333336)"/><use xlink:href="#r" transform="matrix(1,0,0,1,136.33019717356018,630.1574803149606) translate(22.66666666666667 19.555555555555557)"/><use xlink:href="#j" transform="matrix(1,0,0,1,327.0288396447571,630.1574803149606) translate(14.87654320987653 19.555555555555557)"/><use xlink:href="#m" transform="matrix(1,0,0,1,84,664.1574803149606) translate(21.5 21.833333333333336)"/><use xlink:href="#s" transform="matrix(1,0,0,1,136.33019717356018,664.1574803149606) translate(11.836419753086417 19.555555555555557)"/><use xlink:href="#e" transform="matrix(1,0,0,1,327.0288396447571,664.1574803149606) translate(46.72222222222223 19.555555555555557)"/><use xlink:href="#m" transform="matrix(1,0,0,1,84,698.1574803149606) translate(21.5 21.833333333333336)"/><use xlink:href="#t" transform="matrix(1,0,0,1,136.33019717356018,698.1574803149606) translate(74.91666666666667 19.555555555555557)"/><use xlink:href="#u" transform="matrix(1,0,0,1,327.0288396447571,698.1574803149606) translate(21.666666666666657 19.555555555555557)"/><use xlink:href="#m" transform="matrix(1,0,0,1,84,732.1574803149606) translate(21.5 21.833333333333336)"/><use xlink:href="#v" transform="matrix(1,0,0,1,136.33019717356018,732.1574803149606) translate(50.472222222222214 19.555555555555557)"/><use xlink:href="#j" transform="matrix(1,0,0,1,327.0288396447571,732.1574803149606) translate(14.87654320987653 19.555555555555557)"/><use xlink:href="#m" transform="matrix(1,0,0,1,84,766.1574803149606) translate(21.5 21.833333333333336)"/><use xlink:href="#l" transform="matrix(1,0,0,1,136.33019717356018,766.1574803149606) translate(59.97839506172839 19.555555555555557)"/><use xlink:href="#j" transform="matrix(1,0,0,1,327.0288396447571,766.1574803149606) translate(14.87654320987653 19.555555555555557)"/><use xlink:href="#m" transform="matrix(1,0,0,1,84,800.1574803149606) translate(21.5 21.833333333333336)"/><use xlink:href="#w" transform="matrix(1,0,0,1,136.33019717356018,800.1574803149606) translate(51.18518518518519 19.555555555555557)"/><use xlink:href="#x" transform="matrix(1,0,0,1,327.0288396447571,800.1574803149606) translate(40.64506172839506 19.555555555555557)"/><use xlink:href="#m" transform="matrix(1,0,0,1,84,834.1574803149606) translate(21.5 21.833333333333336)"/><use xlink:href="#y" transform="matrix(1,0,0,1,136.33019717356018,834.1574803149606) translate(41 19.555555555555557)"/><use xlink:href="#x" transform="matrix(1,0,0,1,327.0288396447571,834.1574803149606) translate(40.64506172839506 19.555555555555557)"/><path d="M1105 661.66c0-3.32 2.7-6 6-6h388c3.32 0 6 2.68 6 6v200.5c0 3.3-2.68 6-6 6h-388c-3.3 0-6-2.7-6-6z" fill="#fff"/><path d="M1105 655.66h400v40h-400z" fill="#ccc"/><path d="M1105 661.66c0-3.32 2.7-6 6-6h388c3.32 0 6 2.68 6 6v200.5c0 3.3-2.68 6-6 6h-388c-3.3 0-6-2.7-6-6zM1105 695.66h400M1176.96 695.66v172.5M1333.87 695.66v172.5" stroke="#666" stroke-width="2" fill="none"/><use xlink:href="#z" transform="matrix(1,0,0,1,1115.007874015748,655.6574803149606) translate(146.61111111111111 24.88888888888889)"/><use xlink:href="#c" transform="matrix(1,0,0,1,1110.007874015748,698.1574803149606) translate(14.703703703703706 19.555555555555557)"/><use xlink:href="#A" transform="matrix(1,0,0,1,1181.957874015748,698.1574803149606) translate(13.848765432098759 19.555555555555557)"/><use xlink:href="#e" transform="matrix(1,0,0,1,1338.8696852210694,698.1574803149606) translate(43.72222222222223 19.555555555555557)"/><use xlink:href="#i" transform="matrix(1,0,0,1,1110.007874015748,732.1574803149606) translate(22.851851851851855 19.555555555555557)"/><use xlink:href="#B" transform="matrix(1,0,0,1,1181.957874015748,732.1574803149606) translate(49.76851851851852 19.555555555555557)"/><use xlink:href="#C" transform="matrix(1,0,0,1,1338.8696852210694,732.1574803149606) translate(6.478395061728406 19.555555555555557)"/><use xlink:href="#D" transform="matrix(1,0,0,1,1338.8696852210694,732.1574803149606) translate(125.78086419753086 19.555555555555557)"/><use xlink:href="#m" transform="matrix(1,0,0,1,1110.007874015748,766.1574803149606) translate(31 21.833333333333336)"/><use xlink:href="#E" transform="matrix(1,0,0,1,1181.957874015748,766.1574803149606) translate(14.527777777777771 19.555555555555557)"/><use xlink:href="#j" transform="matrix(1,0,0,1,1338.8696852210694,766.1574803149606) translate(11.87654320987653 19.555555555555557)"/><use xlink:href="#m" transform="matrix(1,0,0,1,1110.007874015748,800.1574803149606) translate(31 21.833333333333336)"/><use xlink:href="#F" transform="matrix(1,0,0,1,1181.957874015748,800.1574803149606) translate(29.4320987654321 19.555555555555557)"/><use xlink:href="#G" transform="matrix(1,0,0,1,1338.8696852210694,800.1574803149606) translate(57.98148148148148 19.555555555555557)"/><use xlink:href="#f" transform="matrix(1,0,0,1,1110.007874015748,834.1574803149606) translate(3.8734567901234627 19.555555555555557)"/><use xlink:href="#p" transform="matrix(1,0,0,1,1181.957874015748,834.1574803149606) translate(15.206790123456784 19.555555555555557)"/><use xlink:href="#e" transform="matrix(1,0,0,1,1338.8696852210694,834.1574803149606) translate(43.72222222222223 19.555555555555557)"/><path d="M500 552.3h55c2.76 0 5-2.25 5-5v-7.75c0-2.76 2.24-5 5-5h55" stroke="#666" stroke-width="4" fill="none"/><path d="M512 562.3h-4v-20h4z" fill="#666"/><path d="M540 552.3l-.5 3.15-1.43 2.74-2.16 2.16-2.74 1.42-3.16.5-3.16-.5-2.75-1.42-2.17-2.17-1.42-2.75-.5-3.16.5-3.18 1.43-2.74 2.16-2.17 2.74-1.4 3.16-.5 3.16.5 2.75 1.4 2.17 2.18 1.42 2.74z" fill="#fff"/><path d="M533.8 540.87l3.3 1.7 2.6 2.6 1.7 3.32.57 3.47-1.97.32 1.97.3-.56 3.48-1.7 3.3-2.6 2.6-3.3 1.72-3.8.6-3.8-.6-3.3-1.7-2.6-2.6-1.7-3.32-.63-3.8.62-3.8 1.7-3.3 2.6-2.6 3.3-1.7 3.8-.62zm-6.33 3.85l-2.18 1.13-1.74 1.72-1.13 2.2-.4 2.52.4 2.5 1.13 2.2 1.73 1.72 2.17 1.13 2.53.4 2.53-.4 2.18-1.13 1.74-1.72 1.13-2.2.4-2.5-.4-2.54-1.13-2.2-1.73-1.7-2.17-1.14-2.53-.4zM620 524.55v2.23l-15.53 7.77L620 542.3v2.25l-.9 1.8-23.57-11.8 23.58-11.8z" fill="#666"/><path d="M600 534.55l-.5 3.16-1.43 2.75-2.16 2.17-2.74 1.42-3.16.5-3.16-.5-2.75-1.42-2.17-2.17-1.42-2.74-.5-3.15.5-3.16 1.43-2.76 2.16-2.16 2.74-1.42 3.16-.5 3.16.5 2.75 1.42 2.17 2.16 1.42 2.75z" fill="#fff"/><path d="M593.8 523.13l3.3 1.7 2.6 2.62 1.7 3.3.57 3.48-1.97.32 1.97.3-.56 3.5-1.7 3.3-2.6 2.6-3.3 1.7-3.8.62-3.8-.6-3.3-1.72-2.6-2.6-1.7-3.3-.63-3.8.62-3.8 1.7-3.3 2.6-2.6 3.3-1.72 3.8-.6zm-6.33 3.85l-2.18 1.13-1.74 1.74-1.13 2.18-.4 2.53.4 2.52 1.13 2.2 1.73 1.7 2.17 1.14 2.53.42 2.53-.4 2.18-1.14 1.74-1.72 1.13-2.2.4-2.5-.4-2.54-1.13-2.18-1.73-1.73-2.17-1.12-2.53-.4z" fill="#666"/><path d="M620 346c0-3.3 2.7-6 6-6h388c3.3 0 6 2.7 6 6v302.5c0 3.3-2.7 6-6 6H626c-3.3 0-6-2.7-6-6z" fill="#fff"/><path d="M620 340h400v40H620z" fill="#ccc"/><path d="M620 346c0-3.3 2.7-6 6-6h388c3.3 0 6 2.7 6 6v302.5c0 3.3-2.7 6-6 6H626c-3.3 0-6-2.7-6-6zM620 380h400M674.22 380v274.5M815.18 380v274.5" stroke="#666" stroke-width="2" fill="none"/><use xlink:href="#H" transform="matrix(1,0,0,1,630,340) translate(152.68827160493828 24.88888888888889)"/><use xlink:href="#c" transform="matrix(1,0,0,1,625,382.5) translate(6.203703703703706 19.555555555555557)"/><use xlink:href="#g" transform="matrix(1,0,0,1,679.2203873685396,382.5) translate(11.925925925925924 19.555555555555557)"/><use xlink:href="#e" transform="matrix(1,0,0,1,820.1773582289534,382.5) translate(60.22222222222223 19.555555555555557)"/><use xlink:href="#i" transform="matrix(1,0,0,1,625,416.5) translate(14.351851851851853 19.555555555555557)"/><use xlink:href="#I" transform="matrix(1,0,0,1,679.2203873685396,416.5) translate(13.28395061728395 19.555555555555557)"/><use xlink:href="#j" transform="matrix(1,0,0,1,820.1773582289534,416.5) translate(28.37654320987653 19.555555555555557)"/><use xlink:href="#i" transform="matrix(1,0,0,1,625,450.5) translate(14.351851851851853 19.555555555555557)"/><use xlink:href="#J" transform="matrix(1,0,0,1,679.2203873685396,450.5) translate(8.564814814814824 19.555555555555557)"/><use xlink:href="#j" transform="matrix(1,0,0,1,820.1773582289534,450.5) translate(28.37654320987653 19.555555555555557)"/><use xlink:href="#i" transform="matrix(1,0,0,1,625,484.5) translate(14.351851851851853 19.555555555555557)"/><use xlink:href="#K" transform="matrix(1,0,0,1,679.2203873685396,484.5) translate(9.209876543209887 19.555555555555557)"/><use xlink:href="#j" transform="matrix(1,0,0,1,820.1773582289534,484.5) translate(28.37654320987653 19.555555555555557)"/><use xlink:href="#L" transform="matrix(1,0,0,1,625,518.5) translate(6.916666666666668 19.555555555555557)"/><use xlink:href="#p" transform="matrix(1,0,0,1,679.2203873685396,518.5) translate(7.206790123456784 19.555555555555557)"/><use xlink:href="#e" transform="matrix(1,0,0,1,820.1773582289534,518.5) translate(60.22222222222223 19.555555555555557)"/><use xlink:href="#m" transform="matrix(1,0,0,1,625,552.5) translate(22.5 21.833333333333336)"/><use xlink:href="#M" transform="matrix(1,0,0,1,679.2203873685396,552.5) translate(15.320987654320987 19.555555555555557)"/><use xlink:href="#N" transform="matrix(1,0,0,1,820.1773582289534,552.5) translate(73.73456790123457 19.555555555555557)"/><use xlink:href="#m" transform="matrix(1,0,0,1,625,586.5) translate(22.5 21.833333333333336)"/><use xlink:href="#O" transform="matrix(1,0,0,1,679.2203873685396,586.5) translate(32.26234567901235 19.555555555555557)"/><use xlink:href="#e" transform="matrix(1,0,0,1,820.1773582289534,586.5) translate(60.22222222222223 19.555555555555557)"/><use xlink:href="#m" transform="matrix(1,0,0,1,625,620.5) translate(22.5 21.833333333333336)"/><use xlink:href="#P" transform="matrix(1,0,0,1,679.2203873685396,620.5) translate(27.509259259259252 19.555555555555557)"/><use xlink:href="#Q" transform="matrix(1,0,0,1,820.1773582289534,620.5) translate(6.070987654320987 19.555555555555557)"/><path d="M1120 401.15h-48.15c-1.02 0-1.85-.82-1.85-1.85 0-1.02-.83-1.84-1.85-1.84H1020" stroke="#666" stroke-width="4" fill="none"/><path d="M1120 391.15v2.24l-15.53 7.75 15.53 7.77v2.23l-.9 1.8-23.57-11.8 23.58-11.8z" fill="#666"/><path d="M1100 401.15l-.5 3.16-1.43 2.76-2.16 2.16-2.74 1.42-3.16.5-3.16-.5-2.75-1.42-2.17-2.16-1.42-2.75-.5-3.15.5-3.16 1.43-2.75 2.16-2.17 2.74-1.42 3.16-.5 3.16.5 2.75 1.42 2.17 2.17 1.42 2.74z" fill="#fff"/><path d="M1093.8 389.74l3.3 1.7 2.6 2.6 1.7 3.32.57 3.47-1.97.32 1.97.32-.56 3.48-1.7 3.3-2.6 2.6-3.3 1.72-3.8.6-3.8-.6-3.3-1.7-2.6-2.62-1.7-3.3-.63-3.8.62-3.8 1.7-3.3 2.6-2.6 3.3-1.7 3.8-.62zm-6.33 3.85l-2.18 1.12-1.74 1.72-1.13 2.2-.4 2.5.4 2.54 1.13 2.18 1.73 1.73 2.17 1.12 2.53.4 2.53-.4 2.18-1.13 1.74-1.74 1.13-2.18.4-2.53-.4-2.52-1.13-2.2-1.73-1.7-2.17-1.14-2.53-.42zM1032 407.46h-4v-20h4zM1042 407.46h-4v-20h4z" fill="#666"/><path d="M500 584.1h45c2.76 0 5 2.24 5 5v191.42c0 2.76 2.24 5 5 5h550" stroke="#666" stroke-width="4" fill="none"/><path d="M512 594.1h-4v-20h4zM522 594.1h-4v-20h4zM1105 775.52v2.23l-15.52 7.77 15.53 7.76v2.24l-.9 1.8-23.56-11.8 23.57-11.8z" fill="#666"/><path d="M1085 785.52l-.5 3.16-1.42 2.74-2.17 2.17-2.73 1.4-3.16.52-3.15-.5-2.75-1.43-2.16-2.18-1.42-2.74-.5-3.16.5-3.16 1.42-2.75 2.16-2.15 2.75-1.42 3.16-.5 3.17.5 2.74 1.42 2.18 2.16 1.42 2.76z" fill="#fff"/><path d="M1078.8 774.1l3.3 1.7 2.6 2.62 1.72 3.3.56 3.48-1.97.32 1.98.32-.56 3.47-1.7 3.32-2.6 2.6-3.32 1.7-3.8.62-3.8-.6-3.3-1.72-2.6-2.6-1.7-3.3-.62-3.8.6-3.8 1.72-3.3 2.6-2.6 3.3-1.72 3.8-.6zm-6.32 3.85l-2.18 1.13-1.73 1.73-1.13 2.2-.4 2.52.4 2.52 1.13 2.2 1.73 1.72 2.18 1.13 2.53.4 2.53-.4 2.2-1.14 1.7-1.73 1.14-2.2.4-2.5-.4-2.54-1.13-2.2-1.72-1.72-2.2-1.13-2.5-.4z" fill="#666"/><path d="M1120 346c0-3.3 2.7-6 6-6h373c3.32 0 6 2.7 6 6v98.5c0 3.3-2.68 6-6 6h-373c-3.3 0-6-2.7-6-6z" fill="#fff"/><path d="M1120 340h385v40h-385z" fill="#ccc"/><path d="M1120 346c0-3.3 2.7-6 6-6h373c3.32 0 6 2.7 6 6v98.5c0 3.3-2.68 6-6 6h-373c-3.3 0-6-2.7-6-6zM1120 380h385M1207.92 380v70.5M1366.8 380v70.5" stroke="#666" stroke-width="2" fill="none"/><use xlink:href="#R" transform="matrix(1,0,0,1,1130,340) translate(95.50925925925925 24.88888888888889)"/><use xlink:href="#S" transform="matrix(1,0,0,1,1125,382.5) translate(3.7253086419753174 19.555555555555557)"/><use xlink:href="#g" transform="matrix(1,0,0,1,1212.9241179586454,382.5) translate(20.925925925925924 19.555555555555557)"/><use xlink:href="#e" transform="matrix(1,0,0,1,1371.8076855711445,382.5) translate(27.22222222222223 19.555555555555557)"/><use xlink:href="#S" transform="matrix(1,0,0,1,1125,416.5) translate(3.7253086419753174 19.555555555555557)"/><use xlink:href="#A" transform="matrix(1,0,0,1,1212.9241179586454,416.5) translate(14.848765432098759 19.555555555555557)"/><use xlink:href="#e" transform="matrix(1,0,0,1,1371.8076855711445,416.5) translate(27.22222222222223 19.555555555555557)"/><path d="M1105 679.27h-50c-2.76 0-5-2.24-5-5V439.4c0-2.78 2.24-5 5-5h65" stroke="#666" stroke-width="4" fill="none"/><path d="M1097 689.27h-4v-20h4zM1087 689.27h-4v-20h4zM1120 424.4v2.22l-15.53 7.77 15.53 7.75v2.24l-.9 1.77-23.57-11.78 23.58-11.8z" fill="#666"/><path d="M1100 434.4l-.5 3.15-1.43 2.74-2.16 2.16-2.74 1.42-3.16.5-3.16-.5-2.75-1.42-2.17-2.17-1.42-2.75-.5-3.16.5-3.18 1.43-2.74 2.16-2.17 2.74-1.4 3.16-.5 3.16.5 2.75 1.4 2.17 2.18 1.42 2.74z" fill="#fff"/><path d="M1093.8 422.97l3.3 1.7 2.6 2.6 1.7 3.32.57 3.47-1.97.32 1.97.3-.56 3.48-1.7 3.3-2.6 2.6-3.3 1.72-3.8.6-3.8-.6-3.3-1.7-2.6-2.6-1.7-3.32-.63-3.8.62-3.8 1.7-3.3 2.6-2.6 3.3-1.7 3.8-.62zm-6.33 3.85l-2.18 1.13-1.74 1.72-1.13 2.2-.4 2.52.4 2.5 1.13 2.2 1.73 1.72 2.17 1.13 2.53.4 2.53-.4 2.18-1.13 1.74-1.72 1.13-2.2.4-2.5-.4-2.54-1.13-2.2-1.73-1.7-2.17-1.14-2.53-.4z" fill="#666"/><path d="M627 38c0-3.3 2.7-6 6-6h409c3.3 0 6 2.7 6 6v200.5c0 3.3-2.7 6-6 6H633c-3.3 0-6-2.7-6-6z" fill="#fff"/><path d="M627 32h421v40H627z" fill="#ccc"/><path d="M627 38c0-3.3 2.7-6 6-6h409c3.3 0 6 2.7 6 6v200.5c0 3.3-2.7 6-6 6H633c-3.3 0-6-2.7-6-6zM627 72h421M701.64 72v172.5M897.74 72v172.5" stroke="#666" stroke-width="2" fill="none"/><use xlink:href="#T" transform="matrix(1,0,0,1,637,32) translate(160.54012345679013 24.88888888888889)"/><use xlink:href="#c" transform="matrix(1,0,0,1,632,74.5) translate(16.203703703703706 19.555555555555557)"/><use xlink:href="#U" transform="matrix(1,0,0,1,706.6414238367817,74.5) translate(37.27777777777777 19.555555555555557)"/><use xlink:href="#e" transform="matrix(1,0,0,1,902.737197698673,74.5) translate(33.22222222222223 19.555555555555557)"/><use xlink:href="#f" transform="matrix(1,0,0,1,632,108.5) translate(5.373456790123463 19.555555555555557)"/><use xlink:href="#V" transform="matrix(1,0,0,1,706.6414238367817,108.5) translate(33.1358024691358 19.555555555555557)"/><use xlink:href="#e" transform="matrix(1,0,0,1,902.737197698673,108.5) translate(33.22222222222223 19.555555555555557)"/><use xlink:href="#f" transform="matrix(1,0,0,1,632,142.5) translate(5.373456790123463 19.555555555555557)"/><use xlink:href="#W" transform="matrix(1,0,0,1,706.6414238367817,142.5) translate(33.1358024691358 19.555555555555557)"/><use xlink:href="#e" transform="matrix(1,0,0,1,902.737197698673,142.5) translate(33.22222222222223 19.555555555555557)"/><use xlink:href="#m" transform="matrix(1,0,0,1,632,176.5) translate(32.5 21.833333333333336)"/><use xlink:href="#E" transform="matrix(1,0,0,1,706.6414238367817,176.5) translate(34.52777777777777 19.555555555555557)"/><use xlink:href="#j" transform="matrix(1,0,0,1,902.737197698673,176.5) translate(1.3765432098765302 19.555555555555557)"/><use xlink:href="#f" transform="matrix(1,0,0,1,632,210.5) translate(5.373456790123463 19.555555555555557)"/><use xlink:href="#X" transform="matrix(1,0,0,1,706.6414238367817,210.5) translate(7.401234567901213 19.555555555555557)"/><use xlink:href="#e" transform="matrix(1,0,0,1,902.737197698673,210.5) translate(33.22222222222223 19.555555555555557)"/><path d="M820 340v-55c0-2.76-2.24-5-5-5H595c-2.76 0-5-2.24-5-5V166.86c0-2.76 2.24-5 5-5h32" stroke="#666" stroke-width="4" fill="none"/><path d="M830 332h-20v-4h20zM830 322h-20v-4h20zM627 151.86v2.24l-15.53 7.76 15.53 7.77v2.23l-.9 1.8-23.57-11.8 23.58-11.8z" fill="#666"/><path d="M607 161.86l-.5 3.16-1.43 2.75-2.16 2.16-2.74 1.42-3.16.5-3.16-.5-2.75-1.42-2.17-2.16-1.42-2.75-.5-3.16.5-3.16 1.43-2.74 2.16-2.17 2.74-1.43 3.16-.5 3.16.5 2.75 1.42 2.17 2.16 1.42 2.74z" fill="#fff"/><path d="M600.8 150.45l3.3 1.7 2.6 2.6 1.7 3.32.57 3.47-1.97.32 1.97.32-.56 3.48-1.7 3.3-2.6 2.6-3.3 1.7-3.8.63-3.8-.63-3.3-1.7-2.6-2.6-1.7-3.3-.63-3.8.62-3.8 1.7-3.3 2.6-2.6 3.3-1.72 3.8-.6zm-6.33 3.84l-2.18 1.12-1.74 1.73-1.13 2.18-.4 2.53.4 2.53 1.13 2.17 1.73 1.73 2.17 1.13 2.53.4 2.53-.4 2.18-1.13 1.74-1.73 1.13-2.18.4-2.54-.4-2.53-1.13-2.18-1.73-1.73-2.17-1.13-2.53-.4z" fill="#666"/><path d="M620 360.16h-45c-2.76 0-5-2.24-5-5V133.8c0-2.76 2.24-5 5-5h52" stroke="#666" stroke-width="4" fill="none"/><path d="M612 370.16h-4v-20h4zM602 370.16h-4v-20h4zM627 118.8v2.24l-15.53 7.77 15.53 7.77v2.24l-.9 1.8-23.57-11.8 23.58-11.78z" fill="#666"/><path d="M607 128.8l-.5 3.17-1.43 2.74-2.16 2.18-2.74 1.42-3.16.5-3.16-.5-2.75-1.42-2.17-2.17-1.42-2.73-.5-3.16.5-3.16 1.43-2.74 2.16-2.17 2.74-1.4 3.16-.52 3.16.52 2.75 1.4 2.17 2.18 1.42 2.74z" fill="#fff"/><path d="M600.8 117.4l3.3 1.7 2.6 2.6 1.7 3.3.57 3.5-1.97.3 1.97.32-.56 3.48-1.7 3.3-2.6 2.6-3.3 1.72-3.8.6-3.8-.6-3.3-1.7-2.6-2.6-1.7-3.32-.63-3.8.62-3.8 1.7-3.3 2.6-2.6 3.3-1.7 3.8-.62zm-6.33 3.84l-2.18 1.13-1.74 1.72-1.13 2.18-.4 2.53.4 2.53 1.13 2.2 1.73 1.7 2.17 1.14 2.53.4 2.53-.4 2.18-1.13 1.74-1.72 1.13-2.2.4-2.5-.4-2.54-1.13-2.2-1.73-1.7-2.17-1.14-2.53-.4z" fill="#666"/><path d="M1129 38c0-3.3 2.7-6 6-6h364c3.32 0 6 2.7 6 6v98.5c0 3.3-2.68 6-6 6h-364c-3.3 0-6-2.7-6-6z" fill="#fff"/><path d="M1129 32h376v40h-376z" fill="#ccc"/><path d="M1129 38c0-3.3 2.7-6 6-6h364c3.32 0 6 2.7 6 6v98.5c0 3.3-2.68 6-6 6h-364c-3.3 0-6-2.7-6-6zM1129 72h376M1173 72v70.5M1355.25 72v70.5" stroke="#666" stroke-width="2" fill="none"/><use xlink:href="#Y" transform="matrix(1,0,0,1,1139.007874015748,32) translate(108.16358024691357 24.88888888888889)"/><use xlink:href="#c" transform="matrix(1,0,0,1,1134.007874015748,74.5) translate(0.7037037037037059 19.555555555555557)"/><use xlink:href="#X" transform="matrix(1,0,0,1,1178.007874015748,74.5) translate(0.4012345679012128 19.555555555555557)"/><use xlink:href="#e" transform="matrix(1,0,0,1,1360.2476925497253,74.5) translate(32.72222222222223 19.555555555555557)"/><use xlink:href="#i" transform="matrix(1,0,0,1,1134.007874015748,108.5) translate(8.851851851851853 19.555555555555557)"/><use xlink:href="#l" transform="matrix(1,0,0,1,1178.007874015748,108.5) translate(55.97839506172839 19.555555555555557)"/><use xlink:href="#j" transform="matrix(1,0,0,1,1360.2476925497253,108.5) translate(0.8765432098765302 19.555555555555557)"/><path d="M1129 90.32h-24c-2.76 0-5 2.24-5 5v127.65c0 2.76-2.24 5-5 5h-47" stroke="#666" stroke-width="4" fill="none"/><path d="M1121 100.32h-4v-20h4zM1111 100.32h-4v-20h4zM1072.47 227.97l-23.58 11.8-.9-1.8v-2.23l15.53-7.77-15.53-7.76v-2.23l.9-1.8z" fill="#666"/><path d="M1088 227.97l-.5 3.16-1.43 2.75-2.16 2.16-2.74 1.42-3.16.5-3.16-.5-2.75-1.42-2.17-2.16-1.42-2.75-.5-3.16.5-3.16 1.43-2.73 2.16-2.17 2.74-1.42 3.16-.5 3.16.5 2.75 1.42 2.17 2.17 1.42 2.74z" fill="#fff"/><path d="M1081.8 216.56l3.3 1.7 2.6 2.6 1.7 3.32.57 3.47-1.97.32 1.97.32-.56 3.47-1.7 3.3-2.6 2.6-3.3 1.72-3.8.6-3.8-.6-3.3-1.72-2.6-2.6-1.7-3.3-.63-3.8.62-3.8 1.7-3.3 2.6-2.6 3.3-1.72 3.8-.6zm-6.33 3.85l-2.18 1.14-1.74 1.72-1.13 2.2-.4 2.5.4 2.54 1.13 2.18 1.73 1.73 2.17 1.14 2.53.4 2.53-.4 2.18-1.13 1.74-1.72 1.13-2.18.4-2.53-.4-2.52-1.13-2.2-1.73-1.7-2.17-1.14-2.53-.4z" fill="#666"/><path d="M620 397.46h-55c-2.76 0-5-2.24-5-5v-32.34c0-2.76-2.24-5-5-5h-55" stroke="#666" stroke-width="4" fill="none"/><path d="M612 407.46h-4v-20h4zM602 407.46h-4v-20h4zM524.47 355.12l-23.58 11.8-.9-1.8v-2.23l15.53-7.78-15.53-7.76v-2.24l.9-1.8z" fill="#666"/><path d="M540 355.12l-.5 3.16-1.43 2.75-2.16 2.16-2.74 1.4-3.16.52-3.16-.5-2.75-1.43-2.17-2.17-1.42-2.75-.5-3.16.5-3.16 1.43-2.74 2.16-2.17 2.74-1.42 3.16-.5 3.16.5 2.75 1.42 2.17 2.17 1.42 2.74z" fill="#fff"/><path d="M533.8 343.7l3.3 1.72 2.6 2.6 1.7 3.3.57 3.48-1.97.32 1.97.32-.56 3.48-1.7 3.3-2.6 2.6-3.3 1.72-3.8.6-3.8-.6-3.3-1.7-2.6-2.62-1.7-3.3-.63-3.8.62-3.8 1.7-3.3 2.6-2.6 3.3-1.7 3.8-.62zm-6.33 3.85l-2.18 1.13-1.74 1.73-1.13 2.2-.4 2.52.4 2.53 1.13 2.18 1.73 1.73 2.17 1.13 2.53.4 2.53-.4 2.18-1.14 1.74-1.73 1.13-2.18.4-2.53-.4-2.52-1.13-2.2-1.73-1.72-2.17-1.13-2.53-.4z" fill="#666"/><path d="M69.5 389.6H45c-2.76 0-5-2.23-5-5V95c0-2.76 2.24-5 5-5h34" stroke="#666" stroke-width="4" fill="none"/><path d="M69.5 379.6v2.24l-15.53 7.76 15.53 7.77v2.23l-.9 1.8-23.57-11.8 23.58-11.78z" fill="#666"/><path d="M49.5 389.6l-.5 3.17-1.43 2.74-2.16 2.17-2.74 1.42-3.16.5-3.16-.5-2.75-1.43-2.17-2.16-1.42-2.73-.5-3.17.5-3.16 1.43-2.74 2.16-2.17 2.74-1.42 3.16-.5 3.16.5 2.75 1.43 2.17 2.17 1.42 2.74z" fill="#fff"/><path d="M43.3 378.2l3.3 1.7 2.6 2.6 1.7 3.3.57 3.5-1.97.3 1.97.32-.56 3.48-1.7 3.3-2.6 2.6-3.3 1.72-3.8.6-3.8-.6-3.3-1.7-2.6-2.62-1.7-3.3-.63-3.8.62-3.8 1.7-3.3 2.6-2.6 3.3-1.7 3.8-.62zm-6.33 3.84l-2.18 1.13-1.74 1.72-1.13 2.18-.4 2.52.4 2.53 1.13 2.2 1.73 1.7 2.17 1.14 2.53.4 2.53-.4 2.18-1.13 1.74-1.72 1.13-2.2.4-2.52-.4-2.52-1.13-2.2-1.73-1.7-2.17-1.14-2.53-.4zM71 100h-4V80h4zM61 100h-4V80h4z" fill="#666"/><defs><path d="M127-220V0H93v-220H8v-28h204v28h-85" id="Z"/><path d="M100-194c63 0 86 42 84 106H49c0 40 14 67 53 68 26 1 43-12 49-29l28 8c-11 28-37 45-77 45C44 4 14-33 15-96c1-61 26-98 85-98zm52 81c6-60-76-77-97-28-3 7-6 17-6 28h103" id="aa"/><path d="M141 0L90-78 38 0H4l68-98-65-92h35l48 74 47-74h35l-64 92 68 98h-35" id="ab"/><path d="M59-47c-2 24 18 29 38 22v24C64 9 27 4 27-40v-127H5v-23h24l9-43h21v43h35v23H59v120" id="ac"/><g id="a"><use transform="matrix(0.05,0,0,0.05,0,0)" xlink:href="#Z"/><use transform="matrix(0.05,0,0,0.05,8.950000000000001,0)" xlink:href="#aa"/><use transform="matrix(0.05,0,0,0.05,18.950000000000003,0)" xlink:href="#ab"/><use transform="matrix(0.05,0,0,0.05,27.950000000000003,0)" xlink:href="#ac"/></g><path fill="#333" d="M96-169c-40 0-48 33-48 73s9 75 48 75c24 0 41-14 43-38l32 2c-6 37-31 61-74 61-59 0-76-41-82-99-10-93 101-131 147-64 4 7 5 14 7 22l-32 3c-4-21-16-35-41-35" id="ad"/><path fill="#333" d="M100-194c62-1 85 37 85 99 1 63-27 99-86 99S16-35 15-95c0-66 28-99 85-99zM99-20c44 1 53-31 53-75 0-43-8-75-51-75s-53 32-53 75 10 74 51 75" id="ae"/><path fill="#333" d="M117-194c89-4 53 116 60 194h-32v-121c0-31-8-49-39-48C34-167 62-67 57 0H25l-1-190h30c1 10-1 24 2 32 11-22 29-35 61-36" id="af"/><path fill="#333" d="M59-47c-2 24 18 29 38 22v24C64 9 27 4 27-40v-127H5v-23h24l9-43h21v43h35v23H59v120" id="ag"/><path fill="#333" d="M141-36C126-15 110 5 73 4 37 3 15-17 15-53c-1-64 63-63 125-63 3-35-9-54-41-54-24 1-41 7-42 31l-33-3c5-37 33-52 76-52 45 0 72 20 72 64v82c-1 20 7 32 28 27v20c-31 9-61-2-59-35zM48-53c0 20 12 33 32 33 41-3 63-29 60-74-43 2-92-5-92 41" id="ah"/><g id="b"><use transform="matrix(0.06790123456790123,0,0,0.06790123456790123,0,0)" xlink:href="#ad"/><use transform="matrix(0.06790123456790123,0,0,0.06790123456790123,12.222222222222221,0)" xlink:href="#ae"/><use transform="matrix(0.06790123456790123,0,0,0.06790123456790123,25.80246913580247,0)" xlink:href="#af"/><use transform="matrix(0.06790123456790123,0,0,0.06790123456790123,39.382716049382715,0)" xlink:href="#ag"/><use transform="matrix(0.06790123456790123,0,0,0.06790123456790123,46.172839506172835,0)" xlink:href="#ah"/><use transform="matrix(0.06790123456790123,0,0,0.06790123456790123,59.75308641975308,0)" xlink:href="#ad"/><use transform="matrix(0.06790123456790123,0,0,0.06790123456790123,71.9753086419753,0)" xlink:href="#ag"/></g><path fill="#333" d="M30-248c87 1 191-15 191 75 0 78-77 80-158 76V0H30v-248zm33 125c57 0 124 11 124-50 0-59-68-47-124-48v98" id="ai"/><path fill="#333" d="M194 0L95-120 63-95V0H30v-248h33v124l119-124h40L117-140 236 0h-42" id="aj"/><g id="c"><use transform="matrix(0.06790123456790123,0,0,0.06790123456790123,0,0)" xlink:href="#ai"/><use transform="matrix(0.06790123456790123,0,0,0.06790123456790123,16.296296296296294,0)" xlink:href="#aj"/></g><path fill="#333" d="M24-231v-30h32v30H24zM24 0v-190h32V0H24" id="ak"/><path fill="#333" d="M85-194c31 0 48 13 60 33l-1-100h32l1 261h-30c-2-10 0-23-3-31C134-8 116 4 85 4 32 4 16-35 15-94c0-66 23-100 70-100zm9 24c-40 0-46 34-46 75 0 40 6 74 45 74 42 0 51-32 51-76 0-42-9-74-50-73" id="al"/><path fill="#333" d="M-5 72V49h209v23H-5" id="am"/><g id="d"><use transform="matrix(0.06790123456790123,0,0,0.06790123456790123,0,0)" xlink:href="#ak"/><use transform="matrix(0.06790123456790123,0,0,0.06790123456790123,5.364197530864197,0)" xlink:href="#al"/><use transform="matrix(0.06790123456790123,0,0,0.06790123456790123,18.944444444444443,0)" xlink:href="#am"/><use transform="matrix(0.06790123456790123,0,0,0.06790123456790123,32.52469135802469,0)" xlink:href="#ad"/><use transform="matrix(0.06790123456790123,0,0,0.06790123456790123,44.74691358024691,0)" xlink:href="#ae"/><use transform="matrix(0.06790123456790123,0,0,0.06790123456790123,58.32716049382716,0)" xlink:href="#af"/><use transform="matrix(0.06790123456790123,0,0,0.06790123456790123,71.9074074074074,0)" xlink:href="#ag"/><use transform="matrix(0.06790123456790123,0,0,0.06790123456790123,78.69753086419753,0)" xlink:href="#ah"/><use transform="matrix(0.06790123456790123,0,0,0.06790123456790123,92.27777777777777,0)" xlink:href="#ad"/><use transform="matrix(0.06790123456790123,0,0,0.06790123456790123,104.5,0)" xlink:href="#ag"/></g><path fill="#333" d="M100-194c63 0 86 42 84 106H49c0 40 14 67 53 68 26 1 43-12 49-29l28 8c-11 28-37 45-77 45C44 4 14-33 15-96c1-61 26-98 85-98zm52 81c6-60-76-77-97-28-3 7-6 17-6 28h103" id="an"/><path fill="#333" d="M177-190C167-65 218 103 67 71c-23-6-38-20-44-43l32-5c15 47 100 32 89-28v-30C133-14 115 1 83 1 29 1 15-40 15-95c0-56 16-97 71-98 29-1 48 16 59 35 1-10 0-23 2-32h30zM94-22c36 0 50-32 50-73 0-42-14-75-50-75-39 0-46 34-46 75s6 73 46 73" id="ao"/><path fill="#333" d="M114-163C36-179 61-72 57 0H25l-1-190h30c1 12-1 29 2 39 6-27 23-49 58-41v29" id="ap"/><g id="e"><use transform="matrix(0.06790123456790123,0,0,0.06790123456790123,0,0)" xlink:href="#ak"/><use transform="matrix(0.06790123456790123,0,0,0.06790123456790123,5.364197530864197,0)" xlink:href="#af"/><use transform="matrix(0.06790123456790123,0,0,0.06790123456790123,18.944444444444443,0)" xlink:href="#ag"/><use transform="matrix(0.06790123456790123,0,0,0.06790123456790123,25.734567901234566,0)" xlink:href="#an"/><use transform="matrix(0.06790123456790123,0,0,0.06790123456790123,39.31481481481481,0)" xlink:href="#ao"/><use transform="matrix(0.06790123456790123,0,0,0.06790123456790123,52.895061728395056,0)" xlink:href="#an"/><use transform="matrix(0.06790123456790123,0,0,0.06790123456790123,66.4753086419753,0)" xlink:href="#ap"/></g><path fill="#333" d="M63-220v92h138v28H63V0H30v-248h175v28H63" id="aq"/><path fill="#333" d="M68-38c1 34 0 65-14 84H32c9-13 17-26 17-46H33v-38h35" id="ar"/><g id="f"><use transform="matrix(0.06790123456790123,0,0,0.06790123456790123,0,0)" xlink:href="#aq"/><use transform="matrix(0.06790123456790123,0,0,0.06790123456790123,14.87037037037037,0)" xlink:href="#aj"/><use transform="matrix(0.06790123456790123,0,0,0.06790123456790123,31.166666666666664,0)" xlink:href="#ar"/><use transform="matrix(0.06790123456790123,0,0,0.06790123456790123,37.95679012345679,0)" xlink:href="#aj"/></g><path fill="#333" d="M115-194c55 1 70 41 70 98S169 2 115 4C84 4 66-9 55-30l1 105H24l-1-265h31l2 30c10-21 28-34 59-34zm-8 174c40 0 45-34 45-75s-6-73-45-74c-42 0-51 32-51 76 0 43 10 73 51 73" id="as"/><path fill="#333" d="M135-143c-3-34-86-38-87 0 15 53 115 12 119 90S17 21 10-45l28-5c4 36 97 45 98 0-10-56-113-15-118-90-4-57 82-63 122-42 12 7 21 19 24 35" id="at"/><g id="g"><use transform="matrix(0.06790123456790123,0,0,0.06790123456790123,0,0)" xlink:href="#ak"/><use transform="matrix(0.06790123456790123,0,0,0.06790123456790123,5.364197530864197,0)" xlink:href="#al"/><use transform="matrix(0.06790123456790123,0,0,0.06790123456790123,18.944444444444443,0)" xlink:href="#am"/><use transform="matrix(0.06790123456790123,0,0,0.06790123456790123,32.52469135802469,0)" xlink:href="#as"/><use transform="matrix(0.06790123456790123,0,0,0.06790123456790123,46.10493827160494,0)" xlink:href="#an"/><use transform="matrix(0.06790123456790123,0,0,0.06790123456790123,59.68518518518518,0)" xlink:href="#ap"/><use transform="matrix(0.06790123456790123,0,0,0.06790123456790123,67.76543209876543,0)" xlink:href="#at"/><use transform="matrix(0.06790123456790123,0,0,0.06790123456790123,79.98765432098764,0)" xlink:href="#ae"/><use transform="matrix(0.06790123456790123,0,0,0.06790123456790123,93.5679012345679,0)" xlink:href="#af"/></g><path fill="#333" d="M179-190L93 31C79 59 56 82 12 73V49c39 6 53-20 64-50L1-190h34L92-34l54-156h33" id="au"/><g id="h"><use transform="matrix(0.06790123456790123,0,0,0.06790123456790123,0,0)" xlink:href="#ak"/><use transform="matrix(0.06790123456790123,0,0,0.06790123456790123,5.364197530864197,0)" xlink:href="#al"/><use transform="matrix(0.06790123456790123,0,0,0.06790123456790123,18.944444444444443,0)" xlink:href="#am"/><use transform="matrix(0.06790123456790123,0,0,0.06790123456790123,32.52469135802469,0)" xlink:href="#ad"/><use transform="matrix(0.06790123456790123,0,0,0.06790123456790123,44.74691358024691,0)" xlink:href="#ae"/><use transform="matrix(0.06790123456790123,0,0,0.06790123456790123,58.32716049382716,0)" xlink:href="#af"/><use transform="matrix(0.06790123456790123,0,0,0.06790123456790123,71.9074074074074,0)" xlink:href="#ag"/><use transform="matrix(0.06790123456790123,0,0,0.06790123456790123,78.69753086419753,0)" xlink:href="#ah"/><use transform="matrix(0.06790123456790123,0,0,0.06790123456790123,92.27777777777777,0)" xlink:href="#ad"/><use transform="matrix(0.06790123456790123,0,0,0.06790123456790123,104.5,0)" xlink:href="#ag"/><use transform="matrix(0.06790123456790123,0,0,0.06790123456790123,111.29012345679013,0)" xlink:href="#am"/><use transform="matrix(0.06790123456790123,0,0,0.06790123456790123,124.87037037037038,0)" xlink:href="#ag"/><use transform="matrix(0.06790123456790123,0,0,0.06790123456790123,131.6604938271605,0)" xlink:href="#au"/><use transform="matrix(0.06790123456790123,0,0,0.06790123456790123,143.88271604938274,0)" xlink:href="#as"/><use transform="matrix(0.06790123456790123,0,0,0.06790123456790123,157.462962962963,0)" xlink:href="#an"/></g><use transform="matrix(0.06790123456790123,0,0,0.06790123456790123,0,0)" xlink:href="#aj" id="i"/><path fill="#333" d="M108 0H70L1-190h34L89-25l56-165h34" id="av"/><path fill="#333" d="M106-169C34-169 62-67 57 0H25v-261h32l-1 103c12-21 28-36 61-36 89 0 53 116 60 194h-32v-121c2-32-8-49-39-48" id="aw"/><path fill="#333" d="M87 75C49 33 22-17 22-94c0-76 28-126 65-167h31c-38 41-64 92-64 168S80 34 118 75H87" id="ax"/><path fill="#333" d="M101-251c82-7 93 87 43 132L82-64C71-53 59-42 53-27h129V0H18c2-99 128-94 128-182 0-28-16-43-45-43s-46 15-49 41l-32-3c6-41 34-60 81-64" id="ay"/><path fill="#333" d="M101-251c68 0 85 55 85 127S166 4 100 4C33 4 14-52 14-124c0-73 17-127 87-127zm-1 229c47 0 54-49 54-102s-4-102-53-102c-51 0-55 48-55 102 0 53 5 102 54 102" id="az"/><path fill="#333" d="M33-261c38 41 65 92 65 168S71 34 33 75H2C39 34 66-17 66-93S39-220 2-261h31" id="aA"/><g id="j"><use transform="matrix(0.06790123456790123,0,0,0.06790123456790123,0,0)" xlink:href="#av"/><use transform="matrix(0.06790123456790123,0,0,0.06790123456790123,12.222222222222221,0)" xlink:href="#ah"/><use transform="matrix(0.06790123456790123,0,0,0.06790123456790123,25.80246913580247,0)" xlink:href="#ap"/><use transform="matrix(0.06790123456790123,0,0,0.06790123456790123,33.882716049382715,0)" xlink:href="#ad"/><use transform="matrix(0.06790123456790123,0,0,0.06790123456790123,46.10493827160494,0)" xlink:href="#aw"/><use transform="matrix(0.06790123456790123,0,0,0.06790123456790123,59.68518518518518,0)" xlink:href="#ah"/><use transform="matrix(0.06790123456790123,0,0,0.06790123456790123,73.26543209876543,0)" xlink:href="#ap"/><use transform="matrix(0.06790123456790123,0,0,0.06790123456790123,81.34567901234567,0)" xlink:href="#ax"/><use transform="matrix(0.06790123456790123,0,0,0.06790123456790123,89.42592592592592,0)" xlink:href="#ay"/><use transform="matrix(0.06790123456790123,0,0,0.06790123456790123,103.00617283950618,0)" xlink:href="#az"/><use transform="matrix(0.06790123456790123,0,0,0.06790123456790123,116.58641975308643,0)" xlink:href="#az"/><use transform="matrix(0.06790123456790123,0,0,0.06790123456790123,130.16666666666669,0)" xlink:href="#aA"/></g><g id="k"><use transform="matrix(0.06790123456790123,0,0,0.06790123456790123,0,0)" xlink:href="#ad"/><use transform="matrix(0.06790123456790123,0,0,0.06790123456790123,12.222222222222221,0)" xlink:href="#ae"/><use transform="matrix(0.06790123456790123,0,0,0.06790123456790123,25.80246913580247,0)" xlink:href="#af"/><use transform="matrix(0.06790123456790123,0,0,0.06790123456790123,39.382716049382715,0)" xlink:href="#ag"/><use transform="matrix(0.06790123456790123,0,0,0.06790123456790123,46.172839506172835,0)" xlink:href="#ah"/><use transform="matrix(0.06790123456790123,0,0,0.06790123456790123,59.75308641975308,0)" xlink:href="#ad"/><use transform="matrix(0.06790123456790123,0,0,0.06790123456790123,71.9753086419753,0)" xlink:href="#ag"/><use transform="matrix(0.06790123456790123,0,0,0.06790123456790123,78.76543209876543,0)" xlink:href="#am"/><use transform="matrix(0.06790123456790123,0,0,0.06790123456790123,92.34567901234567,0)" xlink:href="#ag"/><use transform="matrix(0.06790123456790123,0,0,0.06790123456790123,99.1358024691358,0)" xlink:href="#au"/><use transform="matrix(0.06790123456790123,0,0,0.06790123456790123,111.35802469135803,0)" xlink:href="#as"/><use transform="matrix(0.06790123456790123,0,0,0.06790123456790123,124.93827160493828,0)" xlink:href="#an"/></g><path fill="#333" d="M210-169c-67 3-38 105-44 169h-31v-121c0-29-5-50-35-48C34-165 62-65 56 0H25l-1-190h30c1 10-1 24 2 32 10-44 99-50 107 0 11-21 27-35 58-36 85-2 47 119 55 194h-31v-121c0-29-5-49-35-48" id="aB"/><g id="l"><use transform="matrix(0.06790123456790123,0,0,0.06790123456790123,0,0)" xlink:href="#af"/><use transform="matrix(0.06790123456790123,0,0,0.06790123456790123,13.580246913580247,0)" xlink:href="#ah"/><use transform="matrix(0.06790123456790123,0,0,0.06790123456790123,27.160493827160494,0)" xlink:href="#aB"/><use transform="matrix(0.06790123456790123,0,0,0.06790123456790123,47.46296296296296,0)" xlink:href="#an"/></g><path fill="#333" d="M24 0v-261h32V0H24" id="aC"/><path fill="#333" d="M141 0L90-78 38 0H4l68-98-65-92h35l48 74 47-74h35l-64 92 68 98h-35" id="aD"/><g id="n"><use transform="matrix(0.06790123456790123,0,0,0.06790123456790123,0,0)" xlink:href="#av"/><use transform="matrix(0.06790123456790123,0,0,0.06790123456790123,12.222222222222221,0)" xlink:href="#ah"/><use transform="matrix(0.06790123456790123,0,0,0.06790123456790123,25.80246913580247,0)" xlink:href="#aC"/><use transform="matrix(0.06790123456790123,0,0,0.06790123456790123,31.166666666666664,0)" xlink:href="#ak"/><use transform="matrix(0.06790123456790123,0,0,0.06790123456790123,36.53086419753086,0)" xlink:href="#al"/><use transform="matrix(0.06790123456790123,0,0,0.06790123456790123,50.11111111111111,0)" xlink:href="#ah"/><use transform="matrix(0.06790123456790123,0,0,0.06790123456790123,63.691358024691354,0)" xlink:href="#ag"/><use transform="matrix(0.06790123456790123,0,0,0.06790123456790123,70.48148148148148,0)" xlink:href="#ak"/><use transform="matrix(0.06790123456790123,0,0,0.06790123456790123,75.84567901234568,0)" xlink:href="#ae"/><use transform="matrix(0.06790123456790123,0,0,0.06790123456790123,89.42592592592592,0)" xlink:href="#af"/><use transform="matrix(0.06790123456790123,0,0,0.06790123456790123,103.00617283950618,0)" xlink:href="#am"/><use transform="matrix(0.06790123456790123,0,0,0.06790123456790123,116.58641975308643,0)" xlink:href="#ap"/><use transform="matrix(0.06790123456790123,0,0,0.06790123456790123,124.66666666666669,0)" xlink:href="#an"/><use transform="matrix(0.06790123456790123,0,0,0.06790123456790123,138.24691358024694,0)" xlink:href="#ao"/><use transform="matrix(0.06790123456790123,0,0,0.06790123456790123,151.8271604938272,0)" xlink:href="#an"/><use transform="matrix(0.06790123456790123,0,0,0.06790123456790123,165.40740740740745,0)" xlink:href="#aD"/><use transform="matrix(0.06790123456790123,0,0,0.06790123456790123,177.62962962962968,0)" xlink:href="#as"/></g><g id="o"><use transform="matrix(0.06790123456790123,0,0,0.06790123456790123,0,0)" xlink:href="#aC"/><use transform="matrix(0.06790123456790123,0,0,0.06790123456790123,5.364197530864197,0)" xlink:href="#ae"/><use transform="matrix(0.06790123456790123,0,0,0.06790123456790123,18.944444444444443,0)" xlink:href="#ad"/><use transform="matrix(0.06790123456790123,0,0,0.06790123456790123,31.166666666666664,0)" xlink:href="#ah"/><use transform="matrix(0.06790123456790123,0,0,0.06790123456790123,44.74691358024691,0)" xlink:href="#ag"/><use transform="matrix(0.06790123456790123,0,0,0.06790123456790123,51.537037037037045,0)" xlink:href="#ak"/><use transform="matrix(0.06790123456790123,0,0,0.06790123456790123,56.901234567901234,0)" xlink:href="#ae"/><use transform="matrix(0.06790123456790123,0,0,0.06790123456790123,70.48148148148148,0)" xlink:href="#af"/></g><g id="p"><use transform="matrix(0.06790123456790123,0,0,0.06790123456790123,0,0)" xlink:href="#ak"/><use transform="matrix(0.06790123456790123,0,0,0.06790123456790123,5.364197530864197,0)" xlink:href="#al"/><use transform="matrix(0.06790123456790123,0,0,0.06790123456790123,18.944444444444443,0)" xlink:href="#am"/><use transform="matrix(0.06790123456790123,0,0,0.06790123456790123,32.52469135802469,0)" xlink:href="#aC"/><use transform="matrix(0.06790123456790123,0,0,0.06790123456790123,37.888888888888886,0)" xlink:href="#ae"/><use transform="matrix(0.06790123456790123,0,0,0.06790123456790123,51.46913580246913,0)" xlink:href="#ad"/><use transform="matrix(0.06790123456790123,0,0,0.06790123456790123,63.691358024691354,0)" xlink:href="#ah"/><use transform="matrix(0.06790123456790123,0,0,0.06790123456790123,77.2716049382716,0)" xlink:href="#ag"/><use transform="matrix(0.06790123456790123,0,0,0.06790123456790123,84.06172839506172,0)" xlink:href="#ak"/><use transform="matrix(0.06790123456790123,0,0,0.06790123456790123,89.42592592592592,0)" xlink:href="#ae"/><use transform="matrix(0.06790123456790123,0,0,0.06790123456790123,103.00617283950618,0)" xlink:href="#af"/></g><g id="q"><use transform="matrix(0.06790123456790123,0,0,0.06790123456790123,0,0)" xlink:href="#ad"/><use transform="matrix(0.06790123456790123,0,0,0.06790123456790123,12.222222222222221,0)" xlink:href="#ak"/><use transform="matrix(0.06790123456790123,0,0,0.06790123456790123,17.586419753086417,0)" xlink:href="#ag"/><use transform="matrix(0.06790123456790123,0,0,0.06790123456790123,24.37654320987654,0)" xlink:href="#au"/></g><g id="r"><use transform="matrix(0.06790123456790123,0,0,0.06790123456790123,0,0)" xlink:href="#at"/><use transform="matrix(0.06790123456790123,0,0,0.06790123456790123,12.222222222222221,0)" xlink:href="#ag"/><use transform="matrix(0.06790123456790123,0,0,0.06790123456790123,19.012345679012345,0)" xlink:href="#ap"/><use transform="matrix(0.06790123456790123,0,0,0.06790123456790123,27.09259259259259,0)" xlink:href="#an"/><use transform="matrix(0.06790123456790123,0,0,0.06790123456790123,40.672839506172835,0)" xlink:href="#an"/><use transform="matrix(0.06790123456790123,0,0,0.06790123456790123,54.25308641975308,0)" xlink:href="#ag"/><use transform="matrix(0.06790123456790123,0,0,0.06790123456790123,61.0432098765432,0)" xlink:href="#am"/><use transform="matrix(0.06790123456790123,0,0,0.06790123456790123,74.62345679012344,0)" xlink:href="#af"/><use transform="matrix(0.06790123456790123,0,0,0.06790123456790123,88.2037037037037,0)" xlink:href="#ah"/><use transform="matrix(0.06790123456790123,0,0,0.06790123456790123,101.78395061728395,0)" xlink:href="#aB"/><use transform="matrix(0.06790123456790123,0,0,0.06790123456790123,122.08641975308642,0)" xlink:href="#an"/></g><path fill="#333" d="M84 4C-5 8 30-112 23-190h32v120c0 31 7 50 39 49 72-2 45-101 50-169h31l1 190h-30c-1-10 1-25-2-33-11 22-28 36-60 37" id="aE"/><path fill="#333" d="M115-194c53 0 69 39 70 98 0 66-23 100-70 100C84 3 66-7 56-30L54 0H23l1-261h32v101c10-23 28-34 59-34zm-8 174c40 0 45-34 45-75 0-40-5-75-45-74-42 0-51 32-51 76 0 43 10 73 51 73" id="aF"/><g id="s"><use transform="matrix(0.06790123456790123,0,0,0.06790123456790123,0,0)" xlink:href="#at"/><use transform="matrix(0.06790123456790123,0,0,0.06790123456790123,12.222222222222221,0)" xlink:href="#ag"/><use transform="matrix(0.06790123456790123,0,0,0.06790123456790123,19.012345679012345,0)" xlink:href="#ap"/><use transform="matrix(0.06790123456790123,0,0,0.06790123456790123,27.09259259259259,0)" xlink:href="#an"/><use transform="matrix(0.06790123456790123,0,0,0.06790123456790123,40.672839506172835,0)" xlink:href="#an"/><use transform="matrix(0.06790123456790123,0,0,0.06790123456790123,54.25308641975308,0)" xlink:href="#ag"/><use transform="matrix(0.06790123456790123,0,0,0.06790123456790123,61.0432098765432,0)" xlink:href="#am"/><use transform="matrix(0.06790123456790123,0,0,0.06790123456790123,74.62345679012344,0)" xlink:href="#af"/><use transform="matrix(0.06790123456790123,0,0,0.06790123456790123,88.2037037037037,0)" xlink:href="#aE"/><use transform="matrix(0.06790123456790123,0,0,0.06790123456790123,101.78395061728395,0)" xlink:href="#aB"/><use transform="matrix(0.06790123456790123,0,0,0.06790123456790123,122.08641975308642,0)" xlink:href="#aF"/><use transform="matrix(0.06790123456790123,0,0,0.06790123456790123,135.66666666666666,0)" xlink:href="#an"/><use transform="matrix(0.06790123456790123,0,0,0.06790123456790123,149.2469135802469,0)" xlink:href="#ap"/></g><path fill="#333" d="M9 0v-24l116-142H16v-24h144v24L44-24h123V0H9" id="aG"/><g id="t"><use transform="matrix(0.06790123456790123,0,0,0.06790123456790123,0,0)" xlink:href="#aG"/><use transform="matrix(0.06790123456790123,0,0,0.06790123456790123,12.222222222222221,0)" xlink:href="#ak"/><use transform="matrix(0.06790123456790123,0,0,0.06790123456790123,17.586419753086417,0)" xlink:href="#as"/></g><path fill="#333" d="M54-142c48-35 137-8 131 61C196 18 31 33 14-55l32-4c7 23 22 37 52 37 35-1 51-22 54-58 4-55-73-65-99-34H22l8-134h141v27H59" id="aH"/><g id="u"><use transform="matrix(0.06790123456790123,0,0,0.06790123456790123,0,0)" xlink:href="#av"/><use transform="matrix(0.06790123456790123,0,0,0.06790123456790123,12.222222222222221,0)" xlink:href="#ah"/><use transform="matrix(0.06790123456790123,0,0,0.06790123456790123,25.80246913580247,0)" xlink:href="#ap"/><use transform="matrix(0.06790123456790123,0,0,0.06790123456790123,33.882716049382715,0)" xlink:href="#ad"/><use transform="matrix(0.06790123456790123,0,0,0.06790123456790123,46.10493827160494,0)" xlink:href="#aw"/><use transform="matrix(0.06790123456790123,0,0,0.06790123456790123,59.68518518518518,0)" xlink:href="#ah"/><use transform="matrix(0.06790123456790123,0,0,0.06790123456790123,73.26543209876543,0)" xlink:href="#ap"/><use transform="matrix(0.06790123456790123,0,0,0.06790123456790123,81.34567901234567,0)" xlink:href="#ax"/><use transform="matrix(0.06790123456790123,0,0,0.06790123456790123,89.42592592592592,0)" xlink:href="#aH"/><use transform="matrix(0.06790123456790123,0,0,0.06790123456790123,103.00617283950618,0)" xlink:href="#az"/><use transform="matrix(0.06790123456790123,0,0,0.06790123456790123,116.58641975308643,0)" xlink:href="#aA"/></g><g id="v"><use transform="matrix(0.06790123456790123,0,0,0.06790123456790123,0,0)" xlink:href="#ad"/><use transform="matrix(0.06790123456790123,0,0,0.06790123456790123,12.222222222222221,0)" xlink:href="#ae"/><use transform="matrix(0.06790123456790123,0,0,0.06790123456790123,25.80246913580247,0)" xlink:href="#aE"/><use transform="matrix(0.06790123456790123,0,0,0.06790123456790123,39.382716049382715,0)" xlink:href="#af"/><use transform="matrix(0.06790123456790123,0,0,0.06790123456790123,52.96296296296296,0)" xlink:href="#ag"/><use transform="matrix(0.06790123456790123,0,0,0.06790123456790123,59.75308641975309,0)" xlink:href="#ap"/><use transform="matrix(0.06790123456790123,0,0,0.06790123456790123,67.83333333333334,0)" xlink:href="#au"/></g><g id="w"><use transform="matrix(0.06790123456790123,0,0,0.06790123456790123,0,0)" xlink:href="#aC"/><use transform="matrix(0.06790123456790123,0,0,0.06790123456790123,5.364197530864197,0)" xlink:href="#ah"/><use transform="matrix(0.06790123456790123,0,0,0.06790123456790123,18.944444444444443,0)" xlink:href="#ag"/><use transform="matrix(0.06790123456790123,0,0,0.06790123456790123,25.734567901234566,0)" xlink:href="#ak"/><use transform="matrix(0.06790123456790123,0,0,0.06790123456790123,31.098765432098762,0)" xlink:href="#ag"/><use transform="matrix(0.06790123456790123,0,0,0.06790123456790123,37.888888888888886,0)" xlink:href="#aE"/><use transform="matrix(0.06790123456790123,0,0,0.06790123456790123,51.46913580246913,0)" xlink:href="#al"/><use transform="matrix(0.06790123456790123,0,0,0.06790123456790123,65.04938271604938,0)" xlink:href="#an"/></g><g id="x"><use transform="matrix(0.06790123456790123,0,0,0.06790123456790123,0,0)" xlink:href="#af"/><use transform="matrix(0.06790123456790123,0,0,0.06790123456790123,13.580246913580247,0)" xlink:href="#aE"/><use transform="matrix(0.06790123456790123,0,0,0.06790123456790123,27.160493827160494,0)" xlink:href="#aB"/><use transform="matrix(0.06790123456790123,0,0,0.06790123456790123,47.46296296296296,0)" xlink:href="#an"/><use transform="matrix(0.06790123456790123,0,0,0.06790123456790123,61.04320987654321,0)" xlink:href="#ap"/><use transform="matrix(0.06790123456790123,0,0,0.06790123456790123,69.12345679012346,0)" xlink:href="#ak"/><use transform="matrix(0.06790123456790123,0,0,0.06790123456790123,74.48765432098766,0)" xlink:href="#ad"/></g><g id="y"><use transform="matrix(0.06790123456790123,0,0,0.06790123456790123,0,0)" xlink:href="#aC"/><use transform="matrix(0.06790123456790123,0,0,0.06790123456790123,5.364197530864197,0)" xlink:href="#ae"/><use transform="matrix(0.06790123456790123,0,0,0.06790123456790123,18.944444444444443,0)" xlink:href="#af"/><use transform="matrix(0.06790123456790123,0,0,0.06790123456790123,32.52469135802469,0)" xlink:href="#ao"/><use transform="matrix(0.06790123456790123,0,0,0.06790123456790123,46.10493827160494,0)" xlink:href="#ak"/><use transform="matrix(0.06790123456790123,0,0,0.06790123456790123,51.46913580246913,0)" xlink:href="#ag"/><use transform="matrix(0.06790123456790123,0,0,0.06790123456790123,58.25925925925926,0)" xlink:href="#aE"/><use transform="matrix(0.06790123456790123,0,0,0.06790123456790123,71.83950617283949,0)" xlink:href="#al"/><use transform="matrix(0.06790123456790123,0,0,0.06790123456790123,85.41975308641975,0)" xlink:href="#an"/></g><g id="z"><use transform="matrix(0.06790123456790123,0,0,0.06790123456790123,0,0)" xlink:href="#aB"/><use transform="matrix(0.06790123456790123,0,0,0.06790123456790123,20.30246913580247,0)" xlink:href="#an"/><use transform="matrix(0.06790123456790123,0,0,0.06790123456790123,33.882716049382715,0)" xlink:href="#an"/><use transform="matrix(0.06790123456790123,0,0,0.06790123456790123,47.46296296296296,0)" xlink:href="#ag"/><use transform="matrix(0.06790123456790123,0,0,0.06790123456790123,54.25308641975309,0)" xlink:href="#ak"/><use transform="matrix(0.06790123456790123,0,0,0.06790123456790123,59.617283950617285,0)" xlink:href="#af"/><use transform="matrix(0.06790123456790123,0,0,0.06790123456790123,73.19753086419753,0)" xlink:href="#ao"/></g><g id="A"><use transform="matrix(0.06790123456790123,0,0,0.06790123456790123,0,0)" xlink:href="#ak"/><use transform="matrix(0.06790123456790123,0,0,0.06790123456790123,5.364197530864197,0)" xlink:href="#al"/><use transform="matrix(0.06790123456790123,0,0,0.06790123456790123,18.944444444444443,0)" xlink:href="#am"/><use transform="matrix(0.06790123456790123,0,0,0.06790123456790123,32.52469135802469,0)" xlink:href="#aB"/><use transform="matrix(0.06790123456790123,0,0,0.06790123456790123,52.82716049382716,0)" xlink:href="#an"/><use transform="matrix(0.06790123456790123,0,0,0.06790123456790123,66.4074074074074,0)" xlink:href="#an"/><use transform="matrix(0.06790123456790123,0,0,0.06790123456790123,79.98765432098764,0)" xlink:href="#ag"/><use transform="matrix(0.06790123456790123,0,0,0.06790123456790123,86.77777777777777,0)" xlink:href="#ak"/><use transform="matrix(0.06790123456790123,0,0,0.06790123456790123,92.14197530864197,0)" xlink:href="#af"/><use transform="matrix(0.06790123456790123,0,0,0.06790123456790123,105.72222222222223,0)" xlink:href="#ao"/></g><g id="B"><use transform="matrix(0.06790123456790123,0,0,0.06790123456790123,0,0)" xlink:href="#at"/><use transform="matrix(0.06790123456790123,0,0,0.06790123456790123,12.222222222222221,0)" xlink:href="#ag"/><use transform="matrix(0.06790123456790123,0,0,0.06790123456790123,19.012345679012345,0)" xlink:href="#ah"/><use transform="matrix(0.06790123456790123,0,0,0.06790123456790123,32.592592592592595,0)" xlink:href="#ap"/><use transform="matrix(0.06790123456790123,0,0,0.06790123456790123,40.67283950617284,0)" xlink:href="#ag"/></g><g id="C"><use transform="matrix(0.06790123456790123,0,0,0.06790123456790123,0,0)" xlink:href="#ag"/><use transform="matrix(0.06790123456790123,0,0,0.06790123456790123,6.790123456790123,0)" xlink:href="#ak"/><use transform="matrix(0.06790123456790123,0,0,0.06790123456790123,12.15432098765432,0)" xlink:href="#aB"/><use transform="matrix(0.06790123456790123,0,0,0.06790123456790123,32.456790123456784,0)" xlink:href="#an"/><use transform="matrix(0.06790123456790123,0,0,0.06790123456790123,46.03703703703703,0)" xlink:href="#at"/><use transform="matrix(0.06790123456790123,0,0,0.06790123456790123,58.25925925925926,0)" xlink:href="#ag"/><use transform="matrix(0.06790123456790123,0,0,0.06790123456790123,65.04938271604938,0)" xlink:href="#ah"/><use transform="matrix(0.06790123456790123,0,0,0.06790123456790123,78.62962962962962,0)" xlink:href="#aB"/><use transform="matrix(0.06790123456790123,0,0,0.06790123456790123,98.93209876543209,0)" xlink:href="#as"/></g><path fill="#333" d="M127-220V0H93v-220H8v-28h204v28h-85" id="aI"/><path fill="#333" d="M209 0H11v-25l151-195H24v-28h176v25L50-27h159V0" id="aJ"/><g id="D"><use transform="matrix(0.06790123456790123,0,0,0.06790123456790123,0,0)" xlink:href="#aI"/><use transform="matrix(0.06790123456790123,0,0,0.06790123456790123,14.87037037037037,0)" xlink:href="#aJ"/></g><g id="E"><use transform="matrix(0.06790123456790123,0,0,0.06790123456790123,0,0)" xlink:href="#al"/><use transform="matrix(0.06790123456790123,0,0,0.06790123456790123,13.580246913580247,0)" xlink:href="#an"/><use transform="matrix(0.06790123456790123,0,0,0.06790123456790123,27.160493827160494,0)" xlink:href="#at"/><use transform="matrix(0.06790123456790123,0,0,0.06790123456790123,39.382716049382715,0)" xlink:href="#ad"/><use transform="matrix(0.06790123456790123,0,0,0.06790123456790123,51.60493827160494,0)" xlink:href="#ap"/><use transform="matrix(0.06790123456790123,0,0,0.06790123456790123,59.68518518518518,0)" xlink:href="#ak"/><use transform="matrix(0.06790123456790123,0,0,0.06790123456790123,65.04938271604938,0)" xlink:href="#as"/><use transform="matrix(0.06790123456790123,0,0,0.06790123456790123,78.62962962962962,0)" xlink:href="#ag"/><use transform="matrix(0.06790123456790123,0,0,0.06790123456790123,85.41975308641975,0)" xlink:href="#ak"/><use transform="matrix(0.06790123456790123,0,0,0.06790123456790123,90.78395061728395,0)" xlink:href="#ae"/><use transform="matrix(0.06790123456790123,0,0,0.06790123456790123,104.3641975308642,0)" xlink:href="#af"/></g><g id="F"><use transform="matrix(0.06790123456790123,0,0,0.06790123456790123,0,0)" xlink:href="#al"/><use transform="matrix(0.06790123456790123,0,0,0.06790123456790123,13.580246913580247,0)" xlink:href="#aE"/><use transform="matrix(0.06790123456790123,0,0,0.06790123456790123,27.160493827160494,0)" xlink:href="#ap"/><use transform="matrix(0.06790123456790123,0,0,0.06790123456790123,35.24074074074074,0)" xlink:href="#ah"/><use transform="matrix(0.06790123456790123,0,0,0.06790123456790123,48.82098765432099,0)" xlink:href="#ag"/><use transform="matrix(0.06790123456790123,0,0,0.06790123456790123,55.611111111111114,0)" xlink:href="#ak"/><use transform="matrix(0.06790123456790123,0,0,0.06790123456790123,60.97530864197531,0)" xlink:href="#ae"/><use transform="matrix(0.06790123456790123,0,0,0.06790123456790123,74.55555555555556,0)" xlink:href="#af"/></g><g id="G"><use transform="matrix(0.06790123456790123,0,0,0.06790123456790123,0,0)" xlink:href="#ag"/><use transform="matrix(0.06790123456790123,0,0,0.06790123456790123,6.790123456790123,0)" xlink:href="#ak"/><use transform="matrix(0.06790123456790123,0,0,0.06790123456790123,12.15432098765432,0)" xlink:href="#aB"/><use transform="matrix(0.06790123456790123,0,0,0.06790123456790123,32.456790123456784,0)" xlink:href="#an"/></g><g id="H"><use transform="matrix(0.06790123456790123,0,0,0.06790123456790123,0,0)" xlink:href="#as"/><use transform="matrix(0.06790123456790123,0,0,0.06790123456790123,13.580246913580247,0)" xlink:href="#an"/><use transform="matrix(0.06790123456790123,0,0,0.06790123456790123,27.160493827160494,0)" xlink:href="#ap"/><use transform="matrix(0.06790123456790123,0,0,0.06790123456790123,35.24074074074074,0)" xlink:href="#at"/><use transform="matrix(0.06790123456790123,0,0,0.06790123456790123,47.46296296296296,0)" xlink:href="#ae"/><use transform="matrix(0.06790123456790123,0,0,0.06790123456790123,61.04320987654321,0)" xlink:href="#af"/></g><path fill="#333" d="M143 0L79-87 56-68V0H24v-261h32v163l83-92h37l-77 82L181 0h-38" id="aK"/><g id="I"><use transform="matrix(0.06790123456790123,0,0,0.06790123456790123,0,0)" xlink:href="#af"/><use transform="matrix(0.06790123456790123,0,0,0.06790123456790123,13.580246913580247,0)" xlink:href="#ak"/><use transform="matrix(0.06790123456790123,0,0,0.06790123456790123,18.944444444444443,0)" xlink:href="#ad"/><use transform="matrix(0.06790123456790123,0,0,0.06790123456790123,31.166666666666664,0)" xlink:href="#aK"/><use transform="matrix(0.06790123456790123,0,0,0.06790123456790123,43.388888888888886,0)" xlink:href="#af"/><use transform="matrix(0.06790123456790123,0,0,0.06790123456790123,56.96913580246913,0)" xlink:href="#ah"/><use transform="matrix(0.06790123456790123,0,0,0.06790123456790123,70.54938271604938,0)" xlink:href="#aB"/><use transform="matrix(0.06790123456790123,0,0,0.06790123456790123,90.85185185185185,0)" xlink:href="#an"/></g><path fill="#333" d="M101-234c-31-9-42 10-38 44h38v23H63V0H32v-167H5v-23h27c-7-52 17-82 69-68v24" id="aL"/><g id="J"><use transform="matrix(0.06790123456790123,0,0,0.06790123456790123,0,0)" xlink:href="#aL"/><use transform="matrix(0.06790123456790123,0,0,0.06790123456790123,6.790123456790123,0)" xlink:href="#ak"/><use transform="matrix(0.06790123456790123,0,0,0.06790123456790123,12.15432098765432,0)" xlink:href="#ap"/><use transform="matrix(0.06790123456790123,0,0,0.06790123456790123,20.234567901234566,0)" xlink:href="#at"/><use transform="matrix(0.06790123456790123,0,0,0.06790123456790123,32.456790123456784,0)" xlink:href="#ag"/><use transform="matrix(0.06790123456790123,0,0,0.06790123456790123,39.24691358024691,0)" xlink:href="#am"/><use transform="matrix(0.06790123456790123,0,0,0.06790123456790123,52.82716049382716,0)" xlink:href="#af"/><use transform="matrix(0.06790123456790123,0,0,0.06790123456790123,66.4074074074074,0)" xlink:href="#ah"/><use transform="matrix(0.06790123456790123,0,0,0.06790123456790123,79.98765432098764,0)" xlink:href="#aB"/><use transform="matrix(0.06790123456790123,0,0,0.06790123456790123,100.29012345679011,0)" xlink:href="#an"/></g><g id="K"><use transform="matrix(0.06790123456790123,0,0,0.06790123456790123,0,0)" xlink:href="#aC"/><use transform="matrix(0.06790123456790123,0,0,0.06790123456790123,5.364197530864197,0)" xlink:href="#ah"/><use transform="matrix(0.06790123456790123,0,0,0.06790123456790123,18.944444444444443,0)" xlink:href="#at"/><use transform="matrix(0.06790123456790123,0,0,0.06790123456790123,31.166666666666664,0)" xlink:href="#ag"/><use transform="matrix(0.06790123456790123,0,0,0.06790123456790123,37.95679012345679,0)" xlink:href="#am"/><use transform="matrix(0.06790123456790123,0,0,0.06790123456790123,51.53703703703703,0)" xlink:href="#af"/><use transform="matrix(0.06790123456790123,0,0,0.06790123456790123,65.11728395061728,0)" xlink:href="#ah"/><use transform="matrix(0.06790123456790123,0,0,0.06790123456790123,78.69753086419752,0)" xlink:href="#aB"/><use transform="matrix(0.06790123456790123,0,0,0.06790123456790123,98.99999999999999,0)" xlink:href="#an"/></g><g id="L"><use transform="matrix(0.06790123456790123,0,0,0.06790123456790123,0,0)" xlink:href="#aq"/><use transform="matrix(0.06790123456790123,0,0,0.06790123456790123,14.87037037037037,0)" xlink:href="#aj"/></g><g id="M"><use transform="matrix(0.06790123456790123,0,0,0.06790123456790123,0,0)" xlink:href="#aF"/><use transform="matrix(0.06790123456790123,0,0,0.06790123456790123,13.580246913580247,0)" xlink:href="#ak"/><use transform="matrix(0.06790123456790123,0,0,0.06790123456790123,18.944444444444443,0)" xlink:href="#ap"/><use transform="matrix(0.06790123456790123,0,0,0.06790123456790123,27.02469135802469,0)" xlink:href="#ag"/><use transform="matrix(0.06790123456790123,0,0,0.06790123456790123,33.81481481481481,0)" xlink:href="#aw"/><use transform="matrix(0.06790123456790123,0,0,0.06790123456790123,47.395061728395056,0)" xlink:href="#am"/><use transform="matrix(0.06790123456790123,0,0,0.06790123456790123,60.9753086419753,0)" xlink:href="#al"/><use transform="matrix(0.06790123456790123,0,0,0.06790123456790123,74.55555555555554,0)" xlink:href="#ah"/><use transform="matrix(0.06790123456790123,0,0,0.06790123456790123,88.1358024691358,0)" xlink:href="#au"/></g><g id="N"><use transform="matrix(0.06790123456790123,0,0,0.06790123456790123,0,0)" xlink:href="#al"/><use transform="matrix(0.06790123456790123,0,0,0.06790123456790123,13.580246913580247,0)" xlink:href="#ah"/><use transform="matrix(0.06790123456790123,0,0,0.06790123456790123,27.160493827160494,0)" xlink:href="#ag"/><use transform="matrix(0.06790123456790123,0,0,0.06790123456790123,33.95061728395062,0)" xlink:href="#an"/></g><g id="O"><use transform="matrix(0.06790123456790123,0,0,0.06790123456790123,0,0)" xlink:href="#aw"/><use transform="matrix(0.06790123456790123,0,0,0.06790123456790123,13.580246913580247,0)" xlink:href="#an"/><use transform="matrix(0.06790123456790123,0,0,0.06790123456790123,27.160493827160494,0)" xlink:href="#ak"/><use transform="matrix(0.06790123456790123,0,0,0.06790123456790123,32.52469135802469,0)" xlink:href="#ao"/><use transform="matrix(0.06790123456790123,0,0,0.06790123456790123,46.10493827160494,0)" xlink:href="#aw"/><use transform="matrix(0.06790123456790123,0,0,0.06790123456790123,59.68518518518518,0)" xlink:href="#ag"/></g><g id="P"><use transform="matrix(0.06790123456790123,0,0,0.06790123456790123,0,0)" xlink:href="#ao"/><use transform="matrix(0.06790123456790123,0,0,0.06790123456790123,13.580246913580247,0)" xlink:href="#an"/><use transform="matrix(0.06790123456790123,0,0,0.06790123456790123,27.160493827160494,0)" xlink:href="#af"/><use transform="matrix(0.06790123456790123,0,0,0.06790123456790123,40.74074074074074,0)" xlink:href="#al"/><use transform="matrix(0.06790123456790123,0,0,0.06790123456790123,54.32098765432099,0)" xlink:href="#an"/><use transform="matrix(0.06790123456790123,0,0,0.06790123456790123,67.90123456790124,0)" xlink:href="#ap"/></g><path fill="#333" d="M232-93c-1 65-40 97-104 97C67 4 28-28 28-90v-158h33c8 89-33 224 67 224 102 0 64-133 71-224h33v155" id="aM"/><path fill="#333" d="M185-189c-5-48-123-54-124 2 14 75 158 14 163 119 3 78-121 87-175 55-17-10-28-26-33-46l33-7c5 56 141 63 141-1 0-78-155-14-162-118-5-82 145-84 179-34 5 7 8 16 11 25" id="aN"/><path fill="#333" d="M30 0v-248h187v28H63v79h144v27H63v87h162V0H30" id="aO"/><path fill="#333" d="M233-177c-1 41-23 64-60 70L243 0h-38l-65-103H63V0H30v-248c88 3 205-21 203 71zM63-129c60-2 137 13 137-47 0-61-80-42-137-45v92" id="aP"/><path fill="#333" d="M16-82v-28h88v28H16" id="aQ"/><path fill="#333" d="M30-248c118-7 216 8 213 122C240-48 200 0 122 0H30v-248zM63-27c89 8 146-16 146-99s-60-101-146-95v194" id="aR"/><path fill="#333" d="M33 0v-248h34V0H33" id="aS"/><path fill="#333" d="M190 0L58-211 59 0H30v-248h39L202-35l-2-213h31V0h-41" id="aT"/><g id="Q"><use transform="matrix(0.06790123456790123,0,0,0.06790123456790123,0,0)" xlink:href="#aM"/><use transform="matrix(0.06790123456790123,0,0,0.06790123456790123,17.586419753086417,0)" xlink:href="#aN"/><use transform="matrix(0.06790123456790123,0,0,0.06790123456790123,33.88271604938271,0)" xlink:href="#aO"/><use transform="matrix(0.06790123456790123,0,0,0.06790123456790123,50.179012345679,0)" xlink:href="#aP"/><use transform="matrix(0.06790123456790123,0,0,0.06790123456790123,67.76543209876542,0)" xlink:href="#aQ"/><use transform="matrix(0.06790123456790123,0,0,0.06790123456790123,75.84567901234567,0)" xlink:href="#aR"/><use transform="matrix(0.06790123456790123,0,0,0.06790123456790123,93.43209876543209,0)" xlink:href="#aO"/><use transform="matrix(0.06790123456790123,0,0,0.06790123456790123,109.72839506172838,0)" xlink:href="#aq"/><use transform="matrix(0.06790123456790123,0,0,0.06790123456790123,124.59876543209874,0)" xlink:href="#aS"/><use transform="matrix(0.06790123456790123,0,0,0.06790123456790123,131.38888888888886,0)" xlink:href="#aT"/><use transform="matrix(0.06790123456790123,0,0,0.06790123456790123,148.9753086419753,0)" xlink:href="#aO"/><use transform="matrix(0.06790123456790123,0,0,0.06790123456790123,165.2716049382716,0)" xlink:href="#aR"/></g><g id="R"><use transform="matrix(0.06790123456790123,0,0,0.06790123456790123,0,0)" xlink:href="#as"/><use transform="matrix(0.06790123456790123,0,0,0.06790123456790123,13.580246913580247,0)" xlink:href="#an"/><use transform="matrix(0.06790123456790123,0,0,0.06790123456790123,27.160493827160494,0)" xlink:href="#ap"/><use transform="matrix(0.06790123456790123,0,0,0.06790123456790123,35.24074074074074,0)" xlink:href="#at"/><use transform="matrix(0.06790123456790123,0,0,0.06790123456790123,47.46296296296296,0)" xlink:href="#ae"/><use transform="matrix(0.06790123456790123,0,0,0.06790123456790123,61.04320987654321,0)" xlink:href="#af"/><use transform="matrix(0.06790123456790123,0,0,0.06790123456790123,74.62345679012346,0)" xlink:href="#am"/><use transform="matrix(0.06790123456790123,0,0,0.06790123456790123,88.2037037037037,0)" xlink:href="#aB"/><use transform="matrix(0.06790123456790123,0,0,0.06790123456790123,108.50617283950616,0)" xlink:href="#an"/><use transform="matrix(0.06790123456790123,0,0,0.06790123456790123,122.0864197530864,0)" xlink:href="#an"/><use transform="matrix(0.06790123456790123,0,0,0.06790123456790123,135.66666666666666,0)" xlink:href="#ag"/><use transform="matrix(0.06790123456790123,0,0,0.06790123456790123,142.45679012345678,0)" xlink:href="#ak"/><use transform="matrix(0.06790123456790123,0,0,0.06790123456790123,147.820987654321,0)" xlink:href="#af"/><use transform="matrix(0.06790123456790123,0,0,0.06790123456790123,161.40123456790127,0)" xlink:href="#ao"/></g><g id="S"><use transform="matrix(0.06790123456790123,0,0,0.06790123456790123,0,0)" xlink:href="#ai"/><use transform="matrix(0.06790123456790123,0,0,0.06790123456790123,16.296296296296294,0)" xlink:href="#aj"/><use transform="matrix(0.06790123456790123,0,0,0.06790123456790123,32.59259259259259,0)" xlink:href="#ar"/><use transform="matrix(0.06790123456790123,0,0,0.06790123456790123,39.38271604938271,0)" xlink:href="#aq"/><use transform="matrix(0.06790123456790123,0,0,0.06790123456790123,54.253086419753075,0)" xlink:href="#aj"/></g><g id="T"><use transform="matrix(0.06790123456790123,0,0,0.06790123456790123,0,0)" xlink:href="#ap"/><use transform="matrix(0.06790123456790123,0,0,0.06790123456790123,8.080246913580247,0)" xlink:href="#an"/><use transform="matrix(0.06790123456790123,0,0,0.06790123456790123,21.660493827160494,0)" xlink:href="#aC"/><use transform="matrix(0.06790123456790123,0,0,0.06790123456790123,27.02469135802469,0)" xlink:href="#ah"/><use transform="matrix(0.06790123456790123,0,0,0.06790123456790123,40.60493827160494,0)" xlink:href="#ag"/><use transform="matrix(0.06790123456790123,0,0,0.06790123456790123,47.39506172839506,0)" xlink:href="#ak"/><use transform="matrix(0.06790123456790123,0,0,0.06790123456790123,52.75925925925926,0)" xlink:href="#ae"/><use transform="matrix(0.06790123456790123,0,0,0.06790123456790123,66.3395061728395,0)" xlink:href="#af"/></g><g id="U"><use transform="matrix(0.06790123456790123,0,0,0.06790123456790123,0,0)" xlink:href="#ak"/><use transform="matrix(0.06790123456790123,0,0,0.06790123456790123,5.364197530864197,0)" xlink:href="#al"/><use transform="matrix(0.06790123456790123,0,0,0.06790123456790123,18.944444444444443,0)" xlink:href="#am"/><use transform="matrix(0.06790123456790123,0,0,0.06790123456790123,32.52469135802469,0)" xlink:href="#ap"/><use transform="matrix(0.06790123456790123,0,0,0.06790123456790123,40.60493827160494,0)" xlink:href="#an"/><use transform="matrix(0.06790123456790123,0,0,0.06790123456790123,54.18518518518518,0)" xlink:href="#aC"/><use transform="matrix(0.06790123456790123,0,0,0.06790123456790123,59.54938271604938,0)" xlink:href="#ah"/><use transform="matrix(0.06790123456790123,0,0,0.06790123456790123,73.12962962962962,0)" xlink:href="#ag"/><use transform="matrix(0.06790123456790123,0,0,0.06790123456790123,79.91975308641975,0)" xlink:href="#ak"/><use transform="matrix(0.06790123456790123,0,0,0.06790123456790123,85.28395061728395,0)" xlink:href="#ae"/><use transform="matrix(0.06790123456790123,0,0,0.06790123456790123,98.8641975308642,0)" xlink:href="#af"/></g><path fill="#333" d="M27 0v-27h64v-190l-56 39v-29l58-41h29v221h61V0H27" id="aU"/><g id="V"><use transform="matrix(0.06790123456790123,0,0,0.06790123456790123,0,0)" xlink:href="#ak"/><use transform="matrix(0.06790123456790123,0,0,0.06790123456790123,5.364197530864197,0)" xlink:href="#al"/><use transform="matrix(0.06790123456790123,0,0,0.06790123456790123,18.944444444444443,0)" xlink:href="#am"/><use transform="matrix(0.06790123456790123,0,0,0.06790123456790123,32.52469135802469,0)" xlink:href="#as"/><use transform="matrix(0.06790123456790123,0,0,0.06790123456790123,46.10493827160494,0)" xlink:href="#an"/><use transform="matrix(0.06790123456790123,0,0,0.06790123456790123,59.68518518518518,0)" xlink:href="#ap"/><use transform="matrix(0.06790123456790123,0,0,0.06790123456790123,67.76543209876543,0)" xlink:href="#at"/><use transform="matrix(0.06790123456790123,0,0,0.06790123456790123,79.98765432098764,0)" xlink:href="#ae"/><use transform="matrix(0.06790123456790123,0,0,0.06790123456790123,93.5679012345679,0)" xlink:href="#af"/><use transform="matrix(0.06790123456790123,0,0,0.06790123456790123,107.14814814814815,0)" xlink:href="#aU"/></g><g id="W"><use transform="matrix(0.06790123456790123,0,0,0.06790123456790123,0,0)" xlink:href="#ak"/><use transform="matrix(0.06790123456790123,0,0,0.06790123456790123,5.364197530864197,0)" xlink:href="#al"/><use transform="matrix(0.06790123456790123,0,0,0.06790123456790123,18.944444444444443,0)" xlink:href="#am"/><use transform="matrix(0.06790123456790123,0,0,0.06790123456790123,32.52469135802469,0)" xlink:href="#as"/><use transform="matrix(0.06790123456790123,0,0,0.06790123456790123,46.10493827160494,0)" xlink:href="#an"/><use transform="matrix(0.06790123456790123,0,0,0.06790123456790123,59.68518518518518,0)" xlink:href="#ap"/><use transform="matrix(0.06790123456790123,0,0,0.06790123456790123,67.76543209876543,0)" xlink:href="#at"/><use transform="matrix(0.06790123456790123,0,0,0.06790123456790123,79.98765432098764,0)" xlink:href="#ae"/><use transform="matrix(0.06790123456790123,0,0,0.06790123456790123,93.5679012345679,0)" xlink:href="#af"/><use transform="matrix(0.06790123456790123,0,0,0.06790123456790123,107.14814814814815,0)" xlink:href="#ay"/></g><g id="X"><use transform="matrix(0.06790123456790123,0,0,0.06790123456790123,0,0)" xlink:href="#ak"/><use transform="matrix(0.06790123456790123,0,0,0.06790123456790123,5.364197530864197,0)" xlink:href="#al"/><use transform="matrix(0.06790123456790123,0,0,0.06790123456790123,18.944444444444443,0)" xlink:href="#am"/><use transform="matrix(0.06790123456790123,0,0,0.06790123456790123,32.52469135802469,0)" xlink:href="#ap"/><use transform="matrix(0.06790123456790123,0,0,0.06790123456790123,40.60493827160494,0)" xlink:href="#an"/><use transform="matrix(0.06790123456790123,0,0,0.06790123456790123,54.18518518518518,0)" xlink:href="#aC"/><use transform="matrix(0.06790123456790123,0,0,0.06790123456790123,59.54938271604938,0)" xlink:href="#ah"/><use transform="matrix(0.06790123456790123,0,0,0.06790123456790123,73.12962962962962,0)" xlink:href="#ag"/><use transform="matrix(0.06790123456790123,0,0,0.06790123456790123,79.91975308641975,0)" xlink:href="#ak"/><use transform="matrix(0.06790123456790123,0,0,0.06790123456790123,85.28395061728395,0)" xlink:href="#ae"/><use transform="matrix(0.06790123456790123,0,0,0.06790123456790123,98.8641975308642,0)" xlink:href="#af"/><use transform="matrix(0.06790123456790123,0,0,0.06790123456790123,112.44444444444446,0)" xlink:href="#am"/><use transform="matrix(0.06790123456790123,0,0,0.06790123456790123,126.02469135802471,0)" xlink:href="#ag"/><use transform="matrix(0.06790123456790123,0,0,0.06790123456790123,132.81481481481484,0)" xlink:href="#au"/><use transform="matrix(0.06790123456790123,0,0,0.06790123456790123,145.03703703703707,0)" xlink:href="#as"/><use transform="matrix(0.06790123456790123,0,0,0.06790123456790123,158.6172839506173,0)" xlink:href="#an"/></g><g id="Y"><use transform="matrix(0.06790123456790123,0,0,0.06790123456790123,0,0)" xlink:href="#ap"/><use transform="matrix(0.06790123456790123,0,0,0.06790123456790123,8.080246913580247,0)" xlink:href="#an"/><use transform="matrix(0.06790123456790123,0,0,0.06790123456790123,21.660493827160494,0)" xlink:href="#aC"/><use transform="matrix(0.06790123456790123,0,0,0.06790123456790123,27.02469135802469,0)" xlink:href="#ah"/><use transform="matrix(0.06790123456790123,0,0,0.06790123456790123,40.60493827160494,0)" xlink:href="#ag"/><use transform="matrix(0.06790123456790123,0,0,0.06790123456790123,47.39506172839506,0)" xlink:href="#ak"/><use transform="matrix(0.06790123456790123,0,0,0.06790123456790123,52.75925925925926,0)" xlink:href="#ae"/><use transform="matrix(0.06790123456790123,0,0,0.06790123456790123,66.3395061728395,0)" xlink:href="#af"/><use transform="matrix(0.06790123456790123,0,0,0.06790123456790123,79.91975308641975,0)" xlink:href="#am"/><use transform="matrix(0.06790123456790123,0,0,0.06790123456790123,93.5,0)" xlink:href="#ag"/><use transform="matrix(0.06790123456790123,0,0,0.06790123456790123,100.29012345679013,0)" xlink:href="#au"/><use transform="matrix(0.06790123456790123,0,0,0.06790123456790123,112.51234567901236,0)" xlink:href="#as"/><use transform="matrix(0.06790123456790123,0,0,0.06790123456790123,126.09259259259261,0)" xlink:href="#an"/></g></defs></g></svg>