<svg xmlns="http://www.w3.org/2000/svg" xmlns:xlink="http://www.w3.org/1999/xlink" width="2299" height="1100"><g transform="translate(-0.999998999999999 -20)"><path d="M0 0h1323.2v1870.4H0z" fill="#fff"/><path d="M80 40h160v40H80z" stroke="#0c7cba" stroke-width="2" fill="#fff"/><use xlink:href="#a" transform="matrix(1,0,0,1,85,45) translate(44.575 18.6)"/><use xlink:href="#b" transform="matrix(1,0,0,1,85,45) translate(95.42500000000001 18.6)"/><path d="M500 40h940v1060H500z" stroke="#999" stroke-width="2" fill="#fff"/><use xlink:href="#c" transform="matrix(1,0,0,1,505,45) translate(0 19.555555555555557)"/><use xlink:href="#d" transform="matrix(1,0,0,1,505,45) translate(56.49382716049382 19.555555555555557)"/><path d="M320 40h160v40H320z" stroke="#7ab648" stroke-width="2" fill="#fff"/><use xlink:href="#a" transform="matrix(1,0,0,1,325,45) translate(44.575 18.6)"/><use xlink:href="#e" transform="matrix(1,0,0,1,325,45) translate(95.42500000000001 18.6)"/><path d="M32 86.6V1010" stroke="#000" stroke-width="2" fill="none"/><path d="M32 1010l-4.64-14.27h9.28z" stroke="#000" stroke-width="2"/><path fill="#fff" d="M12.4 459.62h39.2v21.6H12.4z"/><use xlink:href="#f" transform="matrix(1,0,0,1,12.399998999999998,459.6207245812232) translate(0 14.4)"/><path d="M80 120h160v60H80z" stroke="#0c7cba" stroke-width="2" fill="#fff"/><use xlink:href="#g" transform="matrix(1,0,0,1,85,125) translate(14.099999999999994 17.799999999999997)"/><use xlink:href="#h" transform="matrix(1,0,0,1,85,125) translate(75 17.799999999999997)"/><use xlink:href="#i" transform="matrix(1,0,0,1,85,125) translate(115.9 17.799999999999997)"/><use xlink:href="#j" transform="matrix(1,0,0,1,85,125) translate(10.025000000000006 39.4)"/><path d="M320 140h160v60H320z" stroke="#7ab648" stroke-width="2" fill="#fff"/><use xlink:href="#g" transform="matrix(1,0,0,1,325,145) translate(14.099999999999994 17.799999999999997)"/><use xlink:href="#h" transform="matrix(1,0,0,1,325,145) translate(75 17.799999999999997)"/><use xlink:href="#i" transform="matrix(1,0,0,1,325,145) translate(115.9 17.799999999999997)"/><use xlink:href="#j" transform="matrix(1,0,0,1,325,145) translate(10.025000000000006 39.4)"/><path d="M540 200h400v60H540z" stroke="#0c7cba" stroke-width="2" fill="#fff"/><use xlink:href="#k" transform="matrix(1,0,0,1,545,205) translate(95.025 28.6)"/><use xlink:href="#j" transform="matrix(1,0,0,1,545,205) translate(165.025 28.6)"/><path d="M540 340h400v60H540z" stroke="#0c7cba" stroke-width="2" fill="#fff"/><use xlink:href="#l" transform="matrix(1,0,0,1,545,345) translate(0 30.396484375)"/><use xlink:href="#m" transform="matrix(1,0,0,1,545,345) translate(43.20703125 30.396484375)"/><path d="M540 476.4h400v82H540z" stroke="#0c7cba" stroke-width="2" fill="#fff"/><use xlink:href="#n" transform="matrix(1,0,0,1,545,481.4) translate(0 14.396484375)"/><use xlink:href="#o" transform="matrix(1,0,0,1,545,481.4) translate(32.4052734375 14.396484375)"/><use xlink:href="#p" transform="matrix(1,0,0,1,545,481.4) translate(54.0087890625 14.396484375)"/><use xlink:href="#q" transform="matrix(1,0,0,1,545,481.4) translate(280.845703125 14.396484375)"/><use xlink:href="#r" transform="matrix(1,0,0,1,545,481.4) translate(0 32.396484375)"/><use xlink:href="#s" transform="matrix(1,0,0,1,545,481.4) translate(75.6123046875 32.396484375)"/><use xlink:href="#t" transform="matrix(1,0,0,1,545,481.4) translate(0 50.396484375)"/><use xlink:href="#u" transform="matrix(1,0,0,1,545,481.4) translate(280.845703125 50.396484375)"/><use xlink:href="#v" transform="matrix(1,0,0,1,545,481.4) translate(313.2509765625 50.396484375)"/><use xlink:href="#w" transform="matrix(1,0,0,1,545,481.4) translate(0 68.396484375)"/><path d="M540 634.8h400v74.8H540z" stroke="#0c7cba" stroke-width="2" fill="#fff"/><use xlink:href="#x" transform="matrix(1,0,0,1,545,639.8000000000001) translate(0 28.896484375)"/><use xlink:href="#y" transform="matrix(1,0,0,1,545,639.8000000000001) translate(205.2333984375 28.896484375)"/><use xlink:href="#z" transform="matrix(1,0,0,1,545,639.8000000000001) translate(0 46.896484375)"/><use xlink:href="#A" transform="matrix(1,0,0,1,545,639.8000000000001) translate(54.0087890625 46.896484375)"/><path d="M160 180v50h380" stroke="#0c7cba" stroke-width="2" fill="none"/><path d="M540 230l-14.27 4.64v-9.28z" fill="#0c7cba"/><path d="M540 228.95v2.1L524.73 236v-12zm-13.27 4.3l10.03-3.25-10.03-3.26z" fill="#0c7cba"/><path fill="#fff" d="M179.04 208.4H362.6v43.2H179.03z"/><use xlink:href="#B" transform="matrix(1,0,0,1,179.03800813008132,208.4) translate(0 14.4)"/><use xlink:href="#C" transform="matrix(1,0,0,1,179.03800813008132,208.4) translate(53.6 14.4)"/><use xlink:href="#D" transform="matrix(1,0,0,1,179.03800813008132,208.4) translate(0 36)"/><path d="M740 261v78" stroke="#0c7cba" stroke-width="2" fill="none"/><path d="M741 261h-2v-1h2zM740 339l-4.64-14.27h9.28z" fill="#0c7cba"/><path d="M740.73 340h-1.46L734 323.73h12zm-4-14.27l3.27 10.03 3.26-10.03z" fill="#0c7cba"/><path d="M740 400v76.4" stroke="#0c7cba" stroke-width="2" fill="none"/><path d="M740 476.4l-4.64-14.27h9.28z" fill="#0c7cba"/><path d="M741.05 476.4h-2.1L734 461.13h12zm-4.3-13.27l3.25 10.03 3.26-10.03z" fill="#0c7cba"/><path d="M740 558.4v75.4" stroke="#0c7cba" stroke-width="2" fill="none"/><path d="M740 633.8l-4.64-14.27h9.28z" fill="#0c7cba"/><path d="M740.73 634.8h-1.46L734 618.53h12zm-4-14.27l3.27 10.03 3.26-10.03z" fill="#0c7cba"/><path d="M540 789.6h400v74.8H540z" stroke="#0c7cba" stroke-width="2" fill="#fff"/><use xlink:href="#n" transform="matrix(1,0,0,1,545,794.6000000000001) translate(0 19.896484375)"/><use xlink:href="#o" transform="matrix(1,0,0,1,545,794.6000000000001) translate(32.4052734375 19.896484375)"/><use xlink:href="#p" transform="matrix(1,0,0,1,545,794.6000000000001) translate(54.0087890625 19.896484375)"/><use xlink:href="#q" transform="matrix(1,0,0,1,545,794.6000000000001) translate(280.845703125 19.896484375)"/><use xlink:href="#E" transform="matrix(1,0,0,1,545,794.6000000000001) translate(0 37.896484375)"/><use xlink:href="#F" transform="matrix(1,0,0,1,545,794.6000000000001) translate(0 55.896484375)"/><use xlink:href="#u" transform="matrix(1,0,0,1,545,794.6000000000001) translate(259.2421875 55.896484375)"/><use xlink:href="#G" transform="matrix(1,0,0,1,545,794.6000000000001) translate(291.6474609375 55.896484375)"/><path d="M540 944.4h400v40H540z" stroke="#0c7cba" stroke-width="2" fill="#fff"/><use xlink:href="#H" transform="matrix(1,0,0,1,545,949.4000000000001) translate(88.125 18.6)"/><use xlink:href="#j" transform="matrix(1,0,0,1,545,949.4000000000001) translate(171.925 18.6)"/><path d="M740 709.6v79" stroke="#0c7cba" stroke-width="2" fill="none"/><path d="M740 788.6l-4.64-14.27h9.28z" fill="#0c7cba"/><path d="M740.73 789.6h-1.46L734 773.33h12zm-4-14.27l3.27 10.03 3.26-10.03z" fill="#0c7cba"/><path d="M740 864.4v79" stroke="#0c7cba" stroke-width="2" fill="none"/><path d="M740 943.4l-4.64-14.27h9.28z" fill="#0c7cba"/><path d="M740.73 944.4h-1.46L734 928.13h12zm-4-14.27l3.27 10.03 3.26-10.03z" fill="#0c7cba"/><path d="M1520 40h760v1060h-760z" stroke="#999" stroke-width="2" fill="#fff"/><use xlink:href="#I" transform="matrix(1,0,0,1,1525,45) translate(0 19.555555555555557)"/><use xlink:href="#d" transform="matrix(1,0,0,1,1525,45) translate(111.29012345679013 19.555555555555557)"/><path d="M1000 260h400v60h-400z" stroke="#7ab648" stroke-width="2" fill="#fff"/><use xlink:href="#k" transform="matrix(1,0,0,1,1005,265) translate(95.025 28.6)"/><use xlink:href="#j" transform="matrix(1,0,0,1,1005,265) translate(165.025 28.6)"/><path d="M1000 400h400v60h-400z" stroke="#7ab648" stroke-width="2" fill="#fff"/><use xlink:href="#l" transform="matrix(1,0,0,1,1005,405) translate(0 30.396484375)"/><use xlink:href="#m" transform="matrix(1,0,0,1,1005,405) translate(43.20703125 30.396484375)"/><path d="M1000 536.4h400v82h-400z" stroke="#7ab648" stroke-width="2" fill="#fff"/><use xlink:href="#n" transform="matrix(1,0,0,1,1005,541.4) translate(0 14.396484375)"/><use xlink:href="#o" transform="matrix(1,0,0,1,1005,541.4) translate(32.4052734375 14.396484375)"/><use xlink:href="#p" transform="matrix(1,0,0,1,1005,541.4) translate(54.0087890625 14.396484375)"/><use xlink:href="#q" transform="matrix(1,0,0,1,1005,541.4) translate(280.845703125 14.396484375)"/><use xlink:href="#r" transform="matrix(1,0,0,1,1005,541.4) translate(0 32.396484375)"/><use xlink:href="#s" transform="matrix(1,0,0,1,1005,541.4) translate(75.6123046875 32.396484375)"/><use xlink:href="#t" transform="matrix(1,0,0,1,1005,541.4) translate(0 50.396484375)"/><use xlink:href="#u" transform="matrix(1,0,0,1,1005,541.4) translate(280.845703125 50.396484375)"/><use xlink:href="#J" transform="matrix(1,0,0,1,1005,541.4) translate(313.2509765625 50.396484375)"/><use xlink:href="#w" transform="matrix(1,0,0,1,1005,541.4) translate(0 68.396484375)"/><path d="M1000 694.8h400v74.8h-400z" stroke="#7ab648" stroke-width="2" fill="#fff"/><use xlink:href="#x" transform="matrix(1,0,0,1,1005,699.8000000000001) translate(0 28.896484375)"/><use xlink:href="#y" transform="matrix(1,0,0,1,1005,699.8000000000001) translate(205.2333984375 28.896484375)"/><use xlink:href="#z" transform="matrix(1,0,0,1,1005,699.8000000000001) translate(0 46.896484375)"/><use xlink:href="#A" transform="matrix(1,0,0,1,1005,699.8000000000001) translate(54.0087890625 46.896484375)"/><path d="M1000 849.6h400v74.8h-400z" stroke="#7ab648" stroke-width="2" fill="#fff"/><use xlink:href="#n" transform="matrix(1,0,0,1,1005,854.6000000000001) translate(0 19.896484375)"/><use xlink:href="#o" transform="matrix(1,0,0,1,1005,854.6000000000001) translate(32.4052734375 19.896484375)"/><use xlink:href="#p" transform="matrix(1,0,0,1,1005,854.6000000000001) translate(54.0087890625 19.896484375)"/><use xlink:href="#q" transform="matrix(1,0,0,1,1005,854.6000000000001) translate(280.845703125 19.896484375)"/><use xlink:href="#E" transform="matrix(1,0,0,1,1005,854.6000000000001) translate(0 37.896484375)"/><use xlink:href="#F" transform="matrix(1,0,0,1,1005,854.6000000000001) translate(0 55.896484375)"/><use xlink:href="#u" transform="matrix(1,0,0,1,1005,854.6000000000001) translate(259.2421875 55.896484375)"/><use xlink:href="#G" transform="matrix(1,0,0,1,1005,854.6000000000001) translate(291.6474609375 55.896484375)"/><path d="M1000 1004.4h400v40h-400z" stroke="#7ab648" stroke-width="2" fill="#fff"/><use xlink:href="#H" transform="matrix(1,0,0,1,1005,1009.4000000000001) translate(88.125 18.6)"/><use xlink:href="#j" transform="matrix(1,0,0,1,1005,1009.4000000000001) translate(171.925 18.6)"/><path d="M1200 320v80" stroke="#7ab648" stroke-width="2" fill="none"/><path d="M1200 400l-4.64-14.27h9.28z" fill="#7ab648"/><path d="M1201.05 400h-2.1l-4.96-15.27h12zm-4.3-13.27l3.25 10.03 3.26-10.03z" fill="#7ab648"/><path d="M1200 460v75.3" stroke="#7ab648" stroke-width="2" fill="none"/><path d="M1200 535.3l-4.64-14.26h9.28z" fill="#7ab648"/><path d="M1200.7 536.4h-1.4l-5.3-16.36h12zm-3.96-14.36l3.26 10.03 3.26-10.03z" fill="#7ab648"/><path d="M1200 618.4v75.4" stroke="#7ab648" stroke-width="2" fill="none"/><path d="M1200 693.8l-4.64-14.27h9.28z" fill="#7ab648"/><path d="M1200.73 694.8h-1.46l-5.28-16.27h12zm-4-14.27l3.27 10.03 3.26-10.03z" fill="#7ab648"/><path d="M1200 769.6v80" stroke="#7ab648" stroke-width="2" fill="none"/><path d="M1200 849.6l-4.64-14.27h9.28z" fill="#7ab648"/><path d="M1201.05 849.6h-2.1l-4.96-15.27h12zm-4.3-13.27l3.25 10.03 3.26-10.03z" fill="#7ab648"/><path d="M1200 924.4v79" stroke="#7ab648" stroke-width="2" fill="none"/><path d="M1200 1003.4l-4.64-14.27h9.28z" fill="#7ab648"/><path d="M1200.73 1004.4h-1.46l-5.28-16.27h12zm-4-14.27l3.27 10.03 3.26-10.03z" fill="#7ab648"/><path d="M1560 330h120v80c-20-13.33-32.5-13.33-40-13.33-12 0-28 13.33-40 13.33-7.5 0-20 0-40-13.33z" stroke="#0c7cba" stroke-width="2" fill="#fff"/><use xlink:href="#K" transform="matrix(1,0,0,1,1565,335) translate(28.049999999999997 14.4)"/><use xlink:href="#L" transform="matrix(1,0,0,1,1565,335) translate(9.549999999999997 36)"/><use xlink:href="#M" transform="matrix(1,0,0,1,1565,335) translate(15.524999999999999 57.6)"/><use xlink:href="#b" transform="matrix(1,0,0,1,1565,335) translate(84.475 57.6)"/><path d="M1720 390h120v80c-20-13.33-32.5-13.33-40-13.33-12 0-28 13.33-40 13.33-7.5 0-20 0-40-13.33z" stroke="#7ab648" stroke-width="2" fill="#fff"/><use xlink:href="#K" transform="matrix(1,0,0,1,1725,395) translate(28.049999999999997 14.4)"/><use xlink:href="#L" transform="matrix(1,0,0,1,1725,395) translate(9.549999999999997 36)"/><use xlink:href="#M" transform="matrix(1,0,0,1,1725,395) translate(15.524999999999999 57.6)"/><use xlink:href="#e" transform="matrix(1,0,0,1,1725,395) translate(84.475 57.6)"/><path d="M940 370h619" fill="none"/><path d="M940 370h9.83m9.82 0h19.65m9.83 0h19.65m9.82 0h19.65m9.83 0h19.65m9.83 0h19.65m9.83 0h19.65m9.83 0h19.66m9.82 0h19.65m9.83 0h19.65m9.84 0h19.65m9.8 0h19.66m9.83 0h19.64m9.83 0h19.65m9.82 0h19.65m9.82 0h19.65m9.82 0h19.64m9.83 0h19.65m9.83 0h19.65m9.82 0h19.65m9.83 0h19.65m9.82 0h9.83" stroke="#0c7cba" stroke-width="2" fill="none"/><path d="M1559 370l-14.27 4.64v-9.28z" fill="#0c7cba"/><path d="M1560 369.27v1.46l-16.27 5.28v-12zm-14.27 4l10.03-3.27-10.03-3.26z" fill="#0c7cba"/><path d="M1400 430h319" fill="none"/><path d="M1400 430h9.67m9.66 0h19.34m9.66 0h19.34m9.66 0h19.34m9.66 0h19.34m9.66 0h19.34m9.66 0h19.34m9.66 0h19.34m9.66 0h19.34m9.66 0h19.34m9.66 0h19.34m9.66 0h9.67" stroke="#7ab648" stroke-width="2" fill="none"/><path d="M1719 430l-14.27 4.64v-9.28z" fill="#7ab648"/><path d="M1720 429.27v1.46l-16.27 5.28v-12zm-14.27 4l10.03-3.27-10.03-3.26z" fill="#7ab648"/><path d="M1940 479h280v341h-280z" stroke="#000" stroke-width="2" fill="#fff"/><path d="M1968 479v341m-28-313h280" stroke="#000" stroke-width="2" fill="none"/><use xlink:href="#N" transform="matrix(1,0,0,1,1973,512) translate(0 14.396484375)"/><use xlink:href="#O" transform="matrix(1,0,0,1,1973,512) translate(108.017578125 14.396484375)"/><use xlink:href="#P" transform="matrix(1,0,0,1,1973,512) translate(0 32.396484375)"/><use xlink:href="#Q" transform="matrix(1,0,0,1,1973,512) translate(108.017578125 32.396484375)"/><use xlink:href="#R" transform="matrix(1,0,0,1,1973,512) translate(0 50.396484375)"/><use xlink:href="#S" transform="matrix(1,0,0,1,1973,512) translate(108.017578125 50.396484375)"/><use xlink:href="#T" transform="matrix(1,0,0,1,1973,512) translate(0 68.396484375)"/><use xlink:href="#U" transform="matrix(1,0,0,1,1973,512) translate(108.017578125 68.396484375)"/><use xlink:href="#V" transform="matrix(1,0,0,1,1973,512) translate(0 86.396484375)"/><use xlink:href="#W" transform="matrix(1,0,0,1,1973,512) translate(108.017578125 86.396484375)"/><use xlink:href="#X" transform="matrix(1,0,0,1,1973,512) translate(0 104.396484375)"/><use xlink:href="#Y" transform="matrix(1,0,0,1,1973,512) translate(108.017578125 104.396484375)"/><use xlink:href="#Z" transform="matrix(1,0,0,1,1973,512) translate(0 122.396484375)"/><use xlink:href="#aa" transform="matrix(1,0,0,1,1973,512) translate(108.017578125 122.396484375)"/><path d="M400 200v90h600" stroke="#7ab648" stroke-width="2" fill="none"/><path d="M1000 290l-14.27 4.64v-9.28z" fill="#7ab648"/><path d="M1000 288.95v2.1L984.73 296v-12zm-13.27 4.3l10.03-3.25-10.03-3.26z" fill="#7ab648"/><path fill="#fff" d="M476.27 268.4h183.55v43.2H476.27z"/><use xlink:href="#B" transform="matrix(1,0,0,1,476.27378048780486,268.4) translate(0 14.4)"/><use xlink:href="#C" transform="matrix(1,0,0,1,476.27378048780486,268.4) translate(53.6 14.4)"/><use xlink:href="#ab" transform="matrix(1,0,0,1,476.27378048780486,268.4) translate(0 36)"/><path d="M1680 995.33h-120V934c20 10.22 32.5 10.22 40 10.22 12 0 28-10.22 40-10.22 7.5 0 20 0 40 10.22z" stroke="#0c7cba" stroke-width="2" fill="#fff"/><use xlink:href="#ac" transform="matrix(1,0,0,1,1564.9999999999995,949.2222222222223) translate(15.599999999999994 14.4)"/><use xlink:href="#M" transform="matrix(1,0,0,1,1564.9999999999995,949.2222222222223) translate(15.524999999999999 36)"/><use xlink:href="#b" transform="matrix(1,0,0,1,1564.9999999999995,949.2222222222223) translate(84.475 36)"/><path d="M1840 1056h-120v-62.67c20 10.45 32.5 10.45 40 10.45 12 0 28-10.45 40-10.45 7.5 0 20 0 40 10.45z" stroke="#7ab648" stroke-width="2" fill="#fff"/><use xlink:href="#ac" transform="matrix(1,0,0,1,1724.9999999999995,1008.7777777777783) translate(15.599999999999994 14.4)"/><use xlink:href="#M" transform="matrix(1,0,0,1,1724.9999999999995,1008.7777777777783) translate(15.524999999999999 36)"/><use xlink:href="#b" transform="matrix(1,0,0,1,1724.9999999999995,1008.7777777777783) translate(84.475 36)"/><path d="M1620 403.1v247.4" fill="none"/><path d="M1621 403.1c0 .54-.45 1-1 1s-1-.46-1-1c0-.56.45-1 1-1s1 .44 1 1zm0 7.97c0 .55-.45 1-1 1s-1-.45-1-1 .45-1 1-1 1 .45 1 1zm0 7.98c0 .55-.45 1-1 1s-1-.45-1-1 .45-1 1-1 1 .45 1 1zm0 7.98c0 .56-.45 1-1 1s-1-.44-1-1c0-.55.45-1 1-1s1 .45 1 1zm0 7.98c0 .57-.45 1-1 1s-1-.43-1-1c0-.54.45-1 1-1s1 .46 1 1zm0 8c0 .55-.45 1-1 1s-1-.45-1-1c0-.56.45-1 1-1s1 .44 1 1zm0 7.98c0 .55-.45 1-1 1s-1-.45-1-1c0-.56.45-1 1-1s1 .44 1 1zm0 7.98c0 .55-.45 1-1 1s-1-.45-1-1 .45-1 1-1 1 .45 1 1zm0 7.98c0 .55-.45 1-1 1s-1-.45-1-1 .45-1 1-1 1 .45 1 1zm0 7.98c0 .55-.45 1-1 1s-1-.45-1-1 .45-1 1-1 1 .45 1 1zm0 7.98c0 .55-.45 1-1 1s-1-.45-1-1 .45-1 1-1 1 .45 1 1zm0 7.98c0 .55-.45 1-1 1s-1-.45-1-1 .45-1 1-1 1 .45 1 1zm0 7.98c0 .55-.45 1-1 1s-1-.45-1-1 .45-1 1-1 1 .45 1 1zm0 7.98c0 .56-.45 1-1 1s-1-.44-1-1c0-.55.45-1 1-1s1 .45 1 1zm0 7.98c0 .56-.45 1-1 1s-1-.44-1-1c0-.55.45-1 1-1s1 .45 1 1zm0 7.98c0 .56-.45 1-1 1s-1-.44-1-1c0-.55.45-1 1-1s1 .45 1 1zm0 8c0 .54-.45 1-1 1s-1-.46-1-1c0-.57.45-1 1-1s1 .43 1 1zm0 7.97c0 .55-.45 1-1 1s-1-.45-1-1c0-.56.45-1 1-1s1 .44 1 1zm0 7.98c0 .55-.45 1-1 1s-1-.45-1-1 .45-1 1-1 1 .45 1 1zm0 7.98c0 .55-.45 1-1 1s-1-.45-1-1 .45-1 1-1 1 .45 1 1zm0 7.98c0 .56-.45 1-1 1s-1-.44-1-1c0-.54.45-1 1-1s1 .46 1 1zm0 8c0 .54-.45 1-1 1s-1-.46-1-1c0-.56.45-1 1-1s1 .44 1 1zm0 7.97c0 .55-.45 1-1 1s-1-.45-1-1 .45-1 1-1 1 .45 1 1zm0 7.98c0 .55-.45 1-1 1s-1-.45-1-1 .45-1 1-1 1 .45 1 1zm0 7.98c0 .56-.45 1-1 1s-1-.44-1-1c0-.55.45-1 1-1s1 .45 1 1zm0 7.98c0 .57-.45 1-1 1s-1-.43-1-1c0-.54.45-1 1-1s1 .46 1 1zm0 8c0 .55-.45 1-1 1s-1-.45-1-1c0-.56.45-1 1-1s1 .44 1 1zm0 7.98c0 .55-.45 1-1 1s-1-.45-1-1c0-.56.45-1 1-1s1 .44 1 1zm0 7.98c0 .55-.45 1-1 1s-1-.45-1-1c0-.56.45-1 1-1s1 .44 1 1zm0 7.98c0 .55-.45 1-1 1s-1-.45-1-1 .45-1 1-1 1 .45 1 1zm0 7.98c0 .55-.45 1-1 1s-1-.45-1-1 .45-1 1-1 1 .45 1 1z" fill="#0c7cba"/><path d="M1621 403.1h-1l1-.43z" fill="#0c7cba"/><path d="M1620 693.5v245.7" fill="none"/><path d="M1621 693.5c0 .55-.45 1-1 1s-1-.45-1-1 .45-1 1-1 1 .45 1 1zm0 7.93c0 .55-.45 1-1 1s-1-.45-1-1c0-.56.45-1 1-1s1 .44 1 1zm0 7.92c0 .55-.45 1-1 1s-1-.45-1-1 .45-1 1-1 1 .45 1 1zm0 7.93c0 .55-.45 1-1 1s-1-.45-1-1 .45-1 1-1 1 .45 1 1zm0 7.92c0 .56-.45 1-1 1s-1-.44-1-1c0-.55.45-1 1-1s1 .45 1 1zm0 7.93c0 .55-.45 1-1 1s-1-.45-1-1 .45-1 1-1 1 .45 1 1zm0 7.93c0 .55-.45 1-1 1s-1-.45-1-1 .45-1 1-1 1 .45 1 1zm0 7.92c0 .56-.45 1-1 1s-1-.44-1-1c0-.55.45-1 1-1s1 .45 1 1zm0 7.93c0 .56-.45 1-1 1s-1-.44-1-1c0-.54.45-1 1-1s1 .46 1 1zm0 7.94c0 .55-.45 1-1 1s-1-.45-1-1c0-.56.45-1 1-1s1 .44 1 1zm0 7.92c0 .55-.45 1-1 1s-1-.45-1-1 .45-1 1-1 1 .45 1 1zm0 7.93c0 .54-.45 1-1 1s-1-.46-1-1c0-.56.45-1 1-1s1 .44 1 1zm0 7.9c0 .57-.45 1-1 1s-1-.43-1-1c0-.54.45-1 1-1s1 .46 1 1zm0 7.94c0 .55-.45 1-1 1s-1-.45-1-1 .45-1 1-1 1 .45 1 1zm0 7.93c0 .55-.45 1-1 1s-1-.45-1-1 .45-1 1-1 1 .45 1 1zm0 7.92c0 .55-.45 1-1 1s-1-.45-1-1c0-.56.45-1 1-1s1 .44 1 1zm0 7.92c0 .55-.45 1-1 1s-1-.45-1-1 .45-1 1-1 1 .45 1 1zm0 7.93c0 .55-.45 1-1 1s-1-.45-1-1c0-.56.45-1 1-1s1 .44 1 1zm0 7.92c0 .55-.45 1-1 1s-1-.45-1-1 .45-1 1-1 1 .45 1 1zm0 7.93c0 .55-.45 1-1 1s-1-.45-1-1 .45-1 1-1 1 .45 1 1zm0 7.92c0 .56-.45 1-1 1s-1-.44-1-1c0-.55.45-1 1-1s1 .45 1 1zm0 7.93c0 .55-.45 1-1 1s-1-.45-1-1 .45-1 1-1 1 .45 1 1zm0 7.93c0 .55-.45 1-1 1s-1-.45-1-1c0-.56.45-1 1-1s1 .44 1 1zm0 7.92c0 .56-.45 1-1 1s-1-.44-1-1c0-.55.45-1 1-1s1 .45 1 1zm0 7.93c0 .55-.45 1-1 1s-1-.45-1-1 .45-1 1-1 1 .45 1 1zm0 7.93c0 .55-.45 1-1 1s-1-.45-1-1c0-.56.45-1 1-1s1 .44 1 1zm0 7.92c0 .55-.45 1-1 1s-1-.45-1-1 .45-1 1-1 1 .45 1 1zm0 7.93c0 .56-.45 1-1 1s-1-.44-1-1c0-.54.45-1 1-1s1 .46 1 1zm0 7.93c0 .56-.45 1-1 1s-1-.44-1-1c0-.55.45-1 1-1s1 .45 1 1zm0 7.93c0 .55-.45 1-1 1s-1-.45-1-1 .45-1 1-1 1 .45 1 1zm0 7.93c0 .54-.45 1-1 1s-1-.46-1-1c0-.57.45-1 1-1s1 .43 1 1zM1619 939.7v-.5h1.56z" fill="#0c7cba"/><path d="M940 964.4h310v.27h310" fill="none"/><path d="M940 964.4h9.85m9.84 0h19.68m9.85 0h19.7m9.83 0h19.7m9.84 0h19.7m9.84 0h19.7m9.83 0h19.7m9.84 0h19.7m9.85 0h19.7m9.83 0h19.7m9.84 0h19.7m9.57.27h19.68m9.85 0h19.7m9.83 0h19.7m9.84 0h19.7m9.84 0h19.7m9.83 0h19.7m9.84 0h19.7m9.84 0h19.7m9.84 0h19.7m9.84 0h19.7m9.83 0h9.85" stroke="#0c7cba" stroke-width="2" fill="none"/><path d="M1560 964.67l-14.27 4.63v-9.27z" fill="#0c7cba"/><path d="M1560 963.62v2.1l-15.27 4.96v-12.03zm-13.27 4.3l10.03-3.25-10.03-3.26z" fill="#0c7cba"/><path d="M1400 1024.4h160v.27h160" fill="none"/><path d="M1400 1024.4h9.7m9.7 0h19.42m9.7 0h19.42m9.7 0h19.4m9.72 0h19.4m9.7 0h19.42m9.44.27h19.4m9.7 0h19.42m9.7 0h19.42m9.7 0h19.4m9.72 0h19.4m9.7 0h9.72" stroke="#7ab648" stroke-width="2" fill="none"/><path d="M1720 1024.67l-14.27 4.63v-9.27z" fill="#7ab648"/><path d="M1720 1023.62v2.1l-15.27 4.96v-12.03zm-13.27 4.3l10.03-3.25-10.03-3.26z" fill="#7ab648"/><path d="M1780 463.1v535.56" fill="none"/><path d="M1781 463.1c0 .54-.45 1-1 1s-1-.46-1-1c0-.56.45-1 1-1s1 .44 1 1zm0 7.98c0 .56-.45 1-1 1s-1-.44-1-1c0-.55.45-1 1-1s1 .45 1 1zm0 8c0 .55-.45 1-1 1s-1-.45-1-1 .45-1 1-1 1 .45 1 1zm0 8c0 .54-.45 1-1 1s-1-.46-1-1c0-.56.45-1 1-1s1 .44 1 1zm0 8c0 .54-.45 1-1 1s-1-.46-1-1c0-.57.45-1 1-1s1 .43 1 1zm0 7.98c0 .55-.45 1-1 1s-1-.45-1-1 .45-1 1-1 1 .45 1 1zm0 8c0 .54-.45 1-1 1s-1-.46-1-1c0-.56.45-1 1-1s1 .44 1 1zm0 8c0 .54-.45 1-1 1s-1-.46-1-1c0-.57.45-1 1-1s1 .43 1 1zm0 7.98c0 .55-.45 1-1 1s-1-.45-1-1 .45-1 1-1 1 .45 1 1zm0 8c0 .55-.45 1-1 1s-1-.45-1-1c0-.56.45-1 1-1s1 .44 1 1zm0 8c0 .54-.45 1-1 1s-1-.46-1-1c0-.57.45-1 1-1s1 .43 1 1zm0 7.98c0 .55-.45 1-1 1s-1-.45-1-1 .45-1 1-1 1 .45 1 1zm0 8c0 .55-.45 1-1 1s-1-.45-1-1c0-.56.45-1 1-1s1 .44 1 1zm0 8c0 .54-.45 1-1 1s-1-.46-1-1c0-.57.45-1 1-1s1 .43 1 1zm0 7.98c0 .55-.45 1-1 1s-1-.45-1-1 .45-1 1-1 1 .45 1 1zm0 8c0 .55-.45 1-1 1s-1-.45-1-1c0-.56.45-1 1-1s1 .44 1 1zm0 8c0 .54-.45 1-1 1s-1-.46-1-1c0-.56.45-1 1-1s1 .44 1 1zm0 7.98c0 .55-.45 1-1 1s-1-.45-1-1 .45-1 1-1 1 .45 1 1zm0 8c0 .55-.45 1-1 1s-1-.45-1-1c0-.56.45-1 1-1s1 .44 1 1zm0 8c0 .54-.45 1-1 1s-1-.46-1-1c0-.56.45-1 1-1s1 .44 1 1zm0 7.98c0 .55-.45 1-1 1s-1-.45-1-1 .45-1 1-1 1 .45 1 1zm0 8c0 .55-.45 1-1 1s-1-.45-1-1c0-.56.45-1 1-1s1 .44 1 1zm0 8c0 .54-.45 1-1 1s-1-.46-1-1c0-.56.45-1 1-1s1 .44 1 1zm0 7.98c0 .56-.45 1-1 1s-1-.44-1-1c0-.55.45-1 1-1s1 .45 1 1zm0 8c0 .55-.45 1-1 1s-1-.45-1-1c0-.56.45-1 1-1s1 .44 1 1zm0 8c0 .54-.45 1-1 1s-1-.46-1-1c0-.56.45-1 1-1s1 .44 1 1zm0 7.98c0 .56-.45 1-1 1s-1-.44-1-1c0-.55.45-1 1-1s1 .45 1 1zm0 8c0 .55-.45 1-1 1s-1-.45-1-1c0-.56.45-1 1-1s1 .44 1 1zm0 8c0 .54-.45 1-1 1s-1-.46-1-1c0-.56.45-1 1-1s1 .44 1 1zm0 7.98c0 .56-.45 1-1 1s-1-.44-1-1c0-.55.45-1 1-1s1 .45 1 1zm0 8c0 .55-.45 1-1 1s-1-.45-1-1 .45-1 1-1 1 .45 1 1zm0 8c0 .54-.45 1-1 1s-1-.46-1-1c0-.56.45-1 1-1s1 .44 1 1zm0 8c0 .54-.45 1-1 1s-1-.46-1-1c0-.57.45-1 1-1s1 .43 1 1zm0 7.98c0 .55-.45 1-1 1s-1-.45-1-1 .45-1 1-1 1 .45 1 1zm0 8c0 .54-.45 1-1 1s-1-.46-1-1c0-.56.45-1 1-1s1 .44 1 1zm0 8c0 .54-.45 1-1 1s-1-.46-1-1c0-.57.45-1 1-1s1 .43 1 1zm0 7.98c0 .55-.45 1-1 1s-1-.45-1-1 .45-1 1-1 1 .45 1 1zm0 8c0 .55-.45 1-1 1s-1-.45-1-1c0-.56.45-1 1-1s1 .44 1 1zm0 8c0 .54-.45 1-1 1s-1-.46-1-1c0-.57.45-1 1-1s1 .43 1 1zm0 7.98c0 .55-.45 1-1 1s-1-.45-1-1 .45-1 1-1 1 .45 1 1zm0 8c0 .55-.45 1-1 1s-1-.45-1-1c0-.56.45-1 1-1s1 .44 1 1zm0 8c0 .54-.45 1-1 1s-1-.46-1-1c0-.57.45-1 1-1s1 .43 1 1zm0 7.98c0 .55-.45 1-1 1s-1-.45-1-1 .45-1 1-1 1 .45 1 1zm0 8c0 .55-.45 1-1 1s-1-.45-1-1c0-.56.45-1 1-1s1 .44 1 1zm0 8c0 .54-.45 1-1 1s-1-.46-1-1c0-.56.45-1 1-1s1 .44 1 1zm0 7.98c0 .55-.45 1-1 1s-1-.45-1-1 .45-1 1-1 1 .45 1 1zm0 8c0 .55-.45 1-1 1s-1-.45-1-1c0-.56.45-1 1-1s1 .44 1 1zm0 8c0 .54-.45 1-1 1s-1-.46-1-1c0-.56.45-1 1-1s1 .44 1 1zm0 7.98c0 .55-.45 1-1 1s-1-.45-1-1 .45-1 1-1 1 .45 1 1zm0 8c0 .55-.45 1-1 1s-1-.45-1-1c0-.56.45-1 1-1s1 .44 1 1zm0 8c0 .54-.45 1-1 1s-1-.46-1-1c0-.56.45-1 1-1s1 .44 1 1zm0 7.98c0 .56-.45 1-1 1s-1-.44-1-1c0-.55.45-1 1-1s1 .45 1 1zm0 8c0 .55-.45 1-1 1s-1-.45-1-1c0-.56.45-1 1-1s1 .44 1 1zm0 8c0 .54-.45 1-1 1s-1-.46-1-1c0-.56.45-1 1-1s1 .44 1 1zm0 7.98c0 .56-.45 1-1 1s-1-.44-1-1c0-.55.45-1 1-1s1 .45 1 1zm0 8c0 .55-.45 1-1 1s-1-.45-1-1c0-.56.45-1 1-1s1 .44 1 1zm0 8c0 .54-.45 1-1 1s-1-.46-1-1c0-.56.45-1 1-1s1 .44 1 1zm0 7.98c0 .56-.45 1-1 1s-1-.44-1-1c0-.55.45-1 1-1s1 .45 1 1zm0 8c0 .55-.45 1-1 1s-1-.45-1-1 .45-1 1-1 1 .45 1 1zm0 8c0 .54-.45 1-1 1s-1-.46-1-1c0-.56.45-1 1-1s1 .44 1 1zm0 8c0 .54-.45 1-1 1s-1-.46-1-1c0-.57.45-1 1-1s1 .43 1 1zm0 7.98c0 .55-.45 1-1 1s-1-.45-1-1 .45-1 1-1 1 .45 1 1zm0 8c0 .54-.45 1-1 1s-1-.46-1-1c0-.56.45-1 1-1s1 .44 1 1zm0 8c0 .54-.45 1-1 1s-1-.46-1-1c0-.57.45-1 1-1s1 .43 1 1zm0 7.98c0 .55-.45 1-1 1s-1-.45-1-1 .45-1 1-1 1 .45 1 1zm0 8c0 .55-.45 1-1 1s-1-.45-1-1c0-.56.45-1 1-1s1 .44 1 1zm0 8c0 .54-.45 1-1 1s-1-.46-1-1c0-.57.45-1 1-1s1 .43 1 1zm0 7.98c0 .55-.45 1-1 1s-1-.45-1-1 .45-1 1-1 1 .45 1 1z" fill="#7ab648"/><path d="M1781 463.1h-1l1-.43zM1779 999.14v-.48h1.55z" fill="#7ab648"/><path d="M940 517.4h310v2.6h310" stroke="#0c7cba" stroke-width="2" fill="none"/><path d="M1560 520l-14.27 4.64v-9.28z" fill="#0c7cba"/><path d="M1560 518.95v2.1l-15.27 4.96v-12zm-13.27 4.3l10.03-3.25-10.03-3.26z" fill="#0c7cba"/><path fill="#fff" d="M1232.53 509.2h142.7v21.6h-142.7z"/><g><use xlink:href="#ad" transform="matrix(1,0,0,1,1232.5254230118444,509.2) translate(0 14.4)"/><use xlink:href="#ae" transform="matrix(1,0,0,1,1232.5254230118444,509.2) translate(75.15 14.4)"/><use xlink:href="#af" transform="matrix(1,0,0,1,1232.5254230118444,509.2) translate(122.70000000000002 14.4)"/></g><path d="M1560 500h120v40h-120z" stroke="#0c7cba" stroke-width="2" fill="#fff"/><g><use xlink:href="#ag" transform="matrix(1,0,0,1,1565,505) translate(14.25 18.6)"/><use xlink:href="#ah" transform="matrix(1,0,0,1,1565,505) translate(60.75 18.6)"/></g><path d="M1720 557h120v43h-120z" stroke="#7ab648" stroke-width="2" fill="#fff"/><g><use xlink:href="#ag" transform="matrix(1,0,0,1,1725,562) translate(14.25 20.1)"/><use xlink:href="#ah" transform="matrix(1,0,0,1,1725,562) translate(60.75 20.1)"/></g><path d="M1400 577.4h160v1.1h160" stroke="#7ab648" stroke-width="2" fill="none"/><path d="M1720 578.5l-14.27 4.64v-9.28z" fill="#7ab648"/><path d="M1720 577.45v2.1l-15.27 4.96v-12zm-13.27 4.3l10.03-3.25-10.03-3.26z" fill="#7ab648"/><path fill="#fff" d="M1526.2 567.7h142.7v21.6h-142.7z"/><g><use xlink:href="#ad" transform="matrix(1,0,0,1,1526.1966101694916,567.7) translate(0 14.4)"/><use xlink:href="#ae" transform="matrix(1,0,0,1,1526.1966101694916,567.7) translate(75.15 14.4)"/><use xlink:href="#af" transform="matrix(1,0,0,1,1526.1966101694916,567.7) translate(122.70000000000002 14.4)"/></g><path d="M1680 520h259" stroke="#0c7cba" stroke-width="2" fill="none"/><path d="M1939 520l-14.27 4.64v-9.28z" fill="#0c7cba"/><path d="M1940 519.27v1.46l-16.27 5.28v-12zm-14.27 4l10.03-3.27-10.03-3.26z" fill="#0c7cba"/><path fill="#fff" d="M1729.9 509h49v22h-49z"/><g><use xlink:href="#ai" transform="matrix(1,0,0,1,1729.8899868247695,509) translate(0.1 14.8)"/></g><path d="M1841.2 581.73h97.8" stroke="#7ab648" stroke-width="2" fill="none"/><path d="M1841.2 582.73h-1.2v-2h1.2zM1939 581.73l-14.27 4.63v-9.27z" fill="#7ab648"/><path d="M1940 581v1.45l-16.27 5.3V575.7zm-14.27 3.98l10.03-3.25-10.03-3.26z" fill="#7ab648"/><path fill="#fff" d="M1855.92 570.93h50v21.6h-50z"/><g><use xlink:href="#aj" transform="matrix(1,0,0,1,1855.915736040609,570.9250000000001) translate(0 14.4)"/></g><path d="M940 672.2h310v-.2h310" stroke="#0c7cba" stroke-width="2" fill="none"/><path d="M1560 672l-14.27 4.64v-9.28z" fill="#0c7cba"/><path d="M1560 670.95v2.1l-15.27 4.96v-12zm-13.27 4.3l10.03-3.25-10.03-3.26z" fill="#0c7cba"/><path d="M1560 650.5h120v43h-120z" stroke="#0c7cba" stroke-width="2" fill="#fff"/><g><use xlink:href="#ak" transform="matrix(1,0,0,1,1565,655.5) translate(13.524999999999999 20.1)"/><use xlink:href="#ah" transform="matrix(1,0,0,1,1565,655.5) translate(61.475 20.1)"/></g><path d="M1720 710.5h120v43h-120z" stroke="#7ab648" stroke-width="2" fill="#fff"/><g><use xlink:href="#ak" transform="matrix(1,0,0,1,1725,715.5) translate(13.524999999999999 20.1)"/><use xlink:href="#ah" transform="matrix(1,0,0,1,1725,715.5) translate(61.475 20.1)"/></g><path d="M1400 732.2h160v-.2h160" stroke="#7ab648" stroke-width="2" fill="none"/><path d="M1720 732l-14.27 4.64v-9.28z" fill="#7ab648"/><path d="M1720 730.95v2.1l-15.27 4.96v-12zm-13.27 4.3l10.03-3.25-10.03-3.26z" fill="#7ab648"/><path d="M1939 672h-259" stroke="#0c7cba" stroke-width="2" fill="none"/><path d="M1940 673h-1v-2h1zM1694.27 676.64L1680 672l14.27-4.64z" fill="#0c7cba"/><path d="M1695.27 678l-15.27-4.95v-2.1l15.27-4.96zm-12.03-6l10.03 3.26v-6.52z" fill="#0c7cba"/><path fill="#fff" d="M1841 661.2h30v21.6h-30z"/><g><use xlink:href="#al" transform="matrix(1,0,0,1,1841,661.2) translate(0 14.4)"/><use xlink:href="#am" transform="matrix(1,0,0,1,1841,661.2) translate(5 14.4)"/></g><path d="M1939 732h-99" stroke="#7ab648" stroke-width="2" fill="none"/><path d="M1940 733h-1v-2h1zM1854.27 736.64L1840 732l14.27-4.64z" fill="#7ab648"/><path d="M1855.27 738l-15.27-4.95v-2.1l15.27-4.96zm-12.03-6l10.03 3.26v-6.52z" fill="#7ab648"/><path fill="#fff" d="M1874.5 721.2h30v21.6h-30z"/><g><use xlink:href="#an" transform="matrix(1,0,0,1,1874.5,721.2) translate(0 14.4)"/><use xlink:href="#ao" transform="matrix(1,0,0,1,1874.5,721.2) translate(5 14.4)"/></g><path d="M1780 463.1V557" stroke="#7ab648" stroke-width="2" fill="none"/><path d="M1781 463.1h-1l1-.43zM1780 557l-4.64-14.27h9.28z" fill="#7ab648"/><path d="M1781.05 557h-2.1l-4.96-15.27h12zm-4.3-13.27l3.25 10.03 3.26-10.03z" fill="#7ab648"/><path d="M80 935h160v60H80z" stroke="#0c7cba" stroke-width="2" fill="#fff"/><g><use xlink:href="#ap" transform="matrix(1,0,0,1,85,940) translate(22.074999999999996 28.6)"/><use xlink:href="#aq" transform="matrix(1,0,0,1,85,940) translate(85.92500000000001 28.6)"/></g><path d="M540 964.4H390v.6H240" stroke="#0c7cba" stroke-width="2" fill="none"/><path d="M254.27 969.64L240 965l14.27-4.64z" fill="#0c7cba"/><path d="M255.27 971L240 966.06v-2.1l15.27-4.96zm-12.03-6l10.03 3.26v-6.52z" fill="#0c7cba"/><path fill="#fff" d="M284.96 954.2H461.7v21.6H284.97z"/><g><use xlink:href="#an" transform="matrix(1,0,0,1,284.9583333333333,954.2) translate(0 14.4)"/><use xlink:href="#ar" transform="matrix(1,0,0,1,284.9583333333333,954.2) translate(5 14.4)"/><use xlink:href="#as" transform="matrix(1,0,0,1,284.9583333333333,954.2) translate(112.35000000000001 14.4)"/></g><path d="M320 995h160v60H320z" stroke="#7ab648" stroke-width="2" fill="#fff"/><g><use xlink:href="#ap" transform="matrix(1,0,0,1,325,1000) translate(22.074999999999996 28.6)"/><use xlink:href="#aq" transform="matrix(1,0,0,1,325,1000) translate(85.92500000000001 28.6)"/></g><path d="M1000 1024.4H740v.6H480" stroke="#7ab648" stroke-width="2" fill="none"/><path d="M494.27 1029.64L480 1025l14.27-4.64z" fill="#7ab648"/><path d="M495.27 1031l-15.27-4.95v-2.1l15.27-4.96zm-12.03-6l10.03 3.26v-6.52z" fill="#7ab648"/><path fill="#fff" d="M594.3 1014.2h176.74v21.6H594.3z"/><g><use xlink:href="#an" transform="matrix(1,0,0,1,594.2916666666666,1014.2) translate(0 14.4)"/><use xlink:href="#ar" transform="matrix(1,0,0,1,594.2916666666666,1014.2) translate(5 14.4)"/><use xlink:href="#as" transform="matrix(1,0,0,1,594.2916666666666,1014.2) translate(112.35000000000001 14.4)"/></g><defs><path d="M212-179c-10-28-35-45-73-45-59 0-87 40-87 99 0 60 29 101 89 101 43 0 62-24 78-52l27 14C228-24 195 4 139 4 59 4 22-46 18-125c-6-104 99-153 187-111 19 9 31 26 39 46" id="at"/><path d="M24 0v-261h32V0H24" id="au"/><path d="M24-231v-30h32v30H24zM24 0v-190h32V0H24" id="av"/><path d="M100-194c63 0 86 42 84 106H49c0 40 14 67 53 68 26 1 43-12 49-29l28 8c-11 28-37 45-77 45C44 4 14-33 15-96c1-61 26-98 85-98zm52 81c6-60-76-77-97-28-3 7-6 17-6 28h103" id="aw"/><path d="M117-194c89-4 53 116 60 194h-32v-121c0-31-8-49-39-48C34-167 62-67 57 0H25l-1-190h30c1 10-1 24 2 32 11-22 29-35 61-36" id="ax"/><path d="M59-47c-2 24 18 29 38 22v24C64 9 27 4 27-40v-127H5v-23h24l9-43h21v43h35v23H59v120" id="ay"/><g id="a"><use transform="matrix(0.05,0,0,0.05,0,0)" xlink:href="#at"/><use transform="matrix(0.05,0,0,0.05,12.950000000000001,0)" xlink:href="#au"/><use transform="matrix(0.05,0,0,0.05,16.900000000000002,0)" xlink:href="#av"/><use transform="matrix(0.05,0,0,0.05,20.85,0)" xlink:href="#aw"/><use transform="matrix(0.05,0,0,0.05,30.85,0)" xlink:href="#ax"/><use transform="matrix(0.05,0,0,0.05,40.85,0)" xlink:href="#ay"/></g><path d="M27 0v-27h64v-190l-56 39v-29l58-41h29v221h61V0H27" id="az"/><use transform="matrix(0.05,0,0,0.05,0,0)" xlink:href="#az" id="b"/><path d="M266 0h-40l-56-210L115 0H75L2-248h35L96-30l15-64 43-154h32l59 218 59-218h35" id="aA"/><path d="M115-194c53 0 69 39 70 98 0 66-23 100-70 100C84 3 66-7 56-30L54 0H23l1-261h32v101c10-23 28-34 59-34zm-8 174c40 0 45-34 45-75 0-40-5-75-45-74-42 0-51 32-51 76 0 43 10 73 51 73" id="aB"/><g id="c"><use transform="matrix(0.06790123456790123,0,0,0.06790123456790123,0,0)" xlink:href="#aA"/><use transform="matrix(0.06790123456790123,0,0,0.06790123456790123,22.543209876543205,0)" xlink:href="#aw"/><use transform="matrix(0.06790123456790123,0,0,0.06790123456790123,36.123456790123456,0)" xlink:href="#aB"/></g><path d="M185-189c-5-48-123-54-124 2 14 75 158 14 163 119 3 78-121 87-175 55-17-10-28-26-33-46l33-7c5 56 141 63 141-1 0-78-155-14-162-118-5-82 145-84 179-34 5 7 8 16 11 25" id="aC"/><path d="M114-163C36-179 61-72 57 0H25l-1-190h30c1 12-1 29 2 39 6-27 23-49 58-41v29" id="aD"/><path d="M108 0H70L1-190h34L89-25l56-165h34" id="aE"/><g id="d"><use transform="matrix(0.06790123456790123,0,0,0.06790123456790123,0,0)" xlink:href="#aC"/><use transform="matrix(0.06790123456790123,0,0,0.06790123456790123,16.296296296296294,0)" xlink:href="#aw"/><use transform="matrix(0.06790123456790123,0,0,0.06790123456790123,29.87654320987654,0)" xlink:href="#aD"/><use transform="matrix(0.06790123456790123,0,0,0.06790123456790123,37.95679012345679,0)" xlink:href="#aE"/><use transform="matrix(0.06790123456790123,0,0,0.06790123456790123,50.179012345679,0)" xlink:href="#aw"/><use transform="matrix(0.06790123456790123,0,0,0.06790123456790123,63.75925925925925,0)" xlink:href="#aD"/></g><path d="M101-251c82-7 93 87 43 132L82-64C71-53 59-42 53-27h129V0H18c2-99 128-94 128-182 0-28-16-43-45-43s-46 15-49 41l-32-3c6-41 34-60 81-64" id="aF"/><use transform="matrix(0.05,0,0,0.05,0,0)" xlink:href="#aF" id="e"/><path d="M127-220V0H93v-220H8v-28h204v28h-85" id="aG"/><path d="M210-169c-67 3-38 105-44 169h-31v-121c0-29-5-50-35-48C34-165 62-65 56 0H25l-1-190h30c1 10-1 24 2 32 10-44 99-50 107 0 11-21 27-35 58-36 85-2 47 119 55 194h-31v-121c0-29-5-49-35-48" id="aH"/><g id="f"><use transform="matrix(0.05,0,0,0.05,0,0)" xlink:href="#aG"/><use transform="matrix(0.05,0,0,0.05,10.3,0)" xlink:href="#av"/><use transform="matrix(0.05,0,0,0.05,14.25,0)" xlink:href="#aH"/><use transform="matrix(0.05,0,0,0.05,29.200000000000003,0)" xlink:href="#aw"/></g><path d="M84 4C-5 8 30-112 23-190h32v120c0 31 7 50 39 49 72-2 45-101 50-169h31l1 190h-30c-1-10 1-25-2-33-11 22-28 36-60 37" id="aI"/><g id="g"><use transform="matrix(0.05,0,0,0.05,0,0)" xlink:href="#aC"/><use transform="matrix(0.05,0,0,0.05,12,0)" xlink:href="#aI"/><use transform="matrix(0.05,0,0,0.05,22,0)" xlink:href="#aB"/><use transform="matrix(0.05,0,0,0.05,32,0)" xlink:href="#aH"/><use transform="matrix(0.05,0,0,0.05,46.95,0)" xlink:href="#av"/><use transform="matrix(0.05,0,0,0.05,50.900000000000006,0)" xlink:href="#ay"/></g><path d="M101-234c-31-9-42 10-38 44h38v23H63V0H32v-167H5v-23h27c-7-52 17-82 69-68v24" id="aJ"/><path d="M100-194c62-1 85 37 85 99 1 63-27 99-86 99S16-35 15-95c0-66 28-99 85-99zM99-20c44 1 53-31 53-75 0-43-8-75-51-75s-53 32-53 75 10 74 51 75" id="aK"/><g id="h"><use transform="matrix(0.05,0,0,0.05,0,0)" xlink:href="#aJ"/><use transform="matrix(0.05,0,0,0.05,5,0)" xlink:href="#aK"/><use transform="matrix(0.05,0,0,0.05,15,0)" xlink:href="#aD"/><use transform="matrix(0.05,0,0,0.05,20.95,0)" xlink:href="#aH"/></g><path d="M33-154v-36h34v36H33zM33 0v-36h34V0H33" id="aL"/><g id="i"><use transform="matrix(0.05,0,0,0.05,0,0)" xlink:href="#ay"/><use transform="matrix(0.05,0,0,0.05,5,0)" xlink:href="#aK"/><use transform="matrix(0.05,0,0,0.05,15,0)" xlink:href="#aL"/></g><path d="M115-194c55 1 70 41 70 98S169 2 115 4C84 4 66-9 55-30l1 105H24l-1-265h31l2 30c10-21 28-34 59-34zm-8 174c40 0 45-34 45-75s-6-73-45-74c-42 0-51 32-51 76 0 43 10 73 51 73" id="aM"/><path d="M135-143c-3-34-86-38-87 0 15 53 115 12 119 90S17 21 10-45l28-5c4 36 97 45 98 0-10-56-113-15-118-90-4-57 82-63 122-42 12 7 21 19 24 35" id="aN"/><path d="M-5 72V49h209v23H-5" id="aO"/><path d="M141-36C126-15 110 5 73 4 37 3 15-17 15-53c-1-64 63-63 125-63 3-35-9-54-41-54-24 1-41 7-42 31l-33-3c5-37 33-52 76-52 45 0 72 20 72 64v82c-1 20 7 32 28 27v20c-31 9-61-2-59-35zM48-53c0 20 12 33 32 33 41-3 63-29 60-74-43 2-92-5-92 41" id="aP"/><path d="M85-194c31 0 48 13 60 33l-1-100h32l1 261h-30c-2-10 0-23-3-31C134-8 116 4 85 4 32 4 16-35 15-94c0-66 23-100 70-100zm9 24c-40 0-46 34-46 75 0 40 6 74 45 74 42 0 51-32 51-76 0-42-9-74-50-73" id="aQ"/><path d="M33 0v-38h34V0H33" id="aR"/><path d="M106-169C34-169 62-67 57 0H25v-261h32l-1 103c12-21 28-36 61-36 89 0 53 116 60 194h-32v-121c2-32-8-49-39-48" id="aS"/><g id="j"><use transform="matrix(0.05,0,0,0.05,0,0)" xlink:href="#aM"/><use transform="matrix(0.05,0,0,0.05,10,0)" xlink:href="#aw"/><use transform="matrix(0.05,0,0,0.05,20,0)" xlink:href="#aD"/><use transform="matrix(0.05,0,0,0.05,25.950000000000003,0)" xlink:href="#aN"/><use transform="matrix(0.05,0,0,0.05,34.95,0)" xlink:href="#aK"/><use transform="matrix(0.05,0,0,0.05,44.95,0)" xlink:href="#ax"/><use transform="matrix(0.05,0,0,0.05,54.95,0)" xlink:href="#aO"/><use transform="matrix(0.05,0,0,0.05,64.95,0)" xlink:href="#aP"/><use transform="matrix(0.05,0,0,0.05,74.95,0)" xlink:href="#aQ"/><use transform="matrix(0.05,0,0,0.05,84.95,0)" xlink:href="#aQ"/><use transform="matrix(0.05,0,0,0.05,94.95,0)" xlink:href="#aR"/><use transform="matrix(0.05,0,0,0.05,99.95,0)" xlink:href="#aM"/><use transform="matrix(0.05,0,0,0.05,109.95,0)" xlink:href="#aS"/><use transform="matrix(0.05,0,0,0.05,119.95,0)" xlink:href="#aM"/></g><path d="M30 0v-248h187v28H63v79h144v27H63v87h162V0H30" id="aT"/><path d="M141 0L90-78 38 0H4l68-98-65-92h35l48 74 47-74h35l-64 92 68 98h-35" id="aU"/><path d="M96-169c-40 0-48 33-48 73s9 75 48 75c24 0 41-14 43-38l32 2c-6 37-31 61-74 61-59 0-76-41-82-99-10-93 101-131 147-64 4 7 5 14 7 22l-32 3c-4-21-16-35-41-35" id="aV"/><g id="k"><use transform="matrix(0.05,0,0,0.05,0,0)" xlink:href="#aT"/><use transform="matrix(0.05,0,0,0.05,12,0)" xlink:href="#aU"/><use transform="matrix(0.05,0,0,0.05,21,0)" xlink:href="#aw"/><use transform="matrix(0.05,0,0,0.05,31,0)" xlink:href="#aV"/><use transform="matrix(0.05,0,0,0.05,40,0)" xlink:href="#aI"/><use transform="matrix(0.05,0,0,0.05,50,0)" xlink:href="#ay"/><use transform="matrix(0.05,0,0,0.05,55,0)" xlink:href="#aw"/></g><path d="M706-1102c241 0 344 136 343 381V0H868v-695c1-168-57-273-220-268-190 6-283 138-283 336V0H185c-3-360 6-732-6-1082h170c4 54 7 126 8 185h3c63-121 164-204 346-205" id="aW"/><path d="M617-1102c355 0 481 238 477 599H322c5 222 84 388 301 388 144 0 244-59 284-166l158 45C1002-72 854 20 623 20c-342 0-490-220-490-568 0-346 151-554 484-554zm291 461c-18-192-90-328-289-328-194 0-287 128-295 328h584" id="aX"/><path d="M1018 0H814c-67-224-138-444-200-673C552-442 476-224 407 0H204L21-1082h178c43 310 105 601 126 933 54-225 128-425 193-638h193c63 212 134 415 185 638 22-336 90-622 136-933h176" id="aY"/><g id="l"><use transform="matrix(0.0087890625,0,0,0.0087890625,0,0)" xlink:href="#aW"/><use transform="matrix(0.0087890625,0,0,0.0087890625,10.8017578125,0)" xlink:href="#aX"/><use transform="matrix(0.0087890625,0,0,0.0087890625,21.603515625,0)" xlink:href="#aY"/></g><path d="M932 20L115-1484h178L1114 20H932" id="aZ"/><path d="M622-1349c296 4 497 117 497 404 0 282-193 424-485 431H353V0H162v-1349h460zm-15 684c195-3 320-88 320-277 0-184-129-255-328-254H353v531h254" id="ba"/><path d="M473-1349c438-1 655 221 652 661C1122-268 945-8 532 0H162v-1349h311zm42 1193c308-4 416-205 418-532 2-330-131-509-459-505H353v1037h162" id="bb"/><path d="M102-681c0-398 126-689 513-689 165 0 291 58 379 174s132 287 132 515c-1 318-88 554-298 657-123 61-317 58-438-3-206-104-288-341-288-654zm749 406c94-160 97-656-5-807-57-85-130-132-231-132-104 0-178 47-234 132-101 153-99 655 1 809 57 89 130 138 232 138 109 0 184-49 237-140" id="bc"/><path d="M891-1484c-201 251-362 514-362 954 0 441 161 704 362 955H701C500 176 342-90 342-532c0-440 159-704 359-952h190" id="bd"/><path d="M684-845H543l-41-639h224" id="be"/><path d="M698-1104c312 3 392 244 392 558 0 315-82 566-392 566-169 0-277-65-331-184h-5c8 188 2 394 4 589H185V-858c0-76-1-156-6-224h175c6 52 9 120 10 178h4c58-122 150-202 330-200zm-49 991c225 0 255-203 255-433 0-225-32-419-253-419-236 0-285 192-285 441 0 237 53 411 283 411" id="bf"/><path d="M1048-32c-2 300-135 456-433 456-222-1-358-88-400-267l184-25c22 99 100 157 222 156 184-2 248-125 248-315 0-64 3-133-2-194C807-100 706-13 524-12c-306 0-381-228-381-537 0-318 85-550 400-550 164 0 271 83 325 202h3c1-60 3-134 12-185h171c-13 339-4 702-6 1050zM585-145c210-8 284-178 284-406 0-192-52-331-177-392-33-16-69-22-104-22-223 2-259 184-259 414 0 229 31 415 256 406" id="bg"/><path d="M873-819c-18-114-119-146-250-146-163 0-245 50-245 151 0 151 170 148 294 185 182 54 388 94 388 320 0 240-189 325-439 329-245 4-410-69-454-268l159-31c24 133 136 168 295 165 144-2 270-31 270-171 0-164-195-160-331-202-167-52-350-87-350-299 0-218 173-315 413-313 220 2 373 77 412 260" id="bh"/><path d="M530 26c-303-6-392-228-392-558 0-187 33-329 98-424s162-142 293-142c178 0 273 69 334 184 1-56 3-122 12-169h175c-6 88-6 180-6 282V425H863c1-202-4-411 4-607h-2C805-59 713 29 530 26zm47-139c234 0 286-193 286-441 0-238-55-411-284-411-223 0-255 198-255 427 0 227 33 425 253 425" id="bi"/><path d="M736-142h380V0H134v-142h422v-1200H267v-142h469v1342" id="bj"/><path d="M496 0v-299h235V0H496zm0-783v-299h235v299H496" id="bk"/><path d="M496 0v-299h235V0H496" id="bl"/><path d="M528-1484c201 248 357 511 357 952 0 442-156 709-357 957H336C537 174 700-89 700-530c0-440-163-703-364-954h192" id="bm"/><g id="m"><use transform="matrix(0.0087890625,0,0,0.0087890625,0,0)" xlink:href="#aZ"/><use transform="matrix(0.0087890625,0,0,0.0087890625,10.8017578125,0)" xlink:href="#ba"/><use transform="matrix(0.0087890625,0,0,0.0087890625,21.603515625,0)" xlink:href="#bb"/><use transform="matrix(0.0087890625,0,0,0.0087890625,32.4052734375,0)" xlink:href="#bc"/><use transform="matrix(0.0087890625,0,0,0.0087890625,43.20703125,0)" xlink:href="#bd"/><use transform="matrix(0.0087890625,0,0,0.0087890625,54.0087890625,0)" xlink:href="#be"/><use transform="matrix(0.0087890625,0,0,0.0087890625,64.810546875,0)" xlink:href="#bf"/><use transform="matrix(0.0087890625,0,0,0.0087890625,75.6123046875,0)" xlink:href="#bg"/><use transform="matrix(0.0087890625,0,0,0.0087890625,86.4140625,0)" xlink:href="#bh"/><use transform="matrix(0.0087890625,0,0,0.0087890625,97.2158203125,0)" xlink:href="#bi"/><use transform="matrix(0.0087890625,0,0,0.0087890625,108.017578125,0)" xlink:href="#bj"/><use transform="matrix(0.0087890625,0,0,0.0087890625,118.8193359375,0)" xlink:href="#bk"/><use transform="matrix(0.0087890625,0,0,0.0087890625,129.62109375,0)" xlink:href="#bl"/><use transform="matrix(0.0087890625,0,0,0.0087890625,140.4228515625,0)" xlink:href="#bl"/><use transform="matrix(0.0087890625,0,0,0.0087890625,151.224609375,0)" xlink:href="#bl"/><use transform="matrix(0.0087890625,0,0,0.0087890625,162.0263671875,0)" xlink:href="#be"/><use transform="matrix(0.0087890625,0,0,0.0087890625,172.828125,0)" xlink:href="#bm"/></g><path d="M558-647c-214-53-428-110-428-376 0-239 192-311 428-323v-130h128v130c251 5 384 114 433 321l-174 33c-27-133-107-212-259-221v426c233 57 464 118 464 407 0 258-203 345-464 360v161H558V-20C281-27 115-149 66-379l170-37c31 161 136 250 322 258v-489zm0-568c-146 8-256 54-256 197 0 156 132 181 256 216v-413zM686-156c160-12 292-63 292-227 0-177-151-205-292-244v471" id="bn"/><g id="n"><use transform="matrix(0.0087890625,0,0,0.0087890625,0,0)" xlink:href="#bn"/><use transform="matrix(0.0087890625,0,0,0.0087890625,10.8017578125,0)" xlink:href="#bh"/></g><path d="M116-856v-148h995v148H116zm0 512v-148h995v148H116" id="bo"/><use transform="matrix(0.0087890625,0,0,0.0087890625,0,0)" xlink:href="#bo" id="o"/><path d="M865-914c-3-187-2-380-2-570h180v1261c0 76 1 155 6 223H877c-8-49-9-116-10-174h-5C801-44 708 26 530 26c-135 0-234-46-297-139s-95-232-95-419c0-377 131-566 392-566 176 0 271 63 335 184zm-286-51c-222 0-255 197-255 427 0 229 31 425 253 425 237 0 286-195 286-441 0-238-52-411-284-411" id="bp"/><path d="M365-904c58-129 161-200 334-200 130 0 228 46 293 138s98 233 98 420c0 189-34 331-102 425S824 20 698 20c-170 0-275-64-336-184 0 55-3 116-9 164H179c5-68 6-147 6-223v-1261h180c-2 193 4 394-4 580h4zm283 791c221 0 256-197 256-427 0-229-34-425-254-425-236 0-285 195-285 441 0 237 53 411 283 411" id="bq"/><path d="M334-464v-160h560v160H334" id="br"/><path d="M116-154v-153l858-367-858-366v-154l995 418v205" id="bs"/><path d="M839-1102c70 0 148 7 206 17v167c-112-18-268-36-363 15-129 69-208 203-208 395V0H294c-10-367 32-789-52-1082h171c21 75 41 161 48 250h5c67-152 152-270 373-270" id="bt"/><path d="M1000-272c3 95 12 159 101 161 21 0 41-3 59-7V-6c-44 10-86 16-139 16-141 2-191-84-197-217h-6C748-76 648 20 446 20c-207 0-318-120-318-322 0-266 194-348 454-354l236-4c12-191-40-305-222-305-140 0-220 47-232 172l-188-17c33-204 181-292 423-292 255 0 401 118 401 364v466zm-683-27c0 109 63 184 175 182 166-3 259-96 306-217 24-65 20-120 20-200-232 7-501-28-501 235" id="bu"/><path d="M202-1349h823v156H709v1037h316V0H202v-156h316v-1037H202v-156" id="bv"/><path d="M912-211c-10-84-18-177-18-274v-864h172V0H836L316-1130c7 79 16 167 16 254V0H162v-1349h222" id="bw"/><path d="M614-1226c-167 1-283 53-283 213 0 183 186 193 334 234 230 63 463 120 463 409 0 286-219 387-518 390C309 23 131-98 79-338l185-37c34 165 149 248 351 246 184-2 324-58 324-238 0-203-207-221-372-266-210-57-422-111-422-377 0-267 201-356 470-360 279-5 430 101 480 324l-188 33c-28-141-121-215-293-213" id="bx"/><path d="M162 0v-1349h919v156H353v422h668v154H353v461h769V0H162" id="by"/><path d="M1121-976c0 225-142 341-344 379L1177 0H957L591-575H353V0H162v-1349h482c281 3 477 100 477 373zM633-726c181-1 296-73 296-247 0-149-101-223-304-223H353v470h280" id="bz"/><path d="M709-1193V0H519v-1193H76v-156h1076v156H709" id="bA"/><g id="p"><use transform="matrix(0.0087890625,0,0,0.0087890625,0,0)" xlink:href="#bn"/><use transform="matrix(0.0087890625,0,0,0.0087890625,10.8017578125,0)" xlink:href="#bp"/><use transform="matrix(0.0087890625,0,0,0.0087890625,21.603515625,0)" xlink:href="#bq"/><use transform="matrix(0.0087890625,0,0,0.0087890625,32.4052734375,0)" xlink:href="#br"/><use transform="matrix(0.0087890625,0,0,0.0087890625,43.20703125,0)" xlink:href="#bs"/><use transform="matrix(0.0087890625,0,0,0.0087890625,54.0087890625,0)" xlink:href="#bf"/><use transform="matrix(0.0087890625,0,0,0.0087890625,64.810546875,0)" xlink:href="#bt"/><use transform="matrix(0.0087890625,0,0,0.0087890625,75.6123046875,0)" xlink:href="#aX"/><use transform="matrix(0.0087890625,0,0,0.0087890625,86.4140625,0)" xlink:href="#bf"/><use transform="matrix(0.0087890625,0,0,0.0087890625,97.2158203125,0)" xlink:href="#bu"/><use transform="matrix(0.0087890625,0,0,0.0087890625,108.017578125,0)" xlink:href="#bt"/><use transform="matrix(0.0087890625,0,0,0.0087890625,118.8193359375,0)" xlink:href="#aX"/><use transform="matrix(0.0087890625,0,0,0.0087890625,129.62109375,0)" xlink:href="#bd"/><use transform="matrix(0.0087890625,0,0,0.0087890625,140.4228515625,0)" xlink:href="#be"/><use transform="matrix(0.0087890625,0,0,0.0087890625,151.224609375,0)" xlink:href="#bv"/><use transform="matrix(0.0087890625,0,0,0.0087890625,162.0263671875,0)" xlink:href="#bw"/><use transform="matrix(0.0087890625,0,0,0.0087890625,172.828125,0)" xlink:href="#bx"/><use transform="matrix(0.0087890625,0,0,0.0087890625,183.6298828125,0)" xlink:href="#by"/><use transform="matrix(0.0087890625,0,0,0.0087890625,194.431640625,0)" xlink:href="#bz"/><use transform="matrix(0.0087890625,0,0,0.0087890625,205.2333984375,0)" xlink:href="#bA"/></g><g id="q"><use transform="matrix(0.0087890625,0,0,0.0087890625,0,0)" xlink:href="#bv"/><use transform="matrix(0.0087890625,0,0,0.0087890625,10.8017578125,0)" xlink:href="#bw"/><use transform="matrix(0.0087890625,0,0,0.0087890625,21.603515625,0)" xlink:href="#bA"/><use transform="matrix(0.0087890625,0,0,0.0087890625,32.4052734375,0)" xlink:href="#bc"/></g><path d="M615-1102c343 0 484 203 482 560-1 347-147 562-488 562-336 0-475-219-479-562-4-349 156-560 485-560zm-8 989c240 0 301-180 301-429 0-245-55-427-290-427-236 0-299 181-299 427 0 243 61 429 288 429" id="bB"/><g id="r"><use transform="matrix(0.0087890625,0,0,0.0087890625,0,0)" xlink:href="#bf"/><use transform="matrix(0.0087890625,0,0,0.0087890625,10.8017578125,0)" xlink:href="#aX"/><use transform="matrix(0.0087890625,0,0,0.0087890625,21.603515625,0)" xlink:href="#bt"/><use transform="matrix(0.0087890625,0,0,0.0087890625,32.4052734375,0)" xlink:href="#bh"/><use transform="matrix(0.0087890625,0,0,0.0087890625,43.20703125,0)" xlink:href="#bB"/><use transform="matrix(0.0087890625,0,0,0.0087890625,54.0087890625,0)" xlink:href="#aW"/></g><path d="M496-783v-299h235v299H496zM352 363l169-662h265L475 363H352" id="bC"/><g id="s"><use transform="matrix(0.0087890625,0,0,0.0087890625,0,0)" xlink:href="#bl"/><use transform="matrix(0.0087890625,0,0,0.0087890625,10.8017578125,0)" xlink:href="#bl"/><use transform="matrix(0.0087890625,0,0,0.0087890625,21.603515625,0)" xlink:href="#bl"/><use transform="matrix(0.0087890625,0,0,0.0087890625,32.4052734375,0)" xlink:href="#bm"/><use transform="matrix(0.0087890625,0,0,0.0087890625,43.20703125,0)" xlink:href="#bC"/></g><path d="M932 0L611-444 288 0H94l415-556-397-526h199l300 421 298-421h201L713-558 1133 0H932" id="bD"/><path d="M631 20c-350 0-501-215-501-562 0-355 162-560 502-560 250 0 399 118 446 323l-192 14c-23-124-109-196-262-196-242 0-305 171-305 415 1 245 61 427 304 427 151 0 248-77 267-215l190 12C1039-107 883 20 631 20" id="bE"/><path d="M528 20c-247 0-343-132-343-381v-721h180v686c-4 177 45 284 224 277 194-8 279-136 279-336v-627h181c3 360-6 732 6 1082H885c-4-54-7-126-8-185h-3C809-64 714 20 528 20" id="bF"/><path d="M682 16c-209 0-323-80-324-285v-671H190v-142h170l58-282h120v282h432v142H538v652c2 114 60 155 182 155 106 0 209-16 297-34v137C921-4 806 16 682 16" id="bG"/><path d="M410 425v-1909h547v139H590V286h367v139H410" id="bH"/><path d="M839-1335c-182-6-269 67-259 253h491v142H580V0H400v-940H138v-142h262c-15-293 132-408 418-402 94 2 200 7 281 21v145c-75-10-177-14-260-17" id="bI"/><path d="M745-142h380V0H143v-142h422v-798H246v-142h499v940zM545-1292v-192h200v192H545" id="bJ"/><path d="M-5 220v-96h1238v96H-5" id="bK"/><path d="M904-1102c199 0 220 177 220 381V0H956v-686c-3-114 0-215-60-264-70-33-125-4-158 71-26 56-39 140-39 252V0H531v-686c-3-114-1-215-61-264-78-41-136 24-157 84-24 69-39 159-39 259V0H105c-3-360 6-732-6-1082h149c6 50 3 123 8 175 36-100 83-195 216-195 135 0 166 79 196 196 42-105 93-196 236-196" id="bL"/><g id="t"><use transform="matrix(0.0087890625,0,0,0.0087890625,0,0)" xlink:href="#bn"/><use transform="matrix(0.0087890625,0,0,0.0087890625,10.8017578125,0)" xlink:href="#bh"/><use transform="matrix(0.0087890625,0,0,0.0087890625,21.603515625,0)" xlink:href="#br"/><use transform="matrix(0.0087890625,0,0,0.0087890625,32.4052734375,0)" xlink:href="#bs"/><use transform="matrix(0.0087890625,0,0,0.0087890625,43.20703125,0)" xlink:href="#aX"/><use transform="matrix(0.0087890625,0,0,0.0087890625,54.0087890625,0)" xlink:href="#bD"/><use transform="matrix(0.0087890625,0,0,0.0087890625,64.810546875,0)" xlink:href="#aX"/><use transform="matrix(0.0087890625,0,0,0.0087890625,75.6123046875,0)" xlink:href="#bE"/><use transform="matrix(0.0087890625,0,0,0.0087890625,86.4140625,0)" xlink:href="#bF"/><use transform="matrix(0.0087890625,0,0,0.0087890625,97.2158203125,0)" xlink:href="#bG"/><use transform="matrix(0.0087890625,0,0,0.0087890625,108.017578125,0)" xlink:href="#aX"/><use transform="matrix(0.0087890625,0,0,0.0087890625,118.8193359375,0)" xlink:href="#bd"/><use transform="matrix(0.0087890625,0,0,0.0087890625,129.62109375,0)" xlink:href="#bH"/><use transform="matrix(0.0087890625,0,0,0.0087890625,140.4228515625,0)" xlink:href="#be"/><use transform="matrix(0.0087890625,0,0,0.0087890625,151.224609375,0)" xlink:href="#bI"/><use transform="matrix(0.0087890625,0,0,0.0087890625,162.0263671875,0)" xlink:href="#bJ"/><use transform="matrix(0.0087890625,0,0,0.0087890625,172.828125,0)" xlink:href="#bt"/><use transform="matrix(0.0087890625,0,0,0.0087890625,183.6298828125,0)" xlink:href="#bh"/><use transform="matrix(0.0087890625,0,0,0.0087890625,194.431640625,0)" xlink:href="#bG"/><use transform="matrix(0.0087890625,0,0,0.0087890625,205.2333984375,0)" xlink:href="#bK"/><use transform="matrix(0.0087890625,0,0,0.0087890625,216.03515625,0)" xlink:href="#aW"/><use transform="matrix(0.0087890625,0,0,0.0087890625,226.8369140625,0)" xlink:href="#bu"/><use transform="matrix(0.0087890625,0,0,0.0087890625,237.638671875,0)" xlink:href="#bL"/><use transform="matrix(0.0087890625,0,0,0.0087890625,248.4404296875,0)" xlink:href="#aX"/><use transform="matrix(0.0087890625,0,0,0.0087890625,259.2421875,0)" xlink:href="#be"/></g><g id="u"><use transform="matrix(0.0087890625,0,0,0.0087890625,0,0)" xlink:href="#bo"/><use transform="matrix(0.0087890625,0,0,0.0087890625,10.8017578125,0)" xlink:href="#bs"/></g><path d="M587-135c154 0 209-115 209-281v-777H485v-156h501v929C982-148 857 20 586 20c-254 0-368-136-410-370l187-31c24 134 77 246 224 246" id="bM"/><path d="M648-963c-190 6-283 138-283 336V0H185v-1484h181c-2 197 6 404-9 587h3c62-120 159-205 339-205 242 0 351 135 350 381V0H868v-695c1-168-57-273-220-268" id="bN"/><g id="v"><use transform="matrix(0.0087890625,0,0,0.0087890625,0,0)" xlink:href="#be"/><use transform="matrix(0.0087890625,0,0,0.0087890625,10.8017578125,0)" xlink:href="#bM"/><use transform="matrix(0.0087890625,0,0,0.0087890625,21.603515625,0)" xlink:href="#bB"/><use transform="matrix(0.0087890625,0,0,0.0087890625,32.4052734375,0)" xlink:href="#bN"/><use transform="matrix(0.0087890625,0,0,0.0087890625,43.20703125,0)" xlink:href="#aW"/><use transform="matrix(0.0087890625,0,0,0.0087890625,54.0087890625,0)" xlink:href="#be"/></g><path d="M270 425V286h367v-1631H270v-139h547V425H270" id="bO"/><g id="w"><use transform="matrix(0.0087890625,0,0,0.0087890625,0,0)" xlink:href="#bl"/><use transform="matrix(0.0087890625,0,0,0.0087890625,10.8017578125,0)" xlink:href="#bl"/><use transform="matrix(0.0087890625,0,0,0.0087890625,21.603515625,0)" xlink:href="#bl"/><use transform="matrix(0.0087890625,0,0,0.0087890625,32.4052734375,0)" xlink:href="#bO"/><use transform="matrix(0.0087890625,0,0,0.0087890625,43.20703125,0)" xlink:href="#bm"/><use transform="matrix(0.0087890625,0,0,0.0087890625,54.0087890625,0)" xlink:href="#bC"/></g><path d="M168 279c222 39 310-114 368-290L66-1082h192c120 299 249 590 362 896 115-301 235-597 351-896h190L705 0c-65 164-130 320-275 396-67 36-177 35-262 18V279" id="bP"/><path d="M237 0v-1349h191v1193h672V0H237" id="bQ"/><path d="M650-1214c-281 0-336 244-336 533 0 295 60 546 347 546 188 0 263-142 322-282l159 65C1058-155 935 20 659 20c-401 0-546-295-546-701 0-407 135-689 536-689 264 0 391 146 466 335l-168 65c-47-129-127-244-297-244" id="bR"/><g id="x"><use transform="matrix(0.0087890625,0,0,0.0087890625,0,0)" xlink:href="#bn"/><use transform="matrix(0.0087890625,0,0,0.0087890625,10.8017578125,0)" xlink:href="#bp"/><use transform="matrix(0.0087890625,0,0,0.0087890625,21.603515625,0)" xlink:href="#bq"/><use transform="matrix(0.0087890625,0,0,0.0087890625,32.4052734375,0)" xlink:href="#br"/><use transform="matrix(0.0087890625,0,0,0.0087890625,43.20703125,0)" xlink:href="#bs"/><use transform="matrix(0.0087890625,0,0,0.0087890625,54.0087890625,0)" xlink:href="#bi"/><use transform="matrix(0.0087890625,0,0,0.0087890625,64.810546875,0)" xlink:href="#bF"/><use transform="matrix(0.0087890625,0,0,0.0087890625,75.6123046875,0)" xlink:href="#aX"/><use transform="matrix(0.0087890625,0,0,0.0087890625,86.4140625,0)" xlink:href="#bt"/><use transform="matrix(0.0087890625,0,0,0.0087890625,97.2158203125,0)" xlink:href="#bP"/><use transform="matrix(0.0087890625,0,0,0.0087890625,108.017578125,0)" xlink:href="#bd"/><use transform="matrix(0.0087890625,0,0,0.0087890625,118.8193359375,0)" xlink:href="#be"/><use transform="matrix(0.0087890625,0,0,0.0087890625,129.62109375,0)" xlink:href="#bx"/><use transform="matrix(0.0087890625,0,0,0.0087890625,140.4228515625,0)" xlink:href="#by"/><use transform="matrix(0.0087890625,0,0,0.0087890625,151.224609375,0)" xlink:href="#bQ"/><use transform="matrix(0.0087890625,0,0,0.0087890625,162.0263671875,0)" xlink:href="#by"/><use transform="matrix(0.0087890625,0,0,0.0087890625,172.828125,0)" xlink:href="#bR"/><use transform="matrix(0.0087890625,0,0,0.0087890625,183.6298828125,0)" xlink:href="#bA"/></g><path d="M285-1169c8 382 2 780 4 1169H129v-1349h237c86 239 188 461 253 720 69-258 169-481 255-720h225V0H937c2-390-5-788 6-1169-75 255-170 488-259 729H547c-90-240-185-475-262-729" id="bS"/><path d="M1034 0L896-382H333L196 0H0l510-1349h217L1228 0h-194zM847-531c-77-225-157-447-231-674-69 231-154 451-232 674h463" id="bT"/><path d="M614-836l333-513h205L717-705 1193 0H988L614-573 241 0H36l476-705-435-644h205" id="bU"/><g id="y"><use transform="matrix(0.0087890625,0,0,0.0087890625,0,0)" xlink:href="#bS"/><use transform="matrix(0.0087890625,0,0,0.0087890625,10.8017578125,0)" xlink:href="#bT"/><use transform="matrix(0.0087890625,0,0,0.0087890625,21.603515625,0)" xlink:href="#bU"/><use transform="matrix(0.0087890625,0,0,0.0087890625,32.4052734375,0)" xlink:href="#bd"/><use transform="matrix(0.0087890625,0,0,0.0087890625,43.20703125,0)" xlink:href="#bJ"/><use transform="matrix(0.0087890625,0,0,0.0087890625,54.0087890625,0)" xlink:href="#bp"/><use transform="matrix(0.0087890625,0,0,0.0087890625,64.810546875,0)" xlink:href="#bK"/><use transform="matrix(0.0087890625,0,0,0.0087890625,75.6123046875,0)" xlink:href="#bf"/><use transform="matrix(0.0087890625,0,0,0.0087890625,86.4140625,0)" xlink:href="#aX"/><use transform="matrix(0.0087890625,0,0,0.0087890625,97.2158203125,0)" xlink:href="#bt"/><use transform="matrix(0.0087890625,0,0,0.0087890625,108.017578125,0)" xlink:href="#bh"/><use transform="matrix(0.0087890625,0,0,0.0087890625,118.8193359375,0)" xlink:href="#bB"/><use transform="matrix(0.0087890625,0,0,0.0087890625,129.62109375,0)" xlink:href="#aW"/><use transform="matrix(0.0087890625,0,0,0.0087890625,140.4228515625,0)" xlink:href="#bm"/></g><path d="M385-1193v494h676v158H385V0H194v-1349h891v156H385" id="bV"/><g id="z"><use transform="matrix(0.0087890625,0,0,0.0087890625,0,0)" xlink:href="#bV"/><use transform="matrix(0.0087890625,0,0,0.0087890625,10.8017578125,0)" xlink:href="#bz"/><use transform="matrix(0.0087890625,0,0,0.0087890625,21.603515625,0)" xlink:href="#bc"/><use transform="matrix(0.0087890625,0,0,0.0087890625,32.4052734375,0)" xlink:href="#bS"/></g><g id="A"><use transform="matrix(0.0087890625,0,0,0.0087890625,0,0)" xlink:href="#bf"/><use transform="matrix(0.0087890625,0,0,0.0087890625,10.8017578125,0)" xlink:href="#aX"/><use transform="matrix(0.0087890625,0,0,0.0087890625,21.603515625,0)" xlink:href="#bt"/><use transform="matrix(0.0087890625,0,0,0.0087890625,32.4052734375,0)" xlink:href="#bh"/><use transform="matrix(0.0087890625,0,0,0.0087890625,43.20703125,0)" xlink:href="#bB"/><use transform="matrix(0.0087890625,0,0,0.0087890625,54.0087890625,0)" xlink:href="#aW"/><use transform="matrix(0.0087890625,0,0,0.0087890625,64.810546875,0)" xlink:href="#be"/><use transform="matrix(0.0087890625,0,0,0.0087890625,75.6123046875,0)" xlink:href="#bm"/><use transform="matrix(0.0087890625,0,0,0.0087890625,86.4140625,0)" xlink:href="#bC"/></g><path d="M30-248c87 1 191-15 191 75 0 78-77 80-158 76V0H30v-248zm33 125c57 0 124 11 124-50 0-59-68-47-124-48v98" id="bW"/><path d="M140-251c81 0 123 46 123 126C263-46 219 4 140 4 59 4 17-45 17-125s42-126 123-126zm0 227c63 0 89-41 89-101s-29-99-89-99c-61 0-89 39-89 99S79-25 140-24" id="bX"/><g id="B"><use transform="matrix(0.05,0,0,0.05,0,0)" xlink:href="#bW"/><use transform="matrix(0.05,0,0,0.05,12,0)" xlink:href="#bX"/><use transform="matrix(0.05,0,0,0.05,26,0)" xlink:href="#aC"/><use transform="matrix(0.05,0,0,0.05,38,0)" xlink:href="#aG"/></g><g id="C"><use transform="matrix(0.05,0,0,0.05,0,0)" xlink:href="#aM"/><use transform="matrix(0.05,0,0,0.05,10,0)" xlink:href="#aw"/><use transform="matrix(0.05,0,0,0.05,20,0)" xlink:href="#aD"/><use transform="matrix(0.05,0,0,0.05,25.950000000000003,0)" xlink:href="#aN"/><use transform="matrix(0.05,0,0,0.05,34.95,0)" xlink:href="#aK"/><use transform="matrix(0.05,0,0,0.05,44.95,0)" xlink:href="#ax"/><use transform="matrix(0.05,0,0,0.05,54.95,0)" xlink:href="#aO"/><use transform="matrix(0.05,0,0,0.05,64.95,0)" xlink:href="#aP"/><use transform="matrix(0.05,0,0,0.05,74.95,0)" xlink:href="#aQ"/><use transform="matrix(0.05,0,0,0.05,84.95,0)" xlink:href="#aQ"/><use transform="matrix(0.05,0,0,0.05,94.95,0)" xlink:href="#aR"/><use transform="matrix(0.05,0,0,0.05,99.95,0)" xlink:href="#aM"/><use transform="matrix(0.05,0,0,0.05,109.95,0)" xlink:href="#aS"/><use transform="matrix(0.05,0,0,0.05,119.95,0)" xlink:href="#aM"/></g><path d="M18-150v-26h174v26H18zm0 90v-26h174v26H18" id="bY"/><path d="M153-248C145-148 188 4 80 4 36 3 13-21 6-62l32-5c4 25 16 42 43 43 27 0 39-20 39-49v-147H72v-28h81" id="bZ"/><g id="D"><use transform="matrix(0.05,0,0,0.05,0,0)" xlink:href="#aJ"/><use transform="matrix(0.05,0,0,0.05,5,0)" xlink:href="#av"/><use transform="matrix(0.05,0,0,0.05,8.95,0)" xlink:href="#aD"/><use transform="matrix(0.05,0,0,0.05,14.899999999999999,0)" xlink:href="#aN"/><use transform="matrix(0.05,0,0,0.05,23.9,0)" xlink:href="#ay"/><use transform="matrix(0.05,0,0,0.05,28.899999999999995,0)" xlink:href="#aO"/><use transform="matrix(0.05,0,0,0.05,38.9,0)" xlink:href="#ax"/><use transform="matrix(0.05,0,0,0.05,48.9,0)" xlink:href="#aP"/><use transform="matrix(0.05,0,0,0.05,58.900000000000006,0)" xlink:href="#aH"/><use transform="matrix(0.05,0,0,0.05,73.85,0)" xlink:href="#aw"/><use transform="matrix(0.05,0,0,0.05,83.85,0)" xlink:href="#bY"/><use transform="matrix(0.05,0,0,0.05,94.35,0)" xlink:href="#bZ"/><use transform="matrix(0.05,0,0,0.05,103.34999999999998,0)" xlink:href="#aK"/><use transform="matrix(0.05,0,0,0.05,113.34999999999998,0)" xlink:href="#aS"/><use transform="matrix(0.05,0,0,0.05,123.34999999999998,0)" xlink:href="#ax"/><use transform="matrix(0.05,0,0,0.05,133.35,0)" xlink:href="#aR"/><use transform="matrix(0.05,0,0,0.05,138.35,0)" xlink:href="#aR"/><use transform="matrix(0.05,0,0,0.05,143.35,0)" xlink:href="#aR"/></g><g id="E"><use transform="matrix(0.0087890625,0,0,0.0087890625,0,0)" xlink:href="#bf"/><use transform="matrix(0.0087890625,0,0,0.0087890625,10.8017578125,0)" xlink:href="#aX"/><use transform="matrix(0.0087890625,0,0,0.0087890625,21.603515625,0)" xlink:href="#bt"/><use transform="matrix(0.0087890625,0,0,0.0087890625,32.4052734375,0)" xlink:href="#bh"/><use transform="matrix(0.0087890625,0,0,0.0087890625,43.20703125,0)" xlink:href="#bB"/><use transform="matrix(0.0087890625,0,0,0.0087890625,54.0087890625,0)" xlink:href="#aW"/><use transform="matrix(0.0087890625,0,0,0.0087890625,64.810546875,0)" xlink:href="#bK"/><use transform="matrix(0.0087890625,0,0,0.0087890625,75.6123046875,0)" xlink:href="#bL"/><use transform="matrix(0.0087890625,0,0,0.0087890625,86.4140625,0)" xlink:href="#aX"/><use transform="matrix(0.0087890625,0,0,0.0087890625,97.2158203125,0)" xlink:href="#aX"/><use transform="matrix(0.0087890625,0,0,0.0087890625,108.017578125,0)" xlink:href="#bG"/><use transform="matrix(0.0087890625,0,0,0.0087890625,118.8193359375,0)" xlink:href="#bJ"/><use transform="matrix(0.0087890625,0,0,0.0087890625,129.62109375,0)" xlink:href="#aW"/><use transform="matrix(0.0087890625,0,0,0.0087890625,140.4228515625,0)" xlink:href="#bg"/><use transform="matrix(0.0087890625,0,0,0.0087890625,151.224609375,0)" xlink:href="#bl"/><use transform="matrix(0.0087890625,0,0,0.0087890625,162.0263671875,0)" xlink:href="#bl"/><use transform="matrix(0.0087890625,0,0,0.0087890625,172.828125,0)" xlink:href="#bl"/><use transform="matrix(0.0087890625,0,0,0.0087890625,183.6298828125,0)" xlink:href="#be"/><use transform="matrix(0.0087890625,0,0,0.0087890625,194.431640625,0)" xlink:href="#bm"/><use transform="matrix(0.0087890625,0,0,0.0087890625,205.2333984375,0)" xlink:href="#bC"/></g><g id="F"><use transform="matrix(0.0087890625,0,0,0.0087890625,0,0)" xlink:href="#bn"/><use transform="matrix(0.0087890625,0,0,0.0087890625,10.8017578125,0)" xlink:href="#bh"/><use transform="matrix(0.0087890625,0,0,0.0087890625,21.603515625,0)" xlink:href="#br"/><use transform="matrix(0.0087890625,0,0,0.0087890625,32.4052734375,0)" xlink:href="#bs"/><use transform="matrix(0.0087890625,0,0,0.0087890625,43.20703125,0)" xlink:href="#aX"/><use transform="matrix(0.0087890625,0,0,0.0087890625,54.0087890625,0)" xlink:href="#bD"/><use transform="matrix(0.0087890625,0,0,0.0087890625,64.810546875,0)" xlink:href="#aX"/><use transform="matrix(0.0087890625,0,0,0.0087890625,75.6123046875,0)" xlink:href="#bE"/><use transform="matrix(0.0087890625,0,0,0.0087890625,86.4140625,0)" xlink:href="#bF"/><use transform="matrix(0.0087890625,0,0,0.0087890625,97.2158203125,0)" xlink:href="#bG"/><use transform="matrix(0.0087890625,0,0,0.0087890625,108.017578125,0)" xlink:href="#aX"/><use transform="matrix(0.0087890625,0,0,0.0087890625,118.8193359375,0)" xlink:href="#bd"/><use transform="matrix(0.0087890625,0,0,0.0087890625,129.62109375,0)" xlink:href="#bH"/><use transform="matrix(0.0087890625,0,0,0.0087890625,140.4228515625,0)" xlink:href="#be"/><use transform="matrix(0.0087890625,0,0,0.0087890625,151.224609375,0)" xlink:href="#bJ"/><use transform="matrix(0.0087890625,0,0,0.0087890625,162.0263671875,0)" xlink:href="#bp"/><use transform="matrix(0.0087890625,0,0,0.0087890625,172.828125,0)" xlink:href="#bK"/><use transform="matrix(0.0087890625,0,0,0.0087890625,183.6298828125,0)" xlink:href="#bf"/><use transform="matrix(0.0087890625,0,0,0.0087890625,194.431640625,0)" xlink:href="#aX"/><use transform="matrix(0.0087890625,0,0,0.0087890625,205.2333984375,0)" xlink:href="#bt"/><use transform="matrix(0.0087890625,0,0,0.0087890625,216.03515625,0)" xlink:href="#bh"/><use transform="matrix(0.0087890625,0,0,0.0087890625,226.8369140625,0)" xlink:href="#bB"/><use transform="matrix(0.0087890625,0,0,0.0087890625,237.638671875,0)" xlink:href="#aW"/></g><path d="M937-319V0H757v-319H103v-140l635-890h199v888h188v142H937zm-180-835L257-461h500v-693" id="ca"/><path d="M1060-1016c0 191-128 285-295 323v4c154 18 262 91 313 209 14 35 21 72 21 110 0 277-194 390-478 390-292 0-457-129-493-382l186-17c24 161 121 250 307 250 172 1 298-80 291-247-8-208-220-239-446-233v-156c217 9 409-34 409-232 0-152-102-225-264-225-159 0-264 88-278 233l-181-14c33-239 196-367 461-367 264 0 447 102 447 354" id="cb"/><g id="G"><use transform="matrix(0.0087890625,0,0,0.0087890625,0,0)" xlink:href="#ca"/><use transform="matrix(0.0087890625,0,0,0.0087890625,10.8017578125,0)" xlink:href="#cb"/><use transform="matrix(0.0087890625,0,0,0.0087890625,21.603515625,0)" xlink:href="#bl"/><use transform="matrix(0.0087890625,0,0,0.0087890625,32.4052734375,0)" xlink:href="#bl"/><use transform="matrix(0.0087890625,0,0,0.0087890625,43.20703125,0)" xlink:href="#bl"/><use transform="matrix(0.0087890625,0,0,0.0087890625,54.0087890625,0)" xlink:href="#bO"/><use transform="matrix(0.0087890625,0,0,0.0087890625,64.810546875,0)" xlink:href="#bm"/><use transform="matrix(0.0087890625,0,0,0.0087890625,75.6123046875,0)" xlink:href="#bC"/></g><g id="H"><use transform="matrix(0.05,0,0,0.05,0,0)" xlink:href="#aG"/><use transform="matrix(0.05,0,0,0.05,8.950000000000001,0)" xlink:href="#aw"/><use transform="matrix(0.05,0,0,0.05,18.950000000000003,0)" xlink:href="#aD"/><use transform="matrix(0.05,0,0,0.05,24.900000000000002,0)" xlink:href="#aH"/><use transform="matrix(0.05,0,0,0.05,39.85,0)" xlink:href="#av"/><use transform="matrix(0.05,0,0,0.05,43.800000000000004,0)" xlink:href="#ax"/><use transform="matrix(0.05,0,0,0.05,53.800000000000004,0)" xlink:href="#aP"/><use transform="matrix(0.05,0,0,0.05,63.800000000000004,0)" xlink:href="#ay"/><use transform="matrix(0.05,0,0,0.05,68.80000000000001,0)" xlink:href="#aw"/></g><path d="M30-248c118-7 216 8 213 122C240-48 200 0 122 0H30v-248zM63-27c89 8 146-16 146-99s-60-101-146-95v194" id="cc"/><g id="I"><use transform="matrix(0.06790123456790123,0,0,0.06790123456790123,0,0)" xlink:href="#cc"/><use transform="matrix(0.06790123456790123,0,0,0.06790123456790123,17.586419753086417,0)" xlink:href="#aP"/><use transform="matrix(0.06790123456790123,0,0,0.06790123456790123,31.166666666666664,0)" xlink:href="#ay"/><use transform="matrix(0.06790123456790123,0,0,0.06790123456790123,37.95679012345679,0)" xlink:href="#aP"/><use transform="matrix(0.06790123456790123,0,0,0.06790123456790123,51.53703703703703,0)" xlink:href="#aB"/><use transform="matrix(0.06790123456790123,0,0,0.06790123456790123,65.11728395061728,0)" xlink:href="#aP"/><use transform="matrix(0.06790123456790123,0,0,0.06790123456790123,78.69753086419752,0)" xlink:href="#aN"/><use transform="matrix(0.06790123456790123,0,0,0.06790123456790123,90.91975308641975,0)" xlink:href="#aw"/></g><g id="J"><use transform="matrix(0.0087890625,0,0,0.0087890625,0,0)" xlink:href="#be"/><use transform="matrix(0.0087890625,0,0,0.0087890625,10.8017578125,0)" xlink:href="#bQ"/><use transform="matrix(0.0087890625,0,0,0.0087890625,21.603515625,0)" xlink:href="#aX"/><use transform="matrix(0.0087890625,0,0,0.0087890625,32.4052734375,0)" xlink:href="#bB"/><use transform="matrix(0.0087890625,0,0,0.0087890625,43.20703125,0)" xlink:href="#aW"/></g><g id="K"><use transform="matrix(0.05,0,0,0.05,0,0)" xlink:href="#at"/><use transform="matrix(0.05,0,0,0.05,12.950000000000001,0)" xlink:href="#aD"/><use transform="matrix(0.05,0,0,0.05,18.900000000000002,0)" xlink:href="#aw"/><use transform="matrix(0.05,0,0,0.05,28.900000000000002,0)" xlink:href="#aP"/><use transform="matrix(0.05,0,0,0.05,38.900000000000006,0)" xlink:href="#ay"/><use transform="matrix(0.05,0,0,0.05,43.900000000000006,0)" xlink:href="#aw"/></g><g id="L"><use transform="matrix(0.05,0,0,0.05,0,0)" xlink:href="#at"/><use transform="matrix(0.05,0,0,0.05,12.950000000000001,0)" xlink:href="#aK"/><use transform="matrix(0.05,0,0,0.05,22.950000000000003,0)" xlink:href="#ax"/><use transform="matrix(0.05,0,0,0.05,32.95,0)" xlink:href="#ax"/><use transform="matrix(0.05,0,0,0.05,42.95,0)" xlink:href="#aw"/><use transform="matrix(0.05,0,0,0.05,52.95,0)" xlink:href="#aV"/><use transform="matrix(0.05,0,0,0.05,61.95,0)" xlink:href="#ay"/><use transform="matrix(0.05,0,0,0.05,66.95,0)" xlink:href="#av"/><use transform="matrix(0.05,0,0,0.05,70.9,0)" xlink:href="#aK"/><use transform="matrix(0.05,0,0,0.05,80.9,0)" xlink:href="#ax"/></g><g id="M"><use transform="matrix(0.05,0,0,0.05,0,0)" xlink:href="#aC"/><use transform="matrix(0.05,0,0,0.05,12,0)" xlink:href="#aw"/><use transform="matrix(0.05,0,0,0.05,22,0)" xlink:href="#aN"/><use transform="matrix(0.05,0,0,0.05,31,0)" xlink:href="#aN"/><use transform="matrix(0.05,0,0,0.05,40,0)" xlink:href="#av"/><use transform="matrix(0.05,0,0,0.05,43.95,0)" xlink:href="#aK"/><use transform="matrix(0.05,0,0,0.05,53.95,0)" xlink:href="#ax"/></g><path d="M794-190h353V0H118v-190h395v-702H223v-190h571v892zM513-1277v-207h281v207H513" id="cd"/><path d="M802-909c-3-189-2-383-2-575h281v1248c-1 83 4 168 8 236H817c-9-50-14-117-15-176h-4C735-49 651 20 482 20 191 20 97-238 97-539c0-243 66-432 221-519 50-28 108-42 175-42 162 2 253 78 309 191zm-70 658c91-113 93-462 2-584-46-61-145-100-224-53-96 56-119 190-120 349 0 123 17 214 52 275 46 82 130 115 222 74 25-12 46-33 68-61" id="ce"/><path d="M-5 220v-96h1238v96H-5" id="cf"/><path d="M427-171c3 195 2 397 2 596H148V-846c1-83-4-168-8-236h272c10 49 14 118 15 176h4c59-114 151-197 316-197 291 0 385 259 385 560 0 243-65 433-220 521-50 28-109 42-176 42-162-2-253-78-309-191zm69-661c-91 113-92 463-1 586 46 62 145 101 225 54 96-57 118-191 119-351 0-123-18-215-53-276-46-82-128-115-220-74-25 12-48 33-70 61" id="cg"/><path d="M1113-274C1038-96 884 20 626 20c-352 0-526-209-526-566 0-358 185-556 530-556 358 0 496 251 499 615H395c5 180 68 319 245 319 102 0 186-45 208-129zM857-663c-6-177-128-307-315-247-94 30-141 121-145 247h460" id="ch"/><path d="M875-1102c70 0 148 7 206 17v237c-110-17-267-37-359 15-123 69-192 207-192 395V0H250c-10-367 32-789-52-1082h271c19 69 36 149 46 228h4c52-151 151-250 356-248" id="ci"/><path d="M622-916c-112 2-200 14-200 111 0 90 89 101 168 121 234 58 514 77 514 368C1104-4 751 54 434 5 267-21 161-112 121-270l247-37c24 111 113 145 252 141 114-3 226-12 226-124 0-101-103-113-192-134-225-54-490-76-490-351 0-247 201-328 458-328 245 0 413 88 457 292l-249 26c-16-98-92-133-208-131" id="cj"/><path d="M616-1102c361 0 521 202 521 560 0 354-171 562-527 562C259 20 92-192 92-542c0-351 169-560 524-560zm-9 930c200-2 236-165 236-370 0-199-27-367-223-367-195 0-233 146-233 367 0 129 18 223 55 282s92 88 165 88" id="ck"/><path d="M768-1103c247 0 336 167 336 416V0H824v-619c-3-164-24-273-171-273-164 0-229 142-229 312V0H143c-4-359 9-736-8-1082h268c7 63 12 146 13 215h4c67-145 160-236 348-236" id="cl"/><g id="N"><use transform="matrix(0.0087890625,0,0,0.0087890625,0,0)" xlink:href="#cd"/><use transform="matrix(0.0087890625,0,0,0.0087890625,10.8017578125,0)" xlink:href="#ce"/><use transform="matrix(0.0087890625,0,0,0.0087890625,21.603515625,0)" xlink:href="#cf"/><use transform="matrix(0.0087890625,0,0,0.0087890625,32.4052734375,0)" xlink:href="#cg"/><use transform="matrix(0.0087890625,0,0,0.0087890625,43.20703125,0)" xlink:href="#ch"/><use transform="matrix(0.0087890625,0,0,0.0087890625,54.0087890625,0)" xlink:href="#ci"/><use transform="matrix(0.0087890625,0,0,0.0087890625,64.810546875,0)" xlink:href="#cj"/><use transform="matrix(0.0087890625,0,0,0.0087890625,75.6123046875,0)" xlink:href="#ck"/><use transform="matrix(0.0087890625,0,0,0.0087890625,86.4140625,0)" xlink:href="#cl"/></g><path d="M844-1321c-130 0-195 53-191 182v57h443v190H653V0H373v-892H117v-190h256v-83c5-247 162-348 422-349 120-1 232 13 327 28v184c-84-10-183-19-278-19" id="cm"/><path d="M711 13c-250 0-386-99-385-349l2-556H161v-190h181l88-282h176v282h385v190H606v530c-10 130 45 186 174 184 91-2 176-11 255-27v186C933-1 833 13 711 13" id="cn"/><path d="M775-193C708-75 621 20 439 20 226 20 106-93 106-306c0-251 170-341 417-346l223-4c4-143-12-264-148-264-103 0-141 58-150 153l-293-14c37-219 194-321 455-321 263 0 418 130 417 390v392c1 84 5 161 89 160 21 0 42-2 62-6v152c-57 15-108 27-180 26-145 0-202-73-217-205h-6zm-256 17c168 0 234-139 227-325-166 4-347-25-347 173 0 94 33 152 120 152" id="co"/><path d="M934-1102c199 0 220 177 220 381V0H926c-2-260 10-533-4-785-4-72-14-138-83-138-34 0-61 27-81 81s-29 134-29 241V0H501c-2-260 9-533-5-785-4-72-13-138-82-138-46 0-65 47-80 93-21 67-30 155-30 248V0H75c-3-360 6-732-6-1082h209c6 50 3 123 8 175 36-100 83-195 216-195 135 0 166 79 196 196 42-105 93-196 236-196" id="cp"/><g id="O"><use transform="matrix(0.0087890625,0,0,0.0087890625,0,0)" xlink:href="#cm"/><use transform="matrix(0.0087890625,0,0,0.0087890625,10.8017578125,0)" xlink:href="#cd"/><use transform="matrix(0.0087890625,0,0,0.0087890625,21.603515625,0)" xlink:href="#ci"/><use transform="matrix(0.0087890625,0,0,0.0087890625,32.4052734375,0)" xlink:href="#cj"/><use transform="matrix(0.0087890625,0,0,0.0087890625,43.20703125,0)" xlink:href="#cn"/><use transform="matrix(0.0087890625,0,0,0.0087890625,54.0087890625,0)" xlink:href="#cf"/><use transform="matrix(0.0087890625,0,0,0.0087890625,64.810546875,0)" xlink:href="#cl"/><use transform="matrix(0.0087890625,0,0,0.0087890625,75.6123046875,0)" xlink:href="#co"/><use transform="matrix(0.0087890625,0,0,0.0087890625,86.4140625,0)" xlink:href="#cp"/><use transform="matrix(0.0087890625,0,0,0.0087890625,97.2158203125,0)" xlink:href="#ch"/></g><path fill="#999" d="M1060-1016c0 191-128 285-295 323v4c154 18 262 91 313 209 14 35 21 72 21 110 0 277-194 390-478 390-292 0-457-129-493-382l186-17c24 161 121 250 307 250 172 1 298-80 291-247-8-208-220-239-446-233v-156c217 9 409-34 409-232 0-152-102-225-264-225-159 0-264 88-278 233l-181-14c33-239 196-367 461-367 264 0 447 102 447 354" id="cq"/><path fill="#999" d="M809-709c168 33 285 134 285 331 0 277-191 398-480 398-287 0-481-120-481-396 0-192 118-296 281-331v-4c-145-39-248-139-248-313 0-238 192-346 444-346 211 0 357 75 422 217 19 41 27 86 27 131 0 172-101 274-250 309v4zm-197-70c168 0 260-73 260-233 0-158-100-224-262-224-160 0-260 68-260 224 0 155 97 232 262 233zm4 664c194 1 291-91 291-280 0-172-115-249-297-249-178 0-291 85-291 253 0 186 106 275 297 276" id="cr"/><g id="P"><use transform="matrix(0.0087890625,0,0,0.0087890625,0,0)" xlink:href="#cq"/><use transform="matrix(0.0087890625,0,0,0.0087890625,10.8017578125,0)" xlink:href="#cr"/></g><path fill="#999" d="M473-1349c438-1 655 221 652 661C1122-268 945-8 532 0H162v-1349h311zm42 1193c308-4 416-205 418-532 2-330-131-509-459-505H353v1037h162" id="cs"/><path fill="#999" d="M1000-272c3 95 12 159 101 161 21 0 41-3 59-7V-6c-44 10-86 16-139 16-141 2-191-84-197-217h-6C748-76 648 20 446 20c-207 0-318-120-318-322 0-266 194-348 454-354l236-4c12-191-40-305-222-305-140 0-220 47-232 172l-188-17c33-204 181-292 423-292 255 0 401 118 401 364v466zm-683-27c0 109 63 184 175 182 166-3 259-96 306-217 24-65 20-120 20-200-232 7-501-28-501 235" id="ct"/><path fill="#999" d="M745-142h380V0H143v-142h422v-798H246v-142h499v940zM545-1292v-192h200v192H545" id="cu"/><path fill="#999" d="M873-819c-18-114-119-146-250-146-163 0-245 50-245 151 0 151 170 148 294 185 182 54 388 94 388 320 0 240-189 325-439 329-245 4-410-69-454-268l159-31c24 133 136 168 295 165 144-2 270-31 270-171 0-164-195-160-331-202-167-52-350-87-350-299 0-218 173-315 413-313 220 2 373 77 412 260" id="cv"/><path fill="#999" d="M168 279c222 39 310-114 368-290L66-1082h192c120 299 249 590 362 896 115-301 235-597 351-896h190L705 0c-65 164-130 320-275 396-67 36-177 35-262 18V279" id="cw"/><g id="Q"><use transform="matrix(0.0087890625,0,0,0.0087890625,0,0)" xlink:href="#cs"/><use transform="matrix(0.0087890625,0,0,0.0087890625,10.8017578125,0)" xlink:href="#ct"/><use transform="matrix(0.0087890625,0,0,0.0087890625,21.603515625,0)" xlink:href="#cu"/><use transform="matrix(0.0087890625,0,0,0.0087890625,32.4052734375,0)" xlink:href="#cv"/><use transform="matrix(0.0087890625,0,0,0.0087890625,43.20703125,0)" xlink:href="#cw"/></g><path fill="#999" d="M141-911c0-296 172-459 469-459 157 0 276 55 356 166s121 278 121 501c-1 324-87 567-297 677-134 70-367 56-475-22-71-52-117-126-145-226l172-27c34 111 103 176 238 176 187 0 261-138 304-298 16-65 24-141 25-227-59 121-177 199-350 199-275 0-418-184-418-460zm461 318c168 0 289-96 289-269 0-158-59-275-163-332-36-20-77-30-124-30-187 0-280 125-280 313s90 318 278 318" id="cx"/><g id="R"><use transform="matrix(0.0087890625,0,0,0.0087890625,0,0)" xlink:href="#cq"/><use transform="matrix(0.0087890625,0,0,0.0087890625,10.8017578125,0)" xlink:href="#cx"/></g><path fill="#999" d="M587-135c154 0 209-115 209-281v-777H485v-156h501v929C982-148 857 20 586 20c-254 0-368-136-410-370l187-31c24 134 77 246 224 246" id="cy"/><path fill="#999" d="M904-1102c199 0 220 177 220 381V0H956v-686c-3-114 0-215-60-264-70-33-125-4-158 71-26 56-39 140-39 252V0H531v-686c-3-114-1-215-61-264-78-41-136 24-157 84-24 69-39 159-39 259V0H105c-3-360 6-732-6-1082h149c6 50 3 123 8 175 36-100 83-195 216-195 135 0 166 79 196 196 42-105 93-196 236-196" id="cz"/><g id="S"><use transform="matrix(0.0087890625,0,0,0.0087890625,0,0)" xlink:href="#cy"/><use transform="matrix(0.0087890625,0,0,0.0087890625,10.8017578125,0)" xlink:href="#cu"/><use transform="matrix(0.0087890625,0,0,0.0087890625,21.603515625,0)" xlink:href="#cz"/><use transform="matrix(0.0087890625,0,0,0.0087890625,32.4052734375,0)" xlink:href="#cz"/><use transform="matrix(0.0087890625,0,0,0.0087890625,43.20703125,0)" xlink:href="#cw"/></g><path fill="#999" d="M937-319V0H757v-319H103v-140l635-890h199v888h188v142H937zm-180-835L257-461h500v-693" id="cA"/><path fill="#999" d="M1065-1013c47 164 49 500-1 665C999-130 875 20 611 20c-377 0-484-300-487-695-2-245 41-425 141-551 77-98 191-144 352-144 261 0 386 140 448 357zM741-155c199-92 203-504 159-785-26-168-96-284-283-284-281 0-308 256-311 549-2 181 18 324 80 428 46 77 115 118 227 120 47 0 90-10 128-28" id="cB"/><g id="T"><use transform="matrix(0.0087890625,0,0,0.0087890625,0,0)" xlink:href="#cA"/><use transform="matrix(0.0087890625,0,0,0.0087890625,10.8017578125,0)" xlink:href="#cB"/></g><path fill="#999" d="M528 20c-247 0-343-132-343-381v-721h180v686c-4 177 45 284 224 277 194-8 279-136 279-336v-627h181c3 360-6 732 6 1082H885c-4-54-7-126-8-185h-3C809-64 714 20 528 20" id="cC"/><path fill="#999" d="M736-142h380V0H134v-142h422v-1200H267v-142h469v1342" id="cD"/><path fill="#999" d="M617-1102c355 0 481 238 477 599H322c5 222 84 388 301 388 144 0 244-59 284-166l158 45C1002-72 854 20 623 20c-342 0-490-220-490-568 0-346 151-554 484-554zm291 461c-18-192-90-328-289-328-194 0-287 128-295 328h584" id="cE"/><g id="U"><use transform="matrix(0.0087890625,0,0,0.0087890625,0,0)" xlink:href="#cy"/><use transform="matrix(0.0087890625,0,0,0.0087890625,10.8017578125,0)" xlink:href="#cC"/><use transform="matrix(0.0087890625,0,0,0.0087890625,21.603515625,0)" xlink:href="#cD"/><use transform="matrix(0.0087890625,0,0,0.0087890625,32.4052734375,0)" xlink:href="#cu"/><use transform="matrix(0.0087890625,0,0,0.0087890625,43.20703125,0)" xlink:href="#cE"/></g><path fill="#999" d="M148-1120c216-7 379-89 463-229h166v1204h353V0H157v-145h439v-1021c-79 124-254 184-448 194v-148" id="cF"/><g id="V"><use transform="matrix(0.0087890625,0,0,0.0087890625,0,0)" xlink:href="#cA"/><use transform="matrix(0.0087890625,0,0,0.0087890625,10.8017578125,0)" xlink:href="#cF"/></g><path fill="#999" d="M650-1214c-281 0-336 244-336 533 0 295 60 546 347 546 188 0 263-142 322-282l159 65C1058-155 935 20 659 20c-401 0-546-295-546-701 0-407 135-689 536-689 264 0 391 146 466 335l-168 65c-47-129-127-244-297-244" id="cG"/><path fill="#999" d="M839-1102c70 0 148 7 206 17v167c-112-18-268-36-363 15-129 69-208 203-208 395V0H294c-10-367 32-789-52-1082h171c21 75 41 161 48 250h5c67-152 152-270 373-270" id="cH"/><g id="W"><use transform="matrix(0.0087890625,0,0,0.0087890625,0,0)" xlink:href="#cG"/><use transform="matrix(0.0087890625,0,0,0.0087890625,10.8017578125,0)" xlink:href="#ct"/><use transform="matrix(0.0087890625,0,0,0.0087890625,21.603515625,0)" xlink:href="#cH"/><use transform="matrix(0.0087890625,0,0,0.0087890625,32.4052734375,0)" xlink:href="#cD"/></g><path fill="#0c7cba" d="M980-287V0H712v-287H71v-211l595-851h314v853h188v209H980zM712-496c2-204-7-417 9-609-118 224-277 405-414 609h405" id="cI"/><path fill="#0c7cba" d="M135-968c34-256 187-402 480-402 217 0 371 75 441 220 45 93 40 219-8 308-114 212-348 323-508 488-38 39-66 80-85 123h654V0H123v-195c112-245 321-399 515-560 57-48 107-96 142-157 14-26 22-53 22-80-1-104-73-156-185-154-131 2-181 74-199 194" id="cJ"/><g id="X"><use transform="matrix(0.0087890625,0,0,0.0087890625,0,0)" xlink:href="#cI"/><use transform="matrix(0.0087890625,0,0,0.0087890625,10.8017578125,0)" xlink:href="#cJ"/></g><path fill="#0c7cba" d="M1019-446c-6 296-159 466-455 466-288 0-421-169-462-422l291-43c13 79 35 137 65 176s66 58 108 58c112 0 159-101 159-228v-679H424v-231h595v903" id="cK"/><path fill="#0c7cba" d="M616-1102c361 0 521 202 521 560 0 354-171 562-527 562C259 20 92-192 92-542c0-351 169-560 524-560zm-9 930c200-2 236-165 236-370 0-199-27-367-223-367-195 0-233 146-233 367 0 129 18 223 55 282s92 88 165 88" id="cL"/><path fill="#0c7cba" d="M424-1484c-2 206 5 424-8 618h4c67-145 160-234 348-236 251-3 335 167 336 416V0H824v-621c0-150-23-276-173-270-163 7-227 142-227 312V0H143v-1484h281" id="cM"/><path fill="#0c7cba" d="M768-1103c247 0 336 167 336 416V0H824v-619c-3-164-24-273-171-273-164 0-229 142-229 312V0H143c-4-359 9-736-8-1082h268c7 63 12 146 13 215h4c67-145 160-236 348-236" id="cN"/><g id="Y"><use transform="matrix(0.0087890625,0,0,0.0087890625,0,0)" xlink:href="#cK"/><use transform="matrix(0.0087890625,0,0,0.0087890625,10.8017578125,0)" xlink:href="#cL"/><use transform="matrix(0.0087890625,0,0,0.0087890625,21.603515625,0)" xlink:href="#cM"/><use transform="matrix(0.0087890625,0,0,0.0087890625,32.4052734375,0)" xlink:href="#cN"/></g><path fill="#7ab648" d="M980-287V0H712v-287H71v-211l595-851h314v853h188v209H980zM712-496c2-204-7-417 9-609-118 224-277 405-414 609h405" id="cO"/><path fill="#7ab648" d="M788-691c191 26 337 112 337 315 0 286-214 399-510 399-306 0-483-128-522-391l286-25c18 124 91 190 235 188 132-2 223-58 223-188 0-176-191-182-378-179v-227c176 5 345-9 345-176 0-115-82-171-200-171s-198 55-206 169l-281-20c34-252 213-373 492-373 224 0 381 74 451 224 20 43 29 89 29 136 0 195-130 279-301 315v4" id="cP"/><g id="Z"><use transform="matrix(0.0087890625,0,0,0.0087890625,0,0)" xlink:href="#cO"/><use transform="matrix(0.0087890625,0,0,0.0087890625,10.8017578125,0)" xlink:href="#cP"/></g><path fill="#7ab648" d="M211 0v-1349h295v1121h616V0H211" id="cQ"/><path fill="#7ab648" d="M1113-274C1038-96 884 20 626 20c-352 0-526-209-526-566 0-358 185-556 530-556 358 0 496 251 499 615H395c5 180 68 319 245 319 102 0 186-45 208-129zM857-663c-6-177-128-307-315-247-94 30-141 121-145 247h460" id="cR"/><path fill="#7ab648" d="M616-1102c361 0 521 202 521 560 0 354-171 562-527 562C259 20 92-192 92-542c0-351 169-560 524-560zm-9 930c200-2 236-165 236-370 0-199-27-367-223-367-195 0-233 146-233 367 0 129 18 223 55 282s92 88 165 88" id="cS"/><path fill="#7ab648" d="M768-1103c247 0 336 167 336 416V0H824v-619c-3-164-24-273-171-273-164 0-229 142-229 312V0H143c-4-359 9-736-8-1082h268c7 63 12 146 13 215h4c67-145 160-236 348-236" id="cT"/><g id="aa"><use transform="matrix(0.0087890625,0,0,0.0087890625,0,0)" xlink:href="#cQ"/><use transform="matrix(0.0087890625,0,0,0.0087890625,10.8017578125,0)" xlink:href="#cR"/><use transform="matrix(0.0087890625,0,0,0.0087890625,21.603515625,0)" xlink:href="#cS"/><use transform="matrix(0.0087890625,0,0,0.0087890625,32.4052734375,0)" xlink:href="#cT"/></g><path d="M30 0v-248h33v221h125V0H30" id="cU"/><g id="ab"><use transform="matrix(0.05,0,0,0.05,0,0)" xlink:href="#aJ"/><use transform="matrix(0.05,0,0,0.05,5,0)" xlink:href="#av"/><use transform="matrix(0.05,0,0,0.05,8.95,0)" xlink:href="#aD"/><use transform="matrix(0.05,0,0,0.05,14.899999999999999,0)" xlink:href="#aN"/><use transform="matrix(0.05,0,0,0.05,23.9,0)" xlink:href="#ay"/><use transform="matrix(0.05,0,0,0.05,28.899999999999995,0)" xlink:href="#aO"/><use transform="matrix(0.05,0,0,0.05,38.9,0)" xlink:href="#ax"/><use transform="matrix(0.05,0,0,0.05,48.9,0)" xlink:href="#aP"/><use transform="matrix(0.05,0,0,0.05,58.900000000000006,0)" xlink:href="#aH"/><use transform="matrix(0.05,0,0,0.05,73.85,0)" xlink:href="#aw"/><use transform="matrix(0.05,0,0,0.05,83.85,0)" xlink:href="#bY"/><use transform="matrix(0.05,0,0,0.05,94.35,0)" xlink:href="#cU"/><use transform="matrix(0.05,0,0,0.05,104.34999999999998,0)" xlink:href="#aw"/><use transform="matrix(0.05,0,0,0.05,114.34999999999998,0)" xlink:href="#aK"/><use transform="matrix(0.05,0,0,0.05,124.34999999999998,0)" xlink:href="#ax"/><use transform="matrix(0.05,0,0,0.05,134.35,0)" xlink:href="#aR"/><use transform="matrix(0.05,0,0,0.05,139.35,0)" xlink:href="#aR"/><use transform="matrix(0.05,0,0,0.05,144.35,0)" xlink:href="#aR"/></g><g id="ac"><use transform="matrix(0.05,0,0,0.05,0,0)" xlink:href="#aG"/><use transform="matrix(0.05,0,0,0.05,8.950000000000001,0)" xlink:href="#aw"/><use transform="matrix(0.05,0,0,0.05,18.950000000000003,0)" xlink:href="#aD"/><use transform="matrix(0.05,0,0,0.05,24.900000000000002,0)" xlink:href="#aH"/><use transform="matrix(0.05,0,0,0.05,39.85,0)" xlink:href="#av"/><use transform="matrix(0.05,0,0,0.05,43.800000000000004,0)" xlink:href="#ax"/><use transform="matrix(0.05,0,0,0.05,53.800000000000004,0)" xlink:href="#aP"/><use transform="matrix(0.05,0,0,0.05,63.800000000000004,0)" xlink:href="#ay"/><use transform="matrix(0.05,0,0,0.05,68.80000000000001,0)" xlink:href="#aw"/></g><path d="M33 0v-248h34V0H33" id="cV"/><path d="M190 0L58-211 59 0H30v-248h39L202-35l-2-213h31V0h-41" id="cW"/><path d="M233-177c-1 41-23 64-60 70L243 0h-38l-65-103H63V0H30v-248c88 3 205-21 203 71zM63-129c60-2 137 13 137-47 0-61-80-42-137-45v92" id="cX"/><g id="ad"><use transform="matrix(0.05,0,0,0.05,5,0)" xlink:href="#cV"/><use transform="matrix(0.05,0,0,0.05,10,0)" xlink:href="#cW"/><use transform="matrix(0.05,0,0,0.05,22.950000000000003,0)" xlink:href="#aC"/><use transform="matrix(0.05,0,0,0.05,34.95,0)" xlink:href="#aT"/><use transform="matrix(0.05,0,0,0.05,46.95,0)" xlink:href="#cX"/><use transform="matrix(0.05,0,0,0.05,59.550000000000004,0)" xlink:href="#aG"/></g><g id="ae"><use transform="matrix(0.05,0,0,0.05,0,0)" xlink:href="#cV"/><use transform="matrix(0.05,0,0,0.05,5,0)" xlink:href="#cW"/><use transform="matrix(0.05,0,0,0.05,17.950000000000003,0)" xlink:href="#aG"/><use transform="matrix(0.05,0,0,0.05,28.55,0)" xlink:href="#bX"/></g><g id="af"><use transform="matrix(0.05,0,0,0.05,0,0)" xlink:href="#aR"/><use transform="matrix(0.05,0,0,0.05,5,0)" xlink:href="#aR"/><use transform="matrix(0.05,0,0,0.05,10,0)" xlink:href="#aR"/></g><g id="ag"><use transform="matrix(0.05,0,0,0.05,0,0)" xlink:href="#aA"/><use transform="matrix(0.05,0,0,0.05,16.599999999999998,0)" xlink:href="#aD"/><use transform="matrix(0.05,0,0,0.05,22.549999999999997,0)" xlink:href="#av"/><use transform="matrix(0.05,0,0,0.05,26.499999999999996,0)" xlink:href="#ay"/><use transform="matrix(0.05,0,0,0.05,31.499999999999996,0)" xlink:href="#aw"/></g><g id="ah"><use transform="matrix(0.05,0,0,0.05,0,0)" xlink:href="#aQ"/><use transform="matrix(0.05,0,0,0.05,10,0)" xlink:href="#aP"/><use transform="matrix(0.05,0,0,0.05,20,0)" xlink:href="#ay"/><use transform="matrix(0.05,0,0,0.05,25,0)" xlink:href="#aP"/></g><g id="ai"><use transform="matrix(0.05,0,0,0.05,5,0)" xlink:href="#bZ"/><use transform="matrix(0.05,0,0,0.05,14,0)" xlink:href="#aK"/><use transform="matrix(0.05,0,0,0.05,24,0)" xlink:href="#aS"/><use transform="matrix(0.05,0,0,0.05,34,0)" xlink:href="#ax"/></g><g id="aj"><use transform="matrix(0.05,0,0,0.05,5,0)" xlink:href="#cU"/><use transform="matrix(0.05,0,0,0.05,15,0)" xlink:href="#aw"/><use transform="matrix(0.05,0,0,0.05,25,0)" xlink:href="#aK"/><use transform="matrix(0.05,0,0,0.05,35,0)" xlink:href="#ax"/></g><g id="ak"><use transform="matrix(0.05,0,0,0.05,0,0)" xlink:href="#cX"/><use transform="matrix(0.05,0,0,0.05,12.950000000000001,0)" xlink:href="#aw"/><use transform="matrix(0.05,0,0,0.05,22.950000000000003,0)" xlink:href="#aP"/><use transform="matrix(0.05,0,0,0.05,32.95,0)" xlink:href="#aQ"/></g><path fill="#c92d39" d="M165-50V0h-47v-50H5v-38l105-160h55v161h33v37h-33zm-47-37l2-116L46-87h72" id="cY"/><path fill="#c92d39" d="M128-127c34 4 56 21 59 58 7 91-148 94-172 28-4-9-6-17-7-26l51-5c1 24 16 35 40 36 23 0 39-12 38-36-1-31-31-36-65-34v-40c32 2 59-3 59-33 0-20-13-33-34-33s-33 13-35 32l-50-3c6-44 37-68 86-68 50 0 83 20 83 66 0 35-22 52-53 58" id="cZ"/><g id="am"><use transform="matrix(0.05,0,0,0.05,0,0)" xlink:href="#cY"/><use transform="matrix(0.05,0,0,0.05,10,0)" xlink:href="#cZ"/></g><path d="M155-56V0h-30v-56H8v-25l114-167h33v167h35v25h-35zm-30-156c-27 46-58 90-88 131h88v-131" id="da"/><path d="M126-127c33 6 58 20 58 59 0 88-139 92-164 29-3-8-5-16-6-25l32-3c6 27 21 44 54 44 32 0 52-15 52-46 0-38-36-46-79-43v-28c39 1 72-4 72-42 0-27-17-43-46-43-28 0-47 15-49 41l-32-3c6-42 35-63 81-64 48-1 79 21 79 65 0 36-21 52-52 59" id="db"/><g id="ao"><use transform="matrix(0.05,0,0,0.05,0,0)" xlink:href="#da"/><use transform="matrix(0.05,0,0,0.05,10,0)" xlink:href="#db"/></g><path d="M179-190L93 31C79 59 56 82 12 73V49c39 6 53-20 64-50L1-190h34L92-34l54-156h33" id="dc"/><g id="ap"><use transform="matrix(0.05,0,0,0.05,0,0)" xlink:href="#cc"/><use transform="matrix(0.05,0,0,0.05,12.950000000000001,0)" xlink:href="#av"/><use transform="matrix(0.05,0,0,0.05,16.900000000000002,0)" xlink:href="#aN"/><use transform="matrix(0.05,0,0,0.05,25.900000000000002,0)" xlink:href="#aM"/><use transform="matrix(0.05,0,0,0.05,35.900000000000006,0)" xlink:href="#au"/><use transform="matrix(0.05,0,0,0.05,39.85000000000001,0)" xlink:href="#aP"/><use transform="matrix(0.05,0,0,0.05,49.85000000000001,0)" xlink:href="#dc"/></g><path d="M177-190C167-65 218 103 67 71c-23-6-38-20-44-43l32-5c15 47 100 32 89-28v-30C133-14 115 1 83 1 29 1 15-40 15-95c0-56 16-97 71-98 29-1 48 16 59 35 1-10 0-23 2-32h30zM94-22c36 0 50-32 50-73 0-42-14-75-50-75-39 0-46 34-46 75s6 73 46 73" id="dd"/><g id="aq"><use transform="matrix(0.05,0,0,0.05,0,0)" xlink:href="#bW"/><use transform="matrix(0.05,0,0,0.05,12,0)" xlink:href="#aP"/><use transform="matrix(0.05,0,0,0.05,22,0)" xlink:href="#dd"/><use transform="matrix(0.05,0,0,0.05,32,0)" xlink:href="#aw"/></g><path d="M18-100v-36l175-74v27L42-118l151 64v27" id="de"/><path d="M63-70H37l-4-178h34zM33 0v-35h34V0H33" id="df"/><path d="M137-103V0h-34v-103L8-248h37l75 118 75-118h37" id="dg"/><g id="ar"><use transform="matrix(0.05,0,0,0.05,0,0)" xlink:href="#de"/><use transform="matrix(0.05,0,0,0.05,10.5,0)" xlink:href="#df"/><use transform="matrix(0.05,0,0,0.05,15.5,0)" xlink:href="#cc"/><use transform="matrix(0.05,0,0,0.05,28.450000000000003,0)" xlink:href="#bX"/><use transform="matrix(0.05,0,0,0.05,42.45,0)" xlink:href="#at"/><use transform="matrix(0.05,0,0,0.05,55.400000000000006,0)" xlink:href="#aG"/><use transform="matrix(0.05,0,0,0.05,66.35000000000001,0)" xlink:href="#dg"/><use transform="matrix(0.05,0,0,0.05,78.35000000000001,0)" xlink:href="#bW"/><use transform="matrix(0.05,0,0,0.05,90.35000000000001,0)" xlink:href="#aT"/></g><path d="M18-27v-27l151-64-151-65v-27l175 74v36" id="dh"/><g id="as"><use transform="matrix(0.05,0,0,0.05,0,0)" xlink:href="#aS"/><use transform="matrix(0.05,0,0,0.05,10,0)" xlink:href="#ay"/><use transform="matrix(0.05,0,0,0.05,15,0)" xlink:href="#aH"/><use transform="matrix(0.05,0,0,0.05,29.950000000000003,0)" xlink:href="#au"/><use transform="matrix(0.05,0,0,0.05,33.900000000000006,0)" xlink:href="#dh"/><use transform="matrix(0.05,0,0,0.05,44.400000000000006,0)" xlink:href="#aR"/><use transform="matrix(0.05,0,0,0.05,49.400000000000006,0)" xlink:href="#aR"/><use transform="matrix(0.05,0,0,0.05,54.400000000000006,0)" xlink:href="#aR"/></g></defs></g></svg>