<svg xmlns="http://www.w3.org/2000/svg" xmlns:xlink="http://www.w3.org/1999/xlink" width="420" height="368"><g transform="translate(-320 -180)"><path d="M0 0h1537v900.16H0z" fill="#fff"/><path d="M395.68 442.52c2.4-1.4 6.25-1.4 8.64 0l51.36 29.96c2.4 1.4 2.4 3.65 0 5.04l-51.36 29.96c-2.4 1.4-6.25 1.4-8.64 0l-51.36-29.96c-2.4-1.4-2.4-3.65 0-5.04z" stroke="#666" stroke-width="2" fill="url(#a)"/><use xlink:href="#b" transform="matrix(1,0,0,1,345,445) translate(55 35.4)"/><path d="M460 355c0 19.33-26.86 35-60 35s-60-15.67-60-35 26.86-35 60-35 60 15.67 60 35z" stroke="#666" stroke-width="2" fill="url(#c)"/><use xlink:href="#b" transform="matrix(1,0,0,1,345,325) translate(55 35.4)"/><path d="M340 265c0 2.76 2.24 5 5 5h110c2.76 0 5-2.24 5-5v-60c0-2.76-2.24-5-5-5H345c-2.76 0-5 2.24-5 5z" stroke="#666" stroke-width="2" fill="url(#d)"/><use xlink:href="#b" transform="matrix(1,0,0,1,345,205) translate(55 35.4)"/><path d="M480 215c0-2.76 2.24-5 5-5h230c2.76 0 5 2.24 5 5v50c0 2.76-2.24 5-5 5H485c-2.76 0-5-2.24-5-5z" fill="none"/><use xlink:href="#e" transform="matrix(1,0,0,1,485,215) translate(0 33)"/><use xlink:href="#f" transform="matrix(1,0,0,1,485,215) translate(111.00000000000003 33)"/><path d="M480 335c0-2.76 2.24-5 5-5h230c2.76 0 5 2.24 5 5v50c0 2.76-2.24 5-5 5H485c-2.76 0-5-2.24-5-5z" fill="none"/><use xlink:href="#g" transform="matrix(1,0,0,1,485,335) translate(0 33)"/><path d="M480 427c0-2.76 2.24-5 5-5h230c2.76 0 5 2.24 5 5v96c0 2.76-2.24 5-5 5H485c-2.76 0-5-2.24-5-5z" fill="none"/><use xlink:href="#h" transform="matrix(1,0,0,1,485,427) translate(0 56.5)"/><defs><linearGradient gradientUnits="userSpaceOnUse" id="a" x1="460" y1="440" x2="460" y2="510"><stop offset="0%" stop-color="#6fc5ef"/><stop offset="51.5%" stop-color="#3aa6dd"/><stop offset="100%" stop-color="#1f80b1"/></linearGradient><linearGradient gradientUnits="userSpaceOnUse" id="c" x1="460" y1="320" x2="460" y2="390"><stop offset="0%" stop-color="#6fc5ef"/><stop offset="51.5%" stop-color="#3aa6dd"/><stop offset="100%" stop-color="#1f80b1"/></linearGradient><linearGradient gradientUnits="userSpaceOnUse" id="d" x1="460" y1="200" x2="460" y2="270"><stop offset="0%" stop-color="#6fc5ef"/><stop offset="51.5%" stop-color="#3aa6dd"/><stop offset="100%" stop-color="#1f80b1"/></linearGradient><path fill="#333" d="M30 0v-248h187v28H63v79h144v27H63v87h162V0H30" id="i"/><path fill="#333" d="M117-194c89-4 53 116 60 194h-32v-121c0-31-8-49-39-48C34-167 62-67 57 0H25l-1-190h30c1 10-1 24 2 32 11-22 29-35 61-36" id="j"/><path fill="#333" d="M59-47c-2 24 18 29 38 22v24C64 9 27 4 27-40v-127H5v-23h24l9-43h21v43h35v23H59v120" id="k"/><path fill="#333" d="M24-231v-30h32v30H24zM24 0v-190h32V0H24" id="l"/><path fill="#333" d="M179-190L93 31C79 59 56 82 12 73V49c39 6 53-20 64-50L1-190h34L92-34l54-156h33" id="m"/><g id="e"><use transform="matrix(0.11111111111111113,0,0,0.11111111111111113,0,0)" xlink:href="#i"/><use transform="matrix(0.11111111111111113,0,0,0.11111111111111113,26.66666666666667,0)" xlink:href="#j"/><use transform="matrix(0.11111111111111113,0,0,0.11111111111111113,48.8888888888889,0)" xlink:href="#k"/><use transform="matrix(0.11111111111111113,0,0,0.11111111111111113,60.000000000000014,0)" xlink:href="#l"/><use transform="matrix(0.11111111111111113,0,0,0.11111111111111113,68.7777777777778,0)" xlink:href="#k"/><use transform="matrix(0.11111111111111113,0,0,0.11111111111111113,79.88888888888891,0)" xlink:href="#m"/></g><path fill="#333" d="M127-220V0H93v-220H8v-28h204v28h-85" id="n"/><path fill="#333" d="M115-194c55 1 70 41 70 98S169 2 115 4C84 4 66-9 55-30l1 105H24l-1-265h31l2 30c10-21 28-34 59-34zm-8 174c40 0 45-34 45-75s-6-73-45-74c-42 0-51 32-51 76 0 43 10 73 51 73" id="o"/><path fill="#333" d="M100-194c63 0 86 42 84 106H49c0 40 14 67 53 68 26 1 43-12 49-29l28 8c-11 28-37 45-77 45C44 4 14-33 15-96c1-61 26-98 85-98zm52 81c6-60-76-77-97-28-3 7-6 17-6 28h103" id="p"/><g id="f"><use transform="matrix(0.11111111111111113,0,0,0.11111111111111113,0,0)" xlink:href="#n"/><use transform="matrix(0.11111111111111113,0,0,0.11111111111111113,22.111111111111118,0)" xlink:href="#m"/><use transform="matrix(0.11111111111111113,0,0,0.11111111111111113,42.11111111111112,0)" xlink:href="#o"/><use transform="matrix(0.11111111111111113,0,0,0.11111111111111113,64.33333333333334,0)" xlink:href="#p"/></g><path fill="#333" d="M205 0l-28-72H64L36 0H1l101-248h38L239 0h-34zm-38-99l-47-123c-12 45-31 82-46 123h93" id="q"/><path fill="#333" d="M114-163C36-179 61-72 57 0H25l-1-190h30c1 12-1 29 2 39 6-27 23-49 58-41v29" id="r"/><path fill="#333" d="M115-194c53 0 69 39 70 98 0 66-23 100-70 100C84 3 66-7 56-30L54 0H23l1-261h32v101c10-23 28-34 59-34zm-8 174c40 0 45-34 45-75 0-40-5-75-45-74-42 0-51 32-51 76 0 43 10 73 51 73" id="s"/><path fill="#333" d="M84 4C-5 8 30-112 23-190h32v120c0 31 7 50 39 49 72-2 45-101 50-169h31l1 190h-30c-1-10 1-25-2-33-11 22-28 36-60 37" id="t"/><g id="g"><use transform="matrix(0.11111111111111113,0,0,0.11111111111111113,0,0)" xlink:href="#q"/><use transform="matrix(0.11111111111111113,0,0,0.11111111111111113,26.66666666666667,0)" xlink:href="#k"/><use transform="matrix(0.11111111111111113,0,0,0.11111111111111113,37.777777777777786,0)" xlink:href="#k"/><use transform="matrix(0.11111111111111113,0,0,0.11111111111111113,48.8888888888889,0)" xlink:href="#r"/><use transform="matrix(0.11111111111111113,0,0,0.11111111111111113,62.11111111111112,0)" xlink:href="#l"/><use transform="matrix(0.11111111111111113,0,0,0.11111111111111113,70.88888888888891,0)" xlink:href="#s"/><use transform="matrix(0.11111111111111113,0,0,0.11111111111111113,93.11111111111114,0)" xlink:href="#t"/><use transform="matrix(0.11111111111111113,0,0,0.11111111111111113,115.33333333333339,0)" xlink:href="#k"/><use transform="matrix(0.11111111111111113,0,0,0.11111111111111113,126.4444444444445,0)" xlink:href="#p"/></g><path fill="#333" d="M233-177c-1 41-23 64-60 70L243 0h-38l-65-103H63V0H30v-248c88 3 205-21 203 71zM63-129c60-2 137 13 137-47 0-61-80-42-137-45v92" id="u"/><path fill="#333" d="M24 0v-261h32V0H24" id="v"/><path fill="#333" d="M141-36C126-15 110 5 73 4 37 3 15-17 15-53c-1-64 63-63 125-63 3-35-9-54-41-54-24 1-41 7-42 31l-33-3c5-37 33-52 76-52 45 0 72 20 72 64v82c-1 20 7 32 28 27v20c-31 9-61-2-59-35zM48-53c0 20 12 33 32 33 41-3 63-29 60-74-43 2-92-5-92 41" id="w"/><path fill="#333" d="M100-194c62-1 85 37 85 99 1 63-27 99-86 99S16-35 15-95c0-66 28-99 85-99zM99-20c44 1 53-31 53-75 0-43-8-75-51-75s-53 32-53 75 10 74 51 75" id="x"/><path fill="#333" d="M135-143c-3-34-86-38-87 0 15 53 115 12 119 90S17 21 10-45l28-5c4 36 97 45 98 0-10-56-113-15-118-90-4-57 82-63 122-42 12 7 21 19 24 35" id="y"/><path fill="#333" d="M106-169C34-169 62-67 57 0H25v-261h32l-1 103c12-21 28-36 61-36 89 0 53 116 60 194h-32v-121c2-32-8-49-39-48" id="z"/><g id="h"><use transform="matrix(0.11111111111111113,0,0,0.11111111111111113,0,0)" xlink:href="#u"/><use transform="matrix(0.11111111111111113,0,0,0.11111111111111113,28.777777777777782,0)" xlink:href="#p"/><use transform="matrix(0.11111111111111113,0,0,0.11111111111111113,51.00000000000001,0)" xlink:href="#v"/><use transform="matrix(0.11111111111111113,0,0,0.11111111111111113,59.77777777777779,0)" xlink:href="#w"/><use transform="matrix(0.11111111111111113,0,0,0.11111111111111113,82.00000000000001,0)" xlink:href="#k"/><use transform="matrix(0.11111111111111113,0,0,0.11111111111111113,93.11111111111113,0)" xlink:href="#l"/><use transform="matrix(0.11111111111111113,0,0,0.11111111111111113,101.88888888888891,0)" xlink:href="#x"/><use transform="matrix(0.11111111111111113,0,0,0.11111111111111113,124.11111111111113,0)" xlink:href="#j"/><use transform="matrix(0.11111111111111113,0,0,0.11111111111111113,146.33333333333337,0)" xlink:href="#y"/><use transform="matrix(0.11111111111111113,0,0,0.11111111111111113,166.33333333333337,0)" xlink:href="#z"/><use transform="matrix(0.11111111111111113,0,0,0.11111111111111113,188.5555555555556,0)" xlink:href="#l"/><use transform="matrix(0.11111111111111113,0,0,0.11111111111111113,197.33333333333337,0)" xlink:href="#o"/></g></defs></g></svg>