<svg xmlns="http://www.w3.org/2000/svg" xmlns:xlink="http://www.w3.org/1999/xlink" width="360" height="200"><g transform="translate(-440 -260)"><path d="M0 0h1537v900.16H0z" fill="#fff"/><path d="M780 360c0 44.18-71.63 80-160 80s-160-35.82-160-80 71.63-80 160-80 160 35.82 160 80z" stroke="#666" stroke-width="2" fill="#fff"/><use xlink:href="#a" transform="matrix(1,0,0,1,465,285) translate(0 80.33333333333334)"/><use xlink:href="#b" transform="matrix(1,0,0,1,465,285) translate(29.629629629629633 80.33333333333334)"/><path d="M760 360c0 38.66-49.25 70-110 70s-110-31.34-110-70 49.25-70 110-70 110 31.34 110 70z" stroke="#666" stroke-width="2" fill="#fff"/><use xlink:href="#c" transform="matrix(1,0,0,1,545,295) translate(0 70.33333333333334)"/><use xlink:href="#b" transform="matrix(1,0,0,1,545,295) translate(29.629629629629633 70.33333333333334)"/><path d="M740 360c0 27.6-26.86 50-60 50s-60-22.4-60-50 26.86-50 60-50 60 22.4 60 50z" stroke="#666" stroke-width="2" fill="#fff"/><g><use xlink:href="#d" transform="matrix(1,0,0,1,625,315) translate(0 50.333333333333336)"/><use xlink:href="#b" transform="matrix(1,0,0,1,625,315) translate(29.629629629629633 50.333333333333336)"/></g><defs><path fill="#333" d="M126-127c33 6 58 20 58 59 0 88-139 92-164 29-3-8-5-16-6-25l32-3c6 27 21 44 54 44 32 0 52-15 52-46 0-38-36-46-79-43v-28c39 1 72-4 72-42 0-27-17-43-46-43-28 0-47 15-49 41l-32-3c6-42 35-63 81-64 48-1 79 21 79 65 0 36-21 52-52 59" id="e"/><path fill="#333" d="M33 0v-38h34V0H33" id="f"/><g id="a"><use transform="matrix(0.07407407407407408,0,0,0.07407407407407408,0,0)" xlink:href="#e"/><use transform="matrix(0.07407407407407408,0,0,0.07407407407407408,14.814814814814817,0)" xlink:href="#f"/></g><path fill="#333" d="M190 0L58-211 59 0H30v-248h39L202-35l-2-213h31V0h-41" id="g"/><path fill="#333" d="M63-220v92h138v28H63V0H30v-248h175v28H63" id="h"/><g id="b"><use transform="matrix(0.07407407407407408,0,0,0.07407407407407408,0,0)" xlink:href="#g"/><use transform="matrix(0.07407407407407408,0,0,0.07407407407407408,19.185185185185187,0)" xlink:href="#h"/></g><path fill="#333" d="M101-251c82-7 93 87 43 132L82-64C71-53 59-42 53-27h129V0H18c2-99 128-94 128-182 0-28-16-43-45-43s-46 15-49 41l-32-3c6-41 34-60 81-64" id="i"/><g id="c"><use transform="matrix(0.07407407407407408,0,0,0.07407407407407408,0,0)" xlink:href="#i"/><use transform="matrix(0.07407407407407408,0,0,0.07407407407407408,14.814814814814817,0)" xlink:href="#f"/></g><path fill="#333" d="M27 0v-27h64v-190l-56 39v-29l58-41h29v221h61V0H27" id="j"/><g id="d"><use transform="matrix(0.07407407407407408,0,0,0.07407407407407408,0,0)" xlink:href="#j"/><use transform="matrix(0.07407407407407408,0,0,0.07407407407407408,14.814814814814817,0)" xlink:href="#f"/></g></defs></g></svg>