<svg xmlns="http://www.w3.org/2000/svg" xmlns:xlink="http://www.w3.org/1999/xlink" width="322" height="190"><g transform="translate(-517 -234)"><path d="M0 0h1323.2v1870.4H0z" fill="#fff"/><path d="M600 274h160" stroke="#999" stroke-width="2" fill="none"/><path d="M611 284h-2v-20h2zM621 284h-2v-20h2zM760.2 264.4l-.2.6v.12L742.24 274l17.76 8.88v.12l.12.76-.57 1.13-21.8-10.9 21.8-10.9z" fill="#999"/><path d="M740 274l-.5 3.16-1.43 2.75-2.16 2.17-2.74 1.42-3.16.5-3.16-.5-2.75-1.43-2.17-2.16-1.42-2.74-.5-3.16.5-3.16 1.43-2.75 2.16-2.17 2.74-1.42 3.16-.5 3.16.5 2.75 1.43 2.17 2.16 1.42 2.74z" fill="#fff"/><path d="M733.48 263.55l3.02 1.56 2.4 2.4 1.55 3.02.54 3.32-1 .16 1 .16-.55 3.32-1.56 3.02-2.4 2.4-3.02 1.55-3.48.56-3.48-.55-3.02-1.56-2.4-2.4-1.55-3.02L719 274l.55-3.48 1.56-3.02 2.4-2.4 3.02-1.55L730 263zm-6.32 1.92l-2.47 1.28-1.95 1.94-1.28 2.46L721 274l.47 2.84 1.28 2.47 1.94 1.95 2.46 1.28 2.84.46 2.84-.47 2.47-1.28 1.95-1.94 1.28-2.46.46-2.84-.47-2.84-1.28-2.47-1.94-1.95-2.46-1.28L730 265z" fill="#999"/><path d="M600 314h160" stroke="#999" stroke-width="2" fill="none"/><path d="M611 324h-2v-20h2z" fill="#999"/><path d="M640 314l-.5 3.16-1.43 2.75-2.16 2.17-2.74 1.42-3.16.5-3.16-.5-2.75-1.43-2.17-2.16-1.42-2.74-.5-3.16.5-3.16 1.43-2.75 2.16-2.17 2.74-1.42 3.16-.5 3.16.5 2.75 1.43 2.17 2.16 1.42 2.74z" fill="#fff"/><path d="M633.48 303.55l3.02 1.56 2.4 2.4 1.55 3.02.54 3.32-1 .16 1 .16-.55 3.32-1.56 3.02-2.4 2.4-3.02 1.55-3.48.56-3.48-.55-3.02-1.56-2.4-2.4-1.55-3.02L619 314l.55-3.48 1.56-3.02 2.4-2.4 3.02-1.55L630 303zm-6.32 1.92l-2.47 1.28-1.95 1.94-1.28 2.46L621 314l.47 2.84 1.28 2.47 1.94 1.95 2.46 1.28 2.84.46 2.84-.47 2.47-1.28 1.95-1.94 1.28-2.46.46-2.84-.47-2.84-1.28-2.47-1.94-1.95-2.46-1.28L630 305zM760.2 304.4l-.2.6v.12L742.24 314l17.76 8.88v.12l.12.76-.57 1.13-21.8-10.9 21.8-10.9z" fill="#999"/><path d="M740 314l-.5 3.16-1.43 2.75-2.16 2.17-2.74 1.42-3.16.5-3.16-.5-2.75-1.43-2.17-2.16-1.42-2.74-.5-3.16.5-3.16 1.43-2.75 2.16-2.17 2.74-1.42 3.16-.5 3.16.5 2.75 1.43 2.17 2.16 1.42 2.74z" fill="#fff"/><path d="M733.48 303.55l3.02 1.56 2.4 2.4 1.55 3.02.54 3.32-1 .16 1 .16-.55 3.32-1.56 3.02-2.4 2.4-3.02 1.55-3.48.56-3.48-.55-3.02-1.56-2.4-2.4-1.55-3.02L719 314l.55-3.48 1.56-3.02 2.4-2.4 3.02-1.55L730 303zm-6.32 1.92l-2.47 1.28-1.95 1.94-1.28 2.46L721 314l.47 2.84 1.28 2.47 1.94 1.95 2.46 1.28 2.84.46 2.84-.47 2.47-1.28 1.95-1.94 1.28-2.46.46-2.84-.47-2.84-1.28-2.47-1.94-1.95-2.46-1.28L730 305z" fill="#999"/><path d="M600 354h160" stroke="#999" stroke-width="2" fill="none"/><path d="M611 364h-2v-20h2zM621 364h-2v-20h2zM760.2 344.4l-.2.6v.12L742.24 354l17.76 8.88v.12l.12.76-.57 1.13-21.8-10.9 21.8-10.9z" fill="#999"/><path d="M741 364h-2v-20h2z" fill="#999"/><path d="M600 394h160" stroke="#999" stroke-width="2" fill="none"/><path d="M611 404h-2v-20h2zM621 404h-2v-20h2zM751 404h-2v-20h2z" fill="#999"/><path d="M740 394l-.5 3.16-1.43 2.75-2.16 2.17-2.74 1.42-3.16.5-3.16-.5-2.75-1.43-2.17-2.16-1.42-2.74-.5-3.16.5-3.16 1.43-2.75 2.16-2.17 2.74-1.42 3.16-.5 3.16.5 2.75 1.43 2.17 2.16 1.42 2.74z" fill="#fff"/><path d="M733.48 383.55l3.02 1.56 2.4 2.4 1.55 3.02.54 3.32-1 .16 1 .16-.55 3.32-1.56 3.02-2.4 2.4-3.02 1.55-3.48.56-3.48-.55-3.02-1.56-2.4-2.4-1.55-3.02L719 394l.55-3.48 1.56-3.02 2.4-2.4 3.02-1.55L730 383zm-6.32 1.92l-2.47 1.28-1.95 1.94-1.28 2.46L721 394l.47 2.84 1.28 2.47 1.94 1.95 2.46 1.28 2.84.46 2.84-.47 2.47-1.28 1.95-1.94 1.28-2.46.46-2.84-.47-2.84-1.28-2.47-1.94-1.95-2.46-1.28L730 385z" fill="#999"/><path d="M540 385c0-2.76 2.24-5 5-5h50c2.76 0 5 2.24 5 5v18c0 2.76-2.24 5-5 5h-50c-2.76 0-5-2.24-5-5z" fill="none"/><use xlink:href="#a" transform="matrix(1,0,0,1,545,385) translate(6.481481481481481 17.77777777777778)"/><path d="M760 345c0-2.76 2.24-5 5-5h50c2.76 0 5 2.24 5 5v18c0 2.76-2.24 5-5 5h-50c-2.76 0-5-2.24-5-5z" fill="none"/><use xlink:href="#b" transform="matrix(1,0,0,1,765,345) translate(4.660493827160494 17.77777777777778)"/><path d="M540 345c0-2.76 2.24-5 5-5h50c2.76 0 5 2.24 5 5v18c0 2.76-2.24 5-5 5h-50c-2.76 0-5-2.24-5-5z" fill="none"/><use xlink:href="#a" transform="matrix(1,0,0,1,545,345) translate(6.481481481481481 17.77777777777778)"/><path d="M760 305c0-2.76 2.24-5 5-5h50c2.76 0 5 2.24 5 5v18c0 2.76-2.24 5-5 5h-50c-2.76 0-5-2.24-5-5z" fill="none"/><use xlink:href="#c" transform="matrix(1,0,0,1,765,305) translate(4.660493827160494 17.77777777777778)"/><path d="M540 305c0-2.76 2.24-5 5-5h50c2.76 0 5 2.24 5 5v18c0 2.76-2.24 5-5 5h-50c-2.76 0-5-2.24-5-5z" fill="none"/><use xlink:href="#d" transform="matrix(1,0,0,1,545,305) translate(6.481481481481481 17.77777777777778)"/><path d="M540 265c0-2.76 2.24-5 5-5h50c2.76 0 5 2.24 5 5v18c0 2.76-2.24 5-5 5h-50c-2.76 0-5-2.24-5-5z" fill="none"/><use xlink:href="#a" transform="matrix(1,0,0,1,545,265) translate(6.481481481481481 17.77777777777778)"/><path d="M760 265c0-2.76 2.24-5 5-5h50c2.76 0 5 2.24 5 5v18c0 2.76-2.24 5-5 5h-50c-2.76 0-5-2.24-5-5z" fill="none"/><use xlink:href="#c" transform="matrix(1,0,0,1,765,265) translate(4.660493827160494 17.77777777777778)"/><path d="M760 385c0-2.76 2.24-5 5-5h50c2.76 0 5 2.24 5 5v18c0 2.76-2.24 5-5 5h-50c-2.76 0-5-2.24-5-5z" fill="none"/><use xlink:href="#d" transform="matrix(1,0,0,1,765,385) translate(6.481481481481481 17.77777777777778)"/><defs><path fill="#333" d="M27 0v-27h64v-190l-56 39v-29l58-41h29v221h61V0H27" id="e"/><path fill="#333" d="M33 0v-38h34V0H33" id="f"/><g id="a"><use transform="matrix(0.06172839506172839,0,0,0.06172839506172839,0,0)" xlink:href="#e"/><use transform="matrix(0.06172839506172839,0,0,0.06172839506172839,12.345679012345679,0)" xlink:href="#f"/><use transform="matrix(0.06172839506172839,0,0,0.06172839506172839,18.51851851851852,0)" xlink:href="#f"/><use transform="matrix(0.06172839506172839,0,0,0.06172839506172839,24.691358024691358,0)" xlink:href="#e"/></g><path fill="#333" d="M190 0L58-211 59 0H30v-248h39L202-35l-2-213h31V0h-41" id="g"/><g id="b"><use transform="matrix(0.06172839506172839,0,0,0.06172839506172839,0,0)" xlink:href="#e"/><use transform="matrix(0.06172839506172839,0,0,0.06172839506172839,12.345679012345679,0)" xlink:href="#f"/><use transform="matrix(0.06172839506172839,0,0,0.06172839506172839,18.51851851851852,0)" xlink:href="#f"/><use transform="matrix(0.06172839506172839,0,0,0.06172839506172839,24.691358024691358,0)" xlink:href="#g"/></g><path fill="#333" d="M101-251c68 0 85 55 85 127S166 4 100 4C33 4 14-52 14-124c0-73 17-127 87-127zm-1 229c47 0 54-49 54-102s-4-102-53-102c-51 0-55 48-55 102 0 53 5 102 54 102" id="h"/><g id="c"><use transform="matrix(0.06172839506172839,0,0,0.06172839506172839,0,0)" xlink:href="#h"/><use transform="matrix(0.06172839506172839,0,0,0.06172839506172839,12.345679012345679,0)" xlink:href="#f"/><use transform="matrix(0.06172839506172839,0,0,0.06172839506172839,18.51851851851852,0)" xlink:href="#f"/><use transform="matrix(0.06172839506172839,0,0,0.06172839506172839,24.691358024691358,0)" xlink:href="#g"/></g><g id="d"><use transform="matrix(0.06172839506172839,0,0,0.06172839506172839,0,0)" xlink:href="#h"/><use transform="matrix(0.06172839506172839,0,0,0.06172839506172839,12.345679012345679,0)" xlink:href="#f"/><use transform="matrix(0.06172839506172839,0,0,0.06172839506172839,18.51851851851852,0)" xlink:href="#f"/><use transform="matrix(0.06172839506172839,0,0,0.06172839506172839,24.691358024691358,0)" xlink:href="#e"/></g></defs></g></svg>